<?xml version="1.0" encoding="UTF-8"?>
<svg width="52px" height="49px" viewBox="0 0 52 49" version="1.1" xmlns="http://www.w3.org/2000/svg" xmlns:xlink="http://www.w3.org/1999/xlink">
    <!-- Generator: Sketch 54.1 (76490) - https://sketchapp.com -->
    <title>美食</title>
    <desc>Created with Sketch.</desc>
    <defs>
        <linearGradient x1="50%" y1="17.8636285%" x2="50%" y2="100%" id="linearGradient-1">
            <stop stop-color="#FAF6EA" stop-opacity="0" offset="0%"></stop>
            <stop stop-color="#999999" offset="100%"></stop>
        </linearGradient>
        <path d="M31.5,0.866025404 L54.4807621,14.1339746 C55.4089653,14.669873 55.9807621,15.660254 55.9807621,16.7320508 L55.9807621,43.2679492 C55.9807621,44.339746 55.4089653,45.330127 54.4807621,45.8660254 L31.5,59.1339746 C30.5717968,59.669873 29.4282032,59.669873 28.5,59.1339746 L5.51923789,45.8660254 C4.59103466,45.330127 4.01923789,44.339746 4.01923789,43.2679492 L4.01923789,16.7320508 C4.01923789,15.660254 4.59103466,14.669873 5.51923789,14.1339746 L28.5,0.866025404 C29.4282032,0.330127019 30.5717968,0.330127019 31.5,0.866025404 Z" id="path-2"></path>
    </defs>
    <g id="首页-固定组件-分类/搜索" stroke="none" stroke-width="1" fill="none" fill-rule="evenodd">
        <g id="美食" transform="translate(-4.000000, -11.000000)">
            <mask id="mask-3" fill="white">
                <use xlink:href="#path-2"></use>
            </mask>
            <use id="多边形" fill="url(#linearGradient-1)" xlink:href="#path-2"></use>
            <g id="分组-3" opacity="0.4" mask="url(#mask-3)">
                <g transform="translate(15.000000, 11.000000)">
                    <g id="分组">
                        <path d="M0.265446412,5.71014043 L4.97172444,4.80040075 L5.00380243,4.96639312 L5.0455684,4.81052041 L6.40365672,5.17443049 L6.2742472,5.65739341 L4.91615888,5.29348332 L4.99381874,5.00365278 L0.715358065,5.83069389 L2.19545008,6.22728335 L2.14271514,6.42409282 L0.465565212,5.97470185 L0.465484334,8.30560188 L1.8327865,8.67636005 L1.80415406,8.78195267 L1.60127588,8.82469358 L0.261753156,8.46146809 L0.261848656,5.70917641 L0.265446412,5.71014043 Z" id="合并形状" fill="#000000" fill-rule="nonzero"></path>
                        <path d="M3.57672258,24.6298511 L3.37410826,24.6725365 L2.03435379,24.3092481 L2.0349159,8.1094393 L2.23863245,8.37496474 L2.23808497,24.1533819 L3.60538713,24.5241401 L3.57672258,24.6298511 Z" id="合并形状" fill="#000000" fill-rule="nonzero"></path>
                        <path d="M15.7204171,0.83214845 L19.4362086,0.0682826375 L19.4685996,0.247321821 L19.5133146,0.0804433655 L20.7565315,0.416276257 L20.627122,0.89923917 L19.383905,0.563406279 L19.4584088,0.285354541 L16.1888065,0.957495961 L17.5444432,1.32028314 L17.4917083,1.51588522 L15.8145583,1.06769285 L15.8144772,3.40740005 L17.1817793,3.77815822 L17.1531469,3.88375092 L16.9502688,3.92649179 L15.610746,3.56326627 L15.6108418,0.802824579 L15.7204171,0.83214845 Z" id="合并形状" fill="#000000" fill-rule="nonzero"></path>
                        <path d="M7.74004315,6.65349537 L26.6902981,2.81381725 L26.7236275,2.98628534 L26.7671286,2.82393691 L28.125217,3.18784699 L27.9958074,3.6708099 L26.6377191,3.30689982 L26.7155067,3.01659257 L8.18212867,6.77180358 L9.67010799,7.17000748 L9.61737309,7.36560956 L7.94022312,6.91741719 L7.94014193,9.2571244 L9.3074441,9.62788257 L9.27881164,9.73347527 L9.07593362,9.77621614 L7.73641076,9.41299062 L7.73650654,6.65254892 L7.74004315,6.65349537 Z" id="合并形状" fill="#000000" fill-rule="nonzero"></path>
                        <path d="M8.89010648,23.2239054 L8.68722847,23.2666463 L7.3477056,22.9034207 L7.34780139,20.1429791 L9.28140283,20.6604376 L9.22866794,20.8560397 L7.55151796,20.4078473 L7.55143678,22.7475545 L8.91873894,23.1183127 L8.89010648,23.2239054 Z M28.3721303,16.4011742 L28.2427208,16.8841371 L26.8846324,16.520227 L27.014042,16.0372641 L28.3721303,16.4011742 Z M16.4597985,18.2296411 L16.4597985,18.4378158 L7.38684924,20.3446133 L7.34818965,20.1445634 L16.4597985,18.2296411 Z M17.8897148,17.9291257 L26.9379877,16.0275143 L26.9766473,16.2275642 L17.8784669,18.1396643 L17.8897148,17.9291257 Z" id="合并形状" fill="#000000" fill-rule="nonzero"></path>
                        <polygon id="路径-63" fill="#000000" fill-rule="nonzero" points="16.2530479 16.7517312 16.7330479 16.7517312 16.7330479 18.3839511 16.2530479 18.3839511"></polygon>
                        <path d="M7.74297774,11.4280027 L16.4612994,9.66207697 L16.4612994,9.66484042 L16.4612994,9.8699575 L8.18377261,11.5465988 L9.67661813,11.9461049 L9.62388324,12.141707 L7.94673327,11.6935146 L7.94667011,13.5135093 L9.31397228,13.8842675 L9.28534106,13.9898556 L9.08245285,14.0325986 L7.74293894,13.6693755 L7.74301669,11.4286464 Z M26.8127752,7.77323076 L17.8798399,9.58262728 L17.8910673,9.3724726 L26.7882867,7.57031046 L26.8213307,7.7413013 L26.8644501,7.58037726 L28.1316003,7.92083718 L28.0021908,8.40380009 L26.7350406,8.06334017 L26.8127752,7.77323076 Z" id="合并形状" fill="#000000" fill-rule="nonzero"></path>
                        <path d="M7.74297774,15.7649682 L16.4612994,13.9990424 L16.4612994,14.2069229 L8.18377261,15.8835642 L9.67661813,16.2830704 L9.62388324,16.4786724 L7.94673327,16.0304801 L7.94667011,17.8504747 L9.31397228,18.2212329 L9.28534106,18.326821 L9.08245285,18.3695641 L7.74293894,18.006341 L7.74301669,15.7656118 Z M26.8127752,12.1101962 L17.900789,13.9153494 L17.9082224,13.7762107 L17.5614127,13.7762107 L26.7882867,11.9072759 L26.8213307,12.0782667 L26.8644501,11.9173427 L28.1316003,12.2578026 L28.0021908,12.7407655 L26.7350406,12.4003056 L26.8127752,12.1101962 Z" id="合并形状" fill="#000000" fill-rule="nonzero"></path>
                        <polygon id="路径-63" fill="#000000" fill-rule="nonzero" points="16.2530479 12.4564155 16.7330479 12.4564155 16.7330479 14.0886354 16.2530479 14.0886354"></polygon>
                        <path d="M1.60494071,29.5361471 L1.4020627,29.578888 L0.0625398326,29.2156625 L0.0626356152,26.4552208 L1.99623706,26.9726793 L1.94350217,27.1682814 L0.266352194,26.7200891 L0.26627101,29.0597963 L1.63357317,29.4305544 L1.60494071,29.5361471 Z M30.0011135,20.8245371 L29.8717039,21.3075 L28.5136156,20.94359 L28.6430251,20.460627 L30.0011135,20.8245371 Z M0.265456212,26.5813683 L0.0630238771,26.4568051 L28.5670768,20.4505074 L28.6057364,20.6505573 L0.265456212,26.5813683 Z" id="合并形状" fill="#000000" fill-rule="nonzero"></path>
                        <path d="M3.77257695,31.3352757 L3.57009405,31.3779333 L2.4044212,31.0605349 L2.40449363,28.973161 L2.60821018,29.2386865 L2.60815237,30.9046687 L3.80120688,31.2296923 L3.77257695,31.3352757 Z" id="合并形状" fill="#000000" fill-rule="nonzero"></path>
                        <path d="M14.799017,31.3357164 L14.5965847,31.3783634 L13.4308674,31.0609529 L13.4310294,26.3913668 L13.634746,26.6568922 L13.6345986,30.9050867 L14.8276531,31.2301103 L14.799017,31.3357164 Z" id="合并形状" fill="#000000" fill-rule="nonzero"></path>
                        <path d="M25.2296359,31.3343845 L25.0272467,31.3770224 L23.8614916,31.0596016 L23.8617301,24.1847805 L24.0654467,24.4503059 L24.0652227,30.9037354 L25.2582772,31.228759 L25.2296359,31.3343845 Z" id="合并形状" fill="#000000" fill-rule="nonzero"></path>
                        <polygon id="路径-63" fill="#000000" fill-rule="nonzero" points="16.2530479 8.1610998 16.7330479 8.1610998 16.7330479 9.79331976 16.2530479 9.79331976"></polygon>
                        <path d="M20.5007977,7.47933253 L20.5007977,9.45314559 L28.056918,7.91025332 L28.056918,10.1574109 L20.5007977,11.7003032 L20.5007977,13.7916895 L28.056918,12.2487972 L28.056918,14.4959548 L20.5007977,16.0388471 L20.5007977,18.0266745 L28.2949917,16.3901346 L28.2949917,19.1510262 L8.6877831,23.2679342 L8.6877831,20.5070427 L17.5475441,18.6467666 L17.5475441,16.6418751 L9.08155026,18.3705554 L9.08155026,16.1233979 L17.5475441,14.3947175 L17.5475441,12.3033312 L9.08155026,14.0320115 L9.08155026,11.784854 L17.5475441,10.0561736 L17.5475441,8.08236055 L9.07299134,9.81278854 L9.07299134,7.05189696 L28.048359,3.17729632 L28.048359,5.9381879 L20.5007977,7.47933253 Z M6.32518018,7.91967263 L6.32518018,24.0137962 L3.37192652,24.6728093 L3.37192652,8.48536555 L1.59997433,8.8247813 L1.59141541,6.06444486 L6.32635813,5.16173957 L6.32635813,7.919447 L6.32518018,7.91967263 Z M17.5475441,26.1804488 L17.5475441,31.3778317 L14.5942904,31.3778317 L14.5942904,26.8020515 L6.52206375,28.5010989 L6.52206375,31.3778317 L3.5688101,31.3778317 L3.5688101,29.1227016 L1.40309075,29.5785436 L1.40309075,26.817652 L29.9244332,20.8144617 L29.9244332,23.5753533 L27.9823737,23.9841192 L27.9823737,31.3778317 L25.02912,31.3778317 L25.02912,24.6057219 L17.5475441,26.1804488 Z M16.9483344,1.16321739 L20.6801639,0.407504308 L20.6801639,3.16839589 L16.9483344,3.92410897 L16.9483344,1.16321739 Z" id="Combined-Shape" fill="#000000"></path>
                    </g>
                    <g id="分组-2" transform="translate(0.075567, 33.835031)">
                        <path d="M7.09749577,0.0421995927 L8.462267,0.0421995927 L8.462267,3.06369043 L7.88201996,3.10589002 L7.74498741,2.9297476 L7.70166922,2.7037901 L7.93069584,2.79283724 L7.98579186,2.05934012 L7.41279597,2.05934012 L7.32115168,3.10589002 L7.02770781,3.06369043 L7.09749577,0.0421995927 Z M7.56937028,0.379796334 L7.52282116,0.856651731 L8.03486146,0.808221829 L8.08141058,0.455755601 L7.56937028,0.379796334 Z M7.48473552,1.25754786 L7.45088161,1.64578411 L8.00523929,1.64578411 L8.03486146,1.2147668 L7.48473552,1.25754786 Z M8.68439753,0.0421995927 L10.0491688,0.0421995927 L10.0491688,3.06369043 L9.28857098,3.06369043 L9.28857098,2.80977493 L9.52525071,2.7037901 L9.57269363,2.05934012 L8.99969773,2.05934012 L8.90805344,3.10589002 L8.61460957,3.06369043 L8.68439753,0.0421995927 Z M9.15627204,0.379796334 L9.10972292,0.856651731 L9.62176322,0.808221829 L9.66831234,0.455755601 L9.15627204,0.379796334 Z M9.07163728,1.25754786 L9.03778338,1.64578411 L9.59214106,1.64578411 L9.62176322,1.2147668 L9.07163728,1.25754786 Z M13.2624763,1.64033827 L14.4120907,2.81893279 L14.2512846,3.004611 L12.983123,2.11585872 L12.9394458,3.10589002 L12.6093703,3.10589002 L12.5759156,2.33857459 L11.2175551,3.06369043 L11.1494207,2.81893279 L12.5551243,1.86170571 L12.548083,1.70020687 L11.1832746,1.81458248 L11.2175551,1.28708758 L12.0608393,1.28708758 L11.5260453,0.877751527 L12.0338539,0.689016581 L12.3297778,1.16470876 L12.1981368,1.28708758 L12.5300712,1.28708758 L12.4993377,0.58218579 L11.2175551,0.689016581 L11.289068,0.185678208 L12.4828632,0.204325542 L12.4739547,4.54747351e-13 L13.0728769,0.0814075612 L13.0670515,0.213450687 L14.2582881,0.232058056 L14.2582881,0.435585223 L13.6478392,0.486463382 L14.0100756,0.877751527 L13.4763324,1.28708758 L14.3697733,1.28708758 L14.3053128,1.55294501 L13.2624763,1.64033827 Z M13.0196859,1.28708758 L13.3219977,1.28708758 L13.2060453,1.20268839 L13.5737374,0.492639428 L13.0528192,0.536055614 L13.0196859,1.28708758 Z M18.1889988,0.498565661 L18.6438287,0.485295316 L18.6438287,0.738492872 L18.2347268,0.804804879 L18.2347268,1.18302505 L18.6311335,1.16892872 L18.6438287,1.43027546 L18.2347268,1.49800508 L18.2347268,1.95517129 L18.6438287,1.98866026 L18.6438287,2.23657841 L18.2347268,2.23657841 L18.2347268,2.61682859 L18.6607557,2.67545418 L18.6607557,2.92865173 L17.448978,2.92865173 L17.4491217,3.06274223 L17.0188413,3.10589002 C17.0188413,3.10589002 17.0367778,2.48386819 17.0726508,1.23982452 C17.0188904,1.34421735 16.9920103,1.39641376 16.9920103,1.39641376 L16.8890051,1.37516681 C16.9001244,1.40718036 16.9133311,1.44520411 16.9286253,1.48923801 C16.9286253,1.48923801 16.8416192,1.50337564 16.6676071,1.5316509 L16.6676071,3.06369043 L15.8897198,3.04781417 L15.8911848,2.72777208 C15.8911848,2.72777208 15.9244413,2.75657907 15.9909542,2.81419305 C15.9909542,2.81419305 16.0599309,2.79185986 16.1978841,2.74719348 C16.1978841,2.74719348 16.2123582,2.36510251 16.2413064,1.60092055 C16.1297571,1.61904621 16.0046298,1.63937816 15.8659245,1.6619164 L16.1280605,1.85678208 C15.7681503,2.68952071 15.5881952,3.10589002 15.5881952,3.10589002 L15.3643881,3.05285027 L15.7319042,1.68369337 C15.6262206,1.70086593 15.5135371,1.71917588 15.3938539,1.73862322 C15.3938539,1.73862322 15.463409,1.34722589 15.6025192,0.564431238 L15.3938539,0.595014257 L15.3938539,0.101279022 L16.862267,0.101279022 L16.862267,0.379796334 L16.6676071,0.408326664 L16.6676071,1.24844484 C16.7068707,1.24818522 16.747549,1.24791626 16.7896422,1.24763794 L17.1627204,1.77635684e-15 C17.4645844,0.123785472 17.6155164,0.185678208 17.6155164,0.185678208 C17.5546908,0.303790351 17.4983156,0.413260757 17.4463908,0.514089426 L17.4463973,0.52023217 L17.7297311,0.511965484 L17.7297311,0.185678208 L18.0373353,0.185678208 L18.1889988,0.498565661 Z M17.7418074,0.884702992 L17.4468391,0.932514897 L17.4471376,1.21103195 L17.7645471,1.19974477 L17.7418074,0.884702992 Z M17.7913734,1.57140526 L17.4475847,1.62832183 L17.4478659,1.89075909 L17.816603,1.9209438 L17.7913734,1.57140526 Z M17.8393854,2.23657841 L17.4482365,2.23657841 L17.448528,2.50864023 L17.8631409,2.56569488 L17.8393854,2.23657841 Z M16.2843555,0.464497919 L16.0420871,0.500005979 L15.8503595,1.25384849 C15.8503595,1.25384849 15.9850914,1.25295764 16.2545551,1.25117594 C16.2634431,1.01654828 16.2733766,0.754322271 16.2843555,0.46449792 Z M21.8168015,2.30293217 L22.8755668,2.82737271 L22.8036272,3.02571079 L21.4887031,2.67554369 L21.4449902,3.10589002 L21.0728463,3.10589002 L21.0436929,2.84242185 L19.6932997,3.06369043 L19.6128967,2.82737271 L20.9977282,2.42702643 L20.9902269,2.35923504 L19.6932997,2.44757637 L19.6932997,2.01714053 L20.9523731,2.01714053 L20.9374307,1.88210183 L21.5639033,1.93521121 L21.5555812,2.01714053 L22.790932,2.01714053 L22.790932,2.23657841 L21.8168015,2.30293217 Z M21.743628,0.256458945 L22.7359194,0.219437882 L22.7359194,0.426215886 L21.7514704,0.490577813 L21.7329999,0.658313646 L22.7359194,0.658313646 C22.7359194,0.796165648 22.7359194,0.86509165 22.7359194,0.86509165 L21.7034527,0.926639561 L21.6831067,1.11140785 L22.7359194,1.11140785 C22.7359194,1.23153522 22.7359194,1.2915989 22.7359194,1.2915989 L21.6552822,1.36408896 L21.6370293,1.52984891 L22.790932,1.59092464 L22.790932,1.80192261 L20.3982305,1.80192261 L20.4,1.88210183 L19.9081221,1.88210183 L19.9825249,0.970075127 L19.8153307,1.16892872 L19.6128967,1.0254501 L20.0826196,-3.05533376e-13 L20.6420384,0.185678208 L20.5449248,0.301180954 L21.2638887,0.274357373 L21.2019144,0.0517658031 C21.5510535,0.0172552677 21.7256231,-1.13686838e-13 21.7256231,-1.13686838e-13 L21.743628,0.256458945 Z M21.2508594,0.523307078 L20.371281,0.580812714 L20.3729914,0.658313646 L21.2585676,0.658313646 L21.2508594,0.523307078 Z M21.2753448,0.952160141 L20.3806536,1.00549492 L20.382991,1.11140785 L21.2844371,1.11140785 L21.2753448,0.952160141 Z M21.3002238,1.38790658 L20.3904402,1.44893565 L20.3907701,1.46388478 L21.3073317,1.51239812 L21.3002238,1.38790658 Z" id="合并形状" fill="#000000"></path>
                        <polygon id="路径-64" fill="#000000" points="0.0719470626 1.72716904 5.16936274 1.72716904 5.32312355 1.35641548 -6.1817218e-13 1.5010998"></polygon>
                        <polygon id="路径-65" fill="#000000" points="24.6347607 1.72932061 24.820864 1.35641548 29.8488665 1.41549491 29.8488665 1.60961303"></polygon>
                    </g>
                </g>
            </g>
        </g>
    </g>
</svg>