<svg xmlns="http://www.w3.org/2000/svg" xmlns:xlink="http://www.w3.org/1999/xlink" width="33" height="33" viewBox="0 0 33 33">
  <defs>
    <filter id="椭圆_123" x="0" y="0" width="33" height="33" filterUnits="userSpaceOnUse">
      <feOffset dy="2" input="SourceAlpha"/>
      <feGaussianBlur stdDeviation="2" result="blur"/>
      <feFlood flood-opacity="0.239"/>
      <feComposite operator="in" in2="blur"/>
      <feComposite in="SourceGraphic"/>
    </filter>
  </defs>
  <g id="即将开始icon" transform="translate(-117 -200)">
    <g transform="matrix(1, 0, 0, 1, 117, 200)" filter="url(#椭圆_123)">
      <circle id="椭圆_123-2" data-name="椭圆 123" cx="10.5" cy="10.5" r="10.5" transform="translate(6 4)" fill="#fff"/>
    </g>
    <path id="时间" d="M6.5,13A6.5,6.5,0,1,1,13,6.5,6.5,6.5,0,0,1,6.5,13Zm0-.65a.65.65,0,1,0-.65-.65.65.65,0,0,0,.65.65ZM1.3,5.85a.65.65,0,1,0,.65.65A.65.65,0,0,0,1.3,5.85ZM6.5.65a.65.65,0,1,0,.65.65A.65.65,0,0,0,6.5.65ZM8.9,3.07a.487.487,0,0,0-.671.158L6.8,5.538a1.1,1.1,0,0,0-.136-.013,1.123,1.123,0,0,0-.154.016L4.5,3.969a.35.35,0,0,0-.548.2A.659.659,0,0,0,4.1,4.91L5.662,6.133a1.125,1.125,0,0,0-.137.53,1.137,1.137,0,1,0,2.1-.6L9.055,3.74A.487.487,0,0,0,8.9,3.07Zm2.8,2.78a.65.65,0,1,0,.65.65.65.65,0,0,0-.65-.65Z" transform="translate(127 208)" fill="#ccc"/>
  </g>
</svg>
