<svg xmlns="http://www.w3.org/2000/svg" xmlns:xlink="http://www.w3.org/1999/xlink" width="82.055" height="28.451" viewBox="0 0 82.055 28.451">
  <defs>
    <filter id="即将开始" x="0" y="0" width="82.055" height="28.451" filterUnits="userSpaceOnUse">
      <feOffset dy="2" input="SourceAlpha"/>
      <feGaussianBlur stdDeviation="2" result="blur"/>
      <feFlood flood-opacity="0.239"/>
      <feComposite operator="in" in2="blur"/>
      <feComposite in="SourceGraphic"/>
    </filter>
  </defs>
  <g transform="matrix(1, 0, 0, 1, 0, 0)" filter="url(#即将开始)">
    <path id="即将开始-2" data-name="即将开始" d="M1.134-14.238H8.928v9.522H3.708V-.342H6.5Q6.39-1.314,6.255-2.25t-.3-1.872h2.52q.288,1.44.486,2.88t.342,3.168H1.134ZM12.708.054A5.163,5.163,0,0,0,13.779-1.4a4.462,4.462,0,0,0,.477-2.088v-8.172H12.42V1.926H9.792V-14.112H16.9v10.62A9.881,9.881,0,0,1,16.7-1.368,4.991,4.991,0,0,1,16.2.054ZM6.354-6.786V-8.478H3.708v1.692ZM3.708-10.494H6.354v-1.674H3.708ZM27.918-8.64q-.126-.306-.3-.684t-.369-.738H24.93V1.926H22.248v-5.76L18.756-1.08v-2.9l3.492-2.754V-7.866H20.106q-.126-.648-.279-1.35T19.5-10.629q-.171-.711-.351-1.386t-.36-1.251h2.16q.162.486.333,1.107t.351,1.278q.18.657.333,1.332t.279,1.287v-6.264H24.93v4.41a20.4,20.4,0,0,0,1.647-2.232,16.037,16.037,0,0,0,1.161-2.178h2.718q-.072.162-.144.315t-.162.315h5a10.109,10.109,0,0,1-.855,2.259A15.336,15.336,0,0,1,33.057-9.63,12.365,12.365,0,0,1,31.68-8.037a6.919,6.919,0,0,1-1.3,1.017H26.622q.63-.378,1.2-.783T28.89-8.64ZM29.664,1.926A5.32,5.32,0,0,0,30.69.333a5.656,5.656,0,0,0,.36-2.151V-4.032H25.47v-2.25h5.58v-.936h2.808v.936H35.19v2.25H33.858v2.214a8.094,8.094,0,0,1-.27,2.241,4.239,4.239,0,0,1-.738,1.5Zm-2.97-2.07q-.18-.738-.414-1.629a14.009,14.009,0,0,0-.5-1.575H28.53q.252.684.531,1.557A16.617,16.617,0,0,1,29.5-.144Zm2.34-11.682q-.252.414-.486.756h.7q.18.252.4.6t.414.747a8.959,8.959,0,0,0,.909-1.053,8.156,8.156,0,0,0,.657-1.053ZM40.1-7.578v-3.978H37.746V-13.95h14.49v2.394h-2.2v3.978h3.15V-5.13H50.04V1.926H47.088V-5.13H43.02A21.04,21.04,0,0,1,42.8-2.889q-.162,1.053-.387,1.953a14.981,14.981,0,0,1-.495,1.62,11.574,11.574,0,0,1-.54,1.242H38.034q.324-.576.657-1.314a16.078,16.078,0,0,0,.621-1.62A15.665,15.665,0,0,0,39.8-2.925a17.446,17.446,0,0,0,.27-2.205H36.81V-7.578Zm2.952,0h4.032v-3.978H43.056Zm16.38,9.5q-.216-.45-.441-.882T58.554.18q-.558.972-1.1,1.746H54.738Q55.4.99,56.025-.081a23.776,23.776,0,0,0,1.143-2.241q-.522-.918-1.08-1.854t-1.17-1.908q.162-.756.342-1.863t.36-2.3h-.828v-2.232h1.134q.09-.63.144-1.161t.09-.891h2.322q-.036.36-.108.891t-.162,1.161h3.456a29.341,29.341,0,0,1-.54,5.409,26.724,26.724,0,0,1-1.35,4.635q.576,1.062,1.134,2.151t1.08,2.205ZM70.812-6.7V1.926h-8.82V-6.7ZM61.506-7.47q.666-1.926,1.2-3.744t.855-3.312h2.718q-.288,1.35-.585,2.466t-.639,2.2H68.13q-.486-1.908-.99-3.636h2.448q.414,1.386.828,2.88t.774,3.15ZM64.6-.558h3.6V-4.176H64.6Zm-6.714-9.684q-.144,1.08-.306,2.043t-.27,1.539q.234.378.468.774t.486.81a23.378,23.378,0,0,0,.72-2.655,15.917,15.917,0,0,0,.324-2.511Z" transform="translate(4.87 18.53)" fill="#fff"/>
  </g>
</svg>
