<svg xmlns="http://www.w3.org/2000/svg" xmlns:xlink="http://www.w3.org/1999/xlink" width="99.768" height="28.451" viewBox="0 0 99.768 28.451">
  <defs>
    <filter id="正在进行中" x="0" y="0" width="99.768" height="28.451" filterUnits="userSpaceOnUse">
      <feOffset dy="2" input="SourceAlpha"/>
      <feGaussianBlur stdDeviation="2" result="blur"/>
      <feFlood flood-opacity="0.239"/>
      <feComposite operator="in" in2="blur"/>
      <feComposite in="SourceGraphic"/>
    </filter>
  </defs>
  <g transform="matrix(1, 0, 0, 1, 0, 0)" filter="url(#正在进行中)">
    <path id="正在进行中-2" data-name="正在进行中" d="M16.848-14.112v2.5H11.16v3.276h5.382V-5.8H11.16V-.558h6.03V1.908H.792V-.558H2.376v-8.82H5.418v8.82H8.136V-11.61H1.1v-2.5Zm6.372.846.522-1.26h2.916q-.126.324-.252.639t-.27.621h8.838v2.322H25.128Q24.318-9.2,23.382-7.4V1.926h-2.7V-5.022h-1.8q1.062-1.764,1.845-3.195t1.413-2.727H18.972v-2.322ZM28.188-.4V-4.662H24.48v-2.3h3.708v-3.1h2.718v3.1h3.708v2.3H30.906V-.4h4.158V1.89H24.048V-.4ZM43.524-7.9V-10.44H41.742v-2.43h1.782v-1.656h2.754v1.656h2.25v-1.656h2.736v1.656h1.53v2.43h-1.53V-7.9h1.854v2.448H51.264V-.918H48.528V-5.454h-2.34A13.666,13.666,0,0,1,45.7-2.862a10.741,10.741,0,0,1-.774,1.944H41.922a12.93,12.93,0,0,0,.972-2.124,10.816,10.816,0,0,0,.522-2.412H41.4V-7.9ZM41-10.692,40.068-.378h13.14v2.3H37.1L38.034-8.46H36.756v-2.232Zm-2.934-.864q-.144-.774-.315-1.449t-.405-1.341h2.772q.234.612.441,1.3t.387,1.494ZM46.278-7.9h2.25V-10.44h-2.25ZM63.7,1.926a4.958,4.958,0,0,0,.99-1.5,5.137,5.137,0,0,0,.414-2.115V-6.984H60.678V-9.468H71.244v2.484h-3.06v5.292A8.5,8.5,0,0,1,67.932.5a5.9,5.9,0,0,1-.54,1.422ZM54.666-4.752a24.762,24.762,0,0,0,1.485-2.583q.585-1.2,1.035-2.277h3.186q-.558,1.386-1.188,2.628v8.91H56.178V-4.752Zm16.11-9.234v2.394H61.11v-2.394ZM54.7-9.99q.774-1.242,1.413-2.376t1.107-2.16h3.15A24.328,24.328,0,0,1,59.22-12.15q-.612,1.1-1.3,2.16ZM79.416-2.61H73.422v-9.738h5.994v-2.16H82.53v2.16h6.03V-2.61H82.53V1.908H79.416ZM82.53-9.882v4.806h2.988V-9.882ZM76.446-5.076h2.97V-9.882h-2.97Z" transform="translate(5.21 18.53)" fill="#fff"/>
  </g>
</svg>
