<svg xmlns="http://www.w3.org/2000/svg" xmlns:xlink="http://www.w3.org/1999/xlink" width="33" height="33" viewBox="0 0 33 33">
  <defs>
    <filter id="椭圆_123" x="0" y="0" width="33" height="33" filterUnits="userSpaceOnUse">
      <feOffset dy="2" input="SourceAlpha"/>
      <feGaussianBlur stdDeviation="2" result="blur"/>
      <feFlood flood-opacity="0.239"/>
      <feComposite operator="in" in2="blur"/>
      <feComposite in="SourceGraphic"/>
    </filter>
  </defs>
  <g id="正在进行中icon" transform="translate(-117 -200)">
    <g transform="matrix(1, 0, 0, 1, 117, 200)" filter="url(#椭圆_123)">
      <circle id="椭圆_123-2" data-name="椭圆 123" cx="10.5" cy="10.5" r="10.5" transform="translate(6 4)" fill="#fff"/>
    </g>
    <path id="闪电" d="M4.291,1.111A1.632,1.632,0,0,1,5.808,0h1.75a.7.7,0,0,1,.7,1.053L6.8,4.5H9.308c1.283,0,1.634.819.817,1.755L4.642,12.693c-.408.468-.642.41-.467-.233L5.342,7.6H3.3a.8.8,0,0,1-.817-1.111Z" transform="translate(126.999 208)" fill="#ccc"/>
  </g>
</svg>
