<svg xmlns="http://www.w3.org/2000/svg" width="30.576" height="31.624" viewBox="0 0 30.576 31.624">
  <path id="参与拼团" d="M.336-3.9q.7-.48,1.536-1.16T3.52-6.48H.848v-2H5.472a3.617,3.617,0,0,0,.48-.624H8.976a5.935,5.935,0,0,1-.432.624H15.12v2H12.64Q13.3-5.9,14.024-5.3t1.5,1.2H12.208q-.384-.336-.784-.7t-.816-.76q-.928.656-1.816,1.2T6.864-3.3H3.008q.672-.32,1.264-.608t1.12-.576Q5.92-4.768,6.4-5.056t.96-.608h3.12q-.208-.192-.4-.392t-.4-.424H6.8q-.416.416-.832.816t-.808.736q-.392.336-.728.6T3.856-3.9Zm1.3-5.376q.912-.992,1.632-1.872a18.308,18.308,0,0,0,1.28-1.76H7.472q-.32.48-.6.9t-.6.832h4.256l-.88-1.328h2.544q.464.592,1.04,1.448T14.32-9.28ZM.608,1.712Q2.592,1.12,4.208.536t2.9-1.1q1.28-.52,2.24-.976t1.616-.824h4.384q-.72.464-1.672,1.016T11.624-.24Q10.528.32,9.352.832a24.548,24.548,0,0,1-2.328.88Zm1.5-2.784q.9-.3,1.848-.672T5.84-2.5q.928-.384,1.768-.784T9.12-4.048h3.824q-1.36.816-2.84,1.592T7.12-1.072ZM21.264-11.6H30.88v2.272h-9.9l-.24,1.808h9.648v5.072a9.421,9.421,0,0,1-.272,2.44,5.374,5.374,0,0,1-.784,1.72H26.192a6.415,6.415,0,0,0,.68-.864,4.715,4.715,0,0,0,.464-.928,5.423,5.423,0,0,0,.272-1.08A8.678,8.678,0,0,0,27.7-2.448V-5.216H17.712l1.056-7.7H21.44Zm5.584,8.16v2.288H16.656V-3.44ZM7.216,10.728V7.88H6V5.72H7.3q-.112-.416-.24-.84T6.8,4.088H9.408q.128.32.28.768t.28.864h1.3q.176-.416.328-.872t.232-.76h2.56q-.08.368-.208.8T13.9,5.72h1.28V7.88H14.016v2.848h1.312v2.224H14.016v5.76H11.5v-5.76H9.616a26.9,26.9,0,0,1-.336,3.312,13.824,13.824,0,0,1-.608,2.448H5.92a13.47,13.47,0,0,0,.832-2.536,19.08,19.08,0,0,0,.416-3.224H5.84V10.728ZM2.08,6.264V4.088h2.4V6.264H5.648V8.44H4.48v2.5L5.5,10.712v2.256l-1.024.224v1.552q0,.768-.056,1.344a9.515,9.515,0,0,1-.152,1.032,7.635,7.635,0,0,1-.224.84q-.128.384-.288.752H.96a8.253,8.253,0,0,0,.5-.88,6.215,6.215,0,0,0,.352-.912,6.025,6.025,0,0,0,.208-1.008,9.757,9.757,0,0,0,.064-1.168V13.688l-1.424.3V11.72l1.424-.288V8.44H.656V6.264Zm7.584,4.464H11.5V7.88H9.664ZM30.912,4.36V18.712H17.072V4.36ZM19.488,16.84h9.024V6.28H19.488Zm5.248-9.024v-1.1h2.272v1.1h.9V9.624h-.9v2.944a20.651,20.651,0,0,1-.1,2.072,4.513,4.513,0,0,1-.5,1.752H23.6a4.34,4.34,0,0,0,.872-1.728,8.434,8.434,0,0,0,.264-2.144v-2.9h-.784a31.7,31.7,0,0,1-.616,3.472,23.8,23.8,0,0,1-1.048,3.3H19.9A24.169,24.169,0,0,0,21.1,13.056a29.175,29.175,0,0,0,.744-3.432H20.176V7.816Z" transform="translate(-0.336 12.912)" fill="#eee"/>
</svg>
