<svg xmlns="http://www.w3.org/2000/svg" width="30.512" height="31.624" viewBox="0 0 30.512 31.624">
  <path id="拼团预告" d="M7.216-6.272V-9.12H6v-2.16H7.3q-.112-.416-.24-.84T6.8-12.912H9.408q.128.32.28.768t.28.864h1.3q.176-.416.328-.872t.232-.76h2.56q-.08.368-.208.8t-.272.832h1.28v2.16H14.016v2.848h1.312v2.224H14.016v5.76H11.5v-5.76H9.616A26.9,26.9,0,0,1,9.28-.736a13.824,13.824,0,0,1-.608,2.448H5.92A13.47,13.47,0,0,0,6.752-.824a19.08,19.08,0,0,0,.416-3.224H5.84V-6.272ZM2.08-10.736v-2.176h2.4v2.176H5.648V-8.56H4.48v2.5L5.5-6.288v2.256L4.48-3.808v1.552q0,.768-.056,1.344A9.515,9.515,0,0,1,4.272.12a7.635,7.635,0,0,1-.224.84q-.128.384-.288.752H.96a8.253,8.253,0,0,0,.5-.88A6.215,6.215,0,0,0,1.808-.08a6.025,6.025,0,0,0,.208-1.008A9.757,9.757,0,0,0,2.08-2.256V-3.312l-1.424.3V-5.28L2.08-5.568V-8.56H.656v-2.176ZM9.664-6.272H11.5V-9.12H9.664ZM30.912-12.64V1.712H17.072V-12.64ZM19.488-.16h9.024V-10.72H19.488Zm5.248-9.024v-1.1h2.272v1.1h.9v1.808h-.9v2.944a20.651,20.651,0,0,1-.1,2.072,4.513,4.513,0,0,1-.5,1.752H23.6a4.34,4.34,0,0,0,.872-1.728,8.434,8.434,0,0,0,.264-2.144v-2.9h-.784A31.7,31.7,0,0,1,23.336-3.9a23.8,23.8,0,0,1-1.048,3.3H19.9A24.169,24.169,0,0,0,21.1-3.944a29.175,29.175,0,0,0,.744-3.432H20.176V-9.184ZM1.2,18.712a4.531,4.531,0,0,0,.848-1.68,9.514,9.514,0,0,0,.288-2.56V10.824H.672V8.952H1.824q-.192-.56-.408-1.072T.992,6.936h2q.128.272.3.648t.344.84q.288-.672.488-1.232a7.388,7.388,0,0,0,.28-.944H.752V4.392H7.12q-.368,1.264-.76,2.416T5.552,8.952H7.3q-.128,1.344-.232,2.336t-.232,1.888H5.12q.144-.672.24-1.288t.128-1.064H4.7v3.648a12.744,12.744,0,0,1-.216,2.592,4.9,4.9,0,0,1-.632,1.648Zm14.032-14.4v1.9H12.4q-.064.24-.128.472t-.144.456h2.88v7.92H13.12V9.032H9.456v6.1H7.536V7.144H9.744q.1-.224.176-.464t.16-.464H7.328v-1.9Zm-2.448,14.4q-.32-.56-.608-1.112t-.56-1.144a7.351,7.351,0,0,1-.68,1.224,6.81,6.81,0,0,1-.872,1.032H6.976A9.724,9.724,0,0,0,8.512,17.3,8.1,8.1,0,0,0,9.52,15.848a6.053,6.053,0,0,0,.552-1.408,5.533,5.533,0,0,0,.168-1.312V9.464h2.1v3.6a7.763,7.763,0,0,1-.288,2.112h1.136A12.031,12.031,0,0,0,14.1,16.92q.576.928,1.184,1.792Zm17.536-6.48v6.48H17.712v-6.48ZM16.784,8.7q.512-1.216.856-2.3t.568-2.128h2.656a10.211,10.211,0,0,1-.24,1.168H22.9V4.088h2.656V5.432h4.976V7.544H25.552V9.256h5.616v2.1H16.816v-2.1H22.9V7.544h-2.88q-.112.288-.216.576t-.232.576Zm3.52,7.92h7.424V14.344H20.3Z" transform="translate(-0.656 12.912)" fill="#eee"/>
</svg>
