<svg xmlns="http://www.w3.org/2000/svg" width="37" height="37" viewBox="0 0 37 37">
  <g id="步骤_1" data-name="步骤 1" transform="translate(22661 14441)">
    <g id="路径_169" data-name="路径 169" transform="translate(-22661 -14441)" fill="none">
      <path d="M18.5,0A18.5,18.5,0,1,1,0,18.5,18.5,18.5,0,0,1,18.5,0Z" stroke="none"/>
      <path d="M 18.5 1 C 13.82558059692383 1 9.430940628051758 2.820320129394531 6.125629425048828 6.125629425048828 C 2.820320129394531 9.430940628051758 1 13.82558059692383 1 18.5 C 1 23.17441940307617 2.820320129394531 27.56906127929688 6.125629425048828 30.87437057495117 C 9.430940628051758 34.17967987060547 13.82558059692383 36 18.5 36 C 23.17441940307617 36 27.56906127929688 34.17967987060547 30.87437057495117 30.87437057495117 C 34.17967987060547 27.56906127929688 36 23.17441940307617 36 18.5 C 36 13.82558059692383 34.17967987060547 9.430940628051758 30.87437057495117 6.125629425048828 C 27.56906127929688 2.820320129394531 23.17441940307617 1 18.5 1 M 18.5 0 C 28.71726989746094 0 37 8.282730102539063 37 18.5 C 37 28.71726989746094 28.71726989746094 37 18.5 37 C 8.282730102539063 37 0 28.71726989746094 0 18.5 C 0 8.282730102539063 8.282730102539063 0 18.5 0 Z" stroke="none" fill="#ccc"/>
    </g>
    <g id="拼团" transform="translate(-22654.35 -14434.354)">
      <path id="路径_88" data-name="路径 88" d="M19.986,5.626H17.54A5.83,5.83,0,0,0,12.091.355a5.841,5.841,0,0,0-5.46,5.271H3.711A1.418,1.418,0,0,0,2.269,7.068V21.913a1.418,1.418,0,0,0,1.442,1.442H19.986a1.418,1.418,0,0,0,1.442-1.442V7.056A1.415,1.415,0,0,0,19.986,5.626Zm-7.9-4.314c2.151,0,4.113,1.962,4.5,4.314H7.588C7.966,3.274,9.928,1.312,12.091,1.312ZM20.459,21.9a.459.459,0,0,1-.485.485H3.711a.459.459,0,0,1-.485-.485V7.056a.459.459,0,0,1,.485-.485H19.986a.459.459,0,0,1,.485.485L20.459,21.9Z" fill="#504d4d"/>
      <path id="路径_89" data-name="路径 89" d="M15.578,12.138h1.336V11.37H15.282a13.3,13.3,0,0,0,.957-2.009l-.768-.284a16.175,16.175,0,0,1-1,2.293H10.684v.768h1.383v2.73H10.413v.768H11.9a11.563,11.563,0,0,1-.331,1.584,3.855,3.855,0,0,1-1.584,1.82l.485.721A4.116,4.116,0,0,0,12.245,17.8a8.4,8.4,0,0,0,.532-2.151h2.009v4.066H15.6V15.649h1.536V14.88H15.6V12.138h-.024Zm-.816,2.671H12.8v-2.73h1.962v2.73Z" fill="#4a4a4a"/>
      <path id="路径_90" data-name="路径 90" d="M13.1,10.933a20.384,20.384,0,0,0-1.146-1.82l-.674.343a13.351,13.351,0,0,1,1.146,1.82ZM10.176,13.8c-.378.236-.768.425-1.146.626V12.138h1.146V11.37H9.03V9.313H8.167V11.37H6.725v.816H8.167v2.636c-.532.189-1.052.378-1.631.532l.236.816a14.21,14.21,0,0,0,1.442-.532v2.872a.376.376,0,0,1-.425.425,5.281,5.281,0,0,1-.863-.047l.189.816h.957a.885.885,0,0,0,1-1V15.247a10.977,10.977,0,0,0,1.146-.626V13.8h-.047Z" fill="#4a4a4a"/>
    </g>
  </g>
</svg>
