<svg xmlns="http://www.w3.org/2000/svg" width="37" height="37" viewBox="0 0 37 37">
  <g id="步骤_2" data-name="步骤 2" transform="translate(22661 14441)">
    <g id="路径_170" data-name="路径 170" transform="translate(-22661 -14441)" fill="none">
      <path d="M18.5,0A18.5,18.5,0,1,1,0,18.5,18.5,18.5,0,0,1,18.5,0Z" stroke="none"/>
      <path d="M 18.5 1 C 13.82558059692383 1 9.430940628051758 2.820320129394531 6.125629425048828 6.125629425048828 C 2.820320129394531 9.430940628051758 1 13.82558059692383 1 18.5 C 1 23.17441940307617 2.820320129394531 27.56906127929688 6.125629425048828 30.87437057495117 C 9.430940628051758 34.17967987060547 13.82558059692383 36 18.5 36 C 23.17441940307617 36 27.56906127929688 34.17967987060547 30.87437057495117 30.87437057495117 C 34.17967987060547 27.56906127929688 36 23.17441940307617 36 18.5 C 36 13.82558059692383 34.17967987060547 9.430940628051758 30.87437057495117 6.125629425048828 C 27.56906127929688 2.820320129394531 23.17441940307617 1 18.5 1 M 18.5 0 C 28.71726989746094 0 37 8.282730102539063 37 18.5 C 37 28.71726989746094 28.71726989746094 37 18.5 37 C 8.282730102539063 37 0 28.71726989746094 0 18.5 C 0 8.282730102539063 8.282730102539063 0 18.5 0 Z" stroke="none" fill="#ccc"/>
    </g>
    <path id="邀请好友" d="M27.167,25.115H24.556v2.491a.368.368,0,0,1-.376.358H23.2a.367.367,0,0,1-.375-.358V25.115H20.213a.367.367,0,0,1-.376-.359v-.931a.368.368,0,0,1,.376-.36h2.613v-2.49a.368.368,0,0,1,.375-.359h.979a.368.368,0,0,1,.376.359v2.49h2.611a.37.37,0,0,1,.376.36v.931a.367.367,0,0,1-.376.359Zm-8.2-7.469a10.482,10.482,0,0,1,2.671,1.268.661.661,0,0,1,.3.557.677.677,0,0,1-.683.668.685.685,0,0,1-.4-.13l0,0A9.151,9.151,0,0,0,15.8,18.506a8.943,8.943,0,0,0-9.043,8.836.685.685,0,0,1-1.364,0,.563.563,0,0,1,0-.059,10.209,10.209,0,0,1,7.247-9.637,6.7,6.7,0,0,1-3.709-5.962A6.8,6.8,0,0,1,15.8,4.967a6.8,6.8,0,0,1,6.876,6.717,6.7,6.7,0,0,1-3.711,5.962ZM15.8,6.309a5.439,5.439,0,0,0-5.5,5.375,5.5,5.5,0,0,0,11,0,5.439,5.439,0,0,0-5.5-5.375Zm0,0" transform="translate(-22658.967 -14438.967)" fill="#4a4a4a"/>
  </g>
</svg>
