<svg xmlns="http://www.w3.org/2000/svg" width="37" height="37" viewBox="0 0 37 37">
  <g id="步骤_3" data-name="步骤 3" transform="translate(22661 14441)">
    <g id="路径_171" data-name="路径 171" transform="translate(-22661 -14441)" fill="none">
      <path d="M18.5,0A18.5,18.5,0,1,1,0,18.5,18.5,18.5,0,0,1,18.5,0Z" stroke="none"/>
      <path d="M 18.5 1 C 13.82558059692383 1 9.430940628051758 2.820320129394531 6.125629425048828 6.125629425048828 C 2.820320129394531 9.430940628051758 1 13.82558059692383 1 18.5 C 1 23.17441940307617 2.820320129394531 27.56906127929688 6.125629425048828 30.87437057495117 C 9.430940628051758 34.17967987060547 13.82558059692383 36 18.5 36 C 23.17441940307617 36 27.56906127929688 34.17967987060547 30.87437057495117 30.87437057495117 C 34.17967987060547 27.56906127929688 36 23.17441940307617 36 18.5 C 36 13.82558059692383 34.17967987060547 9.430940628051758 30.87437057495117 6.125629425048828 C 27.56906127929688 2.820320129394531 23.17441940307617 1 18.5 1 M 18.5 0 C 28.71726989746094 0 37 8.282730102539063 37 18.5 C 37 28.71726989746094 28.71726989746094 37 18.5 37 C 8.282730102539063 37 0 28.71726989746094 0 18.5 C 0 8.282730102539063 8.282730102539063 0 18.5 0 Z" stroke="none" fill="#ccc"/>
    </g>
    <path id="银行卡_支付_账单_付款_金钱_储存卡_" data-name="银行卡 支付 账单 付款 金钱 储存卡 " d="M23,8.323V5.448H2.875V8.323Zm0,1.438H2.875V20.542H23ZM2.875,4.011H23a1.438,1.438,0,0,1,1.438,1.438V20.542A1.438,1.438,0,0,1,23,21.979H2.875a1.438,1.438,0,0,1-1.438-1.438V5.448A1.438,1.438,0,0,1,2.875,4.011ZM5.75,12.636h4.313a.719.719,0,0,1,0,1.438H5.75a.719.719,0,0,1,0-1.438Zm0,2.875H8.625a.719.719,0,1,1,0,1.438H5.75a.719.719,0,1,1,0-1.438Z" transform="translate(-22655.438 -14435.495)" fill="#4a4a4a"/>
  </g>
</svg>
