<svg xmlns="http://www.w3.org/2000/svg" xmlns:xlink="http://www.w3.org/1999/xlink" width="37" height="37" viewBox="0 0 37 37">
  <defs>
    <clipPath id="clip-path">
      <rect id="矩形_106" data-name="矩形 106" width="23" height="23" transform="translate(-22654 -14434)" fill="#eee"/>
    </clipPath>
  </defs>
  <g id="组_284" data-name="组 284" transform="translate(22661 14441)">
    <g id="路径_172" data-name="路径 172" transform="translate(-22661 -14441)" fill="none">
      <path d="M18.5,0A18.5,18.5,0,1,1,0,18.5,18.5,18.5,0,0,1,18.5,0Z" stroke="none"/>
      <path d="M 18.5 1 C 13.82558059692383 1 9.430940628051758 2.820320129394531 6.125629425048828 6.125629425048828 C 2.820320129394531 9.430940628051758 1 13.82558059692383 1 18.5 C 1 23.17441940307617 2.820320129394531 27.56906127929688 6.125629425048828 30.87437057495117 C 9.430940628051758 34.17967987060547 13.82558059692383 36 18.5 36 C 23.17441940307617 36 27.56906127929688 34.17967987060547 30.87437057495117 30.87437057495117 C 34.17967987060547 27.56906127929688 36 23.17441940307617 36 18.5 C 36 13.82558059692383 34.17967987060547 9.430940628051758 30.87437057495117 6.125629425048828 C 27.56906127929688 2.820320129394531 23.17441940307617 1 18.5 1 M 18.5 0 C 28.71726989746094 0 37 8.282730102539063 37 18.5 C 37 28.71726989746094 28.71726989746094 37 18.5 37 C 8.282730102539063 37 0 28.71726989746094 0 18.5 C 0 8.282730102539063 8.282730102539063 0 18.5 0 Z" stroke="none" fill="#ccc"/>
    </g>
    <g id="蒙版组_26" data-name="蒙版组 26" clip-path="url(#clip-path)">
      <g id="成功" transform="translate(-22654 -14434)">
        <path id="路径_91" data-name="路径 91" d="M11.5,0A11.5,11.5,0,1,0,23,11.5,11.5,11.5,0,0,0,11.5,0Zm0,21.563A10.062,10.062,0,1,1,21.563,11.5,10.062,10.062,0,0,1,11.5,21.563Z" fill="#4a4a4a"/>
        <path id="路径_92" data-name="路径 92" d="M9.545,14.526,6.052,11.069,5.038,12.075l4.507,4.456L17.969,8.2,16.955,7.195Z" fill="#4a4a4a"/>
      </g>
    </g>
  </g>
</svg>
