<?xml version="1.0" standalone="no"?><!DOCTYPE svg PUBLIC "-//W3C//DTD SVG 1.1//EN" "http://www.w3.org/Graphics/SVG/1.1/DTD/svg11.dtd"><svg t="1565664226684" class="icon" viewBox="0 0 1024 1024" version="1.1" xmlns="http://www.w3.org/2000/svg" p-id="5920" xmlns:xlink="http://www.w3.org/1999/xlink" width="128" height="128"><defs><style type="text/css"></style></defs><path d="M512 0C229.717333 0 0 229.717333 0 512s229.717333 512 512 512 512-229.717333 512-512S794.282667 0 512 0z m0 957.218133C267.144533 957.218133 66.798933 756.855467 66.798933 512 66.798933 267.127467 267.127467 66.781867 512 66.781867c244.872533 0 445.218133 200.362667 445.218133 445.218133 0 244.872533-200.362667 445.218133-445.218133 445.218133z" fill="#FFFFFF" p-id="5921"></path><path d="M732.552533 307.2h79.633067L425.472 722.4832 204.8 489.984h94.1056c3.584 0 7.0144 1.348267 9.642667 3.754667l116.906666 107.741866 297.1648-290.218666a14.216533 14.216533 0 0 1 9.9328-4.0448z" fill="#FFFFFF" p-id="5922"></path></svg>