<?xml version="1.0" standalone="no"?><!DOCTYPE svg PUBLIC "-//W3C//DTD SVG 1.1//EN" "http://www.w3.org/Graphics/SVG/1.1/DTD/svg11.dtd"><svg t="1565664229840" class="icon" viewBox="0 0 1024 1024" version="1.1" xmlns="http://www.w3.org/2000/svg" p-id="6047" xmlns:xlink="http://www.w3.org/1999/xlink" width="128" height="128"><defs><style type="text/css"></style></defs><path d="M512 0C229.717333 0 0 229.717333 0 512s229.717333 512 512 512 512-229.717333 512-512S794.282667 0 512 0z m0 957.218133C267.144533 957.218133 66.798933 756.855467 66.798933 512 66.798933 267.127467 267.127467 66.781867 512 66.781867c244.872533 0 445.218133 200.362667 445.218133 445.218133 0 244.872533-200.362667 445.218133-445.218133 445.218133z" fill="#FFFFFF" p-id="6048"></path><path d="M512.1536 682.8544c18.705067 0 34.286933-19.114667 34.6624-42.666667l7.202133-384.1024a41.8816 41.8816 0 1 0-83.7632 0l7.202134 384.1024c0.443733 23.552 15.9744 42.666667 34.696533 42.666667z m-0.017067 42.666667c-22.749867 0-42.666667 19.9168-42.666666 42.683733 0 22.766933 19.9168 42.666667 42.666666 42.666667s42.666667-19.899733 42.666667-42.666667-19.950933-42.666667-42.666667-42.666667z" fill="#FFFFFF" p-id="6049"></path></svg>