<?xml version="1.0" standalone="no"?><!DOCTYPE svg PUBLIC "-//W3C//DTD SVG 1.1//EN" "http://www.w3.org/Graphics/SVG/1.1/DTD/svg11.dtd"><svg t="1565664222739" class="icon" viewBox="0 0 1024 1024" version="1.1" xmlns="http://www.w3.org/2000/svg" p-id="5793" xmlns:xlink="http://www.w3.org/1999/xlink" width="128" height="128"><defs><style type="text/css"></style></defs><path d="M512 0C229.717333 0 0 229.717333 0 512s229.717333 512 512 512 512-229.717333 512-512S794.282667 0 512 0z m0 957.218133C267.144533 957.218133 66.798933 756.855467 66.798933 512 66.798933 267.127467 267.127467 66.781867 512 66.781867c244.872533 0 445.218133 200.362667 445.218133 445.218133 0 244.872533-200.362667 445.218133-445.218133 445.218133z" fill="#FFFFFF" p-id="5794"></path><path d="M728.4736 357.3248L356.010667 712.874667l-65.5872-68.693334L662.869333 288.597333l65.5872 68.7104z m-362.461867-75.605333L721.578667 654.165333l-68.693334 65.5872L297.301333 347.306667l68.693334-65.5872z" fill="#FFFFFF" p-id="5795"></path></svg>