<?xml version="1.0" standalone="no"?><!DOCTYPE svg PUBLIC "-//W3C//DTD SVG 1.1//EN" "http://www.w3.org/Graphics/SVG/1.1/DTD/svg11.dtd"><svg t="1565664211037" class="icon" viewBox="0 0 1024 1024" version="1.1" xmlns="http://www.w3.org/2000/svg" p-id="5400" xmlns:xlink="http://www.w3.org/1999/xlink" width="128" height="128"><defs><style type="text/css"></style></defs><path d="M512 512m-512 0a512 512 0 1 0 1024 0 512 512 0 1 0-1024 0Z" fill="#FE7700" p-id="5401"></path><path d="M437.76 700.017778a30.378667 30.378667 0 0 1-21.276444-8.590222L239.160889 518.428444a28.956444 28.956444 0 0 1 0-41.642666 30.663111 30.663111 0 0 1 42.666667 0l155.932444 152.177778 304.128-296.675556a30.663111 30.663111 0 0 1 42.666667 0 28.899556 28.899556 0 0 1 0 41.585778l-325.404445 317.553778a30.435556 30.435556 0 0 1-21.390222 8.590222z" fill="#FFFFFF" p-id="5402"></path></svg>