<svg xmlns="http://www.w3.org/2000/svg" width="37.561" height="18.28" viewBox="0 0 37.561 18.28">
  <path id="抵扣" d="M15.98,2.14q-.46-1.78-.93-4.06t-.91-4.9H10.88V-.6h1.16V2.14H7.9V-15.52L18.68-16v2.66l-2.52.12q.12.92.24,1.83t.26,1.83h2.22v2.74H17.1q.44,2.56.92,4.85t1,4.11ZM2.74-13.36v-2.78H5.8v2.78H7.4v2.52H5.8v3.22L7.42-8v2.78l-1.62.4v1.8a22.056,22.056,0,0,1-.19,3,5.617,5.617,0,0,1-.67,2.16H1.32A6.466,6.466,0,0,0,2.38-.1a11.085,11.085,0,0,0,.36-2.92V-4.1L1-3.68V-6.5l1.74-.4v-3.94H1v-2.52Zm10,15.5q-.08-.54-.22-1.29T12.23-.68q-.15-.78-.31-1.5T11.64-3.4H14q.14.52.3,1.21t.32,1.44q.16.75.3,1.5t.26,1.39ZM10.88-9.56h2.84l-.48-3.52-2.36.1Zm27.68-6.08V2.14H28.78V-15.64ZM22.92-13.32v-2.82h3.2v2.82h1.94v2.5H26.12v3.3l1.86-.36V-5.2l-1.86.36v1.92A16.754,16.754,0,0,1,25.88.06a7.941,7.941,0,0,1-.62,2.08h-3.8a7.278,7.278,0,0,0,1.11-2.2,9.78,9.78,0,0,0,.35-2.8V-4.2l-2.1.4V-6.52l2.1-.4v-3.9h-2.1v-2.5ZM31.9-.62h3.56V-12.86H31.9Z" transform="translate(-1 16.14)" fill="#fff"/>
</svg>
