<svg xmlns="http://www.w3.org/2000/svg" width="30.336" height="31.608" viewBox="0 0 30.336 31.608">
  <path id="预购通知" d="M1.2,1.712A4.531,4.531,0,0,0,2.048.032a9.514,9.514,0,0,0,.288-2.56V-6.176H.672V-8.048H1.824q-.192-.56-.408-1.072t-.424-.944h2q.128.272.3.648t.344.84q.288-.672.488-1.232a7.388,7.388,0,0,0,.28-.944H.752v-1.856H7.12q-.368,1.264-.76,2.416T5.552-8.048H7.3Q7.168-6.7,7.064-5.712T6.832-3.824H5.12q.144-.672.24-1.288t.128-1.064H4.7v3.648A12.744,12.744,0,0,1,4.488.064a4.9,4.9,0,0,1-.632,1.648Zm14.032-14.4v1.9H12.4q-.064.24-.128.472t-.144.456h2.88v7.92H13.12V-7.968H9.456v6.1H7.536V-9.856H9.744q.1-.224.176-.464t.16-.464H7.328v-1.9Zm-2.448,14.4q-.32-.56-.608-1.112t-.56-1.144A7.351,7.351,0,0,1,10.936.68a6.81,6.81,0,0,1-.872,1.032H6.976A9.724,9.724,0,0,0,8.512.3,8.1,8.1,0,0,0,9.52-1.152a6.053,6.053,0,0,0,.552-1.408,5.533,5.533,0,0,0,.168-1.312V-7.536h2.1v3.6a7.763,7.763,0,0,1-.288,2.112h1.136A12.031,12.031,0,0,0,14.1-.08q.576.928,1.184,1.792ZM23.12-8.9a17.528,17.528,0,0,0,.672-2.3q.208-1,.32-1.7H26.3q-.032.16-.056.336t-.056.352h4.736v9.872A13.012,13.012,0,0,1,30.744.08a6.6,6.6,0,0,1-.52,1.632h-2.7A7.356,7.356,0,0,0,28.1.824,4.791,4.791,0,0,0,28.48-.1,6.553,6.553,0,0,0,28.7-1.12a9.188,9.188,0,0,0,.072-1.2v-7.824H25.76q-.08.32-.168.624t-.184.624Zm-1.76-1.552H18.624v7.664H16.912v-9.7H23.04v9.7H21.36ZM21.3,1.712Q21.072.96,20.84.224t-.472-1.408a10.456,10.456,0,0,1-1.072,2.9H16.848a12.743,12.743,0,0,0,1.7-3.184,10.463,10.463,0,0,0,.616-3.6V-9.744h1.6v4.672q0,.656-.048,1.3T20.592-2.5h1.152q.352.816.768,1.888t.832,2.32Zm1.712-3.1q.256-1.248.448-2.272t.328-1.888q.136-.864.224-1.608t.168-1.432h1.952q-.144,1.536-.328,2.8t-.408,2.416H26.64q-.112-.848-.232-1.592t-.28-1.576h1.728q.112.592.224,1.168T28.3-4.184q.1.616.208,1.3t.216,1.5ZM14.9,4.36a17.735,17.735,0,0,1-1.032,1.664q-.52.736-1.16,1.5H14.9v4.864q0,.816-.056,1.44a10.445,10.445,0,0,1-.152,1.1,6.1,6.1,0,0,1-.224.84,5.789,5.789,0,0,1-.272.648H11.84a4.622,4.622,0,0,0,.472-.912,5.392,5.392,0,0,0,.28-1.088H11.008v1.84h-2.1v-1.84H7.184v2H5.04v-8.9H6.816q-.144-.24-.312-.488t-.376-.52h2.5q.192.224.384.472t.384.536h.72q.368-.368.672-.728t.56-.728H5.024V4.36ZM4.288,7.48,3.5,16.808H15.312v1.9H1.056l.8-9.232H.672v-2Zm-2.48-.752q-.1-.672-.256-1.328A10.287,10.287,0,0,0,1.2,4.232H3.52A8.41,8.41,0,0,1,3.888,5.4q.16.656.272,1.328ZM7.184,12.9H8.912V11.768H7.184Zm5.536,0a2.062,2.062,0,0,0,.016-.256q0-.128,0-.256v-.624H11.008V12.9ZM7.184,10.248H8.912V9.208H7.184Zm3.824-1.04v1.04h1.728V9.208Zm20-4.576v14.08H24.7V4.632ZM16.592,9.272q.144-.56.28-1.256t.248-1.408q.112-.712.192-1.376t.128-1.144h2q-.032.224-.056.472t-.056.52H24V7.144H21.968q-.032.688-.088,1.376t-.136,1.392h2.5v2.144H21.424l-.112.608H22.8q.416,1.5.784,3.056t.64,2.992h-2.24q-.224-1.056-.472-2.184t-.52-2.312q-.32,1.424-.7,2.592a14.444,14.444,0,0,1-.752,1.9H16.688a11.05,11.05,0,0,0,.648-1.224,16.747,16.747,0,0,0,.624-1.576q.3-.864.568-1.84t.5-2.016H16.768V9.912h2.624q.112-.7.176-1.392t.1-1.376H19.04q-.176,1.152-.368,2.128Zm10.416,7.216h1.664V6.824H27.008Z" transform="translate(-0.672 12.896)" fill="#fff"/>
</svg>
