<svg xmlns="http://www.w3.org/2000/svg" width="34.219" height="16.452" viewBox="0 0 34.219 16.452">
  <path id="预交" d="M1.35,1.926A5.1,5.1,0,0,0,2.3.036a10.7,10.7,0,0,0,.324-2.88v-4.1H.756V-9.054h1.3q-.216-.63-.459-1.206t-.477-1.062h2.25q.144.306.333.729t.387.945q.324-.756.549-1.386A8.311,8.311,0,0,0,4.95-12.1H.846v-2.088H8.01q-.414,1.422-.855,2.718T6.246-9.054H8.208q-.144,1.512-.261,2.628T7.686-4.3H5.76q.162-.756.27-1.449t.144-1.2H5.292v4.1A14.337,14.337,0,0,1,5.049.072a5.514,5.514,0,0,1-.711,1.854Zm15.786-16.2v2.142H13.95q-.072.27-.144.531t-.162.513h3.24v8.91H14.76V-8.964H10.638v6.858H8.478v-8.982h2.484q.108-.252.2-.522t.18-.522h-3.1v-2.142Zm-2.754,16.2Q14.022,1.3,13.7.675t-.63-1.287A8.27,8.27,0,0,1,12.3.765a7.662,7.662,0,0,1-.981,1.161H7.848A10.94,10.94,0,0,0,9.576.333,9.112,9.112,0,0,0,10.71-1.3a6.81,6.81,0,0,0,.621-1.584,6.225,6.225,0,0,0,.189-1.476V-8.478h2.358v4.05a8.734,8.734,0,0,1-.324,2.376h1.278A13.535,13.535,0,0,0,15.858-.09Q16.506.954,17.19,1.926Zm16.11,0q-.9-.612-1.719-1.233T27.144-.576Q25.47.756,23.67,1.926H18.954Q20.772.792,22.284-.288t2.79-2.106Q23.958-3.42,22.833-4.545T20.466-7h3.672q.684.72,1.413,1.431T27.108-4.1q.846-.756,1.557-1.485T30.006-7h3.708q-1.188,1.35-2.3,2.5T29.178-2.322q1.206.972,2.628,2.016t3.168,2.232Zm-5.22-15.318q-.126-.324-.243-.612a5.351,5.351,0,0,0-.243-.522h3.582q.144.252.27.531t.252.6h5.976v2.124H19.134v-2.124ZM19.314-7.47q1.062-.99,1.809-1.818a11.863,11.863,0,0,0,1.215-1.566h3.474q-.594.864-1.251,1.692T23.076-7.47Zm11.88,0q-.684-.972-1.359-1.773T28.4-10.854h3.4q.63.648,1.323,1.467T34.65-7.47Z" transform="translate(-0.756 14.526)" fill="#fff"/>
</svg>
