<svg xmlns="http://www.w3.org/2000/svg" xmlns:xlink="http://www.w3.org/1999/xlink" width="255" height="101" viewBox="0 0 255 101">
  <defs>
    <filter id="矩形_67" x="0" y="0" width="255" height="101" filterUnits="userSpaceOnUse">
      <feOffset dy="3" input="SourceAlpha"/>
      <feGaussianBlur stdDeviation="3" result="blur"/>
      <feFlood flood-opacity="0.161"/>
      <feComposite operator="in" in2="blur"/>
      <feComposite in="SourceGraphic"/>
    </filter>
  </defs>
  <g id="优惠券背景" transform="translate(-3 -222.968)">
    <g transform="matrix(1, 0, 0, 1, 3, 222.97)" filter="url(#矩形_67)">
      <rect id="矩形_67-2" data-name="矩形 67" width="237" height="83" transform="translate(9 6)" fill="#ffc9a2"/>
    </g>
    <path id="减去_1" data-name="减去 1" d="M51,83H2L0,82l2-1L0,80l2-1L0,78l2-1L0,76l2-1L0,74l2-1L0,72l2-1L0,70l2-1L0,68l2-1L0,66l2-1L0,64l2-1L0,62l2-1L0,60l2-1L0,58l2-1L0,56l2-1L0,54l2-1L0,52l2-1L0,50l2-1L0,48l2-1L0,46l2-1L0,44l2-1L0,42l2-1L0,40l2-1L0,38l2-1L0,36l2-1L0,34l2-1L0,32l2-1L0,30l2-1L0,28l2-1L0,26l2-1L0,24l2-1L0,22l2-1L0,20l2-1L0,18l2-1L0,16l2-1L0,14l2-1L0,12l2-1L0,10,2,9,0,8,2,7,0,6,2,5,0,4,2,3,0,2,2,1,0,0H51V83Z" transform="translate(198 228.968)" fill="#ec6251"/>
    <g id="路径_168" data-name="路径 168" transform="translate(16 232.968)" fill="none">
      <path d="M0,0H229V75H0Z" stroke="none"/>
      <path d="M 1 1 L 1 74 L 228 74 L 228 1 L 1 1 M 0 0 L 229 0 L 229 75 L 0 75 L 0 0 Z" stroke="none" fill="#fff"/>
    </g>
  </g>
</svg>
