<svg xmlns="http://www.w3.org/2000/svg" width="237" height="48" viewBox="0 0 237 48">
  <g id="兑换券背景" transform="translate(18725 16774)">
    <path id="减去_3" data-name="减去 3" d="M76.61,48H4a4,4,0,0,1-4-4V4A4,4,0,0,1,4,0H76.61a2.742,2.742,0,0,0,.8,1.939,2.7,2.7,0,0,0,1.238.718V3H80V4H78.644V7H80V8H78.644v3H80v1H78.644v3H80v1H78.644v3H80v1H78.644v3H80v1H78.644v3H80v1H78.644v3H80v1H78.644v3H80v1H78.644v3H80v1H78.644v3H80v1H78.644v1.343A2.738,2.738,0,0,0,76.61,48Z" transform="translate(-18725 -16774)" fill="#fff"/>
    <path id="减去_4" data-name="减去 4" d="M153,48H2.022A2.732,2.732,0,0,0,0,45.343V2.657A2.733,2.733,0,0,0,2.022,0H153a4,4,0,0,1,4,4V44A4,4,0,0,1,153,48Z" transform="translate(-18645 -16774)" fill="#fff"/>
  </g>
</svg>
