<?xml version="1.0" encoding="UTF-8"?>
<svg width="36px" height="36px" viewBox="0 0 36 36" version="1.1" xmlns="http://www.w3.org/2000/svg" xmlns:xlink="http://www.w3.org/1999/xlink">
    <!-- Generator: Sketch 53 (72520) - https://sketchapp.com -->
    <title>yaoqingchengyuan</title>
    <desc>Created with Sketch.</desc>
    <g id="雅集" stroke="none" stroke-width="1" fill="none" fill-rule="evenodd">
        <g transform="translate(-634.000000, -320.000000)" fill="#FFFFFF" fill-rule="nonzero" id="分组">
            <g transform="translate(40.000000, 284.000000)">
                <g id="yaoqingchengyuan" transform="translate(594.000000, 36.000000)">
                    <path d="M34.345472,28.0982807 L31.0790786,28.1096755 L31.0669221,24.9436024 C31.0669221,24.0850326 30.3858725,23.3892162 29.4827209,23.3892162 C28.5795283,23.3892162 27.8472244,24.0850326 27.8472244,24.9436024 L27.8421318,28.1209477 L24.5335193,28.1323017 C23.6300803,28.1323017 22.8978174,28.7798435 22.8978174,29.6382499 C22.8978174,30.496983 23.6300803,31.1926769 24.5335193,31.1926769 L27.8372446,31.1975779 L27.832152,34.4143761 C27.832152,35.2727009 28.5642917,35.9688032 29.4677718,35.9688032 C30.3710055,35.9688032 31.1032684,35.2727009 31.1032684,34.4143761 L31.0909476,31.2023155 L34.3455541,31.2069306 C35.2487057,31.2069306 35.981256,30.5110733 35.981256,29.6525444 C35.9811739,28.7943422 35.2487057,28.0982807 34.345472,28.0982807 L34.345472,28.0982807 Z M24.4594717,24.4353301 C24.4678087,24.4416197 24.4762689,24.4476234 24.484606,24.4539947 L24.484606,24.4446828 C24.6691296,24.513174 24.869506,24.5512383 25.0793693,24.5512383 C25.9828084,24.5512383 26.7149069,23.8550542 26.7149069,22.9964436 L26.700122,22.852559 C26.700122,22.5056922 26.5804876,22.1852908 26.3784685,21.92656 L26.3957586,21.9066293 C26.366312,21.885065 26.3367012,21.8636233 26.3071314,21.842304 C26.1420745,21.6589257 25.9329504,21.5124273 25.6952422,21.4177975 C24.8000991,20.8265761 23.8404775,20.3173236 22.8275481,19.9031909 C25.8438714,17.9390012 27.8231989,14.6413777 27.8231989,10.9040956 C27.8231989,4.88348828 22.6874612,0.00260361419 16.3524224,0.00260361419 C10.0172193,0.00260361419 4.88148161,4.88348828 4.88148161,10.9040956 C4.88148161,14.6427663 6.86212326,17.94137 9.88029476,19.9053556 C4.71864249,22.0182899 0.928658569,26.5806927 0.129617258,32.0523495 C0.0703955318,32.2128565 0.0379098462,32.3856977 0.0379098462,32.5655228 L0.0502305953,32.6863319 L0.0498199064,32.6910287 L0.0508466488,32.6910287 L0.0528590368,32.7101016 C0.0528590368,33.5683447 0.78516297,34.2644879 1.68839667,34.2644879 C2.59163037,34.2644879 3.32409857,33.5685898 3.32409857,32.7101016 L3.32216833,32.6910287 L3.35149172,32.6910287 C4.1136529,26.7551266 9.27201969,22.1097748 15.6383532,21.7841048 C15.8745829,21.7977867 16.1124554,21.8056691 16.3524224,21.8056691 C16.592718,21.8056691 16.8310012,21.7977867 17.0676005,21.7838597 C19.5670276,21.9115302 21.8799187,22.7054888 23.8139469,23.9814178 C23.9849177,24.1796624 24.2064036,24.3366979 24.4594717,24.4353301 L24.4594717,24.4353301 Z M16.3493422,18.6938744 C11.8243027,18.6938744 8.15596563,15.2074816 8.15596563,10.9070361 C8.15596563,6.60663152 11.8242617,3.12040201 16.3493422,3.12040201 C20.8745459,3.12040201 24.5426367,6.60667235 24.5426367,10.9070361 C24.5426367,15.2074407 20.8745049,18.6938744 16.3493422,18.6938744 L16.3493422,18.6938744 Z" id="形状"></path>
                </g>
            </g>
        </g>
    </g>
</svg>