<?xml version="1.0" encoding="UTF-8"?>
<svg width="40px" height="40px" viewBox="0 0 40 40" version="1.1" xmlns="http://www.w3.org/2000/svg" xmlns:xlink="http://www.w3.org/1999/xlink">
    <!-- Generator: Sketch 53 (72520) - https://sketchapp.com -->
    <title>合并形状</title>
    <desc>Created with Sketch.</desc>
    <g id="申请开票" stroke="none" stroke-width="1" fill="none" fill-rule="evenodd">
        <g transform="translate(-630.000000, -170.000000)" fill="#FFFFFF" fill-rule="nonzero" id="分组">
            <g transform="translate(40.000000, 136.000000)">
                <path d="M610,70.6666667 C619.204746,70.6666667 626.666667,63.2047458 626.666667,54 C626.666667,44.7952542 619.204746,37.3333333 610,37.3333333 C600.795254,37.3333333 593.333333,44.7952542 593.333333,54 C593.333333,63.2047458 600.795254,70.6666667 610,70.6666667 Z M610,74 C598.954305,74 590,65.045695 590,54 C590,42.954305 598.954305,34 610,34 C621.045695,34 630,42.954305 630,54 C630,65.045695 621.045695,74 610,74 Z M607.777778,51.7777778 L607.777778,47.3333333 C607.777778,46.1060339 608.772701,45.1111111 610,45.1111111 C611.227299,45.1111111 612.222222,46.1060339 612.222222,47.3333333 L612.222222,51.7777778 L616.666667,51.7777778 C617.893966,51.7777778 618.888889,52.7727006 618.888889,54 C618.888889,55.2272994 617.893966,56.2222222 616.666667,56.2222222 L612.222222,56.2222222 L612.222222,60.6666667 C612.222222,61.8939661 611.227299,62.8888889 610,62.8888889 C608.772701,62.8888889 607.777778,61.8939661 607.777778,60.6666667 L607.777778,56.2222222 L603.333333,56.2222222 C602.106034,56.2222222 601.111111,55.2272994 601.111111,54 C601.111111,52.7727006 602.106034,51.7777778 603.333333,51.7777778 L607.777778,51.7777778 Z" id="合并形状"></path>
            </g>
        </g>
    </g>
</svg>