<?xml version="1.0" encoding="UTF-8"?>
<svg width="17px" height="21px" viewBox="0 0 17 21" version="1.1" xmlns="http://www.w3.org/2000/svg" xmlns:xlink="http://www.w3.org/1999/xlink">
    <!-- Generator: Sketch 55.1 (78136) - https://sketchapp.com -->
    <title>dizhitianchong-</title>
    <desc>Created with Sketch.</desc>
    <g id="首页-固定组件-联系我们" stroke="none" stroke-width="1" fill="none" fill-rule="evenodd">
        <g transform="translate(-25.000000, -539.000000)" id="My-Trips">
            <g transform="translate(0.000000, 448.000000)">
                <g id="编组-4">
                    <g transform="translate(10.000000, 64.000000)">
                        <g id="编组-6" transform="translate(11.000000, 18.000000)">
                            <g id="dizhitianchong-" transform="translate(0.000000, 7.000000)">
                                <rect id="矩形" x="0" y="0" width="25" height="25"></rect>
                                <path d="M12.5,2 C7.81025472,2.0063174 4.00912601,5.95475773 4,10.829415 C4,15.5369054 10.0753736,23 12.5,23 C14.9246264,23 21,15.5369054 21,10.829415 C20.990874,5.95475773 17.1897453,2.0063174 12.5,2 Z M8.66695549,10.829415 C8.66028343,9.21643006 9.58990084,7.75838907 11.0216538,7.13628907 C12.4534068,6.51418906 14.1047624,6.8507913 15.2044333,7.98888133 C16.3041043,9.12697135 16.6350885,10.8419657 16.0427956,12.3328539 C15.4505027,13.8237421 14.0518119,14.7963368 12.5,14.7963368 C10.3907899,14.7932186 8.67912877,13.0217573 8.66695549,10.829415 Z" id="形状" fill="#387AF6" fill-rule="nonzero"></path>
                            </g>
                        </g>
                    </g>
                </g>
            </g>
        </g>
    </g>
</svg>