<?xml version="1.0" encoding="UTF-8"?>
<svg width="64px" height="64px" viewBox="0 0 64 64" version="1.1" xmlns="http://www.w3.org/2000/svg" xmlns:xlink="http://www.w3.org/1999/xlink">
    <!-- Generator: Sketch 53 (72520) - https://sketchapp.com -->
    <title>首页</title>
    <desc>Created with Sketch.</desc>
    <g id="订单详情" stroke="none" stroke-width="1" fill="none" fill-rule="evenodd">
        <g id="订单详情-待发货" transform="translate(-68.000000, -329.000000)">
            <g id="分组-5" transform="translate(40.000000, 276.000000)">
                <g id="分组-3">
                    <g id="分组-23" transform="translate(28.000000, 28.000000)">
                        <g id="首页" transform="translate(0.000000, 25.000000)">
                            <g id="分组-22">
                                <circle id="椭圆形" fill="#F2B036" cx="32" cy="32" r="32"></circle>
                                <g id="地址" transform="translate(17.000000, 15.000000)" fill="#FFFFFF" fill-rule="nonzero">
                                    <path d="M14.9716885,0.000624931603 C9.42008255,-0.0492049414 4.30427959,2.88425087 1.71376403,7.6028598 C-0.876751524,12.3214687 -0.508241912,18.03518 2.66877983,22.4103012 C2.74556143,22.543658 2.83049628,22.672527 2.92313812,22.7962313 L13.1108569,35.0430808 C13.5285326,35.6411668 14.2288271,35.9999958 14.9783822,35.9999958 C15.7279373,35.9999958 16.4282318,35.6411668 16.8459075,35.0430808 L27.0604008,22.7962313 C27.1541118,22.667588 27.2210481,22.5389446 27.3013718,22.4360299 C29.0452497,20.051386 29.9803282,17.207469 29.9788275,14.2929041 C29.9345748,6.3669106 23.2199423,-0.0278727008 14.9716885,0.000624931603 Z M14.9716885,20.00467 C11.6942541,19.9833898 9.05322026,17.4167989 9.06795894,14.2673492 C9.08269762,11.1178995 11.7476462,8.57423729 15.0251473,8.58128284 C18.3026484,8.58832839 20.9557271,11.1434226 20.9558019,14.2929041 C20.9410464,17.4566086 18.2640236,20.0117954 14.9716885,20.00467 L14.9716885,20.00467 Z" id="形状"></path>
                                </g>
                            </g>
                        </g>
                    </g>
                </g>
            </g>
        </g>
    </g>
</svg>