<svg id="地址" xmlns="http://www.w3.org/2000/svg" width="17" height="17" viewBox="0 0 17 17">
  <circle id="椭圆形" cx="8.5" cy="8.5" r="8.5" fill="#9d6c12"/>
  <g id="地址-2" data-name="地址" transform="translate(4.516 3.984)">
    <path id="形状" d="M3.979,9.563a.6.6,0,0,1-.5-.254L.777,6.056a.952.952,0,0,1-.067-.1A3.648,3.648,0,0,1,.455,2.019,3.955,3.955,0,0,1,3.941,0h.05a4.031,4.031,0,0,1,2.8,1.11A3.719,3.719,0,0,1,7.963,3.8,3.637,3.637,0,0,1,7.252,5.96c-.011.014-.021.03-.031.047s-.02.032-.032.049L4.475,9.308A.6.6,0,0,1,3.979,9.563Zm.009-7.283a1.552,1.552,0,0,0-1.578,1.51A1.551,1.551,0,0,0,3.977,5.313h0A1.559,1.559,0,0,0,5.566,3.8,1.552,1.552,0,0,0,3.991,2.279Z" fill="#fff"/>
  </g>
</svg>
