<?xml version="1.0" encoding="UTF-8"?>
<svg width="24px" height="24px" viewBox="0 0 24 24" version="1.1" xmlns="http://www.w3.org/2000/svg" xmlns:xlink="http://www.w3.org/1999/xlink">
    <!-- Generator: Sketch 53 (72520) - https://sketchapp.com -->
    <title>地址</title>
    <desc>Created with Sketch.</desc>
    <g id="详情页" stroke="none" stroke-width="1" fill="none" fill-rule="evenodd">
        <g id="特色体验课" transform="translate(-74.000000, -1292.000000)">
            <g id="详情" transform="translate(40.000000, 796.000000)">
                <g id="分组-13" transform="translate(30.000000, 489.000000)">
                    <g id="分组-20-Copy-3" transform="translate(0.000000, 2.000000)">
                        <g id="地址" transform="translate(0.000000, 1.000000)">
                            <rect id="矩形" fill="#000000" opacity="0" x="0" y="0" width="32" height="32"></rect>
                            <path d="M8.64540753,11.5070524 C8.69588643,7.31566758 11.985804,3.95773026 16,4.00040223 C20.014196,3.95773026 23.3041136,7.31566758 23.3545925,11.5070524 C23.337979,14.2014076 21.9327197,16.6775239 19.6772962,17.9865778 L16.7722322,20.9239627 C16.3012771,21.4019145 15.5516311,21.4019145 15.0806759,20.9239627 L12.0469065,17.8521877 C9.93294459,16.4992398 8.64463063,14.0960269 8.64540753,11.5070524 Z M16,19.1000963 L18.6108803,16.4794882 L18.7211992,16.4218924 C20.4198534,15.4441546 21.4760364,13.5803658 21.4791714,11.5550489 C21.4694593,10.04874 20.8864272,8.60830415 19.8586072,7.55129276 C18.8307873,6.49428137 17.4425719,5.90748346 16,5.92026161 C14.5589757,5.8971733 13.1682053,6.47284995 12.1337283,7.52061371 C11.0992513,8.56837747 10.5058331,10.0023742 10.4840556,11.5070524 C10.4801931,13.4814536 11.4814698,15.3092545 13.1133225,16.3067009 L13.2052549,16.3642966 L13.287994,16.441091 L16,19.1000963 Z M23.9153801,20.319207 L21.5159444,20.319207 C21.0082157,20.319207 20.5966203,19.8894318 20.5966203,19.3592773 C20.5966203,18.8291227 21.0082157,18.3993476 21.5159444,18.3993476 L24.5772935,18.3993476 C24.9892907,18.3768934 25.3651598,18.6437736 25.4966175,19.0520998 L27.9512128,26.7315373 C28.0492489,27.0331309 27.9976423,27.3658599 27.8134535,27.6197279 C27.6292647,27.8735959 27.3364792,28.0155435 27.0318887,27.9986445 L4.9681113,27.9986445 C4.66352076,28.0155435 4.37073531,27.8735959 4.18654652,27.6197279 C4.00235772,27.3658599 3.95075111,27.0331309 4.04878724,26.7315373 L6.50338247,19.0520998 C6.63484023,18.6437736 7.01070929,18.3768934 7.42270653,18.3993476 L10.4840556,18.3993476 C10.9917843,18.3993476 11.4033797,18.8291227 11.4033797,19.3592773 C11.4033797,19.8894318 10.9917843,20.319207 10.4840556,20.319207 L8.08461986,20.319207 L6.24597174,26.0787851 L25.7540283,26.0787851 L23.9153801,20.319207 Z" id="形状" fill="#CCCCCC" fill-rule="nonzero"></path>
                            <path d="M19.2176342,11.1998749 C19.2176342,13.0554158 17.7770503,14.5596288 16,14.5596288 C14.2229497,14.5596288 12.7823658,13.0554158 12.7823658,11.1998749 C12.7823658,9.34433406 14.2229497,7.84012099 16,7.84012099 C17.7770503,7.84012099 19.2176342,9.34433406 19.2176342,11.1998749 Z M17.3789861,11.1998749 C17.3789861,10.4046431 16.761593,9.75998037 16,9.75998037 C15.238407,9.75998037 14.6210139,10.4046431 14.6210139,11.1998749 C14.6210139,11.9951067 15.238407,12.6397694 16,12.6397694 C16.761593,12.6397694 17.3789861,11.9951067 17.3789861,11.1998749 Z" id="合并形状" fill="#EEEEEE" fill-rule="nonzero"></path>
                            <path d="M13.2420278,24.1589257 C12.7342992,24.1589257 12.3227038,23.7291506 12.3227038,23.198996 C12.3227038,22.6688415 12.7342992,22.2390663 13.2420278,22.2390663 L18.7579722,22.2390663 C19.2657008,22.2390663 19.6772962,22.6688415 19.6772962,23.198996 C19.6772962,23.7291506 19.2657008,24.1589257 18.7579722,24.1589257 L13.2420278,24.1589257 Z" id="路径" fill="#EEEEEE" fill-rule="nonzero"></path>
                        </g>
                    </g>
                </g>
            </g>
        </g>
    </g>
</svg>