<?xml version="1.0" encoding="UTF-8"?>
<svg width="104px" height="85px" viewBox="0 0 104 85" version="1.1" xmlns="http://www.w3.org/2000/svg" xmlns:xlink="http://www.w3.org/1999/xlink">
    <!-- Generator: Sketch 53 (72520) - https://sketchapp.com -->
    <title>退款/售后</title>
    <desc>Created with Sketch.</desc>
    <g id="我的" stroke="none" stroke-width="1" fill="none" fill-rule="evenodd">
        <g transform="translate(-615.000000, -647.000000)" id="我的订单">
            <g transform="translate(0.000000, 548.000000)">
                <g id="分组-11" transform="translate(47.000000, 85.000000)">
                    <g id="退款/售后" transform="translate(567.000000, 8.000000)">
                        <g transform="translate(29.000000, 0.000000)">
                            <rect id="矩形" x="0" y="0" width="48" height="48"></rect>
                            <g id="分组-15" transform="translate(0.000000, 6.000000)">
                                <rect id="矩形" stroke="#F2B036" stroke-width="4" fill-opacity="0.1" fill="#E1FDEC" x="2" y="2" width="44" height="32" rx="8"></rect>
                                <g id="分组-14" transform="translate(10.000000, 6.000000)" fill="#F2B036">
                                    <path d="M20.5762634,3.40462594 C19.8005099,2.61831792 19.809066,1.35201686 20.5953741,0.576263378 C21.3816821,-0.199490108 22.6479831,-0.190933964 23.4237366,0.59537406 L27.4375856,4.66383362 C28.2123851,5.44917461 28.2049415,6.71358618 27.4209495,7.48975059 L23.4071005,11.4635243 C22.6221431,12.2406444 21.3558291,12.2342911 20.578709,11.4493337 C19.8015888,10.6643764 19.8079421,9.39806234 20.5928995,8.6209422 L23.1879278,6.0518234 L20.5762634,3.40462594 Z" id="路径-5" fill-rule="nonzero"></path>
                                    <path d="M26.013849,4.03128881 C27.1184185,4.03128881 28.013849,4.92671931 28.013849,6.03128881 C28.013849,7.13585831 27.1184185,8.03128881 26.013849,8.03128881 L8.06996231,8.03128881 C6.96539281,8.03128881 6.06996231,7.13585831 6.06996231,6.03128881 C6.06996231,4.92671931 6.96539281,4.03128881 8.06996231,4.03128881 L26.013849,4.03128881 Z" id="路径-6" fill-rule="nonzero"></path>
                                    <circle id="椭圆形" cx="2" cy="6" r="2"></circle>
                                </g>
                                <g id="分组-14" transform="translate(23.000000, 25.000000) scale(-1, 1) translate(-23.000000, -25.000000) translate(8.000000, 18.000000)" fill="#F2B036">
                                    <path d="M20.5762634,3.40462594 C19.8005099,2.61831792 19.809066,1.35201686 20.5953741,0.576263378 C21.3816821,-0.199490108 22.6479831,-0.190933964 23.4237366,0.59537406 L27.4375856,4.66383362 C28.2123851,5.44917461 28.2049415,6.71358618 27.4209495,7.48975059 L23.4071005,11.4635243 C22.6221431,12.2406444 21.3558291,12.2342911 20.578709,11.4493337 C19.8015888,10.6643764 19.8079421,9.39806234 20.5928995,8.6209422 L23.1879278,6.0518234 L20.5762634,3.40462594 Z" id="路径-5" fill-rule="nonzero"></path>
                                    <path d="M26.013849,4.03128881 C27.1184185,4.03128881 28.013849,4.92671931 28.013849,6.03128881 C28.013849,7.13585831 27.1184185,8.03128881 26.013849,8.03128881 L8.06996231,8.03128881 C6.96539281,8.03128881 6.06996231,7.13585831 6.06996231,6.03128881 C6.06996231,4.92671931 6.96539281,4.03128881 8.06996231,4.03128881 L26.013849,4.03128881 Z" id="路径-6" fill-rule="nonzero"></path>
                                    <circle id="椭圆形" cx="2" cy="6" r="2"></circle>
                                </g>
                            </g>
                        </g>
                        <text id="待付款" font-family="MicrosoftYaHeiUI, Microsoft YaHei UI" font-size="24" font-weight="normal" fill="#2E2E2E" transform="translate(-1 -10)">
                            <tspan x="0.32421875" y="88">退款/售后</tspan>
                        </text>
                    </g>
                </g>
            </g>
        </g>
    </g>
</svg>
