<?xml version="1.0" encoding="UTF-8"?>
<svg width="53px" height="46px" viewBox="0 0 53 46" version="1.1" xmlns="http://www.w3.org/2000/svg" xmlns:xlink="http://www.w3.org/1999/xlink">
    <!-- Generator: Sketch 55.1 (78136) - https://sketchapp.com -->
    <title>待付款</title>
    <desc>Created with Sketch.</desc>
    <g id="VC1.5.0-H5_个人中心" stroke="none" stroke-width="1" fill="none" fill-rule="evenodd">
        <g id="个人中心" transform="translate(-227.000000, -269.000000)">
            <g id="我的订单" transform="translate(12.000000, 250.000000)">
                <g id="编组" transform="translate(25.000000, 15.000000)">
                    <g id="退款/售后" transform="translate(190.000000, 4.000000)">
                        <g transform="translate(14.500000, 0.000000)">
                            <rect id="矩形" x="0" y="0" width="24" height="24"></rect>
                            <g id="分组-15" transform="translate(0.000000, 3.000000)">
                                <rect id="矩形" stroke="#F2B036" stroke-width="2" fill-opacity="0.1" fill="#E1FDEC" x="1" y="1" width="22" height="16" rx="4"></rect>
                                <g id="分组-14" transform="translate(5.000000, 3.000000)" fill="#F2B036">
                                    <path d="M10.2881317,1.70231297 C9.90025495,1.30915896 9.90453302,0.676008432 10.297687,0.288131689 C10.690841,-0.099745054 11.3239916,-0.095466982 11.7118683,0.29768703 L13.7187928,2.33191681 C14.1061925,2.72458731 14.1024707,3.35679309 13.7104747,3.7448753 L11.7035502,5.73176213 C11.3110716,6.12032221 10.6779146,6.11714554 10.2893545,5.72466686 C9.90079441,5.33218818 9.90397107,4.69903117 10.2964498,4.3104711 L11.5939639,3.0259117 L10.2881317,1.70231297 Z" id="路径-5" fill-rule="nonzero"></path>
                                    <path d="M13.0069245,2.01564441 C13.5592093,2.01564441 14.0069245,2.46335966 14.0069245,3.01564441 C14.0069245,3.56792916 13.5592093,4.01564441 13.0069245,4.01564441 L4.03498115,4.01564441 C3.4826964,4.01564441 3.03498115,3.56792916 3.03498115,3.01564441 C3.03498115,2.46335966 3.4826964,2.01564441 4.03498115,2.01564441 L13.0069245,2.01564441 Z" id="路径-6" fill-rule="nonzero"></path>
                                    <circle id="椭圆形" cx="1" cy="3" r="1"></circle>
                                </g>
                                <g id="分组-14" transform="translate(11.500000, 12.500000) scale(-1, 1) translate(-11.500000, -12.500000) translate(4.000000, 9.000000)" fill="#F2B036">
                                    <path d="M10.2881317,1.70231297 C9.90025495,1.30915896 9.90453302,0.676008432 10.297687,0.288131689 C10.690841,-0.099745054 11.3239916,-0.095466982 11.7118683,0.29768703 L13.7187928,2.33191681 C14.1061925,2.72458731 14.1024707,3.35679309 13.7104747,3.7448753 L11.7035502,5.73176213 C11.3110716,6.12032221 10.6779146,6.11714554 10.2893545,5.72466686 C9.90079441,5.33218818 9.90397107,4.69903117 10.2964498,4.3104711 L11.5939639,3.0259117 L10.2881317,1.70231297 Z" id="路径-5" fill-rule="nonzero"></path>
                                    <path d="M13.0069245,2.01564441 C13.5592093,2.01564441 14.0069245,2.46335966 14.0069245,3.01564441 C14.0069245,3.56792916 13.5592093,4.01564441 13.0069245,4.01564441 L4.03498115,4.01564441 C3.4826964,4.01564441 3.03498115,3.56792916 3.03498115,3.01564441 C3.03498115,2.46335966 3.4826964,2.01564441 4.03498115,2.01564441 L13.0069245,2.01564441 Z" id="路径-6" fill-rule="nonzero"></path>
                                    <circle id="椭圆形" cx="1" cy="3" r="1"></circle>
                                </g>
                            </g>
                        </g>
                        <path d="M1.19921875,44.8847656 L0.68359375,44.0058594 C1.00000158,43.6503888 1.45507516,43.1582063 2.04882812,42.5292969 L2.04882812,38.7734375 L0.783203125,38.7734375 L0.783203125,37.8886719 L2.93359375,37.8886719 L2.93359375,42.5292969 C3.26562666,42.9824241 3.64843533,43.3085928 4.08203125,43.5078125 C4.48828328,43.6914072 5.00976244,43.7929687 5.64648438,43.8125 C6.30273766,43.8281251 7.29296213,43.8359375 8.6171875,43.8359375 C9.81250598,43.8320312 10.7910118,43.8242188 11.5527344,43.8125 C11.533203,43.8789066 11.5019533,43.9824212 11.4589844,44.1230469 C11.3691402,44.4042983 11.310547,44.6074213 11.2832031,44.7324219 C8.89647244,44.7324219 6.95508561,44.7050784 5.45898438,44.6503906 C4.73241824,44.6230467 4.14551005,44.5058604 3.69824219,44.2988281 C3.25097433,44.0917958 2.84570494,43.7480493 2.48242188,43.2675781 C1.9667943,43.8691436 1.5390642,44.4082007 1.19921875,44.8847656 Z M4.90820312,43.2910156 L4.41601562,42.640625 C4.52929744,42.5078118 4.60937477,42.3750007 4.65625,42.2421875 C4.7070315,42.0976555 4.73242188,41.9277354 4.73242188,41.7324219 L4.73242188,34.390625 L10.3339844,34.390625 L10.3339844,39.171875 L5.58203125,39.171875 L5.58203125,42.1015625 L7.71484375,41.2753906 C7.71484375,41.5644546 7.7343748,41.8593735 7.7734375,42.1601562 C7.11327795,42.3671885 6.38672271,42.634764 5.59375,42.9628906 C5.39843652,43.0332035 5.16992318,43.1425774 4.90820312,43.2910156 Z M10.5214844,42.9980469 C8.9160076,41.8300723 7.57813035,40.8945348 6.5078125,40.1914062 L7.03515625,39.5996094 L8.63476562,40.6367188 C9.19726844,40.2617169 9.87108982,39.7968778 10.65625,39.2421875 L11.1601562,39.8339844 C10.6015597,40.2089863 9.97461285,40.6191384 9.27929688,41.0644531 L11.1132812,42.2714844 L10.5214844,42.9980469 Z M5.58203125,38.4453125 L9.49609375,38.4453125 L9.49609375,37.1386719 L5.58203125,37.1386719 L5.58203125,38.4453125 Z M2.6875,36.6582031 C2.24218527,35.9121056 1.7871117,35.2050815 1.32226562,34.5371094 L2.06054688,34.109375 C2.65820611,34.9375041 3.13867006,35.6269504 3.50195312,36.1777344 L2.6875,36.6582031 Z M5.58203125,36.4355469 L9.49609375,36.4355469 L9.49609375,35.1289062 L5.58203125,35.1289062 L5.58203125,36.4355469 Z M18.0625,45.03125 C17.917968,44.8359365 17.7050795,44.585939 17.4238281,44.28125 C18.349614,43.484371 19.0312478,42.6523481 19.46875,41.7851562 C19.8671895,40.984371 20.0917966,40.0839894 20.1425781,39.0839844 C20.1777346,38.513669 20.1953125,37.8730504 20.1953125,37.1621094 L21.0449219,37.1621094 C21.0449219,37.6035178 21.0351563,38.1289032 21.015625,38.7382812 C21.2226573,40.0859442 21.5214824,41.1581991 21.9121094,41.9550781 C22.2871113,42.7168007 22.8515587,43.4335904 23.6054688,44.1054688 C23.3789051,44.4023452 23.1777353,44.6777331 23.0019531,44.9316406 C22.3613249,44.3339814 21.8671892,43.714847 21.5195312,43.0742188 C21.1484356,42.3906216 20.8710947,41.5488331 20.6875,40.5488281 C20.5234367,41.4238325 20.2480488,42.1972623 19.8613281,42.8691406 C19.4472636,43.5878942 18.8476602,44.3085901 18.0625,45.03125 Z M13.9140625,44.796875 C13.8476559,44.4335919 13.7871096,44.1542979 13.7324219,43.9589844 C14.1230488,43.9746095 14.4003898,43.9824219 14.5644531,43.9824219 C14.8027356,43.9824219 14.9648433,43.9394536 15.0507812,43.8535156 C15.1367192,43.7675777 15.1796875,43.6093762 15.1796875,43.3789062 L15.1796875,41.0878906 L12.8066406,41.0878906 L12.8066406,40.3261719 L18.3085938,40.3261719 L18.3085938,41.0878906 L16.046875,41.0878906 L16.046875,43.5136719 C16.046875,43.9394553 15.9609384,44.249999 15.7890625,44.4453125 C15.6132804,44.6445322 15.3242208,44.7539062 14.921875,44.7734375 C14.5468731,44.7890626 14.210939,44.796875 13.9140625,44.796875 Z M13.3339844,43.9707031 C13.1972649,43.8808589 12.9804702,43.7539071 12.6835938,43.5898438 C13.1328147,42.8554651 13.5058579,42.1699251 13.8027344,41.5332031 L14.4824219,41.8027344 C14.1191388,42.5644569 13.7363301,43.287106 13.3339844,43.9707031 Z M17.4824219,43.5019531 C17.1347639,42.8613249 16.8242201,42.3242209 16.5507812,41.890625 L17.1660156,41.5449219 C17.5371112,42.111331 17.8652329,42.6328101 18.1503906,43.109375 L17.4824219,43.5019531 Z M13.3105469,39.3183594 L13.3105469,38.6035156 L17.7578125,38.6035156 L17.7578125,39.3183594 L13.3105469,39.3183594 Z M18.8417969,38.6269531 C18.6386709,38.4472647 18.400392,38.2714852 18.1269531,38.0996094 C18.4902362,37.3300743 18.7871082,36.6074253 19.0175781,35.9316406 C19.2285167,35.298825 19.4121086,34.6171912 19.5683594,33.8867188 L20.4414062,34.0097656 C20.2890617,34.6308625 20.1445319,35.1601541 20.0078125,35.5976562 L23.3359375,35.5976562 L23.3359375,36.4707031 L22.7324219,38.46875 C22.5410147,38.3984371 22.2773454,38.3281254 21.9414062,38.2578125 L22.5449219,36.4238281 L19.7265625,36.4238281 C19.5195302,37.0488312 19.2246113,37.7831989 18.8417969,38.6269531 Z M13.140625,37.578125 L13.140625,36.8398438 L15.1328125,36.8398438 L15.1328125,35.7441406 L12.7832031,35.7441406 L12.7832031,35.0058594 L15.1328125,35.0058594 L15.1328125,33.8867188 L15.9824219,33.8867188 L15.9824219,35.0058594 L18.296875,35.0058594 L18.296875,35.7441406 L15.9824219,35.7441406 L15.9824219,36.8398438 L17.828125,36.8398438 L17.828125,37.578125 L13.140625,37.578125 Z M28.9257812,35.5976562 L24.8945312,45.3945312 L23.9980469,45.3945312 L28.0175781,35.5976562 L28.9257812,35.5976562 Z M30.7128906,45.0078125 L30.7128906,41.4863281 L39.0976562,41.4863281 L39.0976562,45.0078125 L38.2011719,45.0078125 L38.2011719,44.4628906 L31.609375,44.4628906 L31.609375,45.0078125 L30.7128906,45.0078125 Z M31.609375,43.7714844 L38.2011719,43.7714844 L38.2011719,42.1835938 L31.609375,42.1835938 L31.609375,43.7714844 Z M30.7597656,40.9648438 L30.7597656,37.0625 C30.4980456,37.3867204 30.1621114,37.769529 29.7519531,38.2109375 C29.6152337,37.855467 29.4882818,37.5585949 29.3710938,37.3203125 C30.3867238,36.3164012 31.1835909,35.164069 31.7617188,33.8632812 L32.6464844,34.0449219 C32.5097649,34.3574234 32.3085951,34.7402321 32.0429688,35.1933594 L35.2539062,35.1933594 L34.6269531,34.0449219 L35.5175781,33.8105469 C35.8457048,34.3886748 36.0781243,34.8046862 36.2148438,35.0585938 L35.7636719,35.1933594 L39.7890625,35.1933594 L39.7890625,35.8671875 L35.9804688,35.8671875 L35.9804688,36.7578125 L39.4433594,36.7578125 L39.4433594,37.3964844 L35.9804688,37.3964844 L35.9804688,38.3222656 L39.4433594,38.3222656 L39.4433594,38.9375 L35.9804688,38.9375 L35.9804688,39.8574219 L39.9941406,39.8574219 L39.9941406,40.5371094 L31.6503906,40.5371094 L31.6503906,40.9648438 L30.7597656,40.9648438 Z M31.6503906,39.8574219 L35.0957031,39.8574219 L35.0957031,38.9375 L31.6503906,38.9375 L31.6503906,39.8574219 Z M31.6503906,38.3222656 L35.0957031,38.3222656 L35.0957031,37.3964844 L31.6503906,37.3964844 L31.6503906,38.3222656 Z M31.6503906,36.7578125 L35.0957031,36.7578125 L35.0957031,35.8671875 L31.6503906,35.8671875 L31.6503906,36.7578125 Z M42.1445312,44.9550781 L41.3828125,44.2929688 C41.7304705,43.7148409 41.9921866,43.1738306 42.1679688,42.6699219 C42.3554697,42.1347629 42.4882809,41.5312534 42.5664062,40.859375 C42.6406254,40.2187468 42.6777344,39.388677 42.6777344,38.3691406 L42.6777344,34.8242188 C45.4902484,34.769531 48.3535011,34.5761735 51.2675781,34.2441406 L51.625,35.1582031 C48.7734232,35.4277357 46.0937625,35.6113276 43.5859375,35.7089844 L43.5859375,37.2734375 L52.1582031,37.2734375 L52.1582031,38.1464844 L43.5859375,38.1464844 L43.5859375,38.3574219 C43.5859375,39.4511773 43.5468754,40.3398403 43.46875,41.0234375 C43.3867183,41.7460974 43.2402354,42.4101532 43.0292969,43.015625 C42.8378897,43.5781278 42.5429707,44.2246057 42.1445312,44.9550781 Z M44.6347656,44.9316406 L44.6347656,39.9335938 L51.1972656,39.9335938 L51.1972656,44.9199219 L50.3125,44.9199219 L50.3125,44.2167969 L45.5078125,44.2167969 L45.5078125,44.9316406 L44.6347656,44.9316406 Z M45.5078125,43.3554688 L50.3125,43.3554688 L50.3125,40.7949219 L45.5078125,40.7949219 L45.5078125,43.3554688 Z" fill="#2E2E2E" fill-rule="nonzero"></path>
                    </g>
                </g>
            </g>
        </g>
    </g>
</svg>