<?xml version="1.0" encoding="UTF-8"?>
<svg width="166px" height="56px" viewBox="0 0 166 56" version="1.1" xmlns="http://www.w3.org/2000/svg" xmlns:xlink="http://www.w3.org/1999/xlink">
    <!-- Generator: Sketch 53 (72520) - https://sketchapp.com -->
    <title>分组 3</title>
    <desc>Created with Sketch.</desc>
    <defs>
        <linearGradient x1="0%" y1="50%" x2="97.0330564%" y2="50%" id="linearGradient-1">
            <stop stop-color="#FF8F2E" offset="0%"></stop>
            <stop stop-color="#FF7700" offset="100%"></stop>
        </linearGradient>
    </defs>
    <g id="我的" stroke="none" stroke-width="1" fill="none" fill-rule="evenodd">
        <g transform="translate(-556.000000, -188.000000)" id="头像">
            <g transform="translate(0.000000, 116.000000)">
                <g id="分组-3" transform="translate(556.000000, 72.000000)">
                    <rect id="矩形" fill="url(#linearGradient-1)" x="0" y="0" width="166" height="56" rx="28"></rect>
                    <g id="分组-4" transform="translate(16.000000, 14.000000)" fill="#FFFFFF">
                        <g id="fuwubangshou" transform="translate(0.000000, 4.000000)" fill-rule="nonzero">
                            <path d="M21.9996658,16.3491006 C22.0083561,16.8114822 21.8359823,17.2560106 21.5257026,17.5713869 C21.215423,17.8867632 20.796614,18.0431284 20.3741349,18.0013324 L19.4452602,18.0013324 C18.6386057,18.0013324 18.6874939,17.4417055 18.4186091,16.3491006 C17.5916009,13.8068374 16.2118903,11.5208815 14.3975591,9.68687541 C12.7475841,8.60759492 14.8375524,9.32711525 14.8375524,5.86275816 C14.8409763,4.91480488 14.6662783,3.97613112 14.3242268,3.10459693 C14.0675641,2.51832111 13.8475674,1.97201865 14.8375524,2.01199201 C16.7825182,2.06032052 18.3542652,3.75629271 18.4186091,5.87608262 C18.4153608,7.16533762 17.8184856,8.36665328 16.8297443,9.0739507 L17.4164021,9.2338441 C20.1239844,10.3761216 21.9331944,13.1848174 21.9996658,16.3491006 L21.9996658,16.3491006 Z M16.7564121,18.2411726 C16.7564121,19.1205863 16.4019731,20 15.0208829,20 L1.73552919,20 C0,19.9866755 0,19.0806129 0,18.2411726 C0.0060210298,14.1932909 2.4363702,10.6244906 5.98879792,9.44703531 C4.51276503,8.59314867 3.61170031,6.89732007 3.66661097,5.07661559 C3.66661101,2.27287825 5.75144001,7.5696751e-08 8.3232069,7.56967512e-08 C10.8949738,7.56967513e-08 12.9798028,2.27287825 12.9798028,5.07661559 C13.0228929,6.87999935 12.1418254,8.55965812 10.694282,9.43371086 C14.2736775,10.5966057 16.7474328,14.1564942 16.8053003,18.2278481 L16.7564121,18.2411726 Z" id="形状"></path>
                        </g>
                        <text id="申请Helper" font-family="MicrosoftYaHeiUI-Bold, Microsoft YaHei UI" font-size="20" font-weight="bold">
                            <tspan x="30" y="22">申请</tspan>
                            <tspan x="70" y="22" font-family="HelveticaNeue-Bold, Helvetica Neue">Helper</tspan>
                        </text>
                    </g>
                </g>
            </g>
        </g>
    </g>
</svg>