<svg id="相关资质" xmlns="http://www.w3.org/2000/svg" xmlns:xlink="http://www.w3.org/1999/xlink" width="18" height="14" viewBox="0 0 18 14">
  <defs>
    <linearGradient id="linear-gradient" x1="0.948" y1="0.939" x2="0.049" y2="0.067" gradientUnits="objectBoundingBox">
      <stop offset="0" stop-color="#7a8af9"/>
      <stop offset="1" stop-color="#29b6f6"/>
    </linearGradient>
  </defs>
  <path id="路径_21" data-name="路径 21" d="M16.027,142.89a3.865,3.865,0,0,1,6.638-2.653v-7.581a.563.563,0,0,0-.561-.56H5.681a.563.563,0,0,0-.561.56v11.191a.563.563,0,0,0,.561.56H16.335A3.849,3.849,0,0,1,16.027,142.89Z" transform="translate(-5.12 -132.096)" fill="url(#linear-gradient)"/>
  <path id="路径_22" data-name="路径 22" d="M662.69,563.2a3.216,3.216,0,1,0,3.234,3.216A3.226,3.226,0,0,0,662.69,563.2Z" transform="translate(-647.924 -555.631)" fill="url(#linear-gradient)"/>
  <path id="路径_23" data-name="路径 23" d="M128.194,297.373a.381.381,0,0,1-.56,0l-1.283-1.254a.386.386,0,0,1,0-.563.381.381,0,0,1,.56,0l.994.981,1.916-1.889a.381.381,0,0,1,.56,0,.386.386,0,0,1,0,.563Zm.217-9.629h-5.224a.4.4,0,0,0,0,.8h5.206a.4.4,0,0,0,.4-.4A.376.376,0,0,0,128.411,287.744Zm0,1.944h-5.224a.4.4,0,0,0,0,.8h5.206a.4.4,0,0,0,.4-.4A.387.387,0,0,0,128.411,289.688Zm-3.416,2.362a.4.4,0,0,0-.4-.4h-1.41a.4.4,0,0,0,0,.8h1.41A.4.4,0,0,0,124.995,292.05Zm-4.085,1.381-.723-1.072a2.657,2.657,0,1,0-4.049,0l-.723,1.072c-.036.073-.036.164.036.2l.217.164a.119.119,0,0,0,.108.018l.434-.073.072.454a.1.1,0,0,0,.054.091l.217.163a.138.138,0,0,0,.09.036h.018c.036,0,.072-.036.09-.055l.8-1.181a3.1,3.1,0,0,0,1.157,0l.8,1.181a.1.1,0,0,0,.09.055h.018a.1.1,0,0,0,.09-.036l.217-.163a.1.1,0,0,0,.054-.091l.072-.436.434.073c.036,0,.09,0,.108-.018l.217-.164C120.928,293.576,120.946,293.485,120.91,293.43Zm-4.248.291-.036-.018-.054-.363c0-.036-.018-.054-.036-.054a.108.108,0,0,0-.072-.018l-.343.055-.054-.036.416-.618a1.739,1.739,0,0,0,.633.382Zm1.482-1a2.1,2.1,0,0,1-2.079-2.089,2.061,2.061,0,1,1,2.079,2.089Zm2.1.618-.362-.073c-.036,0-.054,0-.072.018a.094.094,0,0,0-.036.073l-.09.382-.036.018-.47-.708a2.26,2.26,0,0,0,.669-.4l.434.654Zm0,0" transform="translate(-113.434 -285.062)" fill="#fff"/>
  <path id="路径_24" data-name="路径 24" d="M195.941,376.521a1.381,1.381,0,1,1,1.381-1.381A1.38,1.38,0,0,1,195.941,376.521Zm0-2.162a.763.763,0,1,0,.763.763A.768.768,0,0,0,195.941,374.36Zm0,0" transform="translate(-191.216 -369.503)" fill="#fff"/>
</svg>
