<?xml version="1.0" encoding="UTF-8"?>
<svg width="11px" height="6px" viewBox="0 0 11 6" version="1.1" xmlns="http://www.w3.org/2000/svg" xmlns:xlink="http://www.w3.org/1999/xlink">
    <!-- Generator: Sketch 54.1 (76490) - https://sketchapp.com -->
    <title>箭头-2@2x</title>
    <desc>Created with Sketch.</desc>
    <g id="VC1.5.0-H5_商品订单" stroke="none" stroke-width="1" fill="none" fill-rule="evenodd">
        <g id="订单详情-交易成功详情页-2" transform="translate(-340.000000, -734.000000)" fill="#CCCCCC" fill-rule="nonzero">
            <g id="编组复制" transform="translate(12.000000, 543.000000)">
                <g id="编组-5" transform="translate(0.000000, 173.000000)">
                    <g id="编组-8" transform="translate(12.000000, 12.000000)">
                        <g id="箭头-2" transform="translate(321.500000, 9.000000) rotate(-180.000000) translate(-321.500000, -9.000000) translate(316.000000, 6.000000)">
                            <path d="M6.10286013,0.194616139 C7.66559203,1.73753052 9.22825935,3.28043463 10.7893983,4.82330792 C11.4334903,5.45860929 10.38764,6.40571545 9.7419981,5.76747573 C8.35106855,4.39439011 6.96166737,3.02128395 5.57073782,1.64896888 C4.13227794,3.02862984 2.69226815,4.4082908 1.25379751,5.78870176 C0.598963849,6.41667778 -0.446907971,5.46959217 0.207139974,4.84379422 C1.82275152,3.2935545 3.43910573,1.74410587 5.0554707,0.194605866 C5.3238298,-0.0615653674 5.83759007,-0.0681509838 6.10284937,0.194605866 L6.10286013,0.194616139 Z" id="Shape"></path>
                        </g>
                    </g>
                </g>
            </g>
        </g>
    </g>
</svg>