<svg xmlns="http://www.w3.org/2000/svg" xmlns:xlink="http://www.w3.org/1999/xlink" width="64" height="74" viewBox="0 0 64 74">
  <defs>
    <linearGradient id="linear-gradient" x1="0.5" x2="0.5" y2="0.934" gradientUnits="objectBoundingBox">
      <stop offset="0" stop-color="#494949"/>
      <stop offset="1" stop-color="#1e1e1e"/>
    </linearGradient>
  </defs>
  <g id="联系客服_2" data-name="联系客服 2" transform="translate(-283 -198)">
    <path id="路径_8" data-name="路径 8" d="M5.908,0H58.092A5.914,5.914,0,0,1,64,5.92V68.08A5.914,5.914,0,0,1,58.092,74L32.181,68.851,5.908,74A5.914,5.914,0,0,1,0,68.08V5.92A5.914,5.914,0,0,1,5.908,0Z" transform="translate(283 198)" fill="url(#linear-gradient)"/>
    <g id="组_111" data-name="组 111">
      <g id="联系客服" transform="translate(267.511 190.644)">
        <path id="路径_9" data-name="路径 9" d="M413.668,707.4a4.371,4.371,0,0,0,.488-.028,4.123,4.123,0,0,0,3.412-2.81.233.233,0,0,0-.423-.189c0,.009-.635,1.021-3.072,1.352a7.741,7.741,0,0,1-1.058.074,3.922,3.922,0,0,1-2.479-.653.231.231,0,0,0-.3,0,.239.239,0,0,0-.051.3,4.14,4.14,0,0,0,3.486,1.954ZM413.668,707.4Z" transform="translate(-366.032 -665.011)" fill="#fdb100"/>
        <path id="路径_10" data-name="路径 10" d="M60.826,27.207c-.023,0-.042,0-.06,0a13.849,13.849,0,0,0-27.147.512,2.6,2.6,0,0,0-2.131,2.567v5.144a2.6,2.6,0,0,0,2.589,2.613,2.56,2.56,0,0,0,1.992-.965,12.021,12.021,0,0,0,6.42,6.746,2.121,2.121,0,0,1,.129-.212c.046-.06.1-.111.143-.111a.237.237,0,0,1,.125.042,11.616,11.616,0,0,1-3.679-6.755,3.146,3.146,0,0,1,2.367-3.435c2.246-.416,4.479-.891,6.725-1.3a3.872,3.872,0,0,0,3-2.346,6.065,6.065,0,0,0,.434-1.805.278.278,0,0,1,.273-.235.274.274,0,0,1,.222.115l.06-.037a16.022,16.022,0,0,1,2.894,7.125c.291,3.426.129,5.772-2.5,8.173,0,0-.009,0-.009.009a.222.222,0,0,0-.06.148.214.214,0,0,0,.1.175l.065.028a.2.2,0,0,0,.051.009.2.2,0,0,0,.051-.009c.037-.018.074-.042.111-.06a12.011,12.011,0,0,0,5.635-6.834,2.639,2.639,0,0,0,1.669,1.113c-1.109,5.051-5.621,8.21-11.2,8.69a2.239,2.239,0,1,0,.042,1.491c6.467-.526,11.648-4.363,12.73-10.329a2.63,2.63,0,0,0,1.627-2.429V29.839a2.653,2.653,0,0,0-2.662-2.632ZM58.441,28.7a11.924,11.924,0,0,0-22.372-.055,2.7,2.7,0,0,0-.282-.282A11.621,11.621,0,0,1,58.7,28.283a2.427,2.427,0,0,0-.263.416ZM58.441,28.7Z" transform="translate(0 0)" fill="#fdb100"/>
        <path id="路径_11" data-name="路径 11" d="M361.773,842.173ZM361.773,842.173Z" transform="translate(-319.283 -798.326)" fill="#fdb100"/>
      </g>
      <g id="组_152" data-name="组 152">
        <g id="矩形_41" data-name="矩形 41" transform="translate(292 244)" fill="none" stroke="#fdb100" stroke-width="0.5">
          <rect width="46" height="13" rx="6.5" stroke="none"/>
          <rect x="0.25" y="0.25" width="45.5" height="12.5" rx="6.25" fill="none"/>
        </g>
        <g id="组_108" data-name="组 108" transform="translate(19663 15731)">
          <path id="路径_25" data-name="路径 25" d="M3.656-4.88v.72h1.5v.312q-.012.456-.048.888H3.536v.728H5A3.682,3.682,0,0,1,3.376.256l.456.608A4.349,4.349,0,0,0,5.6-1.672,6.486,6.486,0,0,0,7.208.832l.52-.568a5.38,5.38,0,0,1-1.68-2.5H7.6V-2.96H5.84q.048-.5.048-1.056V-4.16H7.464v-.72H6.4a11.043,11.043,0,0,0,.688-1.408l-.7-.264A10.923,10.923,0,0,1,5.64-4.88Zm.9-1.64-.584.368A10.5,10.5,0,0,1,4.7-4.9l.56-.392A9.6,9.6,0,0,0,4.552-6.52ZM.344-6.288v.7H.768V-.848L.312-.776.5-.056c.656-.128,1.288-.264,1.9-.424V.84H3.12V-.672l.472-.144v-.736c-.16.048-.312.1-.472.152V-5.584h.456v-.7ZM1.5-.984v-1.24h.9v1.032C2.1-1.12,1.8-1.048,1.5-.984Zm0-1.928v-.976h.9v.976Zm0-1.664V-5.584h.9v1.008ZM11.72.8a.68.68,0,0,0,.752-.776V-1.984c.632-.048,1.208-.1,1.736-.168.184.272.352.536.5.792l.608-.424a15.941,15.941,0,0,0-1.528-2.024l-.56.352c.192.232.368.464.544.7-.824.1-1.792.184-2.9.256a21.116,21.116,0,0,0,3.312-2.44l-.7-.344c-.36.328-.712.632-1.048.912-.56.04-1.12.072-1.68.1a7.49,7.49,0,0,0,1.3-1.2,21.455,21.455,0,0,0,3.008-.392L14.672-6.5a31.188,31.188,0,0,1-5.8.464l.224.656c.7,0,1.368-.016,2-.04a4.365,4.365,0,0,1-1.152.984,1.563,1.563,0,0,1-.512.136l.16.672c.72-.04,1.408-.088,2.048-.136A10.062,10.062,0,0,1,9.7-2.6a3.062,3.062,0,0,1-.656.136l.208.664c.88-.04,1.7-.08,2.464-.128V-.16A.231.231,0,0,1,11.456.1,7.406,7.406,0,0,1,10.64.056L10.816.8Zm1.832-2.416-.5.5A12,12,0,0,1,15.008.656l.544-.544A13.481,13.481,0,0,0,13.552-1.616ZM10.36-1.56A7.977,7.977,0,0,1,8.408,0l.48.624A8.086,8.086,0,0,0,10.9-1.08ZM20.088-2.9q-.648.216-1.368.408V-3.752h1.792a10.915,10.915,0,0,0,.264,1.528,8.259,8.259,0,0,0,.248.824A5.81,5.81,0,0,1,19.056-.224l.424.656a6.461,6.461,0,0,0,1.856-1.1A3.339,3.339,0,0,0,21.744,0a1.515,1.515,0,0,0,1.08.712c.384,0,.68-.576.88-1.712l-.672-.352Q22.876-.1,22.72-.1c-.128,0-.312-.184-.552-.544a3.77,3.77,0,0,1-.28-.544,7.65,7.65,0,0,0,1.28-1.9l-.656-.344a7.02,7.02,0,0,1-.9,1.416c-.04-.128-.08-.264-.112-.416a7.815,7.815,0,0,1-.216-1.32h2.352V-4.48H21.216q-.072-.888-.072-2.064h-.768q0,1.128.072,2.064H18.72V-5.5q.564-.156,1.08-.336l-.264-.712a10.978,10.978,0,0,1-2.976.7l.16.72c.424-.064.832-.128,1.232-.208v.848H16.368v.728h1.584V-2.32q-.756.156-1.584.288l.1.76c.512-.08,1-.176,1.48-.28V-.264a.271.271,0,0,1-.3.3,7.02,7.02,0,0,1-.8-.048l.168.728h.9a.708.708,0,0,0,.808-.792V-1.728c.48-.128.936-.256,1.368-.4Zm1.936-3.568-.512.488A8.511,8.511,0,0,1,22.92-4.848l.552-.544A10.814,10.814,0,0,0,22.024-6.472ZM30.512.76a.793.793,0,0,0,.9-.888V-6.1H28.808v.728h1.856v5.04c0,.264-.1.4-.312.4l-.76-.016.192.712Zm-2.72-7.32-.576.36a10.454,10.454,0,0,1,.808,1.264l.6-.416A8.974,8.974,0,0,0,27.792-6.56Zm-1.7-.064a8.986,8.986,0,0,1-1.848,3.272l.24.776q.4-.408.744-.84V.84h.752V-4.52A9.178,9.178,0,0,0,26.792-6.3Zm.7,1.424V.816h.752V-5.2Z" transform="translate(-19366 -15478)" fill="#fdb100"/>
          <path id="路径" d="M3.324,3.307l-.009.005L.69,5.985a.433.433,0,0,1-.57,0,.343.343,0,0,1,0-.518L2.5,3.052.119.629a.345.345,0,0,1,0-.521.436.436,0,0,1,.574,0L3.324,2.787a.345.345,0,0,1,0,.521Z" transform="translate(-19332.227 -15483.547)" fill="#fdb100"/>
        </g>
      </g>
    </g>
  </g>
</svg>
