<?xml version="1.0" encoding="UTF-8"?>
<svg width="40px" height="36px" viewBox="0 0 40 36" version="1.1" xmlns="http://www.w3.org/2000/svg" xmlns:xlink="http://www.w3.org/1999/xlink">
    <!-- Generator: Sketch 55.1 (78136) - https://sketchapp.com -->
    <title>标签-联系客服</title>
    <desc>Created with Sketch.</desc>
    <g id="标签-联系客服" stroke="none" stroke-width="1" fill="none" fill-rule="evenodd">
        <g id="标签-首页-copy-6">
            <text id="联系我们" font-family="PingFangSC-Medium, PingFang SC" font-size="10" font-weight="400" fill="#F2B036">
                <tspan x="0" y="33">联系我们</tspan>
            </text>
            <g id="首页-房屋-" transform="translate(9.000000, 0.000000)">
                <rect id="矩形" x="0" y="0" width="22" height="22"></rect>
                <g id="weixin" transform="translate(1.000000, 1.500000)" fill-rule="nonzero">
                    <path d="M17.4280799,3.07330123 C14.5317739,0.231434274 11.0071829,-0.592667 7.13262115,0.451312603 C0.310163854,2.28960611 -1.80089188,9.37793401 1.645853,13.9977968 C1.81300134,14.2218628 1.84457407,14.6351473 1.78110412,14.9258174 C1.595711,15.7751694 1.32465963,16.6055772 1.09815954,17.4463544 C0.977059976,17.8959072 0.905353683,18.3528135 1.30871102,18.7135027 C1.74231832,19.101337 2.20689932,19.0217461 2.6808648,18.7811537 C3.4584028,18.3865144 4.25001751,18.0183721 5.01654873,17.6037166 C5.51579737,17.3336609 5.96405539,17.3197268 6.52734802,17.476067 C7.65083839,17.7878501 8.81313954,17.9601433 9.40520951,18.078919 C12.9251582,18.0155055 15.4932824,17.062259 17.5505272,14.9246957 C20.8264049,11.5209812 20.8025194,6.38426352 17.4280799,3.07330123 Z" id="路径" fill="#F2B036"></path>
                    <path d="M16.1341217,13.6380548 C13.5820709,16.1677399 10.4755129,16.7726857 7.11664759,15.6475199 C6.00913078,15.2765359 5.09991073,15.1796459 4.13887646,15.830058 C4.05164585,15.8890844 3.93281754,15.9015477 3.49222183,16.0456988 C4.37688251,14.5130813 3.72194159,13.5544257 2.97560195,12.4674975 C1.31984261,10.0562142 1.65760854,6.94715803 3.62882073,4.70330731 C6.84899063,1.03776285 13.1557266,1.0401558 16.3759963,4.70809323 C18.7108316,7.36749678 18.6609392,11.1333712 16.1341217,13.6380548 Z" id="路径" fill="#E1FDEC"></path>
                    <path d="M13.1299941,6.22206556 C12.4898537,6.19863447 11.9724851,6.67500843 11.9359456,7.32160676 C11.8985574,7.98311125 12.3417239,8.4964515 12.9921473,8.54510838 C13.6402246,8.59356586 14.1836251,8.14894851 14.2499154,7.51601001 C14.3198247,6.84839849 13.7989868,6.24659341 13.1299941,6.22206556 Z" id="路径" fill="#F2B036"></path>
                    <path d="M6.90784322,6.22096879 C6.2308388,6.22597907 5.71546688,6.79789702 5.76585846,7.48821676 C5.81318015,8.13641039 6.33059868,8.5821993 6.99055632,8.54338846 C7.63703624,8.50537526 8.11614322,7.98590306 8.09183346,7.34930033 C8.06824749,6.73149232 7.5277172,6.21638227 6.90784322,6.22096879 Z" id="路径" fill="#F2B036"></path>
                </g>
            </g>
        </g>
    </g>
</svg>