<?xml version="1.0" encoding="UTF-8"?>
<svg width="59px" height="66px" viewBox="0 0 59 66" version="1.1" xmlns="http://www.w3.org/2000/svg" xmlns:xlink="http://www.w3.org/1999/xlink">
    <!-- Generator: Sketch 54.1 (76490) - https://sketchapp.com -->
    <title>标签-购物车（未选中）</title>
    <desc>Created with Sketch.</desc>
    <g id="控件组" stroke="none" stroke-width="1" fill="none" fill-rule="evenodd">
        <g id="标签-购物车（未选中）" transform="translate(0.000000, -2.000000)">
            <g id="标签-首页-copy-5">
                <path d="M8.54,49.28 L8.54,54.54 C9.72,52.86 10.52,50.86 10.96,48.54 L12.8,48.78 C12.64,49.66 12.42,50.52 12.16,51.32 L18.6,51.32 C18.6,58.4 18.5,62.76 18.3,64.4 C18.1,66.04 17.2,66.88 15.56,66.88 C15,66.88 14.04,66.84 12.66,66.8 L12.22,65.1 C13.38,65.16 14.4,65.2 15.28,65.2 C15.98,65.2 16.4,64.7 16.52,63.7 C16.64,62.66 16.7,59.16 16.74,53.16 L11.44,53.16 C10.88,54.34 10.22,55.42 9.46,56.38 L8.54,55.2 L8.54,62.02 L6.86,62.02 L6.86,51.02 L3.14,51.02 L3.14,62.02 L1.44,62.02 L1.44,49.28 L8.54,49.28 Z M14.52,57.44 C15.12,59 15.7,60.72 16.26,62.58 L14.72,63.36 C14.6,62.88 14.46,62.42 14.34,61.98 C12.82,62.3 11.18,62.56 9.4,62.74 L9.1,61.1 C9.74,60.78 10.64,58.62 11.78,54.64 L13.5,55.22 C12.74,57.48 11.96,59.38 11.2,60.94 C12.14,60.84 13.04,60.68 13.88,60.48 C13.62,59.64 13.36,58.86 13.08,58.14 L14.52,57.44 Z M4.2,52.28 L5.76,52.28 L5.76,58.84 C5.72,61.08 5.38,62.88 4.76,64.2 C4.16,65.44 3.18,66.42 1.82,67.1 L0.82,65.52 C2.1,64.86 2.98,64.04 3.44,63.04 C3.88,61.96 4.14,60.56 4.2,58.84 L4.2,52.28 Z M6.62,62.52 C7.7,63.56 8.64,64.58 9.4,65.6 L8.02,66.94 C7.42,65.94 6.54,64.86 5.42,63.7 L6.62,62.52 Z M29.82,48.56 L31.62,49.02 C31.42,49.98 31.2,50.86 30.96,51.66 L38.58,51.66 C38.58,58.54 38.48,62.78 38.28,64.38 C38.04,66.1 36.92,66.96 34.9,66.96 C34.62,66.96 34.12,66.92 33.4,66.88 L32.96,65.18 C33.6,65.24 34.14,65.28 34.62,65.28 C35.72,65.28 36.36,64.7 36.52,63.54 C36.64,62.54 36.72,59.2 36.76,53.5 L35.86,53.5 C35.42,56.74 34.84,59.32 34.08,61.22 C33.16,63.34 31.78,65.22 29.98,66.9 L28.8,65.4 C30.44,63.92 31.66,62.26 32.5,60.42 C33.22,58.68 33.78,56.38 34.14,53.5 L32.98,53.5 C32.16,57.78 30.66,60.9 28.46,62.86 L27.24,61.44 C29.2,59.76 30.56,57.12 31.3,53.5 L30.3,53.5 C29.78,54.7 29.2,55.72 28.54,56.52 L27.14,55.34 C28.4,53.76 29.3,51.5 29.82,48.56 Z M22.94,54.46 C22.78,55.42 22.56,56.34 22.32,57.24 L20.66,56.78 C21.26,54.66 21.6,52.44 21.68,50.12 L23.36,50.24 C23.32,51.04 23.26,51.84 23.18,52.62 L24.22,52.62 L24.22,48.62 L26.06,48.62 L26.06,52.62 L27.52,52.62 L27.52,54.46 L26.06,54.46 L26.06,58.68 C26.54,58.46 27,58.24 27.44,58.02 L27.44,59.82 C26.98,60.04 26.52,60.26 26.06,60.46 L26.06,67.06 L24.22,67.06 L24.22,61.2 C23.28,61.56 22.32,61.88 21.34,62.18 L20.9,60.34 C22.02,60.1 23.14,59.8 24.22,59.42 L24.22,54.46 L22.94,54.46 Z M41.66,51.02 L46.28,51.02 C46.64,50.2 47,49.34 47.34,48.46 L49.24,48.88 C48.94,49.64 48.64,50.34 48.34,51.02 L58.32,51.02 L58.32,52.86 L47.44,52.86 C46.64,54.38 45.76,55.72 44.82,56.92 L49.28,56.92 L49.28,54.24 L51.22,54.24 L51.22,56.92 L57.24,56.92 L57.24,58.66 L51.22,58.66 L51.22,61.2 L58.62,61.2 L58.62,63.04 L51.22,63.04 L51.22,67.18 L49.28,67.18 L49.28,63.04 L41.4,63.04 L41.4,61.2 L49.28,61.2 L49.28,58.66 L42.84,58.66 L42.4,56.92 C43.46,55.84 44.44,54.5 45.34,52.86 L41.66,52.86 L41.66,51.02 Z" id="购物车" fill="#999999" fill-rule="nonzero"></path>
                <g id="首页" transform="translate(8.000000, 0.000000)">
                    <rect id="矩形" x="0" y="0" width="44" height="44"></rect>
                    <g id="分组-2" transform="translate(4.329218, 4.753131)">
                        <path d="M0,-2.84217094e-14 C3.39501353,18.8222607 5.09252029,28.2333911 5.09252029,28.2333911 C22.6315126,28.2333911 31.4010088,28.2333911 31.4010088,28.2333911 L35.6393615,6.59447937 L4.00189842,6.59447937" id="路径-3" stroke="#CCCCCC" stroke-width="4" stroke-linecap="round" stroke-linejoin="round"></path>
                        <circle id="椭圆形" fill="#CCCCCC" cx="8.17078225" cy="34.5" r="2.5"></circle>
                        <circle id="椭圆形-copy-3" fill="#CCCCCC" cx="28.5" cy="34.5" r="2.5"></circle>
                        <path d="M25.0300533,11.6072397 C26.2921276,11.8582944 27.1195414,13.095729 26.8844497,14.380573 L25.5548825,21.3613138 C25.3078309,22.6438383 24.0901276,23.4846593 22.8257709,23.2457582 C21.5636966,22.9947035 20.7362828,21.7572689 20.9713745,20.4724249 L22.3009417,13.4916841 C22.5479933,12.2091595 23.7656966,11.3683386 25.0300533,11.6072397 L25.0300533,11.6072397 Z" id="路径" fill="#CCCCCC" fill-rule="nonzero"></path>
                    </g>
                </g>
            </g>
        </g>
    </g>
</svg>
