<?xml version="1.0" encoding="UTF-8"?>
<svg width="30px" height="34px" viewBox="0 0 30 34" version="1.1" xmlns="http://www.w3.org/2000/svg" xmlns:xlink="http://www.w3.org/1999/xlink">
    <!-- Generator: Sketch 54.1 (76490) - https://sketchapp.com -->
    <title>标签-购物车（选中）</title>
    <desc>Created with Sketch.</desc>
    <g id="控件组" stroke="none" stroke-width="1" fill="none" fill-rule="evenodd">
        <g id="画板" transform="translate(-197.000000, -175.000000)">
            <g id="标签-购物车（选中）" transform="translate(197.000000, 174.000000)">
                <g id="标签-首页-copy-5">
                    <path d="M4.27,25.14 L4.27,27.77 C4.86,26.93 5.26,25.93 5.48,24.77 L6.4,24.89 C6.32,25.33 6.21,25.76 6.08,26.16 L9.3,26.16 C9.3,29.7 9.25,31.88 9.15,32.7 C9.05,33.52 8.6,33.94 7.78,33.94 C7.5,33.94 7.02,33.92 6.33,33.9 L6.11,33.05 C6.69,33.08 7.2,33.1 7.64,33.1 C7.99,33.1 8.2,32.85 8.26,32.35 C8.32,31.83 8.35,30.08 8.37,27.08 L5.72,27.08 C5.44,27.67 5.11,28.21 4.73,28.69 L4.27,28.1 L4.27,31.51 L3.43,31.51 L3.43,26.01 L1.57,26.01 L1.57,31.51 L0.72,31.51 L0.72,25.14 L4.27,25.14 Z M7.26,29.22 C7.56,30 7.85,30.86 8.13,31.79 L7.36,32.18 C7.3,31.94 7.23,31.71 7.17,31.49 C6.41,31.65 5.59,31.78 4.7,31.87 L4.55,31.05 C4.87,30.89 5.32,29.81 5.89,27.82 L6.75,28.11 C6.37,29.24 5.98,30.19 5.6,30.97 C6.07,30.92 6.52,30.84 6.94,30.74 C6.81,30.32 6.68,29.93 6.54,29.57 L7.26,29.22 Z M2.1,26.64 L2.88,26.64 L2.88,29.92 C2.86,31.04 2.69,31.94 2.38,32.6 C2.08,33.22 1.59,33.71 0.91,34.05 L0.41,33.26 C1.05,32.93 1.49,32.52 1.72,32.02 C1.94,31.48 2.07,30.78 2.1,29.92 L2.1,26.64 Z M3.31,31.76 C3.85,32.28 4.32,32.79 4.7,33.3 L4.01,33.97 C3.71,33.47 3.27,32.93 2.71,32.35 L3.31,31.76 Z M14.91,24.78 L15.81,25.01 C15.71,25.49 15.6,25.93 15.48,26.33 L19.29,26.33 C19.29,29.77 19.24,31.89 19.14,32.69 C19.02,33.55 18.46,33.98 17.45,33.98 C17.31,33.98 17.06,33.96 16.7,33.94 L16.48,33.09 C16.8,33.12 17.07,33.14 17.31,33.14 C17.86,33.14 18.18,32.85 18.26,32.27 C18.32,31.77 18.36,30.1 18.38,27.25 L17.93,27.25 C17.71,28.87 17.42,30.16 17.04,31.11 C16.58,32.17 15.89,33.11 14.99,33.95 L14.4,33.2 C15.22,32.46 15.83,31.63 16.25,30.71 C16.61,29.84 16.89,28.69 17.07,27.25 L16.49,27.25 C16.08,29.39 15.33,30.95 14.23,31.93 L13.62,31.22 C14.6,30.38 15.28,29.06 15.65,27.25 L15.15,27.25 C14.89,27.85 14.6,28.36 14.27,28.76 L13.57,28.17 C14.2,27.38 14.65,26.25 14.91,24.78 Z M11.47,27.73 C11.39,28.21 11.28,28.67 11.16,29.12 L10.33,28.89 C10.63,27.83 10.8,26.72 10.84,25.56 L11.68,25.62 C11.66,26.02 11.63,26.42 11.59,26.81 L12.11,26.81 L12.11,24.81 L13.03,24.81 L13.03,26.81 L13.76,26.81 L13.76,27.73 L13.03,27.73 L13.03,29.84 C13.27,29.73 13.5,29.62 13.72,29.51 L13.72,30.41 C13.49,30.52 13.26,30.63 13.03,30.73 L13.03,34.03 L12.11,34.03 L12.11,31.1 C11.64,31.28 11.16,31.44 10.67,31.59 L10.45,30.67 C11.01,30.55 11.57,30.4 12.11,30.21 L12.11,27.73 L11.47,27.73 Z M20.83,26.01 L23.14,26.01 C23.32,25.6 23.5,25.17 23.67,24.73 L24.62,24.94 C24.47,25.32 24.32,25.67 24.17,26.01 L29.16,26.01 L29.16,26.93 L23.72,26.93 C23.32,27.69 22.88,28.36 22.41,28.96 L24.64,28.96 L24.64,27.62 L25.61,27.62 L25.61,28.96 L28.62,28.96 L28.62,29.83 L25.61,29.83 L25.61,31.1 L29.31,31.1 L29.31,32.02 L25.61,32.02 L25.61,34.09 L24.64,34.09 L24.64,32.02 L20.7,32.02 L20.7,31.1 L24.64,31.1 L24.64,29.83 L21.42,29.83 L21.2,28.96 C21.73,28.42 22.22,27.75 22.67,26.93 L20.83,26.93 L20.83,26.01 Z" id="购物车" fill="#F2B036" fill-rule="nonzero"></path>
                    <g id="首页" transform="translate(4.000000, 0.000000)">
                        <rect id="矩形" x="0" y="0" width="22" height="22"></rect>
                        <g id="分组-2" transform="translate(2.164609, 2.376565)">
                            <path d="M0,-2.84217094e-14 C1.69750676,9.41113037 2.54626015,14.1166956 2.54626015,14.1166956 C11.3157563,14.1166956 15.7005044,14.1166956 15.7005044,14.1166956 L17.8196808,3.29723969 L2.00094921,3.29723969" id="路径-3" stroke="#F2B036" stroke-width="2" fill="#E1FDEC" stroke-linecap="round" stroke-linejoin="round"></path>
                            <circle id="椭圆形" fill="#F2B036" cx="4.08539112" cy="17.25" r="1.25"></circle>
                            <circle id="椭圆形-copy-3" fill="#F2B036" cx="14.25" cy="17.25" r="1.25"></circle>
                            <path d="M12.5150267,5.80361984 C13.1460638,5.92914722 13.5597707,6.54786451 13.4422248,7.19028651 L12.7774412,10.6806569 C12.6539154,11.3219192 12.0450638,11.7423296 11.4128854,11.6228791 C10.7818483,11.4973517 10.3681414,10.8786344 10.4856873,10.2362124 L11.1504709,6.74584206 C11.2739967,6.10457977 11.8828483,5.6841693 12.5150267,5.80361984 L12.5150267,5.80361984 Z" id="路径" fill="#F2B036" fill-rule="nonzero"></path>
                        </g>
                    </g>
                </g>
            </g>
        </g>
    </g>
</svg>
