<?xml version="1.0" encoding="UTF-8"?>
<svg width="20px" height="33px" viewBox="0 0 20 33" version="1.1" xmlns="http://www.w3.org/2000/svg" xmlns:xlink="http://www.w3.org/1999/xlink">
    <!-- Generator: Sketch 54.1 (76490) - https://sketchapp.com -->
    <title>标签-分类（未选中）</title>
    <desc>Created with Sketch.</desc>
    <g id="控件组" stroke="none" stroke-width="1" fill="none" fill-rule="evenodd">
        <g id="画板" transform="translate(-148.000000, -111.000000)">
            <g id="标签-分类（未选中）" transform="translate(147.000000, 109.000000)">
                <g id="标签-首页-copy-4">
                    <text x="1" y="32" fill="#999999" fill-rule="nonzero" font-family="Microsoft YaHei UI" font-size="10" font-weight="500">分类</text>
                    <!--<path d="M4.5,24.99 L5.32,25.49 C4.86,26.31 4.39,26.99 3.92,27.51 C3.44,28.05 2.78,28.62 1.92,29.22 L1.4,28.39 C2.04,28.03 2.64,27.54 3.2,26.91 C3.66,26.38 4.09,25.74 4.5,24.99 Z M4.79,29.61 L2.92,29.61 L2.92,28.7 L8.97,28.7 C8.93,29.98 8.87,31.01 8.77,31.81 C8.67,32.59 8.51,33.14 8.28,33.45 C8.05,33.75 7.68,33.92 7.17,33.95 L5.28,33.95 L5.02,33.01 C5.61,33.03 6.17,33.05 6.69,33.05 C7.19,33.05 7.53,32.84 7.69,32.42 C7.85,31.98 7.96,31.04 8.01,29.61 L5.75,29.61 C5.51,30.65 5.19,31.48 4.79,32.1 C4.27,32.82 3.5,33.48 2.48,34.06 L1.87,33.27 C2.77,32.79 3.46,32.25 3.92,31.66 C4.29,31.13 4.58,30.45 4.79,29.61 Z M7.54,24.86 C8.09,26.36 9.1,27.55 10.58,28.43 L9.94,29.18 C8.4,28.18 7.32,26.9 6.71,25.33 L7.54,24.86 Z M16.48,28.33 L16.48,29.32 L15.52,29.32 L15.52,27.6 C14.91,28.48 13.81,29.25 12.21,29.89 L11.7,29.07 C13.1,28.63 14.08,28.14 14.65,27.6 L11.75,27.6 L11.75,26.71 L15.52,26.71 L15.52,24.79 L16.48,24.79 L16.48,26.71 L20.25,26.71 L20.25,27.6 L16.48,27.6 L16.48,27.7 C17.82,28.06 19.04,28.48 20.14,28.98 L19.63,29.77 C18.6,29.17 17.55,28.69 16.48,28.33 Z M15.92,31.58 C15.72,31.93 15.5,32.24 15.24,32.51 C14.6,33.15 13.49,33.65 11.91,34.03 L11.54,33.15 C12.88,32.86 13.86,32.45 14.46,31.92 C14.65,31.75 14.81,31.56 14.94,31.36 L11.67,31.36 L11.67,30.47 L15.36,30.47 C15.44,30.2 15.51,29.92 15.55,29.62 L16.51,29.62 C16.47,29.92 16.41,30.2 16.34,30.47 L20.33,30.47 L20.33,31.36 L16.79,31.36 C17.69,32.23 18.92,32.85 20.48,33.21 L20,34.05 C18.2,33.56 16.84,32.74 15.92,31.58 Z M13.65,24.94 C13.93,25.34 14.17,25.81 14.39,26.35 L13.59,26.55 C13.39,26.09 13.13,25.64 12.83,25.21 L13.65,24.94 Z M18.34,24.92 L19.17,25.13 C18.96,25.67 18.69,26.14 18.35,26.55 L17.56,26.27 C17.86,25.91 18.12,25.46 18.34,24.92 Z" id="分类" fill="#999999" fill-rule="nonzero"></path>-->
                    <g id="首页">
                        <rect id="矩形" x="0" y="0" width="22" height="22"></rect>
                        <g id="分组-3" transform="translate(1.000000, 2.000000)">
                            <circle id="椭圆形" stroke="#CCCCCC" stroke-width="2.2" cx="3.5" cy="3.5" r="2.4"></circle>
                            <circle id="椭圆形-copy" stroke="#CCCCCC" stroke-width="2.2" cx="16.5" cy="14.5" r="2.4"></circle>
                            <rect id="矩形" fill="#CCCCCC" x="9" y="2" width="11" height="2.5" rx="1.25"></rect>
                            <rect id="矩形-copy-2" fill="#CCCCCC" x="0" y="13" width="11" height="2.5" rx="1.25"></rect>
                        </g>
                    </g>
                </g>
            </g>
        </g>
    </g>
</svg>
