<?xml version="1.0" encoding="UTF-8"?>
<svg width="24px" height="21px" viewBox="0 0 24 21" version="1.1" xmlns="http://www.w3.org/2000/svg" xmlns:xlink="http://www.w3.org/1999/xlink">
    <!-- Generator: Sketch 53 (72520) - https://sketchapp.com -->
    <title>班级</title>
    <desc>Created with Sketch.</desc>
    <g id="详情页" stroke="none" stroke-width="1" fill="none" fill-rule="evenodd">
        <g id="免费试听" transform="translate(-74.000000, -1084.000000)">
            <g id="详情" transform="translate(40.000000, 796.000000)">
                <g id="分组-20-Copy-2" transform="translate(30.000000, 281.000000)">
                    <g id="班级" transform="translate(0.000000, 1.000000)">
                        <rect id="矩形" fill="#000000" opacity="0" x="0" y="0" width="32" height="32"></rect>
                        <rect id="矩形" stroke="#EEEEEE" stroke-width="1.5" x="5.75" y="14.55" width="20.5" height="10.5" rx="3"></rect>
                        <g id="jiaoshi" transform="translate(4.000000, 6.000000)" fill="#CCCCCC" fill-rule="nonzero">
                            <path d="M22.3888748,7.4371212 C22.3565107,5.99873737 21.5312263,4.73813131 20.3337547,4.05934343 C20.6250316,3.65530303 20.7868521,3.17045453 20.7868521,2.65328284 C20.7868521,1.29570708 19.6541087,0.180555561 18.2462705,0.180555561 C16.8384323,0.180555561 15.705689,1.29570708 15.705689,2.65328284 C15.705689,3.17045456 15.8675095,3.65530303 16.1587863,4.05934343 C15.1878635,4.60883839 14.4596713,5.53005051 14.2007585,6.62904041 L9.96106195,6.62904041 C9.71833123,5.44924243 8.97395703,4.46338386 7.93830595,3.89772727 C8.21340077,3.49368687 8.35903919,3.02499999 8.35903919,2.50782827 C8.35903919,1.13409089 7.25865993,0.018939375 5.88318584,0.0189394015 C4.50771175,0.018939428 3.40733249,1.15025254 3.40733249,2.52398989 C3.40733249,3.07348486 3.58533502,3.57449495 3.87661189,3.97853535 C2.7276865,4.64116161 1.95094819,5.85328283 1.88621997,7.24318183 C0.769658655,7.95429295 0.0252844513,9.21489901 0.0252844513,10.6371212 L0.0252844513,16.9886364 C0.0252844513,18.604798 0.963843239,19.994697 2.33931733,20.625 C2.35549938,20.625 2.37168143,20.6411616 2.38786346,20.6411616 C2.88950695,20.8674242 3.43969659,20.9805556 4.02225032,20.9805556 L19.9777497,20.9805556 C22.1946903,20.9805556 23.9747155,19.1866162 23.9747155,16.9724747 L23.9747155,10.6371212 C23.9747155,9.3280303 23.3436157,8.16439395 22.3888748,7.4371212 Z M17.3238938,2.65328284 C17.3238938,2.18459598 17.728445,1.79671718 18.2462705,1.79671718 C18.7640961,1.79671718 19.1686473,2.18459595 19.1686473,2.65328284 C19.1686473,3.12196972 18.747914,3.5098485 18.2462705,3.5098485 C17.744627,3.5098485 17.3238938,3.12196972 17.3238938,2.65328284 L17.3238938,2.65328284 Z M18.2462705,5.12601011 C19.3304677,5.12601011 20.2366625,5.77247475 20.6088496,6.67752525 C20.414665,6.645202 20.2042984,6.62904041 19.9939317,6.62904041 L15.8998736,6.62904041 C16.2720607,5.74015151 17.1782554,5.12601011 18.2462705,5.12601011 L18.2462705,5.12601011 Z M5.88318584,1.6189394 C6.36864727,1.6189394 6.7731985,2.0229798 6.7731985,2.50782827 C6.7731985,2.99267675 6.3686473,3.39671717 5.88318584,3.39671717 C5.38154235,3.39671717 4.99317319,2.99267678 4.99317319,2.50782827 C4.99317319,2.02297977 5.39772438,1.61893937 5.88318584,1.6189394 Z M5.96409608,5.01287879 C7.04829329,5.01287879 7.97067003,5.69166667 8.31049304,6.62904041 L4.02225032,6.62904041 C3.87661189,6.62904041 3.7471555,6.62904041 3.61769912,6.64520203 C3.94134008,5.70782829 4.87989887,5.01287879 5.96409608,5.01287879 Z M3.53678888,19.3482323 C3.79570165,18.2815657 4.78280658,17.4734848 5.96409608,17.4734848 C7.16156764,17.4734848 8.16485461,18.2977273 8.40758533,19.3967172 L4.02225032,19.3967172 C3.86042984,19.3967172 3.69860936,19.3805555 3.53678888,19.3482323 Z M5.88318584,15.8573232 C5.38154235,15.8573232 4.99317319,15.4532828 4.99317319,14.9684344 C4.99317319,14.4835859 5.39772438,14.0795455 5.88318584,14.0795455 C6.3686473,14.0795455 6.7731985,14.4835859 6.7731985,14.9684344 C6.7731985,15.4532829 6.3686473,15.8573233 5.88318584,15.8573232 Z M15.7704172,19.3967172 C16.0131479,18.3138889 17.0326169,17.5058081 18.2462705,17.5058081 C19.411378,17.5058081 20.3984829,18.265404 20.6897598,19.2997475 C20.4632111,19.3643939 20.2366625,19.3967172 19.9939317,19.3967172 L15.7704172,19.3967172 L15.7704172,19.3967172 Z M17.3238938,15.0330808 C17.3238938,14.564394 17.728445,14.1765152 18.2462705,14.1765152 C18.7640961,14.1765152 19.1686473,14.5643939 19.1686473,15.0330808 C19.1686473,15.5017677 18.747914,15.8896465 18.2462705,15.8896465 C17.744627,15.8896465 17.3238938,15.5017677 17.3238938,15.0330808 Z M22.3888748,16.9886364 C22.3888748,17.4573232 22.2594185,17.8936869 22.0328698,18.265404 C21.6768647,17.5058081 21.0781289,16.8593435 20.3337547,16.4391414 C20.6250316,16.035101 20.7868521,15.5502525 20.7868521,15.0330808 C20.7868521,13.6755051 19.6379267,12.5603535 18.2462705,12.5603535 C16.8546144,12.5603535 15.705689,13.6755051 15.705689,15.0330808 C15.705689,15.5502525 15.8675095,16.035101 16.1587863,16.4391414 C15.0745891,17.0532828 14.2978508,18.1361111 14.1360303,19.3967172 L10.0096081,19.3967172 C9.8477876,18.0876262 9.05486724,16.9724747 7.93830595,16.3583333 C8.21340077,15.9542929 8.35903919,15.485606 8.35903919,14.9684344 C8.35903919,13.594697 7.24247788,12.4795455 5.88318584,12.4795455 C4.52389381,12.4795455 3.40733249,13.594697 3.40733249,14.9684344 C3.40733249,15.5179293 3.58533502,16.0189394 3.89279392,16.4391414 C3.09987356,16.9078283 2.48495575,17.6189394 2.14513274,18.4916667 C1.82149179,18.0876263 1.6273072,17.5542929 1.6273072,17.004798 L1.6273072,10.6371212 C1.6273072,9.31186871 2.69532236,8.22904041 4.02225032,8.22904041 L9.08723135,8.22904041 C9.13577748,8.24520203 9.18432364,8.24520203 9.24905182,8.24520203 C9.29759796,8.24520203 9.34614412,8.24520203 9.39469027,8.22904041 L19.9939317,8.22904041 C21.3208597,8.22904041 22.3888748,9.31186868 22.3888748,10.6371212 L22.3888748,16.9886364 L22.3888748,16.9886364 Z" id="形状"></path>
                        </g>
                    </g>
                </g>
            </g>
        </g>
    </g>
</svg>