<?xml version="1.0" encoding="UTF-8"?>
<svg width="28px" height="28px" viewBox="0 0 28 28" version="1.1" xmlns="http://www.w3.org/2000/svg" xmlns:xlink="http://www.w3.org/1999/xlink">
    <!-- Generator: Sketch 53 (72520) - https://sketchapp.com -->
    <title>关  闭@2x</title>
    <desc>Created with Sketch.</desc>
    <g id="分类" stroke="none" stroke-width="1" fill="none" fill-rule="evenodd">
        <g transform="translate(-36.000000, -62.000000)" fill="#000000" fill-rule="nonzero" id="分组">
            <g transform="translate(0.000000, 40.000000)">
                <g id="关--闭" transform="translate(36.000000, 22.000000)">
                    <path d="M16.1741105,13.9931974 L27.5590379,2.59592191 C28.1337205,2.02061605 28.1337205,1.07213883 27.5590379,0.496832972 L27.4969101,0.434637744 C26.9222275,-0.140668113 25.9747779,-0.140668113 25.4000953,0.434637744 L14.0151679,11.847462 L2.63024052,0.434637744 C2.05555796,-0.140668113 1.10810834,-0.140668113 0.533425785,0.434637744 L0.471297941,0.496832972 C-0.118916576,1.07213883 -0.118916576,2.02061605 0.471297941,2.59592191 L11.8562254,13.9931974 L0.471297941,25.3904729 C-0.103384615,25.9657787 -0.103384615,26.914256 0.471297941,27.4895618 L0.533425785,27.551757 C1.10810834,28.1270629 2.05555796,28.1270629 2.63024052,27.551757 L14.0151679,16.1544816 L25.4000953,27.551757 C25.9747779,28.1270629 26.9222275,28.1270629 27.4969101,27.551757 L27.5590379,27.4895618 C28.1337205,26.914256 28.1337205,25.9657787 27.5590379,25.3904729 L16.1741105,13.9931974 Z" id="Shape"></path>
                </g>
            </g>
        </g>
    </g>
</svg>