<?xml version="1.0" standalone="no"?><!DOCTYPE svg PUBLIC "-//W3C//DTD SVG 1.1//EN" "http://www.w3.org/Graphics/SVG/1.1/DTD/svg11.dtd"><svg class="icon" width="200px" height="200.00px" viewBox="0 0 1024 1024" version="1.1" xmlns="http://www.w3.org/2000/svg"><path fill="#e6e6e6" d="M512 64a448 448 0 1 1-448 448 448 448 0 0 1 448-448m0-64a512 512 0 1 0 512 512 512 512 0 0 0-512-512z"  /><path fill="#e6e6e6" d="M715.52 671.36L556.8 512l159.36-159.36a32 32 0 0 0-45.44-44.8L512 466.56 353.92 309.12a32 32 0 0 0-45.44 45.44L465.92 512l-157.44 157.44a32 32 0 0 0 45.44 45.44L512 557.44l159.36 159.36a31.36 31.36 0 0 0 44.8-44.8z"  /></svg>