<?xml version="1.0" standalone="no"?><!DOCTYPE svg PUBLIC "-//W3C//DTD SVG 1.1//EN" "http://www.w3.org/Graphics/SVG/1.1/DTD/svg11.dtd"><svg t="1551230559905" class="icon" style="" viewBox="0 0 1024 1024" version="1.1" xmlns="http://www.w3.org/2000/svg" p-id="3057" xmlns:xlink="http://www.w3.org/1999/xlink" width="200" height="200"><defs><style type="text/css"></style></defs><path d="M401.297297 645.31373C272.328649 599.731892 179.891892 476.713514 179.891892 332.108108 179.891892 148.701405 328.593297 0 512 0s332.108108 148.701405 332.108108 332.108108c0 144.605405-92.436757 267.623784-221.405405 313.205622V697.427027h52.998919a74.724324 74.724324 0 0 1 74.724324 74.724324v16.605406a74.724324 74.724324 0 0 1-74.724324 74.724324H622.702703v38.745946a99.632432 99.632432 0 0 1-99.632433 99.632432h-22.14054A99.632432 99.632432 0 0 1 401.297297 902.227027v-256.913297zM512 442.810811a110.702703 110.702703 0 1 0 0-221.405406 110.702703 110.702703 0 0 0 0 221.405406z" fill="#CCCCCC" p-id="3058"></path></svg>