<svg xmlns="http://www.w3.org/2000/svg" xmlns:xlink="http://www.w3.org/1999/xlink" width="15" height="15" viewBox="0 0 15 15">
  <defs>
    <style>
      .cls-1 {
        fill: #acacac;
      }

      .cls-2 {
        clip-path: url(#clip-path);
      }

      .cls-3 {
        fill: #3ea8ff;
      }

      .cls-4 {
        fill: #40d2ff;
      }
    </style>
    <clipPath id="clip-path">
      <rect id="矩形_33" data-name="矩形 33" class="cls-1" width="15" height="15" transform="translate(25 340)"/>
    </clipPath>
  </defs>
  <g id="蒙版组_5" data-name="蒙版组 5" class="cls-2" transform="translate(-25 -340)">
    <g id="联系人" transform="translate(17.74 337.388)">
      <path id="路径_26" data-name="路径 26" class="cls-3" d="M15.249,10.593a3.979,3.979,0,0,0,1.5-1.744,3.791,3.791,0,0,0-.127-3.258,3.639,3.639,0,0,0-2.545-1.945,3.685,3.685,0,0,0-1.6,0,3.791,3.791,0,0,0-2.714,5.14,3.965,3.965,0,0,0,1.55,1.814A6.046,6.046,0,0,0,7.26,15.857V16.4c.046.082.093.165.137.249,3.653.015,7.3-.025,10.958-.019.315-.013.857.167.923-.289A5.83,5.83,0,0,0,18.2,12.825a6.1,6.1,0,0,0-2.952-2.232Z"/>
      <path id="路径_27" data-name="路径 27" class="cls-4" d="M19.1,10.32A3.359,3.359,0,0,0,20.326,8.61,3.405,3.405,0,0,0,19.9,5.693a3.1,3.1,0,0,0-2.154-1.352c-.222-.023-.492-.074-.672.093-.122.11-.22.348-.051.46a3.142,3.142,0,0,1,.872,1.5,4.217,4.217,0,0,1-.887,3.8.29.29,0,0,0-.017.393c.192.146.422.232.6.393A7.111,7.111,0,0,1,20.123,15.5c.663,0,1.328,0,1.994,0,.049-.078.1-.156.144-.237v-.553a5.221,5.221,0,0,0-3.157-4.4Z"/>
    </g>
  </g>
</svg>
