<?xml version="1.0" encoding="UTF-8"?>
<svg width="20px" height="20px" viewBox="0 0 20 20" version="1.1" xmlns="http://www.w3.org/2000/svg" xmlns:xlink="http://www.w3.org/1999/xlink">
    <!-- Generator: Sketch 55.1 (78136) - https://sketchapp.com -->
    <title>fuzhi</title>
    <desc>Created with Sketch.</desc>
    <g id="首页-固定组件-联系我们" stroke="none" stroke-width="1" fill="none" fill-rule="evenodd">
        <g transform="translate(-325.000000, -540.000000)" fill="#3548C4" fill-rule="nonzero" id="My-Trips">
            <g transform="translate(0.000000, 448.000000)">
                <g id="编组-4">
                    <g transform="translate(10.000000, 64.000000)">
                        <g id="fuzhi" transform="translate(315.000000, 28.000000)">
                            <path d="M14.9971354,5 L15,5.00286458 L15,18.3304687 L14.9971354,18.3333333 L1.66953125,18.3333333 L1.66666667,18.3304687 L1.66666667,5.00286458 L1.66953125,5 L14.9971354,5 L14.9971354,5 Z M15,3.33333333 L1.66666667,3.33333333 C0.747319949,3.33605056 0.00271722828,4.08065328 -1.42108547e-14,5 L-1.42108547e-14,18.3333333 C0.00271722828,19.2526801 0.747319949,19.9972828 1.66666667,20 L15,20 C15.9193467,19.9972828 16.6639494,19.2526801 16.6666667,18.3333333 L16.6666667,5 C16.6639494,4.08065328 15.9193467,3.33605056 15,3.33333333 L15,3.33333333 Z" id="形状"></path>
                            <path d="M13.3333333,8.33333333 L3.33333333,8.33333333 L3.33333333,10 L13.3333333,10 L13.3333333,8.33333333 Z M13.3333333,13.3333333 L3.33333333,13.3333333 L3.33333333,15 L13.3333333,15 L13.3333333,13.3333333 Z" id="形状"></path>
                            <path d="M18.3333333,-1.42108547e-14 L5,-1.42108547e-14 C4.08065328,0.00271722828 3.33605056,0.747319949 3.33333333,1.66666667 L3.33333333,2.5 L5,2.5 L5,1.66953125 L5.00286458,1.66666667 L18.3304688,1.66666667 L18.3333333,1.66953125 L18.3333333,14.9971354 L18.3304688,15 L17.5,15 L17.5,16.6666667 L18.3333333,16.6666667 C19.2526801,16.6639494 19.9972828,15.9193467 20,15 L20,1.66666667 C19.9972828,0.747319949 19.2526801,0.00271722828 18.3333333,-1.42108547e-14 L18.3333333,-1.42108547e-14 Z" id="路径"></path>
                        </g>
                    </g>
                </g>
            </g>
        </g>
    </g>
</svg>