<?xml version="1.0" encoding="UTF-8"?>
<svg width="24px" height="24px" viewBox="0 0 24 24" version="1.1" xmlns="http://www.w3.org/2000/svg" xmlns:xlink="http://www.w3.org/1999/xlink">
    <!-- Generator: Sketch 53 (72520) - https://sketchapp.com -->
    <title>日历</title>
    <desc>Created with Sketch.</desc>
    <g id="详情页" stroke="none" stroke-width="1" fill="none" fill-rule="evenodd">
        <g id="特色体验课" transform="translate(-74.000000, -1251.000000)">
            <g id="详情" transform="translate(40.000000, 796.000000)">
                <g id="分组-20-Copy-2" transform="translate(30.000000, 450.000000)">
                    <g id="日历" transform="translate(0.000000, 1.000000)">
                        <rect id="矩形" fill="#000000" opacity="0" x="0" y="0" width="32" height="32"></rect>
                        <g id="分组-3" transform="translate(4.000000, 4.000000)">
                            <rect id="矩形" stroke="#EEEEEE" stroke-width="1.84615385" x="1.84615385" y="3.69230769" width="20.3076923" height="18.4615385" rx="3.69230769"></rect>
                            <path d="M19.5555556,1.84615385 L16.4444444,1.84615385 L16.4444444,0.923076923 C16.4444444,0.415384615 16.0444444,0 15.5555556,0 C15.0666667,0 14.6666667,0.415384615 14.6666667,0.923076923 L14.6666667,1.84615385 L9.33333333,1.84615385 L9.33333333,0.923076923 C9.33333333,0.415384615 8.93333333,0 8.44444444,0 C7.95555556,0 7.55555556,0.415384615 7.55555556,0.923076923 L7.55555556,1.84615385 L4.44444444,1.84615385 C2,1.84615385 0,3.92307692 0,6.46153846 L0,19.3846154 C0,21.9230769 2,24 4.44444444,24 L19.5555556,24 C22,24 24,21.9230769 24,19.3846154 L24,6.46153846 C24,3.92307692 22,1.84615385 19.5555556,1.84615385 Z M4.44444444,3.69230769 L7.55555556,3.69230769 L7.55555556,4.61538462 C7.55555556,5.12307692 7.95555556,5.53846154 8.44444444,5.53846154 C8.93333333,5.53846154 9.33333333,5.12307692 9.33333333,4.61538462 L9.33333333,3.69230769 L14.6666667,3.69230769 L14.6666667,4.61538462 C14.6666667,5.12307692 15.0666667,5.53846154 15.5555556,5.53846154 C16.0444444,5.53846154 16.4444444,5.12307692 16.4444444,4.61538462 L16.4444444,3.69230769 L19.5555556,3.69230769 C21.0222222,3.69230769 22.2222222,4.93846154 22.2222222,6.46153846 L22.2222222,7.38461538 L1.77777778,7.38461538 L1.77777778,6.46153846 C1.77777778,4.93846154 2.97777778,3.69230769 4.44444444,3.69230769 Z M19.5555556,22.1538462 L4.44444444,22.1538462 C2.97777778,22.1538462 1.77777778,20.9076923 1.77777778,19.3846154 L1.77777778,9.23076923 L22.2222222,9.23076923 L22.2222222,19.3846154 C22.2222222,20.9076923 21.0222222,22.1538462 19.5555556,22.1538462 Z" id="形状" fill="#CCCCCC" fill-rule="nonzero"></path>
                            <g id="分组-2" transform="translate(4.615385, 12.000000)" fill="#EEEEEE" fill-rule="nonzero">
                                <path d="M1.16239316,4.61538462 L2.94017094,4.61538462 C3.42905983,4.61538462 3.82905983,5.03076923 3.82905983,5.53846154 C3.82905983,6.04615385 3.42905983,6.46153846 2.94017094,6.46153846 L1.16239316,6.46153846 C0.673504274,6.46153846 0.273504274,6.04615385 0.273504274,5.53846154 C0.273504274,5.03076923 0.673504274,4.61538462 1.16239316,4.61538462 Z" id="路径"></path>
                                <path d="M6.4957265,4.61538462 L8.27350427,4.61538462 C8.76239316,4.61538462 9.16239316,5.03076923 9.16239316,5.53846154 C9.16239316,6.04615385 8.76239316,6.46153846 8.27350427,6.46153846 L6.4957265,6.46153846 C6.00683761,6.46153846 5.60683761,6.04615385 5.60683761,5.53846154 C5.60683761,5.03076923 6.00683761,4.61538462 6.4957265,4.61538462 Z" id="路径"></path>
                                <path d="M11.8290598,4.61538462 L13.6068376,4.61538462 C14.0957265,4.61538462 14.4957265,5.03076923 14.4957265,5.53846154 C14.4957265,6.04615385 14.0957265,6.46153846 13.6068376,6.46153846 L11.8290598,6.46153846 C11.3401709,6.46153846 10.9401709,6.04615385 10.9401709,5.53846154 C10.9401709,5.03076923 11.3401709,4.61538462 11.8290598,4.61538462 Z" id="路径"></path>
                                <path d="M1.16239316,8.8817842e-16 L2.94017094,8.8817842e-16 C3.42905983,8.8817842e-16 3.82905983,0.415384615 3.82905983,0.923076923 C3.82905983,1.43076923 3.42905983,1.84615385 2.94017094,1.84615385 L1.16239316,1.84615385 C0.673504274,1.84615385 0.273504274,1.43076923 0.273504274,0.923076923 C0.273504274,0.415384615 0.673504274,8.8817842e-16 1.16239316,8.8817842e-16 Z" id="路径"></path>
                                <path d="M6.4957265,8.8817842e-16 L8.27350427,8.8817842e-16 C8.76239316,8.8817842e-16 9.16239316,0.415384615 9.16239316,0.923076923 C9.16239316,1.43076923 8.76239316,1.84615385 8.27350427,1.84615385 L6.4957265,1.84615385 C6.00683761,1.84615385 5.60683761,1.43076923 5.60683761,0.923076923 C5.60683761,0.415384615 6.00683761,8.8817842e-16 6.4957265,8.8817842e-16 Z" id="路径"></path>
                                <path d="M11.8290598,8.8817842e-16 L13.6068376,8.8817842e-16 C14.0957265,8.8817842e-16 14.4957265,0.415384615 14.4957265,0.923076923 C14.4957265,1.43076923 14.0957265,1.84615385 13.6068376,1.84615385 L11.8290598,1.84615385 C11.3401709,1.84615385 10.9401709,1.43076923 10.9401709,0.923076923 C10.9401709,0.415384615 11.3401709,8.8817842e-16 11.8290598,8.8817842e-16 Z" id="路径"></path>
                            </g>
                        </g>
                    </g>
                </g>
            </g>
        </g>
    </g>
</svg>