<?xml version="1.0" encoding="UTF-8"?>
<svg width="120px" height="120px" viewBox="0 0 120 120" version="1.1" xmlns="http://www.w3.org/2000/svg" xmlns:xlink="http://www.w3.org/1999/xlink">
    <!-- Generator: Sketch 53 (72520) - https://sketchapp.com -->
    <title>分组 6</title>
    <desc>Created with Sketch.</desc>
    <defs>
        <circle id="path-1" cx="60" cy="60" r="60"></circle>
    </defs>
    <g id="我的" stroke="none" stroke-width="1" fill="none" fill-rule="evenodd">
        <g id="我的（未登录）" transform="translate(-28.000000, -156.000000)">
            <g id="头像" transform="translate(0.000000, 116.000000)">
                <g id="分组-6" transform="translate(28.000000, 40.000000)">
                    <g id="默认头像">
                        <mask id="mask-2" fill="white">
                            <use xlink:href="#path-1"></use>
                        </mask>
                        <circle stroke="#EBEBEB" stroke-width="2" cx="60" cy="60" r="59"></circle>
                        <path d="M60,65.816458 C69.6666667,65.816458 89,70.7137415 89,80.4041111 L89,84.085757 C72.8907689,99.9714143 47.1092311,99.9714143 31,84.085757 L31,80.4041111 C31,70.7137415 50.3333333,65.816458 60,65.816458 Z M45.5,43.5876532 C45.5,35.5311148 51.9918711,29 60,29 C68.0081289,29 74.5,35.5311148 74.5,43.5876532 C74.5000001,48.7993197 71.7363157,53.6150983 67.2500001,56.2209316 C62.7636844,58.8267649 57.2363156,58.8267649 52.7499999,56.2209316 C48.2636843,53.6150983 45.4999999,48.7993197 45.5,43.5876532 Z" id="合并形状" fill="#CDCDDA" mask="url(#mask-2)"></path>
                    </g>
                </g>
            </g>
        </g>
    </g>
</svg>