<?xml version="1.0" encoding="UTF-8"?>
<svg width="26px" height="28px" viewBox="0 0 26 28" version="1.1" xmlns="http://www.w3.org/2000/svg" xmlns:xlink="http://www.w3.org/1999/xlink">
    <!-- Generator: Sketch 53 (72520) - https://sketchapp.com -->
    <title>删除-2@2x</title>
    <desc>Created with Sketch.</desc>
    <g id="搜索" stroke="none" stroke-width="1" fill="none" fill-rule="evenodd">
        <g transform="translate(-685.000000, -530.000000)" fill="#999999" fill-rule="nonzero" id="Group-5" stroke="#999999" stroke-width="0.8">
            <g transform="translate(40.000000, 217.000000)">
                <g id="删除-2" transform="translate(646.000000, 314.000000)">
                    <path d="M12.2,21.9425001 C12.5466667,21.9425001 12.7,21.7147501 12.7,21.3735001 L12.7,11 C12.7,10.65875 12.5466667,10.5625 12.2,10.5625 C11.8533333,10.5625 11.7,10.65875 11.7,11 C11.7,12.8069444 11.7,14.1402778 11.7,15 C11.7,16.4152778 11.7,18.5397778 11.7,21.3735001 C11.7,21.6578751 11.8533333,21.9425001 12.2,21.9425001 Z M16.7222222,21.9375 C17.0688889,21.9375 17.3,21.71 17.3,21.36875 L17.3,11.13125 C17.3,10.79 17.0688889,10.5625 16.7222222,10.5625 C16.3755556,10.5625 16.1444445,10.79 16.1444445,11.13125 L16.1444445,21.36875 C16.1444445,21.653125 16.3755556,21.9375 16.7222222,21.9375 Z M7.20000001,21.9425001 C7.50000001,21.9425001 7.7,21.7149001 7.7,21.3735001 L7.7,11.1315 C7.7,10.7901 7.50000001,10.5625 7.20000001,10.5625 C6.90000001,10.5625 6.70000002,10.7901 6.7,11.1315 L6.7,21.3735001 C6.7,21.6580001 6.89999999,21.9425001 7.20000001,21.9425001 Z" id="Shape"></path>
                    <path d="M23.4285714,3.39130435 L17.7714286,3.39130435 L17.7714286,1.35652174 C17.7714286,0.734782599 17.2,0 16.5714286,0 L7.42857142,0 C6.79999998,0 6.34285714,0.678260869 6.34285714,1.35652174 L6.34285714,3.39130435 L0.571428562,3.39130435 C0.22857142,3.39130435 0,3.61739129 0,3.95652175 C0,4.29565222 0.22857142,4.52173914 0.571428562,4.52173914 L2.34285715,4.52173914 L2.34285715,24.5304348 C2.34285715,25.4347826 3.02857144,26 3.99999999,26 L20,26 C20.9714286,26 21.7714286,25.4347826 21.7714286,24.5304348 L21.7714286,4.52173914 L23.4285714,4.52173914 C23.7714286,4.52173914 24,4.29565219 24,3.95652175 C24,3.61739132 23.7714286,3.39130437 23.4285714,3.39130435 Z M7.48571429,1.92173915 C7.48571429,1.58260871 7.65714287,1.13043479 8.00000001,1.13043479 L16,1.13043479 C16.3428571,1.13043479 16.6285714,1.58260871 16.6285714,1.92173915 L16.6285714,3.39130435 L7.48571429,3.39130435 L7.48571429,1.92173915 L7.48571429,1.92173915 Z M20.6285714,24.5304348 C20.6285714,24.8695652 20.3428571,24.8695652 20,24.8695652 L3.99999999,24.8695652 C3.65714285,24.8695652 3.48571428,24.8130435 3.48571428,24.5304348 L3.48571428,4.52173914 L20.6285714,4.52173914 L20.6285714,24.5304348 Z" id="Shape" opacity="0.98999995"></path>
                </g>
            </g>
        </g>
    </g>
</svg>