<?xml version="1.0" encoding="UTF-8"?>
<svg width="26px" height="27px" viewBox="0 0 26 27" version="1.1" xmlns="http://www.w3.org/2000/svg" xmlns:xlink="http://www.w3.org/1999/xlink">
    <!-- Generator: Sketch 53 (72520) - https://sketchapp.com -->
    <title>服务时长</title>
    <desc>Created with Sketch.</desc>
    <g id="详情页" stroke="none" stroke-width="1" fill="none" fill-rule="evenodd">
        <g id="特色体验课" transform="translate(-73.000000, -1168.000000)">
            <g id="详情" transform="translate(40.000000, 796.000000)">
                <g id="分组-20" transform="translate(30.000000, 368.000000)">
                    <g id="服务时长" transform="translate(0.000000, 1.000000)">
                        <rect id="矩形" fill="#000000" opacity="0" x="0" y="0" width="32" height="32"></rect>
                        <path d="M16.03125,27.884375 C14.490625,27.884375 12.99375,27.58125 11.584375,26.9875 C10.225,26.4125 9.003125,25.5875 7.953125,24.540625 C6.903125,23.490625 6.08125,22.26875 5.50625,20.909375 C4.909375,19.5 4.609375,18.003125 4.609375,16.4625 C4.609375,14.746875 4.98125,13.09375 5.715625,11.55625 C5.771875,11.4375 5.83125,11.31875 5.890625,11.203125 C6.16875,10.665625 6.83125,10.45625 7.36875,10.734375 C7.90625,11.0125 8.115625,11.675 7.8375,12.2125 C7.7875,12.30625 7.740625,12.4 7.696875,12.496875 C7.10625,13.740625 6.80625,15.071875 6.80625,16.4625 C6.80625,18.928125 7.765625,21.246875 9.509375,22.990625 C11.253125,24.734375 13.571875,25.69375 16.0375,25.69375 C18.503125,25.69375 20.821875,24.734375 22.565625,22.990625 C24.309375,21.246875 25.26875,18.928125 25.26875,16.4625 C25.26875,13.996875 24.309375,11.678125 22.565625,9.934375 C20.821875,8.190625 18.503125,7.23125 16.0375,7.23125 C13.728125,7.23125 11.51875,8.0875 9.815625,9.640625 C9.36875,10.05 8.675,10.015625 8.265625,9.56875 C7.85625,9.121875 7.890625,8.428125 8.3375,8.01875 C10.4375,6.090625 13.171875,5.03125 16.03125,5.03125 C17.571875,5.03125 19.06875,5.334375 20.478125,5.928125 C21.8375,6.503125 23.059375,7.328125 24.109375,8.375 C25.159375,9.425 25.98125,10.646875 26.55625,12.00625 C27.153125,13.415625 27.453125,14.9125 27.453125,16.453125 C27.453125,17.99375 27.15,19.490625 26.55625,20.9 C25.98125,22.259375 25.15625,23.48125 24.109375,24.53125 C23.059375,25.58125 21.8375,26.403125 20.478125,26.978125 C19.06875,27.58125 17.571875,27.884375 16.03125,27.884375 Z" id="路径" fill="#EEEEEE"></path>
                        <path d="M16.01875,29.090625 C14.4875,29.090625 12.990625,28.81875 11.5625,28.278125 C10.034375,27.7 8.65,26.840625 7.446875,25.728125 C6.24375,24.615625 5.28125,23.296875 4.5875,21.81875 C3.86875,20.2875 3.471875,18.646875 3.40625,16.94375 C3.315625,14.54375 3.9,12.18125 5.103125,10.115625 C5.38125,9.6375 5.99375,9.475 6.471875,9.753125 C6.95,10.03125 7.1125,10.64375 6.834375,11.121875 C5.821875,12.859375 5.328125,14.846875 5.40625,16.86875 C5.515625,19.70625 6.721875,22.334375 8.80625,24.2625 C10.890625,26.190625 13.6,27.196875 16.440625,27.0875 C19.278125,26.978125 21.90625,25.771875 23.834375,23.6875 C25.765625,21.603125 26.76875,18.89375 26.659375,16.053125 C26.55,13.2125 25.340625,10.584375 23.25625,8.65625 C21.171875,6.725 18.4625,5.721875 15.621875,5.83125 C14.35,5.88125 13.11875,6.15 11.953125,6.63125 C10.828125,7.096875 9.8,7.75 8.89375,8.571875 C8.484375,8.94375 7.853125,8.9125 7.48125,8.503125 C7.109375,8.09375 7.140625,7.4625 7.55,7.090625 C8.625,6.115625 9.85,5.340625 11.184375,4.7875 C12.565625,4.2125 14.034375,3.89375 15.540625,3.8375 C17.24375,3.771875 18.909375,4.04375 20.49375,4.640625 C22.021875,5.21875 23.40625,6.078125 24.609375,7.190625 C25.8125,8.30625 26.775,9.621875 27.46875,11.1 C28.1875,12.63125 28.584375,14.271875 28.65,15.975 C28.715625,17.678125 28.44375,19.34375 27.846875,20.928125 C27.26875,22.45625 26.409375,23.840625 25.296875,25.04375 C24.18125,26.246875 22.865625,27.209375 21.3875,27.903125 C19.85625,28.621875 18.215625,29.01875 16.5125,29.084375 C16.346875,29.0875 16.18125,29.090625 16.01875,29.090625 Z" id="路径" fill="#CCCCCC"></path>
                        <path d="M14.50625,18.75625 C14.271875,18.640625 14.078125,18.453125 13.959375,18.221875 C13.890625,18.08125 13.853125,17.940625 13.853125,17.803125 L13.853125,11.809375 C13.853125,11.075 14.46875,10.475 15.2,10.525 C15.859375,10.56875 16.371875,11.1125 16.371875,11.78125 L16.371875,16.534375 C16.371875,16.5375 16.375,16.5375 16.375,16.5375 L19.703125,16.5375 C20.4375,16.5375 21.0375,17.153125 20.9875,17.884375 C20.94375,18.54375 20.4,19.05625 19.73125,19.05625 L15.53125,19.05625 C15.259375,19.05625 14.9875,18.99375 14.74375,18.871875 L14.50625,18.75625 L14.50625,18.75625 Z" id="路径" fill="#CCCCCC"></path>
                    </g>
                </g>
            </g>
        </g>
    </g>
</svg>