<svg xmlns="http://www.w3.org/2000/svg" xmlns:xlink="http://www.w3.org/1999/xlink" width="24" height="15" viewBox="0 0 24 15">
  <defs>
    <linearGradient id="linear-gradient" y1="0.5" x2="1" y2="0.5" gradientUnits="objectBoundingBox">
      <stop offset="0" stop-color="#fbc023"/>
      <stop offset="1" stop-color="#fd9b06"/>
    </linearGradient>
  </defs>
  <g id="进入" transform="translate(19323 15292)">
    <rect id="矩形_44" data-name="矩形 44" width="24" height="15" rx="7.5" transform="translate(-19323 -15292)" fill="url(#linear-gradient)"/>
    <path id="箭头_1_" data-name="箭头 (1)" d="M8.342,6.08a.425.425,0,0,0-.6,0l-2.381,2.4V.392a.392.392,0,0,0-.783,0V8.528L2.2,6.085a.425.425,0,1,0-.609.593l3.045,3.13a.428.428,0,0,0,.3.128h0a.428.428,0,0,0,.3-.126l3.1-3.13a.424.424,0,0,0,0-.6Z" transform="translate(-19315.969 -15279.531) rotate(-90)" fill="#fff"/>
  </g>
</svg>
