<?xml version="1.0" encoding="UTF-8"?>
<svg width="32px" height="33px" viewBox="0 0 32 33" version="1.1" xmlns="http://www.w3.org/2000/svg" xmlns:xlink="http://www.w3.org/1999/xlink">
    <!-- Generator: Sketch 54.1 (76490) - https://sketchapp.com -->
    <title>首页</title>
    <desc>Created with Sketch.</desc>
    <g id="VC1.5.0-H5_商品订单" stroke="none" stroke-width="1" fill="none" fill-rule="evenodd">
        <g id="退换货详情-未寄件" transform="translate(-24.000000, -164.000000)">
            <g id="编组" transform="translate(12.000000, 138.000000)">
                <g id="首页" transform="translate(12.000000, 26.500000)">
                    <g id="分组-22">
                        <circle id="椭圆形" fill="#1890FF" cx="16" cy="16" r="16"></circle>
                        <g id="shouhuoren" transform="translate(8.000000, 7.000000)" fill="#FFFFFF" fill-rule="nonzero">
                            <path d="M7.9987831,0.00668151448 C3.57987606,0.00668151448 0.00126197183,3.53621381 0.00126197183,7.88412027 C0.00126197183,9.88788419 0.790264789,11.7540535 2.03851268,13.1446102 L7.22931831,19.6121826 C7.6372507,20.1215813 8.30656901,20.1191537 8.71693521,19.6121826 L13.885769,13.1446102 C15.1975211,11.7419822 15.998738,9.94100223 15.998738,7.88412027 C15.9963042,3.53619154 12.4176901,0.00668151448 7.9987831,0.00668151448 Z M7.01926761,12.2085301 L6.03853521,12.2085301 L6.03853521,9.88416481 C5.46722254,10.0850557 4.79118873,10.2888196 4.0104338,10.4958575 L3.71526761,9.66772829 C3.93739718,9.57363029 4.04851831,9.43249443 4.04851831,9.24427617 L4.04851831,4.76496659 L5.01971831,4.76496659 L5.01971831,9.31013363 C5.43227042,9.1722049 5.77194366,9.05296214 6.03853521,8.95253898 L6.03853521,3.60750557 L7.01926761,3.60750557 L7.01926761,12.2085301 L7.01926761,12.2085301 Z M11.9134197,12.3026281 C11.176969,11.8759243 10.5327549,11.3082183 9.98052958,10.5993541 C9.41545915,11.2895323 8.70136338,11.8571047 7.83815211,12.3026281 L7.23828732,11.5027617 C8.1459831,11.0825167 8.87272113,10.5085078 9.41877183,9.78066815 C8.9808,9.05928731 8.60944225,8.23427617 8.30474366,7.3057461 C8.1335561,7.59403837 7.95252434,7.87650958 7.76196056,8.15267261 L7.16209577,7.3810245 C7.85390423,6.33971047 8.31736338,5.07240535 8.55227042,3.57926503 L9.53300282,3.69218263 C9.45685634,4.15020045 9.3616,4.57997773 9.24734648,4.98138085 L12.1705239,4.98138085 L12.1705239,5.94122494 L11.5325296,5.94122494 C11.4690254,7.45320713 11.1357746,8.73300668 10.5327775,9.78064588 C11.0912676,10.5021381 11.7387493,11.0698441 12.4752225,11.4838976 L11.9134197,12.3026281 L11.9134197,12.3026281 Z" id="形状"></path>
                            <path d="M8.93311549,5.94124722 C8.89507606,6.05416481 8.85696901,6.15768374 8.81886197,6.25180401 C9.12980282,7.29325167 9.5044507,8.18091314 9.94242254,8.91489978 C10.3423549,8.06797327 10.5613296,7.07679287 10.5994366,5.94124722 L8.93311549,5.94124722 L8.93311549,5.94124722 Z" id="路径"></path>
                        </g>
                    </g>
                </g>
            </g>
        </g>
    </g>
</svg>