<?xml version="1.0" encoding="UTF-8"?>
<svg width="64px" height="64px" viewBox="0 0 64 64" version="1.1" xmlns="http://www.w3.org/2000/svg" xmlns:xlink="http://www.w3.org/1999/xlink">
    <!-- Generator: Sketch 53 (72520) - https://sketchapp.com -->
    <title>分组 8@2x</title>
    <desc>Created with Sketch.</desc>
    <g id="订单详情" stroke="none" stroke-width="1" fill="none" fill-rule="evenodd">
        <g id="订单详情-待收货" transform="translate(-68.000000, -310.000000)">
            <g id="分组-4" transform="translate(40.000000, 276.000000)">
                <g id="分组-5">
                    <g id="分组-3">
                        <g id="分组-23" transform="translate(28.000000, 28.000000)">
                            <g id="分组-8" transform="translate(0.000000, 6.000000)">
                                <circle id="椭圆形" fill="#AAAAEA" cx="32" cy="32" r="32"></circle>
                                <g id="快递" transform="translate(16.000000, 16.000000)" fill="#FFFFFF" fill-rule="nonzero">
                                    <path d="M17.845045,8.61981982 L30.7954162,8.61981982 C31.0257714,8.61984203 31.2368261,8.49113464 31.3422722,8.28633074 C31.4477184,8.08152684 31.4298748,7.83496803 31.2960385,7.64748108 L26.5757982,1.03975975 C26.1141969,0.39336188 25.3688353,0.00968619254 24.5745394,0.00960962162 L17.845045,0.00960962162 C17.5053816,0.00960962162 17.23003,0.284961206 17.23003,0.624624613 L17.23003,8.00480479 C17.23003,8.34446821 17.5053816,8.61981982 17.845045,8.61981982 L17.845045,8.61981982 Z M1.20458378,8.61981982 L14.154955,8.61981982 C14.4946184,8.61981982 14.76997,8.34446821 14.76997,8.00480479 L14.76997,0.624624613 C14.76997,0.284961206 14.4946184,0.00960962162 14.154955,0.00960962162 L7.42546065,0.00960962162 C6.63097247,0.00958978625 5.88538304,0.393264829 5.42358677,1.03975975 L0.70396155,7.64748108 C0.570125167,7.83496803 0.552281623,8.08152684 0.657727784,8.28633074 C0.763173946,8.49113464 0.974228556,8.61984203 1.20458378,8.61981982 Z M31.3753754,11.0798799 L0.624624613,11.0798799 C0.28496122,11.0798799 0.00960964152,11.3552315 0.00960962162,11.6948949 L0.00960962162,29.5303303 C0.00960964152,30.888984 1.11101602,31.9903904 2.46966966,31.9903904 L29.5303303,31.9903904 C30.888984,31.9903904 31.9903904,30.888984 31.9903904,29.5303303 L31.9903904,11.6948949 C31.9903904,11.3552315 31.7150388,11.0798799 31.3753754,11.0798799 Z M4.92972973,20.9201201 L8.61981982,20.9201201 C9.05926724,20.9201201 9.46533342,21.1545625 9.68505714,21.5351351 C9.90478086,21.9157077 9.90478086,22.3845926 9.68505714,22.7651652 C9.46533342,23.1457378 9.05926724,23.3801802 8.61981982,23.3801802 L4.92972973,23.3801802 C4.49028231,23.3801802 4.08421613,23.1457378 3.86449241,22.7651652 C3.64476869,22.3845926 3.64476869,21.9157077 3.86449241,21.5351351 C4.08421613,21.1545625 4.49028231,20.9201201 4.92972973,20.9201201 Z M12.3099099,28.3003003 L4.92972973,28.3003003 C4.25040291,28.3003003 3.69969971,27.7495971 3.69969971,27.0702703 C3.69969971,26.3909434 4.25040291,25.8402403 4.92972973,25.8402403 L12.3099099,25.8402403 C12.9892367,25.8402403 13.5399399,26.3909434 13.5399399,27.0702703 C13.5399399,27.7495971 12.9892367,28.3003003 12.3099099,28.3003003 Z" id="形状"></path>
                                </g>
                            </g>
                        </g>
                    </g>
                </g>
            </g>
        </g>
    </g>
</svg>