<?xml version="1.0" encoding="UTF-8"?>
<svg width="52px" height="26px" viewBox="0 0 52 26" version="1.1" xmlns="http://www.w3.org/2000/svg" xmlns:xlink="http://www.w3.org/1999/xlink">
    <!-- Generator: Sketch 53 (72520) - https://sketchapp.com -->
    <title>Group 8 Copy 2</title>
    <desc>Created with Sketch.</desc>
    <g id="申请开票" stroke="none" stroke-width="1" fill="none" fill-rule="evenodd">
        <g id="申请开票-2" transform="translate(-80.000000, -204.000000)">
            <g id="分组" transform="translate(40.000000, 136.000000)">
                <g id="分组-8" transform="translate(40.000000, 22.000000)">
                    <g id="分组-7" transform="translate(0.000000, 43.000000)">
                        <g id="Group-8-Copy-2" transform="translate(0.000000, 3.000000)">
                            <path d="M8,0.541666667 C3.88087624,0.541666667 0.541666667,3.88087624 0.541666667,8 L0.541666667,18 C0.541666667,22.1191238 3.88087624,25.4583333 8,25.4583333 L44,25.4583333 C48.1191238,25.4583333 51.4583333,22.1191238 51.4583333,18 L51.4583333,8 C51.4583333,3.88087624 48.1191238,0.541666667 44,0.541666667 L8,0.541666667 Z" id="Rectangle-12" stroke="#7EA1E8" stroke-width="1.08333333"></path>
                            <path d="M22.019694,23.0374349 C21.9632701,22.6636266 21.8433711,22.1487663 21.6599935,21.4928385 C21.6529405,21.4646266 21.6494141,21.443468 21.6494141,21.429362 C22.6227262,21.4787329 23.4302811,21.503418 24.0721029,21.503418 C24.8126665,21.503418 25.3275268,21.3270959 25.6166992,20.9744466 C25.9199776,20.6076913 26.0716146,19.9517734 26.0716146,19.0066732 C26.0716146,18.4283283 26.018718,17.88173 25.9129232,17.366862 C23.5431197,19.6097117 20.4927487,21.3658791 16.7617188,22.6354167 C16.5712881,22.1769725 16.3173844,21.6797444 16,21.1437174 C19.8227188,20.0857694 22.9929887,18.3507608 25.5109049,15.9386393 C25.3416333,15.4519832 25.1512055,15.0217575 24.9396159,14.6479492 C23.7688201,15.5859964 22.5698304,16.3794455 21.3426107,17.0283203 C20.108338,17.6842481 18.6378124,18.308428 16.9309896,18.9008789 C16.8251948,18.6399184 16.6418199,18.276695 16.3808594,17.8111979 C16.2891705,17.6348733 16.2221682,17.5079214 16.1798503,17.4303385 C17.8725671,16.9577884 19.3677778,16.4076637 20.6655273,15.7799479 C21.906853,15.1733911 23.1164221,14.4187328 24.2942708,13.5159505 C23.9698334,13.0716124 23.7159297,12.7471798 23.5325521,12.5426432 C21.6776166,13.6358562 19.4418534,14.5597836 16.8251953,15.3144531 C16.6700296,14.9406448 16.4231788,14.4610489 16.0846354,13.875651 C17.7491403,13.5371077 19.3113534,13.0575118 20.7713216,12.436849 C22.16076,11.8443981 23.3879613,11.1532158 24.4529622,10.3632812 L19.0045573,10.3632812 L19.0045573,9.05143229 L32.2923177,9.05143229 L32.2923177,10.3632812 L26.6746419,10.3632812 C25.9834492,10.9063612 25.3592693,11.3647985 24.8020833,11.7386068 C25.5638059,12.662548 26.149195,13.5371052 26.5582682,14.3623047 C28.8434359,13.3184627 30.8429276,12.2887421 32.5568034,11.273112 L33.4560547,12.6061198 C32.8777098,12.9023452 31.9890468,13.3502032 30.7900391,13.949707 C30.3668599,14.1612966 30.0459538,14.3199865 29.8273112,14.4257812 C30.3562852,15.8998555 31.0333618,17.081213 31.8585612,17.9698893 C32.7049196,18.9008836 33.836907,19.6625947 35.2545573,20.2550456 C35.1558155,20.3890523 35.007705,20.5971123 34.8102214,20.8792318 C34.5351549,21.2600931 34.3341478,21.5492612 34.207194,21.7467448 C32.6908019,20.9074394 31.498865,19.9729327 30.6313477,18.9431966 C29.7779363,17.9346195 29.0726482,16.6368894 28.5154622,15.0499674 L27.1189779,15.6953125 C27.4716272,16.6968366 27.6479492,17.8076653 27.6479492,19.027832 C27.6479492,20.4031644 27.4046248,21.4011471 26.9179687,22.0218099 C26.4383657,22.6354197 25.6731281,22.9563258 24.6222331,22.9845378 C23.7053448,23.0198027 22.8378405,23.0374349 22.019694,23.0374349 Z M16.5078125,9.17838542 L16.5078125,5.60253906 L25.288737,5.60253906 C25.1335713,5.17935986 24.8902469,4.56223279 24.5587565,3.75113932 C24.4811737,3.56776167 24.4212242,3.43023049 24.3789062,3.33854167 L26.0927734,3 C26.318469,3.47960309 26.6534809,4.29421083 27.097819,5.44384766 L26.5159505,5.60253906 L34.6938477,5.60253906 L34.6938477,9.17838542 L33.117513,9.17838542 L33.117513,7.00960286 L18.1158854,7.00960286 L18.1158854,9.17838542 L16.5078125,9.17838542 Z" id="家" fill="#7EA1E8" fill-rule="nonzero"></path>
                        </g>
                    </g>
                </g>
            </g>
        </g>
    </g>
</svg>