<?xml version="1.0" encoding="UTF-8"?>
<svg width="20px" height="34px" viewBox="0 0 20 34" version="1.1" xmlns="http://www.w3.org/2000/svg" xmlns:xlink="http://www.w3.org/1999/xlink">
    <!-- Generator: Sketch 54.1 (76490) - https://sketchapp.com -->
    <title>标签 -首页（未选中）</title>
    <desc>Created with Sketch.</desc>
    <g id="控件组" stroke="none" stroke-width="1" fill="none" fill-rule="evenodd">
        <g id="画板" transform="translate(-148.000000, -45.000000)">
            <g id="标签--首页（未选中）" transform="translate(147.000000, 44.000000)">
                <g id="标签-首页-copy-3">
                    <text x="1" y="32" fill="#999999" fill-rule="nonzero" font-family="Microsoft YaHei UI" font-size="10" font-weight="500">首页</text>
                    <!--<path d="M5.52,27.35 L1.89,27.35 L1.89,26.42 L5.52,26.42 C5.36,25.93 5.17,25.46 4.95,25.01 L5.87,24.76 C6.12,25.36 6.31,25.91 6.45,26.41 L6.42,26.42 L10.12,26.42 L10.12,27.35 L6.48,27.35 L6.48,29.43 L9.64,29.43 L9.64,30.32 L6.48,30.32 L6.48,32.76 L10.47,32.76 L10.47,33.69 L1.54,33.69 L1.54,32.76 L5.52,32.76 L5.52,30.32 L2.37,30.32 L2.37,29.43 L5.52,29.43 L5.52,27.35 Z M19.2,26.92 L19.2,31.77 L18.24,31.77 L18.24,27.85 L13.72,27.85 L13.72,31.78 L12.76,31.78 L12.76,26.92 L15.31,26.92 C15.37,26.63 15.43,26.34 15.47,26.04 L11.57,26.04 L11.57,25.14 L20.43,25.14 L20.43,26.04 L16.5,26.04 C16.44,26.34 16.38,26.64 16.3,26.92 L19.2,26.92 Z M16.73,31.66 C18.01,32.07 19.18,32.57 20.23,33.16 L19.64,34.06 C18.52,33.38 17.38,32.84 16.21,32.45 L16.73,31.66 Z M15.52,28.33 L16.48,28.33 L16.48,29.92 C16.42,31.03 16.06,31.92 15.4,32.59 C14.76,33.21 13.7,33.68 12.24,34.02 L11.7,33.17 C13.16,32.85 14.15,32.45 14.67,31.96 C15.19,31.44 15.47,30.76 15.52,29.92 L15.52,28.33 Z" id="首页" fill="#999999" fill-rule="nonzero"></path>-->
                    <g id="首页">
                        <rect id="矩形" x="0" y="0" width="22" height="22"></rect>
                        <g id="dibugeicon_faxian" transform="translate(2.000000, 2.000000)" stroke="#CCCCCC" stroke-width="2">
                            <g id="分组">
                                <path d="M6.79207452,11.2078912 C7.33778248,11.7562742 8.035076,12 8.73236949,12 C9.42966299,12 10.1269565,11.7258085 10.6726645,11.2078912 C11.5518606,10.3243852 12.7342279,6.54663534 12.9767648,5.78499224 C13.037399,5.57173217 12.9767648,5.32800637 12.8251792,5.17567776 C12.6735937,5.02334915 12.4310568,4.96241769 12.218837,5.02334913 C11.4609093,5.2366092 7.70158777,6.42477245 6.82239162,7.33874419 C5.73097569,8.40504454 5.73097569,10.1415908 6.79207452,11.2078912 Z" id="形状" fill-rule="nonzero"></path>
                                <path d="M9,0 C4.02943725,0 0,4.02943725 0,9 C0,13.9705627 4.02943725,18 9,18 L9,18 C13.9705627,18 18,13.9705627 18,9" id="路径" stroke-linecap="round"></path>
                            </g>
                        </g>
                    </g>
                </g>
            </g>
        </g>
    </g>
</svg>
