<svg xmlns="http://www.w3.org/2000/svg" xmlns:xlink="http://www.w3.org/1999/xlink" width="18" height="18" viewBox="0 0 18 18">
  <defs>
    <linearGradient id="linear-gradient" x1="0.26" y1="0.072" x2="0.754" y2="0.969" gradientUnits="objectBoundingBox">
      <stop offset="0" stop-color="#bd5df6"/>
      <stop offset="1" stop-color="#853fda"/>
    </linearGradient>
  </defs>
  <g id="学员风采" transform="translate(-12 -436)">
    <path id="多边形_1" data-name="多边形 1" d="M7.613.512a4,4,0,0,1,2.773,0l3.119,1.153A4,4,0,0,1,15.6,3.44l1.695,2.981a4,4,0,0,1,.464,2.661L17.162,12.5a4,4,0,0,1-1.347,2.36l-2.568,2.188A4,4,0,0,1,10.653,18H7.347a4,4,0,0,1-2.594-.955L2.185,14.857A4,4,0,0,1,.838,12.5L.246,9.082A4,4,0,0,1,.709,6.421L2.4,3.44A4,4,0,0,1,4.495,1.665Z" transform="translate(12 436)" fill="url(#linear-gradient)"/>
    <path id="路径_12" data-name="路径 12" d="M124.924,576.5l1.059,2.746,2.939.159-2.285,1.856.757,2.844-2.471-1.6-2.471,1.6.757-2.844-2.285-1.856,2.939-.159Z" transform="translate(-103.926 -135.3)" fill="#fff"/>
  </g>
</svg>
