<svg id="礼物" xmlns="http://www.w3.org/2000/svg" width="24" height="24" viewBox="0 0 24 24">
  <path id="路径_97" data-name="路径 97" d="M1.5,10.5h21V21a3.009,3.009,0,0,1-3,3H4.5a3.009,3.009,0,0,1-3-3Z" fill="#ec5942"/>
  <path id="路径_98" data-name="路径 98" d="M12,6.6l.3.9H11.25C5.85,7.5,3,6.6,3,4.2,3,1.35,4.2,0,6.6,0c1.95,0,3.3,1.35,4.2,3.45A17.5,17.5,0,0,1,12,6.6ZM9.45,4.05C8.7,2.55,7.8,1.5,6.6,1.5c-1.5,0-2.1.6-2.1,2.7,0,1.05,1.8,1.65,5.7,1.8A5.883,5.883,0,0,0,9.45,4.05Z" fill="#ffb400"/>
  <path id="路径_99" data-name="路径 99" d="M12,6.6l.3.9H11.25C5.85,7.5,3,6.6,3,4.2,3,1.35,4.2,0,6.6,0c1.95,0,3.3,1.35,4.2,3.45A17.5,17.5,0,0,1,12,6.6ZM9.45,4.65A3.4,3.4,0,0,0,6.6,3c-1.5,0-2.1.45-2.1,1.8,0,.6,1.8,1.05,5.7,1.2A3.933,3.933,0,0,0,9.45,4.65Z" fill="#fed546"/>
  <path id="路径_100" data-name="路径 100" d="M12.3,6.6l-.3.9h1.05c5.4,0,8.25-.9,8.25-3.3,0-2.85-1.2-4.2-3.6-4.2-1.95,0-3.3,1.35-4.2,3.45A10.638,10.638,0,0,0,12.3,6.6Zm2.4-1.95A3.6,3.6,0,0,1,17.55,3c1.5,0,2.1.45,2.1,1.8,0,.6-1.8,1.2-5.7,1.2a13.519,13.519,0,0,0,.75-1.35Z" fill="#fed546"/>
  <path id="路径_101" data-name="路径 101" d="M3,6H21a3,3,0,0,1,0,6H3A3,3,0,0,1,3,6Z" fill="#ff634a"/>
  <path id="路径_102" data-name="路径 102" d="M9,12h6V24H9Z" fill="#ffb81e"/>
  <path id="路径_103" data-name="路径 103" d="M9,6a2.887,2.887,0,0,1,3-1.8A2.887,2.887,0,0,1,15,6v6H9Z" fill="#fed546"/>
</svg>
