<svg xmlns="http://www.w3.org/2000/svg" xmlns:xlink="http://www.w3.org/1999/xlink" width="68" height="46" viewBox="0 0 68 46">
  <defs>
    <linearGradient id="linear-gradient" y1="0.5" x2="1" y2="0.5" gradientUnits="objectBoundingBox">
      <stop offset="0" stop-color="#feefd1"/>
      <stop offset="1" stop-color="#e7d79c"/>
    </linearGradient>
    <clipPath id="clip-path">
      <rect id="矩形_33" data-name="矩形 33" width="80" height="88" transform="translate(0 396)" fill="url(#linear-gradient)"/>
    </clipPath>
    <linearGradient id="linear-gradient-2" x1="-0.053" y1="0.689" x2="1.003" y2="0.602" gradientUnits="objectBoundingBox">
      <stop offset="0" stop-color="#ffecb2"/>
      <stop offset="1" stop-color="#fbba7a"/>
    </linearGradient>
  </defs>
  <g id="gift" transform="translate(0 -396)" clip-path="url(#clip-path)">
    <g id="GIFt-2" data-name="GIFt" transform="translate(-891.027 -542.343)">
      <path id="路径_1" data-name="路径 1" d="M13.936,0l45.53.827L88.566,21.2,0,19.958Z" transform="matrix(0.819, -0.574, 0.574, 0.819, 876.943, 969.549)" fill="url(#linear-gradient-2)"/>
      <path id="路径_2" data-name="路径 2" d="M5.244,10.742q-.068.492-.815.865a3.629,3.629,0,0,1-1.646.373H2.6a2.892,2.892,0,0,1-1.782-.764A3.165,3.165,0,0,1,0,8.74V3.224A3.218,3.218,0,0,1,.849.857,3.749,3.749,0,0,1,3.6,0a3.942,3.942,0,0,1,2.63.806,2.994,2.994,0,0,1,.95,2.418v.984H4.412V2.749a.53.53,0,0,0-.255-.492A1.068,1.068,0,0,0,3.6,2.1H3.513a1.291,1.291,0,0,0-.619.229.617.617,0,0,0-.28.535V8.977a.914.914,0,0,0,.28.713,1.065,1.065,0,0,0,.619.288h.2a1.1,1.1,0,0,0,.56-.28.772.772,0,0,0,.255-.6V7.637H3.6V5.617H7.178v6.075H5.363Zm3.581.95V.39h2.732v11.3Zm4.226,0V.39h6.3V2.512H15.765V4.565H18.99v2.24H15.765v4.887Zm9.13,0V2.63H20.059V.39h6.89V2.63h-2v9.062Z" transform="translate(900.247 959.017) rotate(-34)" fill="#7e6e4d"/>
    </g>
  </g>
</svg>
