<svg xmlns="http://www.w3.org/2000/svg" width="15.983" height="15.979" viewBox="0 0 15.983 15.979">
  <defs>
    <style>
      .cls-1 {
        opacity: 0.9;
      }

      .cls-2 {
        fill: #fff;
      }
    </style>
  </defs>
  <g id="haibao" class="cls-1" transform="translate(0 -0.004)">
    <path id="形状" class="cls-2" d="M13.773,15.98H2.2a2.38,2.38,0,0,1-1.787-.509,2.067,2.067,0,0,1-.4-1.607V2.116A1.781,1.781,0,0,1,.4.663,2.362,2.362,0,0,1,2.2,0H13.773a2.262,2.262,0,0,1,1.635.622,2.032,2.032,0,0,1,.549,1.494V13.864a2.019,2.019,0,0,1-.334,1.614A2.431,2.431,0,0,1,13.773,15.98ZM2.481,12.642a.481.481,0,1,0,0,.961H13.475a.5.5,0,0,0,.507-.481.483.483,0,0,0-.5-.481Zm0-2.347a.481.481,0,1,0,0,.961H8.757a.481.481,0,1,0,0-.961ZM5.936,3.7a.5.5,0,0,0-.058,0A.481.481,0,0,0,5.53,3.9L2.074,8.487a.458.458,0,0,0-.04.5.52.52,0,0,0,.447.26H13.622A.5.5,0,0,0,14.06,9a.45.45,0,0,0-.03-.5L11.868,5.524a.523.523,0,0,0-.378-.2h-.035a.506.506,0,0,0-.361.155L9.832,6.833,6.256,3.822A.481.481,0,0,0,5.936,3.7ZM9.722,2.4a.986.986,0,0,0-.692.288.908.908,0,0,0-.27.646A.963.963,0,1,0,9.722,2.4Z" transform="translate(0.001 0.004)"/>
  </g>
</svg>
