<?xml version="1.0" encoding="UTF-8"?>
<svg width="79px" height="22px" viewBox="0 0 79 22" version="1.1" xmlns="http://www.w3.org/2000/svg" xmlns:xlink="http://www.w3.org/1999/xlink">
    <!-- Generator: Sketch 55.1 (78136) - https://sketchapp.com -->
    <title>分组 3</title>
    <desc>Created with Sketch.</desc>
    <g id="个人中心-申请Helper" stroke="none" stroke-width="1" fill="none" fill-rule="evenodd">
        <g id="个人中心-申请-Helper" transform="translate(-168.000000, -97.000000)">
            <g id="头像" transform="translate(0.000000, 58.000000)">
                <g id="分组-3" transform="translate(168.000000, 39.000000)">
                    <rect id="矩形" fill="#FFFFFF" x="0" y="0" width="79" height="22" rx="4"></rect>
                    <g id="分组-4" transform="translate(6.000000, 4.000000)" fill="#FE7700">
                        <g>
                            <g id="fuwubangshou" transform="translate(0.000000, 2.000000)" fill-rule="nonzero">
                                <path d="M10.9998329,8.1745503 C11.004178,8.4057411 10.9179912,8.62800528 10.7628513,8.78569344 C10.6077115,8.94338161 10.398307,9.02156419 10.1870675,9.00066622 L9.72263008,9.00066622 C9.31930287,9.00066622 9.34374695,8.72085276 9.20930454,8.1745503 C8.79580046,6.90341872 8.10594514,5.76044077 7.19877954,4.84343771 C6.37379207,4.30379746 7.41877619,4.66355763 7.41877619,2.93137908 C7.42048817,2.45740244 7.33313917,1.98806556 7.16211342,1.55229847 C7.03378204,1.25916056 6.92378371,0.986009326 7.41877619,1.00599601 C8.39125912,1.03016026 9.17713259,1.87814636 9.20930454,2.93804131 C9.20768038,3.58266881 8.90924279,4.18332664 8.41487217,4.53697535 L8.70820105,4.61692205 C10.0619922,5.18806081 10.9665972,6.59240871 10.9998329,8.1745503 L10.9998329,8.1745503 Z M8.37820606,9.12058628 C8.37820606,9.56029314 8.20098653,10 7.51044146,10 L0.867764596,10 C0,9.99333777 0,9.54030646 0,9.12058628 C0.0030105149,7.09664547 1.2181851,5.31224529 2.99439896,4.72351766 C2.25638252,4.29657434 1.80585016,3.44866004 1.83330549,2.53830779 C1.83330551,1.13643912 2.87572001,3.78483756e-08 4.16160345,3.78483756e-08 C5.44748689,3.78483756e-08 6.48990139,1.13643912 6.48990141,2.53830779 C6.51144644,3.43999967 6.07091268,4.27982906 5.34714099,4.71685543 C7.13683876,5.29830286 8.37371641,7.07824711 8.40265014,9.11392405 L8.37820606,9.12058628 Z" id="形状"></path>
                            </g>
                            <text id="申请Helper" font-family="MicrosoftYaHeiUI-Bold, Microsoft YaHei UI" font-size="10" font-weight="bold">
                                <tspan x="15" y="11">申请</tspan>
                                <tspan x="35" y="11" font-family="HelveticaNeue-Bold, Helvetica Neue">Helper</tspan>
                            </text>
                        </g>
                    </g>
                </g>
            </g>
        </g>
    </g>
</svg>