<svg xmlns="http://www.w3.org/2000/svg" width="46.347" height="46.347" viewBox="0 0 46.347 46.347">
  <defs>
    <style>
      .cls-1 {
        fill: #f0f7fc;
      }
    </style>
  </defs>
  <g id="新增-表格" transform="matrix(0.966, -0.259, 0.259, 0.966, 0, 9.794)">
    <path id="路径_18" data-name="路径 18" class="cls-1" d="M18.921,0A18.921,18.921,0,1,0,37.842,18.921,18.921,18.921,0,0,0,18.921,0Zm0,33.724a14.8,14.8,0,1,1,14.8-14.8,14.8,14.8,0,0,1-14.8,14.8Z"/>
    <path id="路径_19" data-name="路径 19" class="cls-1" d="M315.262,295.326h-4.118v-4.118a2.059,2.059,0,0,0-4.118,0v4.118h-4.118a2.059,2.059,0,1,0,0,4.118h4.118v4.118a2.059,2.059,0,1,0,4.118,0v-4.118h4.118a2.059,2.059,0,0,0,0-4.118Z" transform="translate(-289.732 -278.464)"/>
  </g>
</svg>
