<svg xmlns="http://www.w3.org/2000/svg" width="60.58" height="46.006" viewBox="0 0 60.58 46.006">
  <defs>
    <style>
      .cls-1 {
        fill: #f0f7fc;
      }
    </style>
  </defs>
  <g id="人口" transform="translate(-27.344 -145.22)">
    <path id="路径_16" data-name="路径 16" class="cls-1" d="M46.767,168.112a11.446,11.446,0,1,1,11.446-11.446A11.564,11.564,0,0,1,46.767,168.112Zm0-18.612a7.362,7.362,0,1,0,7.362,7.362A7.465,7.465,0,0,0,46.767,149.5Zm16.982,41.722a1.932,1.932,0,0,1-2.045-2.045,15.135,15.135,0,1,0-30.27,0,2.045,2.045,0,1,1-4.09,0,19.226,19.226,0,1,1,38.451,0,1.932,1.932,0,0,1-2.046,2.045Z"/>
    <path id="路径_17" data-name="路径 17" class="cls-1" d="M632.468,201.856a8.795,8.795,0,1,1,8.795-8.795A8.861,8.861,0,0,1,632.468,201.856Zm0-13.3a4.757,4.757,0,0,0-4.7,4.7,4.7,4.7,0,1,0,4.7-4.7Zm12.271,29.66a1.932,1.932,0,0,1-2.045-2.045,10.256,10.256,0,0,0-10.226-10.226,10.657,10.657,0,0,0-5.932,1.841,2.045,2.045,0,0,1-2.454-3.272,14.981,14.981,0,0,1,8.181-2.66,14.358,14.358,0,0,1,14.316,14.316,1.683,1.683,0,0,1-1.84,2.045Z" transform="translate(-558.696 -36.607)"/>
  </g>
</svg>
