<svg xmlns="http://www.w3.org/2000/svg" width="41.691" height="40.256" viewBox="0 0 41.691 40.256">
  <defs>
    <style>
      .cls-1 {
        fill: #f0f7fc;
      }
    </style>
  </defs>
  <g id="金额" transform="matrix(0.966, -0.259, 0.259, 0.966, -0.747, 6.786)">
    <path id="路径_20" data-name="路径 20" class="cls-1" d="M268.411,9.125a1.785,1.785,0,0,0,1.848-1.617V1.733A1.61,1.61,0,0,0,268.526.115a1.678,1.678,0,0,0-1.733,1.617V7.508A1.736,1.736,0,0,0,268.411,9.125Zm-14.207,0a1.785,1.785,0,0,0,1.848-1.617V1.733A1.862,1.862,0,0,0,254.32,0a1.61,1.61,0,0,0-1.733,1.617V7.392A1.755,1.755,0,0,0,254.2,9.125Zm3.7-6.237h6.815V6.353H257.9Z" transform="translate(-244.04)"/>
    <path id="路径_21" data-name="路径 21" class="cls-1" d="M30.146,85.333H28.067V88.8H30.03a1.157,1.157,0,0,1,1.155,1.155V97.23L31.3,112.36a1.282,1.282,0,0,1-1.27,1.271H4.62a1.282,1.282,0,0,1-1.27-1.271L3.465,97.23V89.953A1.157,1.157,0,0,1,4.62,88.8H6.584V85.333H4.5a4.51,4.51,0,0,0-4.5,4.5v22.754a4.587,4.587,0,0,0,4.5,4.5H30.146a4.587,4.587,0,0,0,4.5-4.5V89.838A4.51,4.51,0,0,0,30.146,85.333Z" transform="translate(0 -82.445)"/>
    <path id="路径_22" data-name="路径 22" class="cls-1" d="M303.416,359.165a1.733,1.733,0,1,0,0-3.465H301.8l2.772-2.772a1.715,1.715,0,0,0-2.426-2.426l-4.5,4.389-4.5-4.5a1.715,1.715,0,1,0-2.426,2.426l2.772,2.772h-1.617a1.733,1.733,0,1,0,0,3.465h4.043v2.079h-4.043a1.733,1.733,0,0,0,0,3.465h4.043v1.27a1.733,1.733,0,1,0,3.465,0v-1.27h4.043a1.733,1.733,0,1,0,0-3.465h-4.043v-2.079h4.043Z" transform="translate(-280.315 -338.028)"/>
  </g>
</svg>
