<svg xmlns="http://www.w3.org/2000/svg" width="58.8" height="54.224" viewBox="0 0 58.8 54.224">
  <g id="组_79" data-name="组 79" transform="translate(-276.504 -419)">
    <circle id="椭圆_13" data-name="椭圆 13" cx="16" cy="16" r="16" transform="translate(291 419)" fill="#649cf1"/>
    <path id="路径_33" data-name="路径 33" d="M-23.856-7.284v3.9h-2.7V1.224h1.128V.7H-20.7v.528h1.128V-3.384h-3.144V-4.908h3.828v-1.08h-3.828v-1.3ZM-25.428-.372V-2.328H-20.7V-.372Zm1.9-9.528-1.188.192a7.88,7.88,0,0,1,.552.948h-4.3v3.6A13.073,13.073,0,0,1-29.5.408l.864.768a14.161,14.161,0,0,0,1.3-6.336v-2.5h8.712v-1.1H-23A11.2,11.2,0,0,0-23.532-9.9Zm7.38.084a12.883,12.883,0,0,1-1.464,3.888l.936.588c.108-.192.216-.4.336-.612v.744h.6V-3.9H-17.22v1.056h1.476V-.48c0,.2-.144.36-.408.468l.468.972a11.037,11.037,0,0,0,2.52-1.008l-.18-1a9.223,9.223,0,0,1-1.3.636V-2.844h1.38V-3.9h-1.38V-5.208h.9V-6.24H-16.2c.192-.408.36-.828.528-1.26h2.244V-8.58h-1.9c.1-.324.18-.66.264-1.008ZM-13.1-8.5V-7.44h2.76v.924H-12.7V1.212h1.056v-2.52h1.3V1.176h1.068V-1.308H-7.92V-.252c0,.288-.132.444-.384.444L-8.9.144l.264,1.02h.66c.744,0,1.116-.4,1.116-1.176v-6.5H-9.276V-7.44h2.844V-8.5h-.912l.36-.252a11.93,11.93,0,0,0-.96-1.188L-8.7-9.48c.312.348.576.672.8.984h-1.38V-9.8h-1.068V-8.5Zm2.76,3.012v1.128h-1.3V-5.484Zm-1.3,2.112h1.3V-2.3h-1.3ZM-7.92-2.3H-9.276V-3.372H-7.92Zm0-2.052H-9.276V-5.484H-7.92ZM-4.3-8.6v1.116H4.3V-8.6ZM-5.4-1.056V.084H5.388v-1.14Zm16.128-.276A22.59,22.59,0,0,1,6.552-.3L6.7.84A23.292,23.292,0,0,0,10.728-.24ZM8.388-9.9A25.047,25.047,0,0,1,7.02-6.3a1.12,1.12,0,0,1-.48.42l.288,1.044c.588-.1,1.152-.18,1.692-.264A12.164,12.164,0,0,1,7.248-3.024a1.717,1.717,0,0,1-.516.324l.3,1.032a16.082,16.082,0,0,0,3.432-1.008V-3.72a16.5,16.5,0,0,1-2.1.756,31.56,31.56,0,0,0,2.292-4.2l-1-.372c-.228.492-.444.96-.636,1.392-.384.072-.768.12-1.152.168A20.18,20.18,0,0,0,9.48-9.468Zm4.188,5.508h1.872v1.344H12.576Zm0,2.388h1.872V-.468H12.576Zm0,2.592h4.992V-.468H15.54V-2h1.584V-3.048H15.54V-4.392h1.584V-5.436H15.54V-6.8h1.788v-1.08H15.6a19.3,19.3,0,0,0-.624-1.992l-1.1.3a17.66,17.66,0,0,1,.648,1.692H12.66a13.41,13.41,0,0,0,.54-1.7L12.12-9.8a13.672,13.672,0,0,1-1.908,4.488l.348,1.152c.336-.432.636-.876.924-1.332V1.212h1.092ZM14.448-6.8v1.368H12.576V-6.8Zm8.22,1.092h-2.2A14.588,14.588,0,0,0,21.12-8.16h1.764v-1.1H18.72v1.1h1.32A12.254,12.254,0,0,1,18.372-3.7l.564.912c.2-.288.4-.588.588-.9V.84H20.58V.024h1.032V.612h1.056ZM20.58-1.02V-4.68h1.032v3.66Zm3.444-6.624-.648,4.02h4.848a9.881,9.881,0,0,1-.288,3.2c-.168.36-.708.54-1.608.54-.2,0-.564-.036-1.092-.1l.312,1.1c.36.024.72.048,1.056.048A2.677,2.677,0,0,0,28.788.492c.336-.456.516-2.184.516-5.184H28.08l.636-4.74H23.364v1.08h4.1l-.54,3.66H24.636l.5-2.88ZM23.1-2.364v1.08h4.464v-1.08Z" transform="translate(306 472)" fill="#333"/>
    <path id="二维码" d="M1.121,8.613H8.65V1.084H1.121ZM3,2.966H6.768V6.731H3ZM9.591,1.084V8.613h7.529V1.084Zm5.647,5.647H11.474V2.966h3.765ZM3.944,5.789H5.827V3.907H3.944ZM1.121,17.084H8.65V9.554H1.121ZM3,11.437H6.768V15.2H3ZM14.3,3.907H12.415V5.789H14.3V3.907ZM9.591,17.084h1.882V15.2H9.591Zm1.882-5.647V15.2h1.882V11.437ZM15.239,15.2H13.356v1.882h3.765V13.319H15.239Zm0-3.765h1.882V9.554H15.239ZM9.591,9.554v1.882h1.882V9.554ZM3.944,14.26H5.827V12.378H3.944Z" transform="translate(297.879 425.916)" fill="#fff"/>
  </g>
</svg>
