<svg xmlns="http://www.w3.org/2000/svg" xmlns:xlink="http://www.w3.org/1999/xlink" width="332.166" height="90.272" viewBox="0 0 332.166 90.272">
  <defs>
    <clipPath id="clip-path">
      <rect id="矩形_69" data-name="矩形 69" width="46" height="46" transform="translate(21 478)" fill="#d1d1d1"/>
    </clipPath>
    <clipPath id="clip-path-2">
      <rect id="矩形_69-2" data-name="矩形 69" width="36" height="36" transform="translate(26 483)" fill="#d1d1d1"/>
    </clipPath>
  </defs>
  <g id="组_126" data-name="组 126" transform="translate(-24.42 -478)">
    <g id="组_122" data-name="组 122" transform="translate(4)">
      <path id="路径_38" data-name="路径 38" d="M-21.228-5.424h2.64V-3.7h-2.64Zm-.06,2.88h2.7V.84h1.272V-2.544h2.856V-.876c0,.456-.192.7-.552.7-.408,0-.84-.024-1.32-.072L-16,.972h1.38A1.25,1.25,0,0,0-13.188-.42V-9.48h-9.3v5.94A6.733,6.733,0,0,1-23.58.312l.96.864A7.421,7.421,0,0,0-21.288-2.544ZM-14.46-3.7h-2.856V-5.424h2.856Zm0-2.88h-2.856v-1.68h2.856Zm-4.128-1.68v1.68h-2.64v-1.68Zm15.912.972v1.908H-9.084V-7.284ZM-9.1-4.152H-1.4V-8.508h-3.8c-.192-.54-.372-1.02-.564-1.452l-1.344.216a10.805,10.805,0,0,1,.624,1.236H-10.32v3.984A8.7,8.7,0,0,1-11.676.468l.936.852A10.219,10.219,0,0,0-9.1-4.152ZM5.112-5.244c-.5.24-1.02.468-1.524.672v-2H5.016V-7.788H3.588V-9.8H2.316v2.016H.564v1.212H2.316v2.448c-.648.192-1.3.36-1.944.492l.312,1.2c.552-.156,1.092-.324,1.632-.492v2.52A.371.371,0,0,1,1.9,0,8.921,8.921,0,0,1,.8-.072L1.092,1.14H2.328A1.1,1.1,0,0,0,3.588-.084V-3.372C4.1-3.564,4.608-3.78,5.112-4ZM5.268-9.06v1.224h3.06V-.492c0,.312-.132.468-.372.468C7.368-.024,6.744-.048,6.1-.1l.276,1.212H8.4c.792,0,1.2-.432,1.2-1.284V-7.836h1.812V-9.06Zm7.992-.192V-8.04h2.076v2.556c0,.072-.012.132-.012.2H12.648v1.212H15.24a9.626,9.626,0,0,1-.468,2.124A4.331,4.331,0,0,1,12.816.168L13.5,1.236a4.872,4.872,0,0,0,2.3-2.328,10.131,10.131,0,0,0,.708-2.976H19.62V1.08h1.26V-4.068h2.484V-5.28H20.88V-8.04h1.884V-9.252ZM16.608-8.04H19.62v2.76H16.6c0-.072.012-.132.012-.2ZM-2.844,13.076h.864a16.294,16.294,0,0,1-.456,3.456A19.27,19.27,0,0,1-3.06,13.9Q-2.952,13.508-2.844,13.076Zm-.072,4.872a6.183,6.183,0,0,1-1.62,2.244l.66,1.056A7.447,7.447,0,0,0-2.352,19.3a6.842,6.842,0,0,0,1.284,1.872l.72-1.056a5.986,5.986,0,0,1-1.464-2,15.593,15.593,0,0,0,.888-5.04h.4V11.912H-2.616c.084-.5.156-1.044.228-1.6l-1.08-.192a18.46,18.46,0,0,1-1.164,5.184v-.744h-3.84v1.1h3.684a.042.042,0,0,0-.012.024l.684.864c.18-.324.348-.684.516-1.068A19.542,19.542,0,0,0-2.916,17.948Zm-2.916,2.64a10.874,10.874,0,0,0,1.92-1.656l-.252-1.044c-.276.288-.552.552-.816.8V16.28H-8.16v1.668a3.316,3.316,0,0,1-.876,2.436l.936.816a4.647,4.647,0,0,0,1.092-3.252v-.54h.936v1.764a.571.571,0,0,1-.276.384ZM-7,10.148v2.616h-.5V10.8H-8.508V13.82h4.044V10.8H-5.472v1.968h-.492V10.148Zm-2.8,0a7.544,7.544,0,0,1-1.848,2.8l.384,1.212a8.926,8.926,0,0,0,2.532-3.5Zm.06,3.216a7.768,7.768,0,0,1-1.86,2.952l.372,1.188q.432-.4.828-.828v4.6h1.164V15.044a9.529,9.529,0,0,0,.54-1.176ZM1.656,15.08v6.192H2.892V13.136a13.713,13.713,0,0,0,1.044-2.568L2.76,10.016A13.832,13.832,0,0,1,.336,14.84l.42,1.344C1.068,15.824,1.368,15.464,1.656,15.08Zm2-3.54v1.176h7.908V11.54H8.34a9.4,9.4,0,0,0-.54-1.428l-1.2.324c.18.36.348.72.5,1.1Zm1.08,1.812v1.116h5.82V13.352Zm0,1.692v1.128h5.82V15.044Zm6.084,1.788H4.464v4.416H5.688v-.6H9.612v.6h1.212ZM5.688,19.46V18H9.612V19.46Z" transform="translate(44 547)" fill="#666"/>
      <g id="蒙版组_17" data-name="蒙版组 17" clip-path="url(#clip-path)">
        <g id="微信" transform="translate(18.7 475.909)">
          <path id="路径_30" data-name="路径 30" d="M25.3,25.091m-23,0a23,23,0,1,0,23-23A23,23,0,0,0,2.3,25.091Z" fill="#3fcf56"/>
          <path id="路径_31" data-name="路径 31" d="M30.723,20.132a9.477,9.477,0,0,1,1.042.064c-.936-4.36-5.6-7.6-10.917-7.6-5.948,0-10.82,4.054-10.82,9.2,0,2.972,1.621,5.412,4.33,7.3l-1.082,3.255,3.782-1.9a18.5,18.5,0,0,0,3.79.543c.34,0,.676-.017,1.011-.043a8.051,8.051,0,0,1-.334-2.267c0-4.727,4.059-8.563,9.2-8.563ZM24.905,17.2a1.352,1.352,0,1,1,0,2.7,1.518,1.518,0,0,1-1.625-1.354,1.513,1.513,0,0,1,1.625-1.35Zm-7.572,2.7a1.523,1.523,0,0,1-1.63-1.354,1.518,1.518,0,0,1,1.63-1.35,1.352,1.352,0,0,1,0,2.7Z" fill="#fff"/>
          <path id="路径_32" data-name="路径 32" d="M40.6,28.565c0-4.326-4.329-7.852-9.191-7.852-5.149,0-9.2,3.527-9.2,7.852s4.055,7.852,9.2,7.852a13.6,13.6,0,0,0,3.247-.543L37.623,37.5l-.814-2.7c2.172-1.629,3.79-3.79,3.79-6.23ZM28.425,27.211a1.082,1.082,0,1,1,0-2.165,1.236,1.236,0,0,1,1.354,1.082A1.231,1.231,0,0,1,28.425,27.211Zm5.951,0a1.082,1.082,0,0,1,0-2.165,1.241,1.241,0,0,1,1.354,1.082A1.236,1.236,0,0,1,34.376,27.211Z" fill="#fff"/>
        </g>
      </g>
    </g>
    <g id="组_123" data-name="组 123" transform="translate(97)">
      <path id="路径_39" data-name="路径 39" d="M-29.8-9.768v3.36h-3.24v4.152h8.28V-6.408h-3.8V-7.584h4.536V-8.748h-4.536v-1.02Zm3.792,6.36h-5.784V-5.244h5.784Zm-7.056,1.5a9.82,9.82,0,0,1-1.488,2.4l1.032.756a11.875,11.875,0,0,0,1.5-2.652Zm2.964.4-1.176.24a18.78,18.78,0,0,1,.552,2.532l1.26-.3C-29.658.072-29.862-.744-30.1-1.512Zm2.484-.168-1.176.24a14.091,14.091,0,0,1,.828,2.676l1.248-.3A22.982,22.982,0,0,0-27.618-1.68Zm2.388-.288-1.02.648a21.455,21.455,0,0,1,1.692,2.628L-23.5.588A24.1,24.1,0,0,0-25.23-1.968Zm12.624-2.76h-5.88a13.783,13.783,0,0,0,1.1-2.316h5.772V-8.256H-17c.132-.492.252-1,.36-1.524l-1.284-.156a14.925,14.925,0,0,1-.408,1.68h-3.888v1.212h3.456a10.071,10.071,0,0,1-3.9,4.728L-22-1.128a10.454,10.454,0,0,0,2.388-2.04v4.44h1.248V.684h4.524v.588h1.236Zm-5.76,4.212V-3.54h4.524V-.516ZM-6.21-9.852V-.384h-4.164V.84H.414V-.384H-4.914V-5.076h4.44V-6.288h-4.44V-9.852ZM4.182-3.6H6.594v1.068H4.11c.036-.324.06-.66.072-1.02ZM3.93-1.428H6.594v2.46H7.83v-2.46h2.64v1c0,.348-.168.528-.5.528-.444,0-.924-.024-1.44-.06l.3,1.152h1.5c.912,0,1.38-.4,1.38-1.188V-7H8.934a12.777,12.777,0,0,0,1.26-1.092V-9H5.922c.144-.216.3-.432.444-.648l-1.26-.288a11.137,11.137,0,0,1-3.612,3.4l.8.972c.216-.144.444-.288.66-.444v2.556A5.908,5.908,0,0,1,1.626.432l.96.876A6.8,6.8,0,0,0,3.93-1.428Zm6.54-1.1H7.83V-3.6h2.64Zm0-2.172H7.83V-5.868h2.64ZM4.17-7c.312-.288.612-.6.9-.924H8.454c-.432.336-.852.648-1.272.924ZM6.594-5.868V-4.7H4.182V-5.868Zm12.4-4.176a2.81,2.81,0,0,0-1.644,2.652q0,1.476,1.116,1.476a.966.966,0,0,0,.66-.252.914.914,0,0,0,.264-.66.859.859,0,0,0-.264-.636.966.966,0,0,0-.66-.252.632.632,0,0,0-.228.024A2.167,2.167,0,0,1,19.41-9.36Zm-2.9,0a2.81,2.81,0,0,0-1.644,2.652q0,1.476,1.116,1.476a.966.966,0,0,0,.66-.252.914.914,0,0,0,.264-.66.859.859,0,0,0-.264-.636.966.966,0,0,0-.66-.252.632.632,0,0,0-.228.024A2.167,2.167,0,0,1,16.506-9.36Zm7.356,3.912v2.46H20.97v1.128h2.472V-.072H24.57V-2.544h2.46V-3.672H24.57v-2.46Zm9-3.912a.925.925,0,0,0-.66.252.851.851,0,0,0-.264.66.834.834,0,0,0,.264.636.925.925,0,0,0,.66.252,1.329,1.329,0,0,0,.228-.024A2.216,2.216,0,0,1,31.494-6.6l.42.684a2.853,2.853,0,0,0,1.644-2.652Q33.558-10.044,32.442-10.044Zm-2.9,0a.925.925,0,0,0-.66.252.851.851,0,0,0-.264.66.834.834,0,0,0,.264.636.925.925,0,0,0,.66.252,1.329,1.329,0,0,0,.228-.024A2.216,2.216,0,0,1,28.59-6.6l.42.684a2.853,2.853,0,0,0,1.644-2.652Q30.654-10.044,29.538-10.044Z" transform="translate(44 547)" fill="#666"/>
      <g id="蒙版组_18" data-name="蒙版组 18" clip-path="url(#clip-path-2)">
        <path id="添加" d="M19.2,37.2a18,18,0,1,1,18-18A18,18,0,0,1,19.2,37.2Zm0-31.5A13.5,13.5,0,1,0,32.7,19.2,13.5,13.5,0,0,0,19.2,5.7Zm6.75,15.75h-4.5v4.5a2.25,2.25,0,0,1-4.5,0v-4.5h-4.5a2.25,2.25,0,0,1,0-4.5h4.5v-4.5a2.25,2.25,0,0,1,4.5,0v4.5h4.5a2.25,2.25,0,0,1,0,4.5Z" transform="translate(24.8 481.8)" fill="#3fcf56"/>
      </g>
    </g>
    <g id="组_124" data-name="组 124" transform="translate(190)">
      <path id="路径_40" data-name="路径 40" d="M-22.728-9.876v1.4h-1.128c.108-.312.2-.624.3-.96l-1.188-.252a8.925,8.925,0,0,1-1.308,2.832L-25-6.168A11.13,11.13,0,0,0-24.348-7.3h1.62v1.344h-2.88v1.2h1.68A5.487,5.487,0,0,1-24.24-3.24a3.623,3.623,0,0,1-1.812,1.68l.792.984a4.135,4.135,0,0,0,2.148-2.256,7.311,7.311,0,0,0,.348-1.92h.888v3.036a1.1,1.1,0,0,0,.276.768,1.013,1.013,0,0,0,.8.312h.828A1.606,1.606,0,0,0-18.96-.912,4,4,0,0,0-18.516-2.7l-1.08-.36c-.048.72-.12,1.128-.228,1.212a.745.745,0,0,1-.372.1h-.2c-.2,0-.3-.084-.3-.24v-2.76h1.848v-1.2H-21.5V-7.3h2.2V-8.472h-2.2v-1.4Zm-5.6.12-.852.8A12.319,12.319,0,0,1-27.24-7l.876-.864A16.636,16.636,0,0,0-28.332-9.756Zm6.84,10.812h2.748l.3-1.236q-.486.036-1.4.072c-.624,0-1.224.012-1.824.012-.936,0-1.74-.012-2.436-.024a3.887,3.887,0,0,1-1.584-.3,3.179,3.179,0,0,1-.84-.708l-.132-.132V-5.82h-2.748v1.152h1.584V-1.38A5.28,5.28,0,0,0-29.436.456l.924.852C-27.912.228-27.5-.3-27.264-.3c.132,0,.276.1.444.3a2.7,2.7,0,0,0,1.26.828,9.031,9.031,0,0,0,1.92.2C-22.872,1.044-22.152,1.056-21.492,1.056ZM-13.14-9.48v1.128h.7A5.158,5.158,0,0,0-11.112-6.3a14.329,14.329,0,0,1-2.46.744l.6,1.056A13.217,13.217,0,0,0-10.02-5.52a8.481,8.481,0,0,0,3.192.936L-6.372-5.7a9.156,9.156,0,0,1-2.472-.564,4.435,4.435,0,0,0,1.536-2.16V-9.48Zm1.908,1.128H-8.6A4.3,4.3,0,0,1-10.02-6.888,3.825,3.825,0,0,1-11.232-8.352Zm-4.8,9.492A1.09,1.09,0,0,0-14.8-.084V-3.276c.408-.168.816-.336,1.224-.528V-5.076c-.408.2-.816.384-1.224.552V-6.48h1.212V-7.692H-14.8V-9.816h-1.272v2.124H-17.4V-6.48h1.332v2.412a14.4,14.4,0,0,1-1.572.408l.312,1.26q.63-.18,1.26-.4V-.408a.359.359,0,0,1-.4.408,5.921,5.921,0,0,1-.9-.072l.276,1.212ZM-12.9-3.9v1.128h2.28v1.02h-2.9V-.588h2.9v1.68h1.2V-.588h2.832V-1.752H-9.42v-1.02H-7.2V-3.9H-9.42v-.864h-1.2V-3.9ZM-1.008-9.036v1.224H3.8v2.8H-.684v1.2H3.8V-.852H-1.224V.372H3.8V.96H5.076v-10Zm-.4,3.9c-.408.192-.816.372-1.236.54V-6.588h1.176V-7.776H-2.64V-9.84H-3.9v2.064H-5.388v1.188H-3.9v2.424a15.658,15.658,0,0,1-1.644.408l.3,1.2c.456-.12.9-.252,1.344-.4v2.5q0,.432-.4.432A5.181,5.181,0,0,1-5.136-.1l.288,1.212h.984A1.1,1.1,0,0,0-2.64-.144v-3.24c.42-.168.828-.336,1.236-.5Zm7.944.108V-3.78H17.448V-5.028ZM22.992-9.036v1.224H27.8v2.8H23.316v1.2H27.8V-.852H22.776V.372H27.8V.96h1.272v-10Zm-.4,3.9c-.408.192-.816.372-1.236.54V-6.588h1.176V-7.776H21.36V-9.84H20.1v2.064H18.612v1.188H20.1v2.424a15.658,15.658,0,0,1-1.644.408l.3,1.2c.456-.12.9-.252,1.344-.4v2.5q0,.432-.4.432a5.181,5.181,0,0,1-.84-.072l.288,1.212h.984A1.1,1.1,0,0,0,21.36-.144v-3.24c.42-.168.828-.336,1.236-.5Z" transform="translate(44 547)" fill="#666"/>
      <g id="蒙版组_19" data-name="蒙版组 19" clip-path="url(#clip-path-2)">
        <path id="扫一扫" d="M32.708,0H27.022a1.637,1.637,0,0,0,0,3.274H31.07a1.643,1.643,0,0,1,1.637,1.637V9a1.637,1.637,0,0,0,3.274,0V3.274A3.263,3.263,0,0,0,32.708,0ZM1.637,10.633A1.643,1.643,0,0,0,3.274,9v-4.1A1.643,1.643,0,0,1,4.912,3.256H8.96A1.643,1.643,0,0,0,10.6,1.619,1.632,1.632,0,0,0,8.942,0H3.274A3.263,3.263,0,0,0,0,3.274V9a1.643,1.643,0,0,0,1.637,1.637Zm7.34,22.129H4.912a1.643,1.643,0,0,1-1.637-1.637V27.058a1.624,1.624,0,0,0-1.619-1.619H1.619A1.624,1.624,0,0,0,0,27.058v5.667A3.275,3.275,0,0,0,3.274,36h5.7a1.619,1.619,0,1,0,0-3.238Zm25.385-7.322h-.054a1.624,1.624,0,0,0-1.619,1.619v4.066a1.643,1.643,0,0,1-1.637,1.637H26.986a1.619,1.619,0,1,0,0,3.238h5.7a3.275,3.275,0,0,0,3.274-3.274V27.076a1.591,1.591,0,0,0-1.6-1.637ZM1.637,19.664H34.345a1.637,1.637,0,1,0,0-3.274H1.637a1.637,1.637,0,0,0,0,3.274Z" transform="translate(26.009 483)" fill="#3fcf56"/>
      </g>
    </g>
    <g id="组_125" data-name="组 125" transform="translate(283)">
      <path id="路径_41" data-name="路径 41" d="M-27.966-9.756l-.864.816A11.739,11.739,0,0,1-26.85-7l.9-.888A15.444,15.444,0,0,0-27.966-9.756Zm6.828,10.812h2.748l.3-1.236q-.486.036-1.4.072c-.624,0-1.224.012-1.824.012-.912,0-1.716-.012-2.4-.024a3.8,3.8,0,0,1-1.56-.3,3.106,3.106,0,0,1-.816-.708l-.12-.12V-5.82h-2.748v1.152h1.584V-1.38A5.28,5.28,0,0,0-28.986.456l.924.852C-27.462.228-27.054-.3-26.826-.3c.144,0,.288.1.444.3a2.574,2.574,0,0,0,1.236.828,8.877,8.877,0,0,0,1.9.2C-22.494,1.044-21.786,1.056-21.138,1.056ZM-25.29-8.088v1.164h1.272v.816A9.682,9.682,0,0,1-24.09-4.9h-1.62V-3.72h1.38a3.7,3.7,0,0,1-1.332,2.028l.756,1A5.178,5.178,0,0,0-23.094-3.72h1.8V-.528h1.224V-3.72h1.764V-4.9H-20.07V-6.924h1.38V-8.088h-1.38V-9.852h-1.224v1.764h-1.512V-9.876h-1.212v1.788Zm2.484,1.164h1.512V-4.9h-1.6a14.669,14.669,0,0,0,.084-1.5Zm10.452-.024A11.516,11.516,0,0,1-17.274.024l.768,1.08a11.328,11.328,0,0,0,4.812-6.612l.036.108C-10.374-2.184-8.8-.012-6.942,1.092l.78-1a12.2,12.2,0,0,1-4.4-5.9A8.9,8.9,0,0,0-13.23-9.864l-1.044.672A6.619,6.619,0,0,1-12.354-6.948Zm7.428-1.788V0h1.368V-3.468a2.064,2.064,0,0,1,.372-1.284,1.168,1.168,0,0,1,1.008-.5,1.263,1.263,0,0,1,1.056.444A2.028,2.028,0,0,1-.81-3.6V0H.558V-3.84A2.878,2.878,0,0,0,.03-5.712a2.079,2.079,0,0,0-1.692-.66,2.23,2.23,0,0,0-1.044.228,2.166,2.166,0,0,0-.852.768v-3.36ZM4.638-6.372a2.686,2.686,0,0,0-2.184.948,3.354,3.354,0,0,0-.816,2.316A3.309,3.309,0,0,0,2.5-.684,2.9,2.9,0,0,0,4.7.168,3.078,3.078,0,0,0,6.762-.54a2.817,2.817,0,0,0,.864-1.452H6.258a2.056,2.056,0,0,1-.552.756,1.683,1.683,0,0,1-1.02.288A1.447,1.447,0,0,1,3.546-1.4a2.244,2.244,0,0,1-.468-1.32H7.722A4.137,4.137,0,0,0,6.978-5.34,2.776,2.776,0,0,0,4.638-6.372Zm.036,1.116a1.485,1.485,0,0,1,1.62,1.5H3.1a2.016,2.016,0,0,1,.5-1.116A1.424,1.424,0,0,1,4.674-5.256Zm4.248-3.48V0H10.29V-8.736Zm6.072,2.364a2.235,2.235,0,0,0-1.872.828V-6.2H11.85v8.58h1.368V-.852A2.269,2.269,0,0,0,15.066.168a2.521,2.521,0,0,0,2.1-.972,3.579,3.579,0,0,0,.708-2.268,3.6,3.6,0,0,0-.72-2.328A2.637,2.637,0,0,0,14.994-6.372Zm-.2,1.1a1.489,1.489,0,0,1,1.332.648,2.9,2.9,0,0,1,.348,1.548,2.679,2.679,0,0,1-.384,1.548,1.588,1.588,0,0,1-1.344.588,1.336,1.336,0,0,1-1.092-.54,2.41,2.41,0,0,1-.48-1.572v-.1a2.513,2.513,0,0,1,.384-1.488A1.383,1.383,0,0,1,14.79-5.268Zm6.924-1.1a2.686,2.686,0,0,0-2.184.948,3.354,3.354,0,0,0-.816,2.316,3.309,3.309,0,0,0,.864,2.424,2.9,2.9,0,0,0,2.2.852A3.078,3.078,0,0,0,23.838-.54,2.817,2.817,0,0,0,24.7-1.992H23.334a2.056,2.056,0,0,1-.552.756,1.683,1.683,0,0,1-1.02.288,1.447,1.447,0,0,1-1.14-.456,2.244,2.244,0,0,1-.468-1.32H24.8a4.137,4.137,0,0,0-.744-2.616A2.776,2.776,0,0,0,21.714-6.372Zm.036,1.116a1.485,1.485,0,0,1,1.62,1.5H20.178a2.016,2.016,0,0,1,.5-1.116A1.424,1.424,0,0,1,21.75-5.256Zm7.056-1.116a1.484,1.484,0,0,0-.984.336,2.113,2.113,0,0,0-.588.72V-6.2H25.878V0h1.356V-3.288a1.673,1.673,0,0,1,.492-1.272,1.329,1.329,0,0,1,.972-.42,2.953,2.953,0,0,1,.888.132V-6.216A1.741,1.741,0,0,0,28.806-6.372ZM-6.612,10.2v1.656h-3.852v7.032h1.236v-.7h2.616v3H-5.34v-3h2.568V18.8h1.236V11.852h-3.8V10.2Zm-2.616,6.816V15.56h2.616v1.452Zm3.888,0V15.56h2.568v1.452Zm-3.888-2.568V13.016h2.616v1.428Zm3.888,0V13.016h2.568v1.428Zm12.516-4.3v.66H4.416v1.008h2.76v.5H4.92V13.3H7.176v.516H4.08v1.032h7.44V13.82H8.388V13.3h2.424V12.32H8.388v-.5h2.844V10.808H8.388v-.66ZM6.084,17.876H9.516v.588H6.084Zm3.432-.936H6.084v-.6H9.516ZM6.084,19.412H9.516v.336c0,.252-.108.384-.324.384l-.948-.048.3,1.092h1a1.039,1.039,0,0,0,1.176-1.164v-4.68H4.908v5.916H6.084Zm-3.948-9.18-.888.852a10.979,10.979,0,0,1,1.968,1.752l.864-.864A15.743,15.743,0,0,0,2.136,10.232Zm-1.7,3.456v1.2h1.6v4.236a.871.871,0,0,1-.312.672l.468,1.128a18.733,18.733,0,0,0,2.268-1.908L4.116,17.7c-.3.312-.588.612-.876.888v-4.9Z" transform="translate(44 547)" fill="#666"/>
      <g id="蒙版组_20" data-name="蒙版组 20" clip-path="url(#clip-path-2)">
        <g id="申请" transform="translate(20.586 479.211)">
          <path id="路径_33" data-name="路径 33" d="M18.947,39.248H7.038c-1.083,0-1.624-.812-1.624-1.895V8.932A4.852,4.852,0,0,1,10.286,4.06H31.4a4.852,4.852,0,0,1,4.872,4.872v8.12a2.3,2.3,0,0,1-2.165,1.895c-1.083,0-1.624-.812-1.624-1.895V8.932a1.279,1.279,0,0,0-1.353-1.353H10.015A1.279,1.279,0,0,0,8.662,8.932v26.8H18.947c1.083,0,1.624.812,1.624,1.895A1.56,1.56,0,0,1,18.947,39.248Z" fill="#3fcf56"/>
          <path id="路径_34" data-name="路径 34" d="M24.09,39.248c-.541,0-.812-.271-1.353-.541a1.989,1.989,0,0,1-.541-1.624l2.165-7.038c0-.271.271-.541.541-.812l8.391-8.12a2.02,2.02,0,0,1,2.436,0l5.143,5.143a2.068,2.068,0,0,1,.541,1.353c0,.541-.271.812-.541,1.353l-8.391,8.12c-.271.271-.541.271-.812.541l-7.038,1.895c-.271-.271-.271-.271-.541-.271Zm3.519-7.85-1.083,3.789,3.789-1.083,6.767-6.5L34.376,24.9Zm.812-14.617h-15.7A1.56,1.56,0,0,1,11.1,15.158a1.747,1.747,0,0,1,1.624-1.624h15.7a1.81,1.81,0,0,1,1.895,1.624A1.81,1.81,0,0,1,28.421,16.782ZM21.654,24.9H12.722a1.624,1.624,0,0,1,0-3.248h8.932a1.624,1.624,0,1,1,0,3.248Z" fill="#3fcf56"/>
        </g>
      </g>
    </g>
    <path id="箭头" d="M100.214,9.5V19h7.5V9.5h3.75l-7.5-9.5-7.5,9.5h3.75Z" transform="translate(104 397.536) rotate(90)" fill="#ccc"/>
    <path id="箭头-2" data-name="箭头" d="M100.214,9.5V19h7.5V9.5h3.75l-7.5-9.5-7.5,9.5h3.75Z" transform="translate(197 397.536) rotate(90)" fill="#ccc"/>
    <path id="箭头-3" data-name="箭头" d="M100.214,9.5V19h7.5V9.5h3.75l-7.5-9.5-7.5,9.5h3.75Z" transform="translate(290 397.536) rotate(90)" fill="#ccc"/>
  </g>
</svg>
