<svg xmlns="http://www.w3.org/2000/svg" width="47.1" height="54.272" viewBox="0 0 47.1 54.272">
  <g id="组_80" data-name="组 80" transform="translate(-202.504 -419)">
    <circle id="椭圆_12" data-name="椭圆 12" cx="16" cy="16" r="16" transform="translate(211 419)" fill="#649cf1"/>
    <path id="路径_32" data-name="路径 32" d="M-17.856-7.284v3.9h-2.7V1.224h1.128V.7H-14.7v.528h1.128V-3.384h-3.144V-4.908h3.828v-1.08h-3.828v-1.3ZM-19.428-.372V-2.328H-14.7V-.372Zm1.9-9.528-1.188.192a7.88,7.88,0,0,1,.552.948h-4.3v3.6A13.073,13.073,0,0,1-23.5.408l.864.768a14.161,14.161,0,0,0,1.3-6.336v-2.5h8.712v-1.1H-17A11.2,11.2,0,0,0-17.532-9.9Zm7.38.084a12.883,12.883,0,0,1-1.464,3.888l.936.588c.108-.192.216-.4.336-.612v.744h.6V-3.9H-11.22v1.056h1.476V-.48c0,.2-.144.36-.408.468l.468.972A11.037,11.037,0,0,0-7.164-.048l-.18-1a9.223,9.223,0,0,1-1.3.636V-2.844h1.38V-3.9H-8.64V-5.208h.9V-6.24H-10.2c.192-.408.36-.828.528-1.26h2.244V-8.58h-1.9c.1-.324.18-.66.264-1.008ZM-7.1-8.5V-7.44h2.76v.924H-6.7V1.212H-5.64v-2.52h1.3V1.176h1.068V-1.308H-1.92V-.252c0,.288-.132.444-.384.444L-2.9.144l.264,1.02h.66c.744,0,1.116-.4,1.116-1.176v-6.5H-3.276V-7.44H-.432V-8.5h-.912l.36-.252a11.93,11.93,0,0,0-.96-1.188L-2.7-9.48c.312.348.576.672.8.984h-1.38V-9.8H-4.344V-8.5Zm2.76,3.012v1.128h-1.3V-5.484Zm-1.3,2.112h1.3V-2.3h-1.3ZM-1.92-2.3H-3.276V-3.372H-1.92Zm0-2.052H-3.276V-5.484H-1.92ZM5.256-7.932H11.2V-8.988H5.832q.162-.342.324-.72l-1.14-.24A8.85,8.85,0,0,1,3.06-6.924l.72.876c.192-.192.384-.408.6-.648C4.356-5.94,4.3-5.172,4.212-4.38H2.988v1.056h1.1c-.12.924-.288,1.86-.48,2.808H9.3c-.024.1-.036.156-.048.192A.9.9,0,0,1,8.76.168a3.578,3.578,0,0,1-.768.084c-.384,0-.828-.024-1.308-.06l.324,1.032c.432,0,.8-.012,1.14-.012A3.138,3.138,0,0,0,9.612.936,1.39,1.39,0,0,0,10.3.072a3.817,3.817,0,0,0,.084-.588h.984v-.972h-.9c.024-.492.06-1.1.1-1.836h1V-4.38h-.948c.024-.8.06-1.728.1-2.772H4.728A8.028,8.028,0,0,0,5.256-7.932ZM5.172-3.324h1.56l-.624.612A8.519,8.519,0,0,1,7.536-1.488H4.872C4.992-2.052,5.088-2.664,5.172-3.324ZM7.608-1.488l.7-.684A9.844,9.844,0,0,0,6.936-3.324H9.48c-.036.744-.072,1.356-.1,1.836ZM9.516-4.38H7.776l.66-.648a9.928,9.928,0,0,0-1.5-1.1l-.708.7a9.259,9.259,0,0,1,1.4,1.056H5.292c.048-.564.084-1.164.12-1.788H9.588ZM1.5-9.708l-.816.78A10.983,10.983,0,0,1,2.5-7.392l.816-.816A11.923,11.923,0,0,0,1.5-9.708ZM1.308-6.792.492-6A11.2,11.2,0,0,1,2.316-4.44l.8-.8A11.385,11.385,0,0,0,1.308-6.792Zm.984,3.564A31.265,31.265,0,0,1,.576.612l1.056.468A34.4,34.4,0,0,0,3.288-2.844ZM16.68-5.148c-.42.216-.852.42-1.284.612v-2.1h1.248V-7.728H15.4V-9.8H14.28v2.076H12.636v1.092H14.28V-4.1a16.648,16.648,0,0,1-1.872.528L12.7-2.448q.792-.252,1.584-.54V-.276a.4.4,0,0,1-.444.456,7.174,7.174,0,0,1-.984-.072L13.116,1.2h1.128C15.012,1.2,15.4.792,15.4,0V-3.432c.432-.18.852-.372,1.284-.588Zm1.572,1.056h.528A6.612,6.612,0,0,0,20.208-1.02a5.7,5.7,0,0,1-1.764,1.3l.552,1a6.733,6.733,0,0,0,1.992-1.44A11.184,11.184,0,0,0,22.836,1.26L23.6.372A9.5,9.5,0,0,1,21.636-1a7.779,7.779,0,0,0,1.152-3.156v-.984H18.252V-8.388h3.36a4.04,4.04,0,0,1-.156,1.224.532.532,0,0,1-.3.24,4.21,4.21,0,0,1-.636.036c-.288,0-.516-.012-.7-.012l.312.984h.9q1.206,0,1.44-.684A11.436,11.436,0,0,0,22.7-9.42H17.172V1.236h1.08Zm1.548,0h1.92a7.485,7.485,0,0,1-.876,2.244A5.131,5.131,0,0,1,19.8-4.092Z" transform="translate(226 472)" fill="#333"/>
    <path id="海报" d="M13.467.333H3.225A2.9,2.9,0,0,0,.333,3.208v10.25a2.9,2.9,0,0,0,2.892,2.875H13.458a2.9,2.9,0,0,0,2.867-2.875V3.208A2.877,2.877,0,0,0,13.467.333Zm1.617,7.683L13.858,6.683a1.752,1.752,0,0,0-.25-.2,1.25,1.25,0,0,0-1.7.375l-2.967,4.5a.878.878,0,0,1-.2.25,1.177,1.177,0,0,1-1.7-.125l-.925-1.1-.075-.075a1.194,1.194,0,0,0-1.7.05L1.6,13.225V3.208A1.632,1.632,0,0,1,3.225,1.583H13.458a1.622,1.622,0,0,1,1.625,1.625ZM4.825,2.583a1.5,1.5,0,1,0,1.5,1.5A1.5,1.5,0,0,0,4.825,2.583Z" transform="translate(218.671 426.667)" fill="#fff"/>
  </g>
</svg>
