<svg xmlns="http://www.w3.org/2000/svg" width="59.628" height="55.376" viewBox="0 0 59.628 55.376">
  <g id="组_81" data-name="组 81" transform="translate(-116.36 -419)">
    <circle id="椭圆_11" data-name="椭圆 11" cx="16" cy="16" r="16" transform="translate(131 419)" fill="#649cf1"/>
    <path id="路径_31" data-name="路径 31" d="M-29.64-8.568V0h1.308V-3.84h4.488V0h1.308V-8.568h-1.308v3.612h-4.488V-8.568Zm11.292,2.2a2.678,2.678,0,0,0-2.172.948,3.354,3.354,0,0,0-.816,2.316,3.347,3.347,0,0,0,.864,2.424A2.846,2.846,0,0,0-18.3.168,3.024,3.024,0,0,0-16.248-.54,2.8,2.8,0,0,0-15.4-1.992h-1.272a2.157,2.157,0,0,1-.564.8,1.774,1.774,0,0,1-1.08.312,1.544,1.544,0,0,1-1.188-.48,2.325,2.325,0,0,1-.492-1.392h4.7a4.239,4.239,0,0,0-.744-2.592A2.729,2.729,0,0,0-18.348-6.372Zm.036,1.044a1.572,1.572,0,0,1,1.692,1.62h-3.348a2.1,2.1,0,0,1,.516-1.2A1.521,1.521,0,0,1-18.312-5.328Zm4.248-3.408V0h1.272V-8.736ZM-8.1-6.372a2.2,2.2,0,0,0-1.92.912V-6.2h-1.188v8.58h1.272V-.912A2.237,2.237,0,0,0-8.04.168,2.521,2.521,0,0,0-5.94-.8a3.579,3.579,0,0,0,.708-2.268A3.6,3.6,0,0,0-5.952-5.4,2.614,2.614,0,0,0-8.1-6.372ZM-8.292-5.34a1.524,1.524,0,0,1,1.38.672,2.989,2.989,0,0,1,.372,1.6,2.775,2.775,0,0,1-.408,1.6,1.6,1.6,0,0,1-1.38.612A1.389,1.389,0,0,1-9.48-1.428a2.451,2.451,0,0,1-.492-1.608v-.108a2.675,2.675,0,0,1,.4-1.536A1.458,1.458,0,0,1-8.292-5.34ZM-1.4-6.372a2.678,2.678,0,0,0-2.172.948,3.354,3.354,0,0,0-.816,2.316A3.347,3.347,0,0,0-3.528-.684,2.846,2.846,0,0,0-1.356.168,3.024,3.024,0,0,0,.7-.54a2.8,2.8,0,0,0,.852-1.452H.276a2.157,2.157,0,0,1-.564.8,1.774,1.774,0,0,1-1.08.312,1.544,1.544,0,0,1-1.188-.48,2.324,2.324,0,0,1-.492-1.392h4.7A4.239,4.239,0,0,0,.912-5.34,2.729,2.729,0,0,0-1.4-6.372Zm.036,1.044A1.572,1.572,0,0,1,.324-3.708H-3.024a2.1,2.1,0,0,1,.516-1.2A1.521,1.521,0,0,1-1.368-5.328ZM5.616-6.372a1.516,1.516,0,0,0-1.008.348,1.849,1.849,0,0,0-.6.756V-6.2H2.736V0H4.008V-3.288a1.824,1.824,0,0,1,.48-1.32A1.4,1.4,0,0,1,5.52-5.076a3.029,3.029,0,0,1,.9.132V-6.216A1.814,1.814,0,0,0,5.616-6.372ZM7.956-9.72,7.2-8.988A13.017,13.017,0,0,1,9.012-7.032l.78-.78A13.517,13.517,0,0,0,7.956-9.72ZM14.988,1.032h2.748L18.012-.1c-.324.024-.792.048-1.392.06s-1.212.024-1.788.024c-.984,0-1.824-.012-2.532-.024a4.528,4.528,0,0,1-1.656-.3,3.245,3.245,0,0,1-.912-.72.9.9,0,0,0-.192-.18V-5.772H7.092v1.044H8.46v3.444A5.225,5.225,0,0,0,7.032.528l.8.756C8.388.2,8.76-.336,8.976-.336a.679.679,0,0,1,.48.3,2.707,2.707,0,0,0,1.3.84,9.823,9.823,0,0,0,2,.2C13.56,1.02,14.3,1.032,14.988,1.032ZM10.572-9.036v3.444H11.6l.216.564H10.2v.948h1.02a6.285,6.285,0,0,1-.348,1.4,3.66,3.66,0,0,1-.816,1.164l.636.828A4.518,4.518,0,0,0,11.76-2.2c.048-.144.108-.3.156-.468h1.212a4.374,4.374,0,0,1-.1,1.008.414.414,0,0,1-.4.24h-.7l.276.924h.672a1.09,1.09,0,0,0,.984-.48,6.9,6.9,0,0,0,.276-2.58H12.12c.024-.168.048-.336.072-.528h2.28v-.948H12.888l-.216-.564h1.4v-.084l.348.432a7.337,7.337,0,0,0,1.032-1.848h1a13.267,13.267,0,0,1-.288,2.328,8.985,8.985,0,0,0-.852-1.068l-.564.66a14.019,14.019,0,0,1,1.068,1.548A5.309,5.309,0,0,1,14.2-1.332l.576.912a6.486,6.486,0,0,0,1.656-2.112c.288.564.564,1.176.828,1.824L18-1.452q-.558-1.224-1.116-2.2a13.012,13.012,0,0,0,.552-3.444h.5V-8.16H15.816c.132-.48.24-1,.336-1.548L15.108-9.9a10.8,10.8,0,0,1-1.032,3.576V-9.036H12.744a4.5,4.5,0,0,0,.228-.744l-1.128-.144c-.048.3-.108.6-.18.888Zm2.556,2.688H11.52v-.588h1.608ZM11.52-7.7V-8.28h1.608V-7.7Zm14.2-2.136v.7H22.908v.924h2.808v.588h-2.3v.9h2.3v.6H22.572v.948h7.416v-.948h-3.18v-.6h2.46v-.9h-2.46V-8.22h2.88v-.924h-2.88v-.7ZM24.5-2.16h3.564v.672H24.5Zm3.564-.864H24.5v-.684h3.564ZM24.5-.624h3.564V-.18c0,.264-.132.4-.372.4L26.76.156l.264,1.008h1A1,1,0,0,0,29.16.048v-4.68H23.424V1.236H24.5Zm-3.936-9.12-.8.78a11.564,11.564,0,0,1,1.98,1.776l.78-.792A14.381,14.381,0,0,0,20.568-9.744Zm-1.632,3.48v1.092h1.632V-.78a.826.826,0,0,1-.3.636L20.7.888A15.712,15.712,0,0,0,22.92-1.02l-.3-1.2c-.336.348-.648.672-.96.972V-6.264Z" transform="translate(146 472)" fill="#333"/>
    <g id="邀请" transform="translate(139 427)">
      <path id="路径_14" data-name="路径 14" d="M14.4,6.4V0H1.6V6.4H0V16H16V6.4ZM3.2,1.6h9.6V6.4L8,10.4l-4.8-4Z" fill="#fff"/>
      <path id="路径_15" data-name="路径 15" d="M4.8,3.2h6.4V4.8H4.8Zm0,2.4h6.4V7.2H4.8Z" fill="#fff"/>
    </g>
  </g>
</svg>
