<svg xmlns="http://www.w3.org/2000/svg" width="59.592" height="55.376" viewBox="0 0 59.592 55.376">
  <g id="组_82" data-name="组 82" transform="translate(-36.36 -419)">
    <circle id="椭圆_4" data-name="椭圆 4" cx="16" cy="16" r="16" transform="translate(51 419)" fill="#649cf1"/>
    <path id="路径_30" data-name="路径 30" d="M-29.64-8.568V0h1.308V-3.84h4.488V0h1.308V-8.568h-1.308v3.612h-4.488V-8.568Zm11.292,2.2a2.678,2.678,0,0,0-2.172.948,3.354,3.354,0,0,0-.816,2.316,3.347,3.347,0,0,0,.864,2.424A2.846,2.846,0,0,0-18.3.168,3.024,3.024,0,0,0-16.248-.54,2.8,2.8,0,0,0-15.4-1.992h-1.272a2.157,2.157,0,0,1-.564.8,1.774,1.774,0,0,1-1.08.312,1.544,1.544,0,0,1-1.188-.48,2.325,2.325,0,0,1-.492-1.392h4.7a4.239,4.239,0,0,0-.744-2.592A2.729,2.729,0,0,0-18.348-6.372Zm.036,1.044a1.572,1.572,0,0,1,1.692,1.62h-3.348a2.1,2.1,0,0,1,.516-1.2A1.521,1.521,0,0,1-18.312-5.328Zm4.248-3.408V0h1.272V-8.736ZM-8.1-6.372a2.2,2.2,0,0,0-1.92.912V-6.2h-1.188v8.58h1.272V-.912A2.237,2.237,0,0,0-8.04.168,2.521,2.521,0,0,0-5.94-.8a3.579,3.579,0,0,0,.708-2.268A3.6,3.6,0,0,0-5.952-5.4,2.614,2.614,0,0,0-8.1-6.372ZM-8.292-5.34a1.524,1.524,0,0,1,1.38.672,2.989,2.989,0,0,1,.372,1.6,2.775,2.775,0,0,1-.408,1.6,1.6,1.6,0,0,1-1.38.612A1.389,1.389,0,0,1-9.48-1.428a2.451,2.451,0,0,1-.492-1.608v-.108a2.675,2.675,0,0,1,.4-1.536A1.458,1.458,0,0,1-8.292-5.34ZM-1.4-6.372a2.678,2.678,0,0,0-2.172.948,3.354,3.354,0,0,0-.816,2.316A3.347,3.347,0,0,0-3.528-.684,2.846,2.846,0,0,0-1.356.168,3.024,3.024,0,0,0,.7-.54a2.8,2.8,0,0,0,.852-1.452H.276a2.157,2.157,0,0,1-.564.8,1.774,1.774,0,0,1-1.08.312,1.544,1.544,0,0,1-1.188-.48,2.324,2.324,0,0,1-.492-1.392h4.7A4.239,4.239,0,0,0,.912-5.34,2.729,2.729,0,0,0-1.4-6.372Zm.036,1.044A1.572,1.572,0,0,1,.324-3.708H-3.024a2.1,2.1,0,0,1,.516-1.2A1.521,1.521,0,0,1-1.368-5.328ZM5.616-6.372a1.516,1.516,0,0,0-1.008.348,1.849,1.849,0,0,0-.6.756V-6.2H2.736V0H4.008V-3.288a1.824,1.824,0,0,1,.48-1.32A1.4,1.4,0,0,1,5.52-5.076a3.029,3.029,0,0,1,.9.132V-6.216A1.814,1.814,0,0,0,5.616-6.372ZM15.984-5.124H9V1.224h1.14V.8h5.268v.432h1.14v-3.2H10.14V-2.6h5.844ZM10.14-.2v-.864h5.268V-.2Zm0-3.312v-.7h4.728v.7Zm7.5-3.108H13.116c-.1-.252-.18-.492-.276-.708l.576.372a7.777,7.777,0,0,0,.684-1.1h.612a8.686,8.686,0,0,1,.684,1.14L16.4-7.3a7.159,7.159,0,0,0-.48-.768H17.88v-1H14.544c.072-.192.132-.384.2-.588l-1.092-.24a7,7,0,0,1-1.2,2.316l.2.132-1.008.168a5.448,5.448,0,0,1,.312.648H7.32v2.292H8.436V-5.664h8.088v1.332H17.64Zm-8.7-1.44h.528a10.783,10.783,0,0,1,.7,1.26l1.044-.4a7.333,7.333,0,0,0-.552-.864h1.8v-1H9.432c.072-.192.156-.4.228-.6L8.568-9.9A6.807,6.807,0,0,1,7.08-7.476l1,.624A10,10,0,0,0,8.94-8.064ZM23.5-9.444V-3.7h2.412v1.212H23.352v1.056h2.556V-.192H22.992V.9h6.96V-.192H27.036V-1.428h2.532V-2.484H27.036V-3.7h2.4V-9.444ZM28.344-4.7H27.036V-6.072h1.308Zm-2.436,0h-1.32V-6.072h1.32Zm-1.32-2.352v-1.38h1.32v1.38Zm2.448-1.38h1.308v1.38H27.036ZM19.224-5.5v1.1h1.188v2.724c-.492.132-.984.24-1.488.336L19.2-.24a27.443,27.443,0,0,0,3.672-1.224V-2.556c-.432.192-.864.36-1.308.528V-4.392h1.212V-5.5H21.564V-8.052h1.344v-1.08H19.056v1.08h1.356V-5.5Z" transform="translate(66 472)" fill="#333"/>
    <path id="基础_管_理" data-name="基础 管   理" d="M5.333,6.467V20.2a.472.472,0,0,0,.467.467H20.867a.472.472,0,0,0,.467-.467V6.467A.472.472,0,0,0,20.867,6H5.8a.472.472,0,0,0-.467.467Zm14.2,12.867H7.133a.472.472,0,0,1-.467-.467V10.2a.472.472,0,0,1,.467-.467h12.4A.472.472,0,0,1,20,10.2v8.667A.472.472,0,0,1,19.533,19.333ZM15,14.533h.667a.472.472,0,0,0,.467-.467v-.133a.472.472,0,0,1,.467-.467h1.467a.467.467,0,0,0,0-.933H16.6a.472.472,0,0,1-.467-.467v-.133a.472.472,0,0,0-.467-.467H15a.472.472,0,0,0-.467.467v.133a.472.472,0,0,1-.467.467h-5.2a.467.467,0,0,0,0,.933h5.2a.472.472,0,0,1,.467.467v.133A.472.472,0,0,0,15,14.533Zm-3.733.4H10.6a.472.472,0,0,0-.467.467v.133A.472.472,0,0,1,9.667,16H8.6a.467.467,0,1,0,0,.933H9.667a.472.472,0,0,1,.467.467v.267a.472.472,0,0,0,.467.467h.667a.472.472,0,0,0,.467-.467v-.133a.472.472,0,0,1,.467-.467h5.733a.467.467,0,1,0,0-.933H12.2a.472.472,0,0,1-.467-.467V15.4A.472.472,0,0,0,11.267,14.933Z" transform="translate(53.667 421.667)" fill="#fff"/>
  </g>
</svg>
