<svg xmlns="http://www.w3.org/2000/svg" width="79.684" height="68.088" viewBox="0 0 79.684 68.088">
  <defs>
    <style>
      .cls-1 {
        fill: #ccc;
      }

      .cls-2 {
        fill: #fff;
        font-size: 13px;
        font-family: .PingFang-SC-Medium, ".PingFang SC";
        letter-spacing: 0.06em;
        font-weight: 500;
      }
    </style>
  </defs>
  <g id="印章" transform="translate(-1.142 -12.211)">
    <path id="路径_23" data-name="路径 23" class="cls-1" d="M141.889,77.424a32.7,32.7,0,0,1-36.422-13.557l-1.624.437a34.42,34.42,0,0,0,38.484,14.681,33.963,33.963,0,0,0,24.74-32.736l-1.624.437a32.4,32.4,0,0,1-23.553,30.737ZM123.335,15.075A32.093,32.093,0,0,1,158.32,27.133l1.624-.5A33.687,33.687,0,0,0,122.9,13.576,34.047,34.047,0,0,0,98.407,44.5l1.624-.5a32.6,32.6,0,0,1,23.3-28.925Z" transform="translate(-90.72 0)"/>
    <path id="路径_24" data-name="路径 24" class="cls-1" d="M190.621,118.291A30.519,30.519,0,0,0,212.862,89.74l-.937.25a29.914,29.914,0,0,1-54.54,15.618l-.875.312a30.88,30.88,0,0,0,34.111,12.37Zm-17.243-59.1A30.519,30.519,0,0,0,151.325,85.68l.937-.25A29.807,29.807,0,0,1,205.3,70.186l.937-.25A30.68,30.68,0,0,0,173.378,59.191Z" transform="translate(-140.076 -42.679)"/>
    <path id="路径_25" data-name="路径 25" class="cls-1" d="M443.392,207.464l.437-3.311,3.249-1.249-3.124-1.437-.25-3.374-2.374,2.436-3.374-.812,1.624,2.936-1.874,2.874,3.436-.687Zm-10.5,1.249.375-2.686,2.561-.937-2.5-1.187-.187-2.686-1.937,2-2.686-.687,1.312,2.312-1.5,2.312,2.749-.5Zm19.367-5.623.375-2.686,2.561-.937-2.5-1.187-.187-2.686-1.937,2-2.686-.687,1.312,2.312-1.5,2.312,2.749-.5Zm-22.99-39.858-2.187-2.624-.437,3.374-3.311,1.187,3.186,1.437.187,3.374,2.436-2.436,3.374.812-1.687-2.936,1.874-2.811Z" transform="translate(-393.784 -138.411)"/>
    <path id="路径_26" data-name="路径 26" class="cls-1" d="M604.476,162.669l-1.749-2.062-.375,2.686-2.624,1,2.561,1.125.187,2.686,1.874-1.937,2.749.687-1.374-2.374,1.5-2.312Z" transform="translate(-558.304 -138.411)"/>
    <path id="路径_27" data-name="路径 27" class="cls-1" d="M288.83,264.79l-1.749-2.062-.375,2.686-2.624,1,2.561,1.125.187,2.686,1.874-1.937,2.749.687-1.374-2.374,1.5-2.312Z" transform="translate(-263.899 -233.659)"/>
    <path id="路径_28" data-name="路径 28" class="cls-1" d="M80.782,236.779l-4.5-15.619a1.249,1.249,0,0,0-1.562-.875L2.065,241.152a1.249,1.249,0,0,0-.875,1.562l4.5,15.619a1.249,1.249,0,0,0,1.562.875L79.97,238.34a1.39,1.39,0,0,0,.812-1.562Z" transform="translate(0 -194.027)"/>
    <text id="审核通过" class="cls-2" transform="translate(41.304 50.664) rotate(-16.5)"><tspan x="-27.17" y="0">审核通过</tspan></text>
  </g>
</svg>
