<?xml version="1.0" encoding="UTF-8"?>
<svg width="40px" height="66px" viewBox="0 0 40 66" version="1.1" xmlns="http://www.w3.org/2000/svg" xmlns:xlink="http://www.w3.org/1999/xlink">
    <!-- Generator: Sketch 53 (72520) - https://sketchapp.com -->
    <title>标签-首页</title>
    <desc>Created with Sketch.</desc>
    <g id="详情页" stroke="none" stroke-width="1" fill="none" fill-rule="evenodd">
        <g id="特色体验课" transform="translate(-42.000000, -5868.000000)">
            <g id="标签栏_2" transform="translate(0.000000, 5846.000000)">
                <g id="分组">
                    <g id="分组-15" transform="translate(40.000000, 20.000000)">
                        <g id="标签-首页">
                            <g id="标签-首页-copy-6">
                                <text id="首页" font-family="PingFangSC-Medium, PingFang SC" font-size="20" font-weight="400" fill="#F2B036">
                                    <tspan x="2" y="65">首页</tspan>
                                </text>
                                <g id="首页-房屋-">
                                    <rect id="矩形" x="0" y="0" width="44" height="44"></rect>
                                    <g id="分组" transform="translate(2.000000, 2.000000)" fill-rule="nonzero">
                                        <path d="M4.42359016,19.9243788 C4.28476882,18.8709739 3.86757778,18.6099258 2.45780571,18.7900596 C0.76173989,19.0067747 -0.171538141,16.8790953 1.13662596,15.7780452 L18.8960969,0.830327677 C19.5308536,0.296068275 20.4571035,0.293049103 21.0953296,0.823159135 L39.091638,15.7708767 C40.4159588,16.8708563 39.4740423,19.0180333 37.7678368,18.7885917 C35.8124571,18.5256425 35.3887428,18.7933943 35.3887428,19.8206454 L35.3887428,38.0465856 C35.3887428,38.9933594 34.6212309,39.7608713 33.6744571,39.7608713 L6.13787588,39.7608713 C5.19110202,39.7608713 4.42359016,38.9933594 4.42359016,38.0465856 L4.42359016,19.9243788 Z" id="路径" fill="#F2B036"></path>
                                        <path d="M7.84131361,19.6280956 L7.85216159,19.8206454 L7.85216159,36.3322998 L31.9601714,36.3322998 L31.9601714,19.8206454 C31.9601714,17.9811052 32.6842063,16.6825185 33.9550962,15.9614739 L20.0072837,4.37643339 L6.00071677,16.1654223 C7.01708274,16.8863883 7.66371033,18.0568856 7.84131361,19.6280956 Z" id="路径" fill="#E1FDEC"></path>
                                        <path d="M23.2742642,36.2758459 L16.7257358,36.2758459 L16.7257358,27.7940946 C16.7257358,27.0661028 17.3175223,26.4802632 18.0432168,26.4802632 L21.9524636,26.4802632 C22.6824777,26.4802632 23.2699446,27.0704104 23.2699446,27.7940946 L23.2699446,36.2758459 L23.2742642,36.2758459 Z M13.4514716,25.6187343 L13.4514716,39.5367325 L26.5442088,39.5367325 L26.5442088,25.6187343 C26.5442088,24.2919799 25.4643064,23.2150689 24.1338666,23.2150689 L15.8618138,23.2150689 C14.531374,23.2150689 13.4514716,24.2919799 13.4514716,25.6187343 Z" id="形状" fill="#F2B036"></path>
                                    </g>
                                </g>
                            </g>
                        </g>
                    </g>
                </g>
            </g>
        </g>
    </g>
</svg>