<svg xmlns="http://www.w3.org/2000/svg" xmlns:xlink="http://www.w3.org/1999/xlink" width="21" height="14"
     viewBox="0 0 21 14">
    <defs>
        <style>
            .cls-1 {
            fill: red;
            }

            .cls-2 {
            clip-path: url(#clip-path);
            }
        </style>
        <clipPath id="clip-path">
            <rect id="矩形_10" data-name="矩形 10" class="cls-1" width="21" height="14" transform="translate(-2 1)"/>
        </clipPath>
    </defs>
    <g id="蒙版组_1" data-name="蒙版组 1" class="cls-2" transform="translate(2 -1)">
        <path
            id="火" class="cls-1"
            d="M31.838,27.92a3.523,3.523,0,0,1,.294-4.1,6.639,6.639,0,0,0,.98-2.293,2.594,2.594,0,0,1,.392,2.049,5.367,5.367,0,0,0,1.127-3.9,6.712,6.712,0,0,1,2.107,8.2c7.544-4.293,1.862-10.683.882-11.366a2.287,2.287,0,0,1-.294,2.537c-1.127-4.293-3.919-5.122-3.919-5.122.343,2.2-1.176,4.585-2.645,6.39a4.618,4.618,0,0,0-.588-2.341c-.1,1.61-1.323,2.878-1.666,4.488-.441,2.2.343,3.756,3.331,5.463Z"
            transform="translate(-25.993 -12.92)"
        />
    </g>
</svg>
