<?xml version="1.0" standalone="no"?><!DOCTYPE svg PUBLIC "-//W3C//DTD SVG 1.1//EN" "http://www.w3.org/Graphics/SVG/1.1/DTD/svg11.dtd"><svg t="1551230556334" class="icon" style="" viewBox="0 0 1316 1024" version="1.1" xmlns="http://www.w3.org/2000/svg" p-id="2947" xmlns:xlink="http://www.w3.org/1999/xlink" width="257.03125" height="200"><defs><style type="text/css"></style></defs><path d="M219.428571 0h877.714286a219.428571 219.428571 0 0 1 219.428572 219.428571v585.142858a219.428571 219.428571 0 0 1-219.428572 219.428571H219.428571a219.428571 219.428571 0 0 1-219.428571-219.428571V219.428571a219.428571 219.428571 0 0 1 219.428571-219.428571z m620.288 321.426286c-16.457143 0-31.853714 22.564571-31.853714 39.021714 0 16.457143 15.250286 39.058286 31.853714 39.058286h208.201143c16.603429 0 31.890286-22.601143 31.890286-39.058286 0-16.457143-15.286857-39.021714-31.890286-39.021714h-208.201143z m0 167.936c-16.457143 0-31.853714 22.564571-31.853714 39.021714 0 16.457143 15.250286 39.021714 31.853714 39.021714h208.201143c16.603429 0 31.890286-22.564571 31.890286-39.021714 0-16.457143-15.286857-39.021714-31.890286-39.021714h-208.201143z m-238.409142 241.664a24.722286 24.722286 0 0 0 20.004571-28.672c-15.908571-82.651429-78.518857-146.651429-157.878857-168.96 41.033143-21.577143 69.376-63.707429 69.376-112.603429 0-70.582857-58.660571-128.219429-130.56-128.219428-71.899429 0-130.377143 57.453714-130.377143 128.219428 0 48.896 28.342857 90.989714 69.339429 112.603429-79.067429 22.418286-141.824 86.016-157.878858 168.411428a24.466286 24.466286 0 0 0 19.748572 28.635429L596.662857 731.428571a27.648 27.648 0 0 0 4.644572-0.402285z m546.633142 4.315428c16.603429 0 31.890286-22.564571 31.890286-39.021714 0-16.457143-15.286857-39.058286-31.890286-39.058286h-308.224c-16.603429 0-31.853714 22.601143-31.853714 39.058286 0 16.457143 15.250286 39.021714 31.853714 39.021714h308.224z" fill="#CCCCCC" p-id="2948"></path></svg>