<svg xmlns="http://www.w3.org/2000/svg" width="276.172" height="26.729" viewBox="0 0 276.172 26.729">
  <g id="注册用户_赢豪礼大奖" data-name="注册用户，赢豪礼大奖" transform="translate(20977.744 12321.684)">
    <path id="路径_190" data-name="路径 190" d="M-124.482-16.256h-5.592V-19.5l5.059.014a7,7,0,0,1,.561-1.025,2.043,2.043,0,0,1,.82-.684,2.719,2.719,0,0,1,1.278-.239,3.89,3.89,0,0,1,1.4.294,1.55,1.55,0,0,1,.834.629l.6,1.025,5.811-.014-1.668,3.24h-4.539v6.262h5.961l-1.654,3.24-4.307-.014V.82h6.713l-1.613,3.2-15.668.027V.82h6V-6.768h-5.4V-9.994h5.4Zm-12.482,10.09h4.443l.027,8.928-4.443,1.818Zm2.037-14.861a2.868,2.868,0,0,1,1.278.355,2.448,2.448,0,0,1,1.012.984,2.772,2.772,0,0,1,.369,1.354,2.556,2.556,0,0,1-.349,1.326,2.683,2.683,0,0,1-.984.984,2.606,2.606,0,0,1-1.326.355,2.559,2.559,0,0,1-1.354-.342,2.632,2.632,0,0,1-.978-.984,2.566,2.566,0,0,1-.349-1.354,2.691,2.691,0,0,1,.362-1.34,2.5,2.5,0,0,1,1-.991A2.722,2.722,0,0,1-134.928-21.027Zm-.15,7.109a2.713,2.713,0,0,1,1.292.349,2.492,2.492,0,0,1,1.012.991,2.772,2.772,0,0,1,.369,1.354,2.556,2.556,0,0,1-.349,1.326,2.72,2.72,0,0,1-.991.991,2.506,2.506,0,0,1-1.333.349,2.643,2.643,0,0,1-1.333-.355,2.582,2.582,0,0,1-.978-.978,2.669,2.669,0,0,1-.355-1.347,2.691,2.691,0,0,1,.362-1.34,2.448,2.448,0,0,1,1.012-.984A2.89,2.89,0,0,1-135.078-13.918Zm37.994,3.91V-20.986h10.678v10.979H-85l-1.189,2.98h-.219l.014,8.053-4.17,3.186h-1.012V1.285l1.012.027-.014-8.34h-2.352l.027,9.5L-97.057,4.4l-.027-11.43h-1.7l.014,8.148-3.979,3.09h-1.2V1.285l1.025.027-.027-8.34h-2.393l.027,9.557-4.17,1.873.027-11.43h-.916v-2.98h.916V-20.986h10.678v10.979Zm-8.258,0h2.393v-7.971h-2.393Zm12.414,0h2.352v-7.971h-2.352Zm30.6,11.033.014-18.854h-5.646v4.4h5l-1.258,3.035h-3.746v4.307h5l-1.258,3.049h-3.746V2.447l-4.32,1.531V-3.035h-5.523l.027,5.865L-82.127,4.4l.014-25.238h24.131L-58,.656l-3.883,3.473h-4.758V1.039ZM-77.807-6.084h5.523v-4.307h-5.523Zm0-7.342h5.523v-4.4h-5.523Zm32.238-5.2a5.169,5.169,0,0,1,.109-.731,3.313,3.313,0,0,1,.383-.807,2.726,2.726,0,0,1,.984-.923,2.846,2.846,0,0,1,1.477-.4,2.82,2.82,0,0,1,1.463.4,2.843,2.843,0,0,1,1.019.978,2.608,2.608,0,0,1,.376.813l.1.67h9.5l.014,9.557-4.58,3.145H-49.219V3.172l-4.553,1.873V-18.621Zm10.787,3.24H-49.219v6.262h14.451Zm12.5,17.309a5.149,5.149,0,0,1-.69-.417,2.557,2.557,0,0,1-.677-.875,2.884,2.884,0,0,1-.342-1.388,2.826,2.826,0,0,1,.369-1.408,2.822,2.822,0,0,1,1.039-1.019,2.784,2.784,0,0,1,1.422-.39,2.909,2.909,0,0,1,1.408.4,2.7,2.7,0,0,1,1.032,1.019,2.859,2.859,0,0,1,.369,1.415,3.932,3.932,0,0,1-.39,1.654L-19.865,2.83l-.752,1.313h-2.762q.479-.943.588-1.162ZM15.162.287l2.6,4.047-2.283.041L14.15,2.188,12.633,4.279l-2.27-.041L13.221.383V-4.129h1.941Zm2.775-.328L15.764.971V-5.236H12.688V.137L10.5,1.381v-.26l-.014.068V-7.383H10.5l.1-.041h7.342Zm-6.426-20.07q.164-.3.588-.923a2.074,2.074,0,0,1,1.764-.649,2.969,2.969,0,0,1,1.333.314,1.8,1.8,0,0,1,.841.711l.314.547H26.605l-.957,2.174H7l-.014,1.395,18.744-.014-.9,1.955L2.461-14.615v-3.322h-1v-2.174Zm7.178,12.66H25.73V2.174h1.053l-.957,2.119H22.764V.191L21.82-.355V3.418L18.689,4.662ZM22.764-5.4H21.82v2.092l.943.506ZM2.133-7.451H9.871V2.27L7.424,4.4H5.947V2.27h.711V-.574l-.779,1.6L5.332,1V3.145l-3.2,1.422Zm3.2,5.387V-.957H6.658V-3.678L5.879-2.064Zm0-2.078H6.658v-1.2H5.332Zm-2.926-9.6H25.539v3.186l-3.787,2.5L2.406-8.066ZM7-11.512v1.244H20.959v-1.244Zm93.3-5.51h10.568L109.252-13.6h-8.627L111.18,4.17h-5.715L97.918-8.709,90.672,4.17H84.889L95.17-13.6H85.545v-3.418H95.5l-.014-4.32h4.8Zm19.127,2.844v-1.217h-3.309l-2.762-4.977h4.211l1.859,3.227v-3.732h4.033v12L119.424-7.3V-13l-1.545,4.389h-4.252l2.324-5.564Zm11.936-6.986-.547.971H138.2v8.682l-4.061,3.363h-10.1v-3.1H134.08V-17.09h-5.018l-.561.766h-4.525l3.049-4.84ZM122.309-2.611h-8.764l.014-2.912H123.8v-2.01h4.334v2.01h10.295l-1.3,2.912h-7.711l9.01,6.85-6.152.014-6.316-5L119.82,4.17l-6.262.014Zm6.986-13.645a2.671,2.671,0,0,1,1.183.308,2.236,2.236,0,0,1,.916.9,2.463,2.463,0,0,1,.349,1.237,2.485,2.485,0,0,1-.349,1.217,2.412,2.412,0,0,1-.9.9,2.38,2.38,0,0,1-1.2.321,2.337,2.337,0,0,1-1.237-.321,2.362,2.362,0,0,1-.9-.889,2.474,2.474,0,0,1-.321-1.217,2.4,2.4,0,0,1,.321-1.237,2.175,2.175,0,0,1,.916-.909A2.593,2.593,0,0,1,129.295-16.256Z" transform="translate(-20840 -12300)" fill="#fff"/>
    <path id="路径_189" data-name="路径 189" d="M-15.887-5.482l-.971.725h7.451V2l-3.691,2.3h-2.789V2.078h2.146V-2.529h-6.043l-1.066.807h-5.51l5.209-3.76h-5.209V-7.6H-1.436L-2.488-5.482Zm-10.473-2.3v-3.473H-1.7v2.133L-6.3-7.875V-9.023H-21.738v.369Zm15.148-12.469h9.652l-.971,2.174H-26.223v-2.174h9.652a3.875,3.875,0,0,1,1.271-.861,5.583,5.583,0,0,1,1.9-.219A2.81,2.81,0,0,1-11.211-20.248Zm-14.424,8.107v-5.2H-2.256v3.1l-4.43,2.092Zm4.594-3.172v1.162H-6.877v-1.162Zm19.25,10.4L-4.512-1.941h-4.58l2.857-2.967ZM-9.051-1.49H-4.7L-1.613,3.8H-6.084ZM-19.332-1.2l-2.912,5.332h-4.238L-23.447-1.2Zm5.031,0-2.953,5.332h-4.293l3.09-5.332ZM16.844-21.287h4.348V.848h5.852L25.566,4.129H16.844ZM8.354-8.559h1.2V2.775L5.209,4.553V-5.564H.984L8.873-16.242H1.34v-3.035H5.346q.191-.4.677-1.2a1.741,1.741,0,0,1,1.668-.772,3.714,3.714,0,0,1,1.853.438,1.9,1.9,0,0,1,.848.889l.273.643h3.691v2.871Zm1.955-.615h4.156l.9,7.725h-4.2Z" transform="translate(-20784 -12300)" fill="#f6f4b4"/>
  </g>
</svg>
