
<svg xmlns="http://www.w3.org/2000/svg" width="277.047" height="26.537" viewBox="0 0 277.047 26.537">
    <g id="参与活动_赢豪礼大奖" data-name="参与活动，赢豪礼大奖" transform="translate(23689.619 11646.684)">
        <path id="路径_193" data-name="路径 193" d="M-119.943-19.633l-.957-1.477h4.553l2.953,4.566h-4.553l-1.012-1.572-.779,1.449-4.156-.027v1.8h10.719l-1.572,2.939H-122.1l8.791,4.43h-7.328l-5.072-2.639-5.742,2.748h-7.164l9.2-4.539h-8.75v-2.939h9.707l.027-1.791h-9.748l.014-1.271,2.365-3.076h4.662l-1.066,1.395Zm-18.225,16.3V-6.111l24.432-.93L-114.9-4.252Zm0,3.719V-2.379l24.432-.93L-114.9-.533Zm0,3.719V1.326L-113.736.4-114.9,3.186Zm33.77-25.129-.205,1.408,19.619-.014-1.531,3.322h-18.553l-.793,5.4h20.275V1.025l-4.621,3.227-4.266-.014V1.08h4.225l.014-8.682h-20.289l.014-3.268,1.518-10.172ZM-110.592-.793V-4.1h20.043l-1.5,3.309Zm42.465-16.365-5.988.287-.109-3.172,16.857-.93-1.285,3.322-5.127.26-.15,3.637,6.521.027-1.107,2.857-5.414.014-.109,3.336h5.783l.027,8.367L-61.51,4.129l-12.5-.027V-7.52h5.592l.15-3.336h-6.33v-2.9h6.33Zm5.564,12.537H-69.7V1.2l7.123.014Zm-18.58-.4h4.252l-.027,8.162-4.238,1.709Zm2-7.971a2.691,2.691,0,0,1,1.271.342,2.45,2.45,0,0,1,1,.964,2.643,2.643,0,0,1,.355,1.333,2.706,2.706,0,0,1-.355,1.319,2.54,2.54,0,0,1-.964.95,2.594,2.594,0,0,1-1.306.355,2.618,2.618,0,0,1-1.319-.355,2.54,2.54,0,0,1-.964-.95,2.587,2.587,0,0,1-.342-1.312,2.7,2.7,0,0,1,.342-1.333,2.438,2.438,0,0,1,1-.971A2.715,2.715,0,0,1-79.146-12.988Zm.041-8.217a2.665,2.665,0,0,1,1.278.335,2.448,2.448,0,0,1,.984.978,2.736,2.736,0,0,1,.369,1.333,2.518,2.518,0,0,1-.349,1.306,2.611,2.611,0,0,1-.971.971,2.481,2.481,0,0,1-1.312.342,2.618,2.618,0,0,1-1.319-.355,2.592,2.592,0,0,1-.971-.95,2.492,2.492,0,0,1-.335-1.333,2.658,2.658,0,0,1,.349-1.319,2.372,2.372,0,0,1,.984-.957A2.876,2.876,0,0,1-79.105-21.205Zm39.061,4.8h-2.242v-3.117h2.6l.178-1.627h4.2l-.178,1.627h5.961V.82l-3.2,3.227h-2.762V.82h1.832V-16.406h-2.187l-2.311,20.59h-4.2Zm-11.826,5.264h-2.393V-14.4h12.2l-1.422,3.254h-4.348L-50.312.848h3.336l-.9-8.3h3.91l1.326,11.758h-3.965l-.287-2.857-1.148,2.68-6.439-.014V1.436ZM-54.154-17.5v-3.2h11.621l-1.326,3.2ZM-22.285,1.928a5.149,5.149,0,0,1-.69-.417,2.557,2.557,0,0,1-.677-.875,2.884,2.884,0,0,1-.342-1.388,2.826,2.826,0,0,1,.369-1.408,2.822,2.822,0,0,1,1.039-1.019,2.784,2.784,0,0,1,1.422-.39,2.909,2.909,0,0,1,1.408.4,2.7,2.7,0,0,1,1.032,1.019,2.859,2.859,0,0,1,.369,1.415,3.932,3.932,0,0,1-.39,1.654L-19.865,2.83l-.752,1.313h-2.762q.479-.943.588-1.162ZM15.162.287l2.6,4.047-2.283.041L14.15,2.188,12.633,4.279l-2.27-.041L13.221.383V-4.129h1.941Zm2.775-.328L15.764.971V-5.236H12.688V.137L10.5,1.381v-.26l-.014.068V-7.383H10.5l.1-.041h7.342Zm-6.426-20.07q.164-.3.588-.923a2.074,2.074,0,0,1,1.764-.649,2.969,2.969,0,0,1,1.333.314,1.8,1.8,0,0,1,.841.711l.314.547H26.605l-.957,2.174H7l-.014,1.395,18.744-.014-.9,1.955L2.461-14.615v-3.322h-1v-2.174Zm7.178,12.66H25.73V2.174h1.053l-.957,2.119H22.764V.191L21.82-.355V3.418L18.689,4.662ZM22.764-5.4H21.82v2.092l.943.506ZM2.133-7.451H9.871V2.27L7.424,4.4H5.947V2.27h.711V-.574l-.779,1.6L5.332,1V3.145l-3.2,1.422Zm3.2,5.387V-.957H6.658V-3.678L5.879-2.064Zm0-2.078H6.658v-1.2H5.332Zm-2.926-9.6H25.539v3.186l-3.787,2.5L2.406-8.066ZM7-11.512v1.244H20.959v-1.244Zm93.3-5.51h10.568L109.252-13.6h-8.627L111.18,4.17h-5.715L97.918-8.709,90.672,4.17H84.889L95.17-13.6H85.545v-3.418H95.5l-.014-4.32h4.8Zm19.127,2.844v-1.217h-3.309l-2.762-4.977h4.211l1.859,3.227v-3.732h4.033v12L119.424-7.3V-13l-1.545,4.389h-4.252l2.324-5.564Zm11.936-6.986-.547.971H138.2v8.682l-4.061,3.363h-10.1v-3.1H134.08V-17.09h-5.018l-.561.766h-4.525l3.049-4.84ZM122.309-2.611h-8.764l.014-2.912H123.8v-2.01h4.334v2.01h10.295l-1.3,2.912h-7.711l9.01,6.85-6.152.014-6.316-5L119.82,4.17l-6.262.014Zm6.986-13.645a2.671,2.671,0,0,1,1.183.308,2.236,2.236,0,0,1,.916.9,2.463,2.463,0,0,1,.349,1.237,2.485,2.485,0,0,1-.349,1.217,2.412,2.412,0,0,1-.9.9,2.38,2.38,0,0,1-1.2.321,2.337,2.337,0,0,1-1.237-.321,2.362,2.362,0,0,1-.9-.889,2.474,2.474,0,0,1-.321-1.217,2.4,2.4,0,0,1,.321-1.237,2.175,2.175,0,0,1,.916-.909A2.593,2.593,0,0,1,129.295-16.256Z" transform="translate(-23551 -11625)" fill="#fff"/>
        <path id="路径_194" data-name="路径 194" d="M40.113-5.482l-.971.725h7.451V2L42.9,4.293H40.113V2.078H42.26V-2.529H36.217l-1.066.807h-5.51l5.209-3.76H29.641V-7.6H54.564L53.512-5.482Zm-10.473-2.3v-3.473H54.3v2.133L49.7-7.875V-9.023H34.262v.369ZM44.789-20.248h9.652l-.971,2.174H29.777v-2.174H39.43a3.875,3.875,0,0,1,1.271-.861,5.583,5.583,0,0,1,1.9-.219A2.81,2.81,0,0,1,44.789-20.248ZM30.365-12.141v-5.2H53.744v3.1l-4.43,2.092Zm4.594-3.172v1.162H49.123v-1.162Zm19.25,10.4L51.488-1.941h-4.58l2.857-2.967ZM46.949-1.49H51.3L54.387,3.8H49.916ZM36.668-1.2,33.756,4.129H29.518L32.553-1.2Zm5.031,0L38.746,4.129H34.453L37.543-1.2ZM72.844-21.287h4.348V.848h5.852L81.566,4.129H72.844ZM64.354-8.559h1.2V2.775L61.209,4.553V-5.564H56.984l7.889-10.678H57.34v-3.035h4.006q.191-.4.677-1.2a1.741,1.741,0,0,1,1.668-.772,3.714,3.714,0,0,1,1.853.438,1.9,1.9,0,0,1,.848.889l.273.643h3.691v2.871Zm1.955-.615h4.156l.9,7.725h-4.2Z" transform="translate(-23551 -11625)" fill="#f6f4b4"/>
    </g>
</svg>
