<?xml version="1.0" encoding="UTF-8"?>
<svg width="13px" height="16px" viewBox="0 0 13 16" version="1.1" xmlns="http://www.w3.org/2000/svg" xmlns:xlink="http://www.w3.org/1999/xlink">
    <!-- Generator: Sketch 55.1 (78136) - https://sketchapp.com -->
    <title>fapiao</title>
    <desc>Created with Sketch.</desc>
    <g id="VC1.5.0-H5_购物车" stroke="none" stroke-width="1" fill="none" fill-rule="evenodd">
        <g id="购物车-结算多商品" transform="translate(-26.000000, -777.000000)" fill-rule="nonzero">
            <g id="编组-17" transform="translate(12.000000, 767.000000)">
                <g id="编组-16">
                    <g id="编组-8" transform="translate(14.000000, 9.000000)">
                        <g id="fapiao" transform="translate(0.000000, 1.000000)">
                            <path d="M9.34,13.0043532 L0.588,13.0043532 C0.284,13.0043532 0.012,12.7183901 0.012,12.3987844 L0.012,0.615425051 C0.012,0.295819302 0.284,0.00985626283 0.588,0.00985626283 L9.34,0.00985626283 C9.644,0.00985626283 9.916,0.295819302 9.916,0.615425051 L9.916,12.4408378 C9.916,12.7604435 9.684,13.0043532 9.34,13.0043532 Z" id="路径" fill="#40D2FF"></path>
                            <path d="M2.66,15.9901437 C2.58,15.9901437 2.508,15.9901437 2.468,15.9480903 C2.236,15.8639836 2.084,15.6284846 2.084,15.3845749 L2.084,2.83584394 C2.084,2.51623819 2.356,2.23027515 2.66,2.23027515 L12.412,2.23027515 C12.716,2.23027515 12.988,2.51623819 12.988,2.83584394 L12.988,15.3845749 C12.988,15.6284846 12.836,15.8723943 12.604,15.9480903 C12.372,16.0321971 12.14,15.9901437 11.988,15.7882875 L10.796,14.417347 L9.564,15.7882875 C9.332,16.0321971 8.948,16.0321971 8.716,15.7882875 L7.54,14.417347 L6.348,15.7882875 C6.236,15.906037 6.076,15.9901437 5.924,15.9901437 C5.772,15.9901437 5.62,15.906037 5.5,15.7882875 L4.308,14.417347 L3.116,15.7882875 C2.972,15.906037 2.812,15.9901437 2.66,15.9901437 Z" id="路径" fill="#3EA8FF"></path>
                            <path d="M8.996,6.74680903 L5.004,6.74680903 C4.7,6.74680903 4.428,6.460846 4.428,6.14124025 C4.428,5.8216345 4.7,5.53567146 5.004,5.53567146 L8.996,5.53567146 C9.3,5.53567146 9.572,5.8216345 9.572,6.14124025 C9.572,6.46925667 9.3,6.74680903 8.996,6.74680903 L8.996,6.74680903 Z M10.068,9.65690349 L5.004,9.65690349 C4.7,9.65690349 4.428,9.37094045 4.428,9.0513347 C4.428,8.73172895 4.7,8.44576591 5.004,8.44576591 L10.068,8.44576591 C10.372,8.44576591 10.644,8.73172895 10.644,9.0513347 C10.644,9.37094045 10.38,9.65690349 10.068,9.65690349 L10.068,9.65690349 Z" id="形状" fill="#FFFFFF"></path>
                        </g>
                    </g>
                </g>
            </g>
        </g>
    </g>
</svg>