<?xml version="1.0" encoding="UTF-8"?>
<svg width="20px" height="20px" viewBox="0 0 20 20" version="1.1" xmlns="http://www.w3.org/2000/svg" xmlns:xlink="http://www.w3.org/1999/xlink">
    <!-- Generator: Sketch 55.1 (78136) - https://sketchapp.com -->
    <title>dianhua</title>
    <desc>Created with Sketch.</desc>
    <g id="首页-固定组件-联系我们" stroke="none" stroke-width="1" fill="none" fill-rule="evenodd">
        <g transform="translate(-138.000000, -613.000000)" fill="#FFFFFF" fill-rule="nonzero" id="My-Trips">
            <g transform="translate(0.000000, 448.000000)">
                <g id="编组-5">
                    <g transform="translate(10.000000, 149.000000)">
                        <g id="编组-3" transform="translate(128.000000, 13.000000)">
                            <g id="dianhua" transform="translate(0.000000, 3.000000)">
                                <path d="M19.521168,15.1265264 C20.3082552,16.0718122 19.9488903,17.4995063 19.6774136,17.7768422 C19.4059369,18.0580843 19.4254676,18.1947992 18.12277,19.3764065 C16.8122601,20.5677791 14.1912403,19.753349 12.9998676,19.3764065 C11.810448,18.9975109 8.57421123,16.9292099 5.58406121,14.0855401 C2.5548498,11.204762 0.986534668,7.61501953 0.345927754,5.66585578 C-0.29467918,3.71083281 0.105700156,3.0038215 0.345927754,2.34368389 C0.584202266,1.68159318 1.02364301,1.12106213 2.32243449,0.374989414 C3.61731984,-0.371083281 4.0860566,0.197260059 4.42003156,0.374989414 C4.75205344,0.550765703 6.20318438,1.82026113 6.70512334,3.01944605 C7.20510924,4.21863098 6.96683471,4.99009357 6.58012686,5.35531766 C6.19537209,5.71858865 5.91998924,6.05256361 5.60163885,6.27911973 C5.28328846,6.50176969 5.21493102,6.82402623 5.26180469,7.44510246 C5.30672529,8.06813176 7.55666182,10.5016569 8.00000001,10.9508629 C8.44335555,11.4020221 11.3729604,14.4312335 12.3885567,14.6636488 C13.4061062,14.892158 13.7752364,14.4507642 13.8846083,14.3296738 C13.9959333,14.2105366 14.3963126,13.6656301 14.8494248,13.2867345 C15.3064432,12.909792 16.5251588,13.0133047 16.8259315,13.2261894 C17.1286574,13.439074 18.7340808,14.1773344 19.521168,15.1265264 Z" id="路径"></path>
                            </g>
                        </g>
                    </g>
                </g>
            </g>
        </g>
    </g>
</svg>