<?xml version="1.0" standalone="no"?><!DOCTYPE svg PUBLIC "-//W3C//DTD SVG 1.1//EN" "http://www.w3.org/Graphics/SVG/1.1/DTD/svg11.dtd"><svg t="1551230478566" class="icon" style="" viewBox="0 0 1024 1024" version="1.1" xmlns="http://www.w3.org/2000/svg" p-id="2837" xmlns:xlink="http://www.w3.org/1999/xlink" width="200" height="200"><defs><style type="text/css"></style></defs><path d="M384.341333 99.896889h283.420445A199.793778 199.793778 0 0 1 867.555556 299.719111v524.487111A199.793778 199.793778 0 0 1 667.761778 1024H356.238222A199.793778 199.793778 0 0 1 156.444444 824.206222v-524.515555c0-7.224889 0.398222-14.364444 1.137778-21.418667A113.351111 113.351111 0 0 1 156.444444 262.257778V112.355556A112.384 112.384 0 0 1 268.828444 0h3.783112a112.412444 112.412444 0 0 1 111.729777 99.896889zM370.631111 274.773333a99.896889 99.896889 0 0 0-99.896889 99.896889v299.690667A99.896889 99.896889 0 0 0 370.631111 774.257778h282.737778a99.896889 99.896889 0 0 0 99.896889-99.925334V374.641778a99.896889 99.896889 0 0 0-99.896889-99.896889H370.631111z m141.368889 674.332445c35.072 0 63.488-27.960889 63.488-62.435556 0-34.503111-28.444444-62.435556-63.488-62.435555-35.072 0-63.488 27.932444-63.488 62.435555 0 34.474667 28.444444 62.435556 63.488 62.435556z" fill="#CCCCCC" p-id="2838"></path></svg>