<?xml version="1.0" encoding="UTF-8"?>
<svg width="30px" height="30px" viewBox="0 0 30 30" version="1.1" xmlns="http://www.w3.org/2000/svg" xmlns:xlink="http://www.w3.org/1999/xlink">
    <!-- Generator: Sketch 53 (72520) - https://sketchapp.com -->
    <title>钱-2@2x</title>
    <desc>Created with Sketch.</desc>
    <g id="详情页" stroke="none" stroke-width="1" fill="none" fill-rule="evenodd">
        <g id="商品信息_Helper" transform="translate(-69.000000, -1095.000000)" fill="#333333" fill-rule="nonzero">
            <g id="详情" transform="translate(40.000000, 796.000000)">
                <g id="分组-24" transform="translate(29.000000, 294.000000)">
                    <g id="钱-2" transform="translate(0.000000, 5.000000)">
                        <path d="M29.1102273,14.9899554 C28.1011364,15 23.1579545,12.1941964 23.0045455,12.0502232 C22.6295455,11.6986607 22.7693182,11.2600446 23.1545455,11.1997768 C23.5363636,11.1395089 25.6875,10.8883929 25.6875,10.8883929 C24.3647727,7.41964286 21.4159091,4.64732143 17.5431818,3.75 C11.3625,2.31696429 4.97386364,6.38504464 3.55909091,12.5926339 C3.54545455,12.6462054 3.46022727,13.2790179 2.94886364,13.2589286 C2.60113636,13.2455357 1.46590909,12.8035714 1.05681818,12.6127232 C0.589772727,12.3984375 0.460227273,12.4520089 0.603409091,11.7589286 C2.2125,3.86383929 10.4454545,-1.453125 18.3443182,0.364955357 C24.9,1.875 29.4545455,7.46316964 29.9556818,13.828125 C30.0409091,14.6819196 29.5977273,14.9866071 29.1102273,14.9899554 Z M18.7909091,16.7209821 C19.4386364,16.7209821 19.9670455,17.2366071 19.9670455,17.8761161 C19.9670455,18.5122768 19.4420455,19.03125 18.7909091,19.03125 L16.4420455,19.03125 L16.4420455,20.4743304 C16.4420455,21.2712054 15.7840909,21.9174107 14.9727273,21.9174107 C14.1613636,21.9174107 13.5034091,21.2712054 13.5034091,20.4743304 L13.5034091,19.03125 L11.1545455,19.03125 C10.5068182,19.03125 9.97840909,18.5122768 9.97840909,17.8761161 C9.97840909,17.2366071 10.5034091,16.7209821 11.1545455,16.7209821 L13.5034091,16.7209821 L13.5034091,15.5658482 L11.1545455,15.5658482 C10.5068182,15.5658482 9.97840909,15.0502232 9.97840909,14.4107143 C9.97840909,13.7712054 10.5034091,13.2555804 11.1545455,13.2555804 L13.5034091,13.2555804 L13.5034091,13.1752232 L10.8954545,10.6138393 C10.4318182,10.1584821 10.4318182,9.42522321 10.8954545,8.96986607 C11.3590909,8.51450893 12.1056818,8.51785714 12.5693182,8.96986607 L14.9522727,11.3102679 L17.3454545,8.95982143 C17.8090909,8.5078125 18.5556818,8.5078125 19.0193182,8.95982143 C19.4829545,9.41517857 19.4829545,10.1484375 19.0193182,10.6037946 L16.4420455,13.1350446 L16.4420455,13.2522321 L18.7909091,13.2522321 C19.4386364,13.2522321 19.9670455,13.7678571 19.9670455,14.4073661 C19.9670455,15.0435268 19.4420455,15.5625 18.7909091,15.5625 L16.4420455,15.5625 L16.4420455,16.7176339 L18.7909091,16.7209821 Z M7.00227273,18.3515625 C7.51704545,18.6763393 7.39431818,19.3258929 6.82840909,19.3828125 C6.2625,19.4397321 4.48636364,19.59375 4.48636364,19.59375 C5.89431818,22.8314732 8.74431818,25.3828125 12.4295455,26.2366071 C18.6102273,27.6696429 24.9272727,23.7991071 26.3420455,17.5881696 C26.3727273,17.4609375 26.3693182,17.4810268 26.4204545,17.2064732 C26.4715909,16.9319196 26.5534091,16.5167411 27.0954545,16.7008929 C27.6409091,16.8850446 28.9670455,17.2700893 29.3795455,17.3772321 C29.7920455,17.484375 29.7477273,17.6450893 29.6931818,18.0234375 C29.6761364,18.1372768 29.6522727,18.2444196 29.6284091,18.3549107 C27.7772727,26.4274554 19.7284091,31.4665179 11.6454545,29.6015625 C5.1,28.0982143 0.545454545,22.5200893 0.0375,16.1651786 C-0.0306818182,15.0736607 0.753409091,14.8493304 1.55795455,15.2678571 C2.18863636,15.5959821 6.4875,18.0267857 7.00227273,18.3515625 Z" id="Shape"></path>
                    </g>
                </g>
            </g>
        </g>
    </g>
</svg>