<?xml version="1.0" encoding="UTF-8"?>
<svg width="18px" height="18px" viewBox="0 0 18 18" version="1.1" xmlns="http://www.w3.org/2000/svg" xmlns:xlink="http://www.w3.org/1999/xlink">
    <!-- Generator: Sketch 54.1 (76490) - https://sketchapp.com -->
    <title>地址</title>
    <desc>Created with Sketch.</desc>
    <g id="VC1.5.0-H5_个人中心" stroke="none" stroke-width="1" fill="none" fill-rule="evenodd">
        <g id="设置" transform="translate(-26.000000, -186.000000)">
            <g id="设置管理" transform="translate(12.000000, 170.000000)">
                <g id="list-1">
                    <g id="地址" transform="translate(14.000000, 16.000000)">
                        <rect id="矩形" fill="#000000" opacity="0" x="-1.77635684e-15" y="0" width="18" height="18"></rect>
                        <g id="编组-12" transform="translate(1.000000, 0.000000)">
                            <g id="dizhi" transform="translate(2.000000, 0.000000)" fill-rule="nonzero">
                                <path d="M5.99364093,14.1660003 L5.99364093,14.1660195 C6.11705944,14.1660195 6.22423786,14.1128564 6.29791496,14.0156145 L10.1669082,8.91222632 C10.1761426,8.9015028 10.1863007,8.88627355 10.2475448,8.78717792 C10.8371962,7.94454384 11.1540211,6.95183746 11.1660195,5.91335175 C11.1660195,3.1158315 8.85314437,0.833980474 6.00635907,0.833980474 C3.16538725,0.833980474 0.846256863,3.11683079 0.833980474,5.91339013 C0.833980474,6.95244266 1.14940199,7.9504703 1.77847313,8.84818578 C1.80217783,8.88848644 1.81036599,8.90081965 1.85310391,8.95291763 L5.68967786,14.0156797 C5.76325071,14.1129018 5.8702504,14.1660003 5.99364093,14.1660003 Z" id="路径" stroke="#AAAAEA" stroke-width="1.66796095"></path>
                                <path d="M6,8.25 C7.23991423,8.25 8.25,7.23996197 8.25,6 C8.25,4.76003803 7.23991423,3.75 6,3.75 C4.76009366,3.75 3.75,4.76005069 3.75,6 C3.75,7.2399572 4.760081,8.25 6,8.25 Z" id="路径" stroke="#6A65DA" stroke-width="1.5"></path>
                            </g>
                            <polyline id="路径-7" stroke="#AAAAEA" stroke-width="1.75" stroke-linecap="round" stroke-linejoin="round" points="2.30479396 13 0 17.0244824 16.0231924 17.0244824 13.7012868 13"></polyline>
                        </g>
                    </g>
                </g>
            </g>
        </g>
    </g>
</svg>