<?xml version="1.0" encoding="UTF-8"?>
<svg width="36px" height="36px" viewBox="0 0 36 36" version="1.1" xmlns="http://www.w3.org/2000/svg" xmlns:xlink="http://www.w3.org/1999/xlink">
    <!-- Generator: Sketch 53 (72520) - https://sketchapp.com -->
    <title>人民币3</title>
    <desc>Created with Sketch.</desc>
    <defs>
        <linearGradient x1="17.1168128%" y1="14.6816762%" x2="84.9711468%" y2="83.7813704%" id="linearGradient-1">
            <stop stop-color="#D5D4F7" offset="0%"></stop>
            <stop stop-color="#ABA9EB" offset="100%"></stop>
        </linearGradient>
    </defs>
    <g id="账户金额" stroke="none" stroke-width="1" fill="none" fill-rule="evenodd">
        <g transform="translate(-68.000000, -293.000000)" id="我的资产">
            <g transform="translate(40.000000, 276.000000)">
                <g id="分组-6">
                    <g id="分组-4" transform="translate(28.000000, 16.000000)">
                        <g id="人民币3" transform="translate(0.000000, 1.000000)">
                            <circle id="椭圆形" fill="url(#linearGradient-1)" cx="18" cy="18" r="18"></circle>
                            <path d="M16.1130426,23.1163285 L12.1970837,23.1163285 C11.8318558,23.0889882 11.5511856,22.9348794 11.3550731,22.6540523 C11.1589606,22.3732252 11.0405451,22.0615713 11,21.7191408 C11.0405451,21.37661 11.1589606,21.0957829 11.3550731,20.8766093 C11.5511856,20.6574357 11.8318558,20.5341788 12.1970837,20.5068385 L16.1130426,20.5068385 L16.1130426,19.2122396 L12.1970837,19.191772 C11.8318558,19.1643314 11.5511856,19.0342269 11.3550731,18.801333 C11.1589606,18.5684391 11.0405451,18.2738917 11,17.9177158 C11.0405451,17.5752853 11.1589606,17.2944582 11.3550731,17.0752846 C11.5511856,16.856111 11.8318558,16.7328541 12.1970837,16.7054135 L15.118833,16.7054135 L12.3999579,11.8561041 C12.2647002,11.6917866 12.1362289,11.482897 12.0145193,11.2294352 C11.8927106,10.9760487 11.8386174,10.6985827 11.8521655,10.397288 C11.9198067,10.0136966 12.0550644,9.70201765 12.2579386,9.46235142 C12.4608127,9.22260993 12.8395887,9.06847609 13.3941675,9.00000002 C13.7188503,9.02744061 14.0097002,9.14038849 14.2666675,9.33899417 C14.5237339,9.53770017 14.7333696,9.7534374 14.8956244,9.98625602 L17.9797274,15.6985646 L21.3680798,9.94519547 C21.5304336,9.71230159 21.7400941,9.50684831 21.9971357,9.32871021 C22.254103,9.15069751 22.5449281,9.04106056 22.8695367,9 C23.0725099,9.01372029 23.2584675,9.04106056 23.4275829,9.08219636 C23.5965993,9.12325692 23.7454051,9.19173299 23.8739011,9.28767473 C24.0023971,9.38359139 24.1106578,9.5205686 24.198584,9.69858128 C24.2865349,9.87671938 24.3507829,10.1096133 24.3913032,10.397288 C24.3913032,10.7944993 24.2560456,11.171218 23.9855302,11.5273939 L20.8406219,16.7054136 L23.8232259,16.7054136 C24.1749058,16.7328541 24.4522076,16.8561111 24.6550817,17.0752846 C24.8579559,17.2944582 24.9730029,17.5752853 25,17.9177158 C24.9730029,18.2738917 24.8546865,18.5752617 24.6449269,18.8218758 C24.4352663,19.0683897 24.1545961,19.2054672 23.8029162,19.2328075 L19.9276016,19.2533754 L19.9276016,20.5068386 L23.8232259,20.5068386 C24.1749058,20.5341788 24.4522076,20.671156 24.6550818,20.9177702 C24.8579559,21.1642841 24.973003,21.4588064 25,21.8013623 C24.973003,22.1575131 24.8579807,22.4554718 24.6550818,22.695138 C24.4522076,22.9349045 24.1749058,23.0684454 23.8232259,23.095886 L19.9276016,23.0753181 L19.9276016,25.2534088 C19.8734093,26.417803 19.2444524,27 18.0405823,27 C17.4454584,27 16.9821246,26.8561752 16.6507545,26.5684001 C16.31931,26.2807254 16.140114,25.8424786 16.1130426,25.2534088 L16.1130426,23.1163285 L16.1130426,23.1163285 Z" id="路径" fill="#FFFFFF" fill-rule="nonzero"></path>
                        </g>
                    </g>
                </g>
            </g>
        </g>
    </g>
</svg>