<?xml version="1.0" encoding="UTF-8"?>
<svg width="20px" height="33px" viewBox="0 0 20 33" version="1.1" xmlns="http://www.w3.org/2000/svg" xmlns:xlink="http://www.w3.org/1999/xlink">
    <!-- Generator: Sketch 54.1 (76490) - https://sketchapp.com -->
    <title>标签-我的（选中）</title>
    <desc>Created with Sketch.</desc>
    <defs>
        <path d="M8,16 C12.418278,16 16,12.418278 16,8 C16,3.581722 12.418278,0 8,0 C3.581722,0 0,3.581722 0,8 C0,12.418278 3.581722,16 8,16 Z" id="path-1"></path>
    </defs>
    <g id="控件组" stroke="none" stroke-width="1" fill="none" fill-rule="evenodd">
        <g id="画板" transform="translate(-202.000000, -240.000000)">
            <g id="标签-我的（选中）" transform="translate(201.000000, 239.000000)">
                <path d="M6.11,29.37 L6.11,30.34 C5.57,30.52 5,30.68 4.4,30.84 L4.4,32.93 C4.4,33.57 4.06,33.9 3.39,33.9 L2.27,33.9 L2.06,32.99 C2.41,33.03 2.74,33.05 3.06,33.05 C3.31,33.05 3.44,32.93 3.44,32.69 L3.44,31.06 C2.84,31.19 2.23,31.31 1.59,31.41 L1.46,30.46 C2.15,30.35 2.81,30.23 3.44,30.1 L3.44,28.31 L1.46,28.31 L1.46,27.4 L3.44,27.4 L3.44,26.34 C2.94,26.44 2.43,26.52 1.9,26.6 L1.7,25.7 C3.1,25.55 4.34,25.26 5.42,24.82 L5.75,25.71 C5.32,25.86 4.87,26 4.4,26.13 L4.4,27.4 L6.56,27.4 C6.5,26.62 6.47,25.76 6.47,24.82 L7.43,24.82 C7.43,25.8 7.46,26.66 7.52,27.4 L10.54,27.4 L10.54,28.31 L7.6,28.31 C7.66,28.97 7.75,29.52 7.87,29.96 C7.91,30.15 7.96,30.32 8.01,30.48 C8.44,29.96 8.82,29.37 9.14,28.71 L9.96,29.14 C9.51,30.06 8.98,30.85 8.36,31.51 C8.48,31.78 8.59,32.01 8.71,32.19 C9.01,32.64 9.24,32.87 9.4,32.87 C9.53,32.87 9.66,32.35 9.79,31.31 L10.63,31.75 C10.38,33.17 10.01,33.89 9.53,33.89 C9.1,33.89 8.65,33.59 8.18,33 C7.99,32.76 7.82,32.49 7.67,32.17 C6.98,32.75 6.21,33.21 5.35,33.54 L4.82,32.72 C5.76,32.38 6.58,31.89 7.28,31.25 C7.16,30.92 7.06,30.58 6.97,30.22 C6.83,29.68 6.72,29.04 6.64,28.31 L4.4,28.31 L4.4,29.88 C5,29.72 5.57,29.55 6.11,29.37 Z M8.53,24.91 C9.24,25.36 9.84,25.81 10.34,26.26 L9.65,26.94 C9.23,26.5 8.65,26.03 7.89,25.52 L8.53,24.91 Z M15.13,26.45 L15.13,33.41 L14.22,33.41 L14.22,32.89 L12.64,32.89 L12.64,33.7 L11.73,33.7 L11.73,26.45 L12.68,26.45 C12.86,25.91 13,25.36 13.08,24.78 L14.03,24.91 C13.93,25.46 13.78,25.97 13.59,26.45 L15.13,26.45 Z M12.64,32.01 L14.22,32.01 L14.22,30.04 L12.64,30.04 L12.64,32.01 Z M12.64,29.19 L14.22,29.19 L14.22,27.35 L12.64,27.35 L12.64,29.19 Z M16.93,28.85 C17.59,29.67 18.1,30.38 18.45,31 L17.7,31.53 C17.32,30.87 16.8,30.14 16.16,29.33 L16.93,28.85 Z M20.29,26.46 C20.29,29.91 20.24,32.04 20.14,32.84 C20.04,33.56 19.56,33.92 18.71,33.92 C18.51,33.92 18.15,33.9 17.65,33.87 L17.42,33 C17.86,33.02 18.24,33.04 18.56,33.04 C18.96,33.04 19.19,32.83 19.25,32.41 C19.31,31.91 19.34,30.23 19.36,27.38 L16.85,27.38 C16.57,27.98 16.25,28.53 15.87,29.03 L15.3,28.28 C15.96,27.32 16.42,26.15 16.66,24.77 L17.6,24.89 C17.5,25.45 17.36,25.97 17.2,26.46 L20.29,26.46 Z" id="我的" fill="#F2B036" fill-rule="nonzero"></path>
                <g id="首页">
                    <rect id="矩形" x="0" y="0" width="22" height="22"></rect>
                    <path d="M11,21 C5.4771525,21 1,16.5228475 1,11 C1,5.4771525 5.4771525,1 11,1 C16.5228475,1 21,5.4771525 21,11 C21,16.5228475 16.5228475,21 11,21 Z" id="路径" fill="#F2B036" fill-rule="nonzero"></path>
                    <g id="路径-2" transform="translate(3.000000, 3.000000)">
                        <mask id="mask-2" fill="white">
                            <use xlink:href="#path-1"></use>
                        </mask>
                        <use id="路径" fill="#E1FDEC" fill-rule="nonzero" xlink:href="#path-1"></use>
                        <path d="M8,20.5 C10.209139,20.5 12,18.709139 12,16.5 C12,14.290861 10.209139,12.5 8,12.5 C5.790861,12.5 4,14.290861 4,16.5 C4,18.709139 5.790861,20.5 8,20.5 Z M8,22.5 C4.6862915,22.5 2,19.8137085 2,16.5 C2,13.1862915 4.6862915,10.5 8,10.5 C11.3137085,10.5 14,13.1862915 14,16.5 C14,19.8137085 11.3137085,22.5 8,22.5 Z" id="椭圆形" fill="#F2B036" fill-rule="nonzero" mask="url(#mask-2)"></path>
                        <path d="M8,7.5 C8.82842712,7.5 9.5,6.82842712 9.5,6 C9.5,5.17157288 8.82842712,4.5 8,4.5 C7.17157288,4.5 6.5,5.17157288 6.5,6 C6.5,6.82842712 7.17157288,7.5 8,7.5 Z M8,9.5 C6.06700338,9.5 4.5,7.93299662 4.5,6 C4.5,4.06700338 6.06700338,2.5 8,2.5 C9.93299662,2.5 11.5,4.06700338 11.5,6 C11.5,7.93299662 9.93299662,9.5 8,9.5 Z" id="椭圆形" fill="#F2B036" fill-rule="nonzero" mask="url(#mask-2)"></path>
                    </g>
                </g>
            </g>
        </g>
    </g>
</svg>
