<?xml version="1.0" encoding="UTF-8"?>
<svg width="16px" height="19px" viewBox="0 0 16 19" version="1.1" xmlns="http://www.w3.org/2000/svg" xmlns:xlink="http://www.w3.org/1999/xlink">
    <!-- Generator: Sketch 54.1 (76490) - https://sketchapp.com -->
    <title>地址</title>
    <desc>Created with Sketch.</desc>
    <g id="VC1.5.0-H5_个人中心" stroke="none" stroke-width="1" fill="none" fill-rule="evenodd">
        <g id="设置" transform="translate(-27.000000, -236.000000)">
            <g id="设置管理" transform="translate(12.000000, 170.000000)">
                <g id="list-2" transform="translate(0.000000, 50.500000)">
                    <g id="地址" transform="translate(14.000000, 16.000000)">
                        <rect id="矩形" fill="#000000" opacity="0" x="0" y="0" width="18" height="18"></rect>
                        <g id="fapiao" transform="translate(1.000000, 0.000000)" fill-rule="nonzero">
                            <path d="M14.7000636,11.2476518 L14.688486,11.2435292 C14.3463038,11.1189691 14.0483619,10.9266741 13.7810336,10.6415763 C12.9521869,9.69652853 12.9521869,8.28296263 13.8002149,7.3167515 C14.0461885,7.05410519 14.3509411,6.85340029 14.6906553,6.73517553 C14.9214924,6.65183572 15.095057,6.3893941 15.095057,6.07359495 L15.095057,2.24644851 C15.095057,1.86128344 14.9611018,1.50790288 14.7149261,1.24332171 C14.5019653,1.00827313 14.2062788,0.875289514 13.8995867,0.875289514 L2.04577703,0.875154607 C1.75268205,0.870007211 1.47700884,0.993853377 1.2541008,1.24478793 C1.00524893,1.51820374 0.869297827,1.87267934 0.875301465,2.24644851 L0.875301465,6.08323512 C0.875301465,6.27839531 0.947198276,6.46552255 1.07831043,6.61087557 C1.13141469,6.67068035 1.20304683,6.71910591 1.27224235,6.74560214 C1.60934987,6.86831492 1.90944398,7.06858693 2.16291279,7.33950111 C2.5695451,7.79178739 2.79169018,8.3769912 2.79169018,8.99456566 C2.79169018,9.61310085 2.56898208,10.2076103 2.15088337,10.6723798 C1.90576094,10.9341172 1.61048513,11.1258478 1.28192703,11.2399389 C1.04355701,11.3299102 0.875301465,11.5867384 0.875301465,11.9058962 L0.875301465,15.7426828 C0.875301465,16.1278479 1.00925665,16.4812284 1.2474653,16.7371344 C1.48087156,16.9878812 1.76125141,17.1138418 2.07077168,17.1138418 L13.9092168,17.1138418 C14.5461316,17.1138418 15.104687,16.5081071 15.104687,15.7426828 L15.104687,11.9058962 C15.104687,11.710736 15.0327902,11.5236088 14.9016781,11.3782558 C14.8500121,11.3200707 14.7849762,11.2772175 14.7000636,11.2476518 Z" id="路径" stroke="#AAAAEA" stroke-width="1.75"></path>
                            <path d="M5.76774162,6.29178243 L10.2321073,6.29178243 C10.66238,6.29178243 10.9998489,6.00257741 10.9998489,5.64589121 C10.9998489,5.28920502 10.6539433,5 10.2321073,5 L5.76774162,5 C5.34590556,5 5,5.28920502 5,5.64589121 C5,6.00257741 5.33746884,6.29178243 5.76774162,6.29178243 Z M5.76789273,9.79178243 L10.2322584,9.79178243 C10.6625312,9.79178243 11,9.50257741 11,9.14589121 C11,8.78920502 10.6540944,8.5 10.2322584,8.5 L5.76789273,8.5 C5.34605668,8.5 5.00015111,8.78920502 5.00015111,9.14589121 C4.99171439,9.50257741 5.33761996,9.79178243 5.76789273,9.79178243 Z M5.76774162,13.2917824 L10.2321073,13.2917824 C10.66238,13.2917824 10.9998489,13.0025774 10.9998489,12.6458912 C10.9998489,12.289205 10.6539433,12 10.2321073,12 L5.76774162,12 C5.34590556,12 5,12.289205 5,12.6458912 C5,13.0025774 5.33746884,13.2917824 5.76774162,13.2917824 Z" id="形状" fill="#6A65DA"></path>
                        </g>
                    </g>
                </g>
            </g>
        </g>
    </g>
</svg>