<?xml version="1.0" encoding="UTF-8"?>
<svg width="74px" height="74px" viewBox="0 0 74 74" version="1.1" xmlns="http://www.w3.org/2000/svg" xmlns:xlink="http://www.w3.org/1999/xlink">
    <!-- Generator: Sketch 53 (72520) - https://sketchapp.com -->
    <title>分组 12</title>
    <desc>Created with Sketch.</desc>
    <g id="账户金额" stroke="none" stroke-width="1" fill="none" fill-rule="evenodd">
        <g transform="translate(-510.000000, -981.000000)" id="分组-9-Copy-3">
            <g transform="translate(385.000000, 917.000000)">
                <g id="分组-13" transform="translate(114.000000, 64.000000)">
                    <g id="分组-12" transform="translate(11.000000, 0.000000)">
                        <circle id="椭圆形" fill="#ABA9EB" cx="37" cy="37" r="37"></circle>
                        <path d="M21,42 C18.2385763,42 16,39.7614237 16,37 C16,34.2385763 18.2385763,32 21,32 C23.7614237,32 26,34.2385763 26,37 C26,39.7614237 23.7614237,42 21,42 Z M37,42 C34.2385763,42 32,39.7614237 32,37 C32,34.2385763 34.2385763,32 37,32 C39.7614237,32 42,34.2385763 42,37 C42,39.7614237 39.7614237,42 37,42 Z M53,42 C50.2385763,42 48,39.7614237 48,37 C48,34.2385763 50.2385763,32 53,32 C55.7614237,32 58,34.2385763 58,37 C58,39.7614237 55.7614237,42 53,42 Z" id="合并形状" fill="#FFFFFF"></path>
                    </g>
                </g>
            </g>
        </g>
    </g>
</svg>