<?xml version="1.0" encoding="UTF-8"?>
<svg width="48px" height="47px" viewBox="0 0 48 47" version="1.1" xmlns="http://www.w3.org/2000/svg" xmlns:xlink="http://www.w3.org/1999/xlink">
    <!-- Generator: Sketch 54.1 (76490) - https://sketchapp.com -->
    <title>退款/售后</title>
    <desc>Created with Sketch.</desc>
    <g id="VC1.5.0-H5_个人中心" stroke="none" stroke-width="1" fill="none" fill-rule="evenodd">
        <g id="个人中心" transform="translate(-300.000000, -268.000000)">
            <g id="我的订单" transform="translate(12.000000, 250.000000)">
                <g id="编组" transform="translate(25.000000, 15.000000)">
                    <g id="退款/售后" transform="translate(263.000000, 3.000000)">
                        <g transform="translate(12.500000, 0.000000)">
                            <rect id="矩形" x="0" y="1" width="24" height="24"></rect>
                            <g id="编组-2" transform="translate(2.000000, 0.500000)" fill="#F2B036" fill-rule="nonzero">
                                <path d="M15.5329066,2.5 C14.9806218,2.5 14.5329066,2.05228475 14.5329066,1.5 C14.5329066,0.94771525 14.9806218,0.5 15.5329066,0.5 L16,0.5 C18.209139,0.5 20,2.290861 20,4.5 L20,20.5 C20,22.709139 18.209139,24.5 16,24.5 L4,24.5 C1.790861,24.5 0,22.709139 0,20.5 L0,4.5 C5.55111512e-16,2.290861 1.790861,0.5 4,0.5 L4.53866858,0.5 C5.09095333,0.5 5.53866858,0.94771525 5.53866858,1.5 C5.53866858,2.05228475 5.09095333,2.5 4.53866858,2.5 L4,2.5 C2.8954305,2.5 2,3.3954305 2,4.5 L2,20.5 C2,21.6045695 2.8954305,22.5 4,22.5 L16,22.5 C17.1045695,22.5 18,21.6045695 18,20.5 L18,4.5 C18,3.3954305 17.1045695,2.5 16,2.5 L15.5329066,2.5 Z M8,0 L12,0 C12.5522847,-1.01453063e-16 13,0.44771525 13,1 C13,1.55228475 12.5522847,2 12,2 L8,2 C7.44771525,2 7,1.55228475 7,1 C7,0.44771525 7.44771525,1.01453063e-16 8,0 Z M5,6 L12,6 C12.5522847,6 13,6.44771525 13,7 C13,7.55228475 12.5522847,8 12,8 L5,8 C4.44771525,8 4,7.55228475 4,7 C4,6.44771525 4.44771525,6 5,6 Z M5,10 L15,10 C15.5522847,10 16,10.4477153 16,11 C16,11.5522847 15.5522847,12 15,12 L5,12 C4.44771525,12 4,11.5522847 4,11 C4,10.4477153 4.44771525,10 5,10 Z M4.9,16.3 C4.40294373,16.3 4,15.8970563 4,15.4 C4,14.9029437 4.40294373,14.5 4.9,14.5 C5.39705627,14.5 5.8,14.9029437 5.8,15.4 C5.8,15.8970563 5.39705627,16.3 4.9,16.3 Z M8.4,16.3 C7.90294373,16.3 7.5,15.8970563 7.5,15.4 C7.5,14.9029437 7.90294373,14.5 8.4,14.5 C8.89705627,14.5 9.3,14.9029437 9.3,15.4 C9.3,15.8970563 8.89705627,16.3 8.4,16.3 Z M11.9,16.3 C11.4029437,16.3 11,15.8970563 11,15.4 C11,14.9029437 11.4029437,14.5 11.9,14.5 C12.3970563,14.5 12.8,14.9029437 12.8,15.4 C12.8,15.8970563 12.3970563,16.3 11.9,16.3 Z" id="形状结合"></path>
                            </g>
                        </g>
                        <text id="待付款" font-family="MicrosoftYaHeiUI, Microsoft YaHei UI" font-size="12" font-weight="normal" fill="#2E2E2E">
                            <tspan x="0.5" y="45">全部订单</tspan>
                        </text>
                    </g>
                </g>
            </g>
        </g>
    </g>
</svg>