<?xml version="1.0" encoding="UTF-8"?>
<svg width="47px" height="46px" viewBox="0 0 47 46" version="1.1" xmlns="http://www.w3.org/2000/svg" xmlns:xlink="http://www.w3.org/1999/xlink">
    <!-- Generator: Sketch 55.1 (78136) - https://sketchapp.com -->
    <title>待付款</title>
    <desc>Created with Sketch.</desc>
    <g id="VC1.5.0-H5_个人中心" stroke="none" stroke-width="1" fill="none" fill-rule="evenodd">
        <g id="个人中心" transform="translate(-301.000000, -269.000000)">
            <g id="我的订单" transform="translate(12.000000, 250.000000)">
                <g id="编组" transform="translate(25.000000, 15.000000)">
                    <g id="退款/售后" transform="translate(264.000000, 4.000000)">
                        <g transform="translate(11.500000, 0.000000)">
                            <rect id="矩形" x="0" y="1" width="24" height="24"></rect>
                            <g id="编组-2" transform="translate(2.000000, 0.500000)" fill="#F2B036" fill-rule="nonzero">
                                <path d="M15.5329066,2.5 C14.9806218,2.5 14.5329066,2.05228475 14.5329066,1.5 C14.5329066,0.94771525 14.9806218,0.5 15.5329066,0.5 L16,0.5 C18.209139,0.5 20,2.290861 20,4.5 L20,20.5 C20,22.709139 18.209139,24.5 16,24.5 L4,24.5 C1.790861,24.5 0,22.709139 0,20.5 L0,4.5 C0,2.290861 1.790861,0.5 4,0.5 L4.53866858,0.5 C5.09095333,0.5 5.53866858,0.94771525 5.53866858,1.5 C5.53866858,2.05228475 5.09095333,2.5 4.53866858,2.5 L4,2.5 C2.8954305,2.5 2,3.3954305 2,4.5 L2,20.5 C2,21.6045695 2.8954305,22.5 4,22.5 L16,22.5 C17.1045695,22.5 18,21.6045695 18,20.5 L18,4.5 C18,3.3954305 17.1045695,2.5 16,2.5 L15.5329066,2.5 Z M8,0 L12,0 C12.5522847,-1.01453063e-16 13,0.44771525 13,1 C13,1.55228475 12.5522847,2 12,2 L8,2 C7.44771525,2 7,1.55228475 7,1 C7,0.44771525 7.44771525,1.01453063e-16 8,0 Z M5,6 L12,6 C12.5522847,6 13,6.44771525 13,7 C13,7.55228475 12.5522847,8 12,8 L5,8 C4.44771525,8 4,7.55228475 4,7 C4,6.44771525 4.44771525,6 5,6 Z M5,10 L15,10 C15.5522847,10 16,10.4477153 16,11 C16,11.5522847 15.5522847,12 15,12 L5,12 C4.44771525,12 4,11.5522847 4,11 C4,10.4477153 4.44771525,10 5,10 Z M4.9,16.3 C4.40294373,16.3 4,15.8970563 4,15.4 C4,14.9029437 4.40294373,14.5 4.9,14.5 C5.39705627,14.5 5.8,14.9029437 5.8,15.4 C5.8,15.8970563 5.39705627,16.3 4.9,16.3 Z M8.4,16.3 C7.90294373,16.3 7.5,15.8970563 7.5,15.4 C7.5,14.9029437 7.90294373,14.5 8.4,14.5 C8.89705627,14.5 9.3,14.9029437 9.3,15.4 C9.3,15.8970563 8.89705627,16.3 8.4,16.3 Z M11.9,16.3 C11.4029437,16.3 11,15.8970563 11,15.4 C11,14.9029437 11.4029437,14.5 11.9,14.5 C12.3970563,14.5 12.8,14.9029437 12.8,15.4 C12.8,15.8970563 12.3970563,16.3 11.9,16.3 Z" id="形状结合"></path>
                            </g>
                        </g>
                        <path d="M0.513671875,44.4394531 L0.513671875,43.5546875 L5.0078125,43.5546875 L5.0078125,41.609375 L1.49804688,41.609375 L1.49804688,40.7421875 L5.0078125,40.7421875 L5.0078125,38.9609375 L2.08984375,38.9609375 L2.08984375,38.0996094 L8.875,38.0996094 L8.875,38.9609375 L5.95703125,38.9609375 L5.95703125,40.7421875 L9.47851562,40.7421875 L9.47851562,41.609375 L5.95703125,41.609375 L5.95703125,43.5546875 L10.4746094,43.5546875 L10.4746094,44.4394531 L0.513671875,44.4394531 Z M0.578125,38.8613281 C0.398436602,38.5722642 0.212891582,38.3046887 0.021484375,38.0585938 C1.21289658,37.4414032 2.25976111,36.7597694 3.16210938,36.0136719 C4.03320748,35.291012 4.71484129,34.5527381 5.20703125,33.7988281 L6.23828125,33.9511719 L6.02734375,34.2441406 C6.66406568,35.0449259 7.35351191,35.7246066 8.09570312,36.2832031 C8.85742568,36.8574247 9.7929632,37.3964819 10.9023438,37.9003906 C10.8906249,37.9238282 10.8671877,37.9609372 10.8320312,38.0117188 C10.6171864,38.3476579 10.460938,38.5937492 10.3632812,38.75 C9.18749412,38.1367157 8.23828486,37.5429716 7.515625,36.96875 C6.80077768,36.3984346 6.14062803,35.7128946 5.53515625,34.9121094 C4.27343119,36.4550858 2.62110396,37.7714789 0.578125,38.8613281 Z M18.8066406,45.0078125 L18.8066406,34.6015625 L22.65625,34.6015625 L22.65625,35.4628906 L21.4785156,38.6035156 C21.9902369,39.1113307 22.3554677,39.5976539 22.5742188,40.0625 C22.7773448,40.4960959 22.8789062,40.9746068 22.8789062,41.4980469 C22.8789062,42.0996124 22.7597668,42.5605453 22.5214844,42.8808594 C22.2714831,43.2128923 21.8867213,43.4003904 21.3671875,43.4433594 C21.1601552,43.4589845 20.7695341,43.4667969 20.1953125,43.4667969 C20.1328122,43.0839825 20.0683597,42.7714856 20.0019531,42.5292969 C20.3652362,42.5683596 20.7207014,42.5800782 21.0683594,42.5644531 C21.4042986,42.5605469 21.6484367,42.4667978 21.8007812,42.2832031 C21.9453132,42.0996085 22.0175781,41.812502 22.0175781,41.421875 C22.0175781,40.5507769 21.533208,39.6601608 20.5644531,38.75 L21.7714844,35.4277344 L19.6445312,35.4277344 L19.6445312,45.0078125 L18.8066406,45.0078125 Z M12.8242188,44.9316406 L12.8242188,40.390625 L17.5644531,40.390625 L17.5644531,44.9082031 L16.7265625,44.9082031 L16.7265625,44.1054688 L13.65625,44.1054688 L13.65625,44.9316406 L12.8242188,44.9316406 Z M13.65625,43.3320312 L16.7265625,43.3320312 L16.7265625,41.1523438 L13.65625,41.1523438 L13.65625,43.3320312 Z M12.109375,39.1542969 L12.109375,38.3691406 L15.53125,38.3691406 C15.7578136,37.9667949 16.0742167,37.3750039 16.4804688,36.59375 C16.5390628,36.4804682 16.5839842,36.3945315 16.6152344,36.3359375 L17.4121094,36.6699219 L16.4394531,38.3691406 L18.2382812,38.3691406 L18.2382812,39.1542969 L12.109375,39.1542969 Z M13.9023438,38.28125 C13.5312481,37.6484343 13.2070326,37.1308614 12.9296875,36.7285156 L13.6210938,36.3476562 C14.0273458,36.9218779 14.3691392,37.423826 14.6464844,37.8535156 L13.9023438,38.28125 Z M12.3789062,36.1425781 L12.3789062,35.3632812 L14.9980469,35.3632812 C14.7714832,34.8281223 14.5703134,34.4023453 14.3945312,34.0859375 L15.2734375,33.8632812 C15.468751,34.2695333 15.6777333,34.7128882 15.9003906,35.1933594 L15.3671875,35.3632812 L17.96875,35.3632812 L17.96875,36.1425781 L12.3789062,36.1425781 Z M29.3652344,44.796875 C29.287109,44.3671854 29.2167972,44.0468761 29.1542969,43.8359375 C29.2167972,43.8359375 29.3164056,43.8378906 29.453125,43.8417969 C30.0507842,43.8613282 30.4843737,43.8710938 30.7539062,43.8710938 C31.1640646,43.8710938 31.4453117,43.7929695 31.5976562,43.6367188 C31.7500008,43.480468 31.8261719,43.1894553 31.8261719,42.7636719 L31.8261719,35.6855469 L28.0703125,35.6855469 L28.0703125,34.7832031 L34.9199219,34.7832031 L34.9199219,35.6855469 L32.7636719,35.6855469 L32.7636719,43.0097656 C32.7636719,43.6308625 32.6425793,44.0732409 32.4003906,44.3369141 C32.1582019,44.6005873 31.7363311,44.7460936 31.1347656,44.7734375 C30.4316371,44.7890626 29.8417993,44.796875 29.3652344,44.796875 Z M25.8085938,44.5390625 L25.1054688,43.7597656 C25.2578133,43.5996086 25.3671872,43.4326181 25.4335938,43.2587891 C25.5000003,43.0849601 25.5332031,42.8750012 25.5332031,42.6289062 L25.5332031,38.6503906 L24.0976562,38.6503906 L24.0976562,37.7773438 L26.4589844,37.7773438 L26.4589844,42.6875 C26.4785157,42.6757812 26.5058592,42.654297 26.5410156,42.6230469 C27.3496134,41.9902312 27.9296857,41.5292983 28.28125,41.2402344 C28.3750005,41.6074237 28.4726557,41.9433579 28.5742188,42.2480469 C27.8164025,42.7910183 27.103519,43.3359348 26.4355469,43.8828125 C26.1894519,44.0937511 25.9804696,44.3124989 25.8085938,44.5390625 Z M26.4707031,36.5820312 C25.9667944,35.9570281 25.3886751,35.3164095 24.7363281,34.6601562 L25.4628906,34.0859375 C26.0214872,34.644534 26.6152312,35.2597623 27.2441406,35.9316406 L26.4707031,36.5820312 Z M41.03125,45.0429688 L41.03125,42.828125 L36.109375,42.828125 L36.109375,41.9902344 L41.03125,41.9902344 L41.03125,40.7304688 L37.140625,40.7304688 L37.140625,35.6210938 L39.5195312,35.6210938 C39.2226548,35.2499981 38.8437523,34.8066432 38.3828125,34.2910156 L39.1386719,33.8398438 C39.720706,34.4414093 40.1386706,34.9042953 40.3925781,35.2285156 L39.7246094,35.6210938 L42.5078125,35.6210938 C42.9375021,35.0273408 43.3398419,34.4414091 43.7148438,33.8632812 L44.6054688,34.2207031 C44.4257804,34.4707044 44.1054711,34.8945283 43.6445312,35.4921875 C43.597656,35.5507815 43.5644532,35.5937499 43.5449219,35.6210938 L45.8476562,35.6210938 L45.8476562,40.7304688 L41.9453125,40.7304688 L41.9453125,41.9902344 L46.8671875,41.9902344 L46.8671875,42.828125 L41.9453125,42.828125 L41.9453125,45.0429688 L41.03125,45.0429688 Z M38.0253906,39.9453125 L41.03125,39.9453125 L41.03125,38.5390625 L38.0253906,38.5390625 L38.0253906,39.9453125 Z M41.9453125,39.9453125 L44.9570312,39.9453125 L44.9570312,38.5390625 L41.9453125,38.5390625 L41.9453125,39.9453125 Z M38.0253906,37.8007812 L41.03125,37.8007812 L41.03125,36.4355469 L38.0253906,36.4355469 L38.0253906,37.8007812 Z M41.9453125,37.8007812 L44.9570312,37.8007812 L44.9570312,36.4355469 L41.9453125,36.4355469 L41.9453125,37.8007812 Z" id="全部订单" fill="#2E2E2E" fill-rule="nonzero"></path>
                    </g>
                </g>
            </g>
        </g>
    </g>
</svg>