<?xml version="1.0" encoding="UTF-8"?>
<svg width="36px" height="36px" viewBox="0 0 36 36" version="1.1" xmlns="http://www.w3.org/2000/svg" xmlns:xlink="http://www.w3.org/1999/xlink">
    <!-- Generator: Sketch 53 (72520) - https://sketchapp.com -->
    <title>累计返利icon</title>
    <desc>Created with Sketch.</desc>
    <g id="账户金额" stroke="none" stroke-width="1" fill="none" fill-rule="evenodd">
        <g transform="translate(-64.000000, -941.000000)" id="分组-9-Copy-2">
            <g transform="translate(40.000000, 917.000000)">
                <g id="累计返利icon" transform="translate(24.000000, 24.000000)">
                    <rect id="矩形" fill="#F2B036" x="0" y="0" width="36" height="36" rx="4"></rect>
                    <g id="jinbi" transform="translate(7.000000, 8.000000)" fill-rule="nonzero">
                        <path d="M14.3131875,0.0295833333 C17.5331875,1.84291667 19.7280446,5.32291667 19.7280446,9.32291667 C19.7280446,13.3229167 17.5463304,16.7895833 14.3131875,18.61625 C19.1366161,18.3229167 22.9611875,14.2829167 22.9611875,9.32291667 C22.9480446,4.37625 19.1366161,0.33625 14.3131875,0.0295833333 L14.3131875,0.0295833333 Z" id="路径" fill="#EEEEEE"></path>
                        <path d="M9.21375893,0.00291666667 C4.12747321,0.00291666667 0.000616071429,4.17625 0.000616071429,9.32291667 C0.000616071429,14.4695833 4.12747321,18.6429167 9.21375893,18.6429167 C14.3000446,18.6429167 18.4269018,14.4695833 18.4269018,9.32291667 C18.4269018,4.17625 14.3000446,0.00291666667 9.21375893,0.00291666667 Z M13.0120446,10.9495833 C13.2486161,10.9629167 13.4194732,11.05625 13.5509018,11.21625 C13.6823304,11.37625 13.7611875,11.5629167 13.7743304,11.7895833 C13.7611875,12.01625 13.6823304,12.21625 13.5509018,12.37625 C13.4194732,12.53625 13.2354732,12.61625 13.0120446,12.6429167 L10.4754732,12.6295833 L10.4754732,14.0429167 C10.4360446,14.8029167 10.0286161,15.17625 9.24004464,15.17625 C8.84575893,15.17625 8.54347321,15.0829167 8.3331875,14.89625 C8.10975893,14.7095833 8.00461607,14.4295833 7.97833036,14.0429167 L7.97833036,12.65625 L5.42861607,12.65625 C5.19204464,12.6429167 5.00804464,12.53625 4.87661607,12.3495833 C4.7451875,12.1629167 4.66633036,11.9629167 4.64004464,11.73625 C4.66633036,11.5095833 4.7451875,11.33625 4.87661607,11.1895833 C5.00804464,11.0429167 5.19204464,10.9629167 5.42861607,10.9495833 L7.97833036,10.9495833 L7.97833036,10.1095833 L5.42861607,10.09625 C5.19204464,10.0829167 5.00804464,9.98958333 4.87661607,9.84291667 C4.7451875,9.69625 4.66633036,9.49625 4.64004464,9.26958333 C4.66633036,9.04291667 4.7451875,8.86958333 4.87661607,8.72291667 C5.00804464,8.57625 5.19204464,8.49625 5.42861607,8.48291667 L7.33433036,8.48291667 L5.56004464,5.32291667 C5.46804464,5.21625 5.3891875,5.08291667 5.31033036,4.90958333 C5.23147321,4.74958333 5.19204464,4.56291667 5.2051875,4.36291667 C5.24461607,4.10958333 5.33661607,3.90958333 5.46804464,3.74958333 C5.59947321,3.58958333 5.8491875,3.49625 6.20404464,3.44291667 C6.41433036,3.45625 6.61147321,3.53625 6.7691875,3.66958333 C6.94004464,3.80291667 7.07147321,3.93625 7.17661607,4.09625 L9.18747321,7.81625 L11.3954732,4.06958333 C11.5006161,3.92291667 11.6320446,3.78958333 11.8029018,3.66958333 C11.9737589,3.54958333 12.1577589,3.48291667 12.3680446,3.45625 C12.4994732,3.46958333 12.6177589,3.48291667 12.7360446,3.50958333 C12.8411875,3.53625 12.9463304,3.57625 13.0251875,3.64291667 C13.1040446,3.70958333 13.1829018,3.78958333 13.2354732,3.90958333 C13.2880446,4.02958333 13.3406161,4.17625 13.3669018,4.36291667 C13.3669018,4.61625 13.2749018,4.86958333 13.1040446,5.09625 L11.0669018,8.48291667 L13.0120446,8.48291667 C13.2354732,8.49625 13.4194732,8.57625 13.5509018,8.72291667 C13.6823304,8.86958333 13.7611875,9.04291667 13.7743304,9.26958333 C13.7611875,9.49625 13.6823304,9.69625 13.5377589,9.85625 C13.4063304,10.01625 13.2223304,10.1095833 12.9857589,10.1229167 L10.4623304,10.13625 L10.4623304,10.9495833 L13.0120446,10.9495833 L13.0120446,10.9495833 Z" id="形状" fill="#FFFFFF"></path>
                    </g>
                </g>
            </g>
        </g>
    </g>
</svg>