<?xml version="1.0" encoding="UTF-8"?>
<svg width="7px" height="13px" viewBox="0 0 7 13" version="1.1" xmlns="http://www.w3.org/2000/svg" xmlns:xlink="http://www.w3.org/1999/xlink">
    <!-- Generator: Sketch 54.1 (76490) - https://sketchapp.com -->
    <title>箭头-2@2x</title>
    <desc>Created with Sketch.</desc>
    <g id="VC1.5.0-H5_个人中心" stroke="none" stroke-width="1" fill="none" fill-rule="evenodd">
        <g id="个人中心" transform="translate(-354.000000, -192.000000)" fill="#CCCCCC" fill-rule="nonzero">
            <g id="金额显示" transform="translate(0.000000, 158.000000)">
                <g id="分组-7-Copy" transform="translate(187.500000, 0.000000)">
                    <g id="箭头-2" transform="translate(170.000000, 40.500000) rotate(-270.000000) translate(-170.000000, -40.500000) translate(163.500000, 37.000000)">
                        <path d="M7.22265753,0.227476027 C9.0695225,2.02754281 10.9163112,3.8275976 12.7612935,5.62761644 C13.5224932,6.36880137 12.2864883,7.47375856 11.5234569,6.72914555 C9.87963112,5.12721233 8.23761155,3.52525514 6.59378571,1.92422089 C4.89378767,3.53382534 3.19195793,5.14342979 1.49194716,6.75390925 C0.718052838,7.48654795 -0.517977495,6.38161473 0.254988258,5.65151712 C2.16434736,3.84290411 4.07458415,2.03521404 5.98483366,0.227464041 C6.30198532,-0.0714023973 6.90915656,-0.0790856164 7.22264481,0.227464041 L7.22265753,0.227476027 Z" id="Shape"></path>
                    </g>
                </g>
            </g>
        </g>
    </g>
</svg>