<?xml version="1.0" encoding="UTF-8"?>
<svg width="96px" height="96px" viewBox="0 0 96 96" version="1.1" xmlns="http://www.w3.org/2000/svg" xmlns:xlink="http://www.w3.org/1999/xlink">
    <!-- Generator: Sketch 53 (72520) - https://sketchapp.com -->
    <title>分组 11</title>
    <desc>Created with Sketch.</desc>
    <g id="账户金额" stroke="none" stroke-width="1" fill="none" fill-rule="evenodd">
        <g transform="translate(-64.000000, -995.000000)" id="分组-9-Copy-2">
            <g transform="translate(40.000000, 917.000000)">
                <g id="分组-11" transform="translate(24.000000, 78.000000)">
                    <rect id="矩形" fill="#FFFFFF" x="0" y="0" width="96" height="96"></rect>
                    <g id="jinbi-3" transform="translate(0.000000, 8.000000)" fill-rule="nonzero">
                        <polygon id="路径" fill="#E09D17" points="29.969162 80.989314 63.9713966 74.1075198 90.0362011 65.5266491 39.9124022 59.3608179"></polygon>
                        <path d="M91.5915084,58.4311346 C86.9899441,56.8282322 79.138324,55.7703166 70.2355307,55.7703166 C61.3327374,55.7703166 53.4811173,56.8282322 48.8795531,58.4311346 L44.578324,58.4311346 L44.578324,62.0216359 L44.6105028,62.0216359 C45.243352,65.1846966 56.473743,67.7065963 70.246257,67.7065963 C84.0187709,67.7065963 95.2384358,65.1846966 95.8820112,62.0216359 L95.9141899,62.0216359 L95.9141899,58.4311346 L91.5915084,58.4311346 L91.5915084,58.4311346 Z" id="路径" fill="#E09D17"></path>
                        <path d="M44.5675978,58.5059367 C44.5675978,61.7990984 56.0547205,64.4687335 70.2248045,64.4687335 C84.3948885,64.4687335 95.8820112,61.7990984 95.8820112,58.5059367 C95.8820112,55.2127749 84.3948885,52.5431398 70.2248045,52.5431398 C56.0547205,52.5431398 44.5675978,55.2127749 44.5675978,58.5059367 L44.5675978,58.5059367 Z" id="路径" fill="#FFC200"></path>
                        <path d="M48.8795531,57.6724274 C44.2779888,56.0695251 36.4263687,55.0116095 27.5235754,55.0116095 C18.6207821,55.0116095 10.769162,56.0695251 6.16759777,57.6724274 L1.85564246,57.6724274 L1.85564246,61.2629288 L1.88782123,61.2629288 C2.52067039,64.4259894 13.7510615,66.9478892 27.5235754,66.9478892 C41.2960894,66.9478892 52.5157542,64.4259894 53.1593296,61.2629288 L53.1915084,61.2629288 L53.1915084,57.6724274 L48.8795531,57.6724274 L48.8795531,57.6724274 Z" id="路径" fill="#E09D17"></path>
                        <path d="M1.85564246,57.7365435 C1.85564232,59.8668457 6.74587826,61.8353261 14.6842457,62.9004771 C22.6226131,63.9656282 32.4030852,63.9656282 40.3414526,62.9004771 C48.2798201,61.8353261 53.170056,59.8668457 53.1700559,57.7365435 C53.1700559,54.4433818 41.6829331,51.7737467 27.5128492,51.7737467 C13.3427652,51.7737467 1.85564246,54.4433818 1.85564246,57.7365435 Z" id="路径" fill="#FFC200"></path>
                        <path d="M82.6243575,50.0853562 C78.0227933,48.4824538 70.1711732,47.4245383 61.2683799,47.4245383 C52.3655866,47.4245383 44.5139665,48.4824538 39.9124022,50.0853562 L35.6111732,50.0853562 L35.6111732,53.6758575 L35.643352,53.6758575 C36.2762011,56.8389182 47.5065922,59.3608179 61.2791061,59.3608179 C75.0516201,59.3608179 86.2712849,56.8389182 86.9148603,53.6758575 L86.9470391,53.6758575 L86.9470391,50.0853562 L82.6243575,50.0853562 Z" id="路径" fill="#E09D17"></path>
                        <path d="M35.6111732,50.1601583 C35.6111732,53.4533201 47.0982959,56.1229551 61.2683799,56.1229551 C75.4384639,56.1229551 86.9255866,53.4533201 86.9255866,50.1601583 C86.9255866,46.8669966 75.4384639,44.1973615 61.2683799,44.1973615 C47.0982959,44.1973615 35.6111732,46.8669966 35.6111732,50.1601583 L35.6111732,50.1601583 Z" id="路径" fill="#FFC200"></path>
                        <path d="M47.0239106,48.4717678 C42.4223464,46.8688654 34.5707263,45.8109499 25.667933,45.8109499 C16.7651397,45.8109499 8.91351955,46.8688654 4.31195531,48.4717678 L0,48.4717678 L0,52.0622691 L0.0321787709,52.0622691 C0.665027933,55.2253298 11.895419,57.7472296 25.667933,57.7472296 C39.4404469,57.7472296 50.6601117,55.2253298 51.3036872,52.0622691 L51.3358659,52.0622691 L51.3358659,48.4717678 L47.0239106,48.4717678 Z" id="路径" fill="#E09D17"></path>
                        <path d="M0.010726257,48.5358839 C0.010726257,51.8290457 11.497849,54.4986807 25.667933,54.4986807 C39.8380169,54.4986807 51.3251397,51.8290457 51.3251397,48.5358839 C51.3251398,46.4055818 46.4349039,44.4371014 38.4965364,43.3719503 C30.558169,42.3067992 20.7776969,42.3067992 12.8393295,43.3719503 C4.90096206,44.4371014 0.0107261204,46.4055818 0.010726257,48.5358839 L0.010726257,48.5358839 Z" id="路径" fill="#FFC200"></path>
                        <path d="M61.772514,41.2907652 C57.1709497,39.6878628 49.3193296,38.6299472 40.4165363,38.6299472 C31.513743,38.6299472 23.6621229,39.6878628 19.0605587,41.2907652 L14.7593296,41.2907652 L14.7593296,44.8812665 L14.7915084,44.8812665 C15.4243575,48.0443272 26.6547486,50.5662269 40.4272626,50.5662269 C54.1997765,50.5662269 65.4194413,48.0443272 66.0630168,44.8812665 L66.0951955,44.8812665 L66.0951955,41.2907652 L61.772514,41.2907652 Z" id="路径" fill="#E09D17"></path>
                        <path d="M14.7593296,41.3655673 C14.7593295,43.4958694 19.6495654,45.4643498 27.5879329,46.5295009 C35.5263003,47.594652 45.3067723,47.594652 53.2451398,46.5295009 C61.1835072,45.4643498 66.0737432,43.4958694 66.073743,41.3655673 C66.0737432,39.2352651 61.1835073,37.2667847 53.2451398,36.2016336 C45.3067724,35.1364825 35.5263003,35.1364825 27.5879328,36.2016336 C19.6495653,37.2667847 14.7593294,39.2352651 14.7593296,41.3655673 L14.7593296,41.3655673 Z" id="路径" fill="#FFC200"></path>
                        <path d="M6.39284916,64.767942 C6.39284916,73.7267583 15.8485952,80.989314 27.5128492,80.989314 C39.1771031,80.989314 48.6328492,73.7267583 48.6328492,64.767942 C48.6328492,55.8091256 39.1771031,48.5465699 27.5128492,48.5465699 C15.8485952,48.5465699 6.39284916,55.8091256 6.39284916,64.767942 Z" id="路径" fill="#E09D17"></path>
                        <path d="M6.39284916,61.7437995 C6.39284916,70.7026159 15.8485952,77.9651715 27.5128492,77.9651715 C39.1771031,77.9651715 48.6328492,70.7026159 48.6328492,61.7437995 C48.6328492,52.7849831 39.1771031,45.5224274 27.5128492,45.5224274 C15.8485952,45.5224274 6.39284916,52.7849831 6.39284916,61.7437995 Z" id="路径" fill="#FFC200"></path>
                        <path d="M24.5631285,68.144723 L24.5631285,66.4135884 L17.5481564,66.4135884 L16.0786592,63.421504 L24.5524022,63.421504 L24.5524022,61.1133245 L23.1258101,61.1133245 C14.0943017,61.1133245 14.5018994,55.1718997 23.5334078,55.1718997 L24.5631285,55.1718997 L24.5631285,53.8040897 L30.0335196,53.8040897 L30.0335196,55.1718997 L30.9559777,55.1718997 C35.5039106,55.1718997 37.8529609,56.7534301 37.8958659,58.2922164 L32.0286034,58.2922164 C32.2860335,57.5655673 31.6210056,56.7534301 30.0442458,56.4114776 L30.0442458,59.3608179 L32.3932961,59.3608179 C41.4248045,59.3608179 41.0172067,66.4135884 31.9856983,66.4135884 L30.0335196,66.4135884 L30.0335196,68.144723 L24.5631285,68.144723 Z M24.5631285,56.3687335 C21.5919553,56.8816623 21.6670391,58.9974934 24.5631285,59.3180739 L24.5631285,56.3687335 Z M30.0335196,61.1133245 L30.0335196,63.421504 C34.184581,63.2718997 34.141676,61.1346966 30.1836872,61.1133245 L30.0335196,61.1133245 Z" id="形状" fill="#E09D17"></path>
                        <path d="M49.8556425,53.8040897 L58.6404469,48.8350923 L51.3251397,49.3907652 L49.8556425,53.8040897 Z M51.882905,62.6948549 L60.6677095,57.7365435 L53.3524022,58.2922164 L51.882905,62.6948549 Z" id="形状" fill="#E09D17"></path>
                        <path d="M8.40938547,24.983905 C8.40938547,24.983905 8.01251397,28.1897098 6.14614525,28.1149077 C6.14614525,28.1149077 8.04469274,30.4978892 8.40938547,35.6271768 C8.40938547,35.6271768 9.2996648,28.4461741 10.8442458,28.371372 C10.8549721,28.382058 8.50592179,27.8798153 8.40938547,24.983905 Z M77.0681564,16.5312665 C77.0681564,16.5312665 76.8214525,18.5081794 75.673743,18.4654354 C75.673743,18.4654354 76.842905,19.9401055 77.0681564,23.1031662 C77.0681564,23.1031662 77.6151955,18.6684697 78.5698324,18.6257256 C78.5805587,18.6257256 77.1217877,18.3051451 77.0681564,16.5312665 Z M27.4270391,0.0106860158 C27.4270391,0.0106860158 27.0408939,4.21029024 25.1959777,4.11411609 C25.1959777,4.11411609 27.0730726,7.23443272 27.4270391,13.9452507 C27.4270391,13.9452507 28.3065922,4.55224274 29.8297207,4.4560686 C29.8404469,4.44538259 27.5128492,3.7828496 27.4270391,0.0106860158 Z M59.0051397,27.9653034 C59.0051397,27.9653034 58.7584358,29.9422164 57.6107263,29.8994723 C57.6107263,29.8994723 58.7798883,31.3741425 59.0051397,34.5372032 C59.0051397,34.5372032 59.5521788,30.1025066 60.5068156,30.0597625 C60.5175419,30.0597625 59.0694972,29.7498681 59.0051397,27.9653034 Z" id="形状" fill="#FFC200"></path>
                    </g>
                </g>
            </g>
        </g>
    </g>
</svg>