<?xml version="1.0" encoding="UTF-8"?>
<svg width="20px" height="20px" viewBox="0 0 20 20" version="1.1" xmlns="http://www.w3.org/2000/svg" xmlns:xlink="http://www.w3.org/1999/xlink">
    <!-- Generator: Sketch 55.1 (78136) - https://sketchapp.com -->
    <title>xuanzhuan</title>
    <desc>Created with Sketch.</desc>
    <g id="控件组" stroke="none" stroke-width="1" fill="none" fill-rule="evenodd">
        <g id="相机" transform="translate(-178.000000, -629.000000)" fill="#FFFFFF" fill-rule="nonzero">
            <g id="编组-3">
                <g id="编组-2" transform="translate(0.000000, 611.000000)">
                    <g id="xuanzhuan" transform="translate(188.000000, 28.000000) scale(-1, 1) translate(-188.000000, -28.000000) translate(178.000000, 18.000000)">
                        <path d="M1.82336182,8.80932203 C1.72266033,8.80932203 1.64102564,8.8902649 1.64102564,8.99011299 L1.64102564,18.029661 C1.64102564,18.129096 1.72307692,18.210452 1.82336182,18.210452 L13.6752137,18.210452 C13.7759152,18.210452 13.8575499,18.1295091 13.8575499,18.029661 L13.8575499,8.99011299 C13.8575499,8.94216425 13.8383395,8.89617936 13.8041448,8.86227448 C13.7699502,8.8283696 13.7235722,8.80932203 13.6752137,8.80932203 L1.82336182,8.80932203 L1.82336182,8.80932203 Z M1.82336182,7.18220339 L13.6752137,7.18220339 C14.6822286,7.18220339 15.4985755,7.99163209 15.4985755,8.99011299 L15.4985755,18.029661 C15.4985755,19.0281419 14.6822286,19.8375706 13.6752137,19.8375706 L1.82336182,19.8375706 C1.3397762,19.8375706 0.875996983,19.647095 0.534050311,19.3080462 C0.19210364,18.9689973 -2.06057393e-13,18.5091485 -2.06057393e-13,18.029661 L-2.06057393e-13,8.99011299 C-2.06057393e-13,7.99163209 0.816346892,7.18220339 1.82336182,7.18220339 L1.82336182,7.18220339 Z" id="形状"></path>
                        <path d="M19.965812,12.6059322 C19.965812,13.0552486 19.5984559,13.4194915 19.1452991,13.4194915 C18.6921424,13.4194915 18.3247863,13.0552486 18.3247863,12.6059322 C18.3247863,7.21836159 14.4911681,3.47598871 9.11680912,3.47598871 C8.66365241,3.47598871 8.2962963,3.11174579 8.2962963,2.66242939 C8.2962963,2.21311298 8.66365241,1.84887006 9.11680912,1.84887006 C15.3919088,1.84887006 19.965812,6.31440678 19.965812,12.6059322 Z" id="路径"></path>
                        <path d="M8.78495726,3.23734464 C8.58040825,3.45500232 8.27234949,3.54459799 7.98163265,3.47098319 C7.6909158,3.3973684 7.46390766,3.17228406 7.38966368,2.88403091 C7.3154197,2.59577777 7.40578114,2.29032968 7.62529915,2.08751413 L9.44866096,0.279604513 C9.65320997,0.0619468285 9.96126873,-0.0276488367 10.2519856,0.0459659588 C10.5427024,0.119580754 10.7697106,0.344665096 10.8439545,0.632918239 C10.9181985,0.921171382 10.8278371,1.22661948 10.6083191,1.42943502 L8.78495726,3.23734464 Z" id="路径"></path>
                        <path d="M7.62529915,3.23734464 C7.40578114,3.03452909 7.3154197,2.729081 7.38966368,2.44082786 C7.46390766,2.15257471 7.6909158,1.92749037 7.98163265,1.85387558 C8.27234949,1.78026078 8.58040825,1.86985645 8.78495726,2.08751413 L10.6083191,3.89542373 C10.9095664,4.21597668 10.9006775,4.71550207 10.588213,5.02531856 C10.2757485,5.33513505 9.77195368,5.34394859 9.44866096,5.04525424 L7.62529915,3.23734464 L7.62529915,3.23734464 Z" id="路径"></path>
                    </g>
                </g>
            </g>
        </g>
    </g>
</svg>