<?xml version="1.0" encoding="UTF-8"?>
<svg width="42px" height="42px" viewBox="0 0 42 42" version="1.1" xmlns="http://www.w3.org/2000/svg" xmlns:xlink="http://www.w3.org/1999/xlink">
    <!-- Generator: Sketch 54.1 (76490) - https://sketchapp.com -->
    <title>shezhi</title>
    <desc>Created with Sketch.</desc>
    <g id="控件组" stroke="none" stroke-width="1" fill="none" fill-rule="evenodd">
        <g id="设置复制" fill="#F2B036" fill-rule="nonzero">
            <g id="shezhi">
                <path d="M15.5794199,0.00810682596 L5.48974523,5.96769009 C6.65218951,11.1510514 4.83545749,14.2946215 0.0395491619,15.3984006 C0.0395491619,23.0496961 0.0395491619,26.8753439 0.0395491619,26.8753439 C4.96539458,27.9427648 6.77933438,31.0270957 5.48136856,36.1283366 L15.5794199,42 C19.2930954,38.2720932 22.9310819,38.2720932 26.4933793,42 L36.4631682,36.1283366 C35.0543281,30.7094455 36.898055,27.5337805 41.9943488,26.6013416 L41.9943488,15.3568449 C36.8796441,14.2508325 35.0359173,11.1211142 36.4631682,5.96769009 L26.4933793,0.00810682596 C22.4986312,3.98116234 18.8606447,3.98116234 15.5794199,0.00810682596 Z M26.8424858,4.17793189 L32.679591,7.6671446 C32.1733473,12.4303416 34.2611855,16.0369445 38.5943488,17.8508976 L38.5943488,24.04365 C34.2483346,25.7804442 32.1803406,29.4628302 32.6953871,34.4015131 L26.8802633,37.8263047 C23.1427508,35.1174809 19.0296019,35.1332847 15.2131489,37.8540307 L9.22698971,34.3732887 C9.63447744,29.7078327 7.6023425,26.1782389 3.43954916,24.3936955 L3.43954916,17.8413626 C7.51995217,16.0132124 9.52097852,12.4478853 9.18481303,7.73396108 L15.0601967,4.2635976 C18.6723488,7.14057767 22.8515165,7.08043809 26.8424858,4.17793189 Z" id="路径-32"></path>
                <path d="M14.000003,20.9936238 C14.0035245,17.1288777 17.1384397,13.9982418 21.0031859,14.0000007 C24.8679321,14.0017597 27.9999964,17.1352478 28,21 C27.9989851,22.8578588 27.2598475,24.6391976 25.9452428,25.9520077 C24.6306381,27.2648178 22.8482917,28.0015212 20.9904293,27.9999976 C17.1256864,27.9947136 13.9964815,24.85837 14.000003,20.9936238 Z M24.5319955,24.5368286 C25.4712039,23.5989022 25.9992752,22.3262391 26,21 C25.9999974,18.2394634 23.762809,16.0012569 21.0022757,16.0000005 C18.2417428,15.9987441 16.0025175,18.2349128 16.0000021,20.9954462 C15.997487,23.7557972 18.2323379,25.9959291 20.9926166,25.9999987 C22.3197539,26.0009421 23.5929159,25.4746262 24.5319955,24.5368286 Z" id="路径"></path>
            </g>
        </g>
    </g>
</svg>