<?xml version="1.0" encoding="UTF-8"?>
<svg width="21px" height="21px" viewBox="0 0 21 21" version="1.1" xmlns="http://www.w3.org/2000/svg" xmlns:xlink="http://www.w3.org/1999/xlink">
    <!-- Generator: Sketch 54.1 (76490) - https://sketchapp.com -->
    <title>shezhi</title>
    <desc>Created with Sketch.</desc>
    <g id="VC1.5.0-H5_个人中心" stroke="none" stroke-width="1" fill="none" fill-rule="evenodd">
        <g id="个人中心" transform="translate(-338.000000, -76.000000)" fill-rule="nonzero" stroke="#F2B036">
            <g id="shezhi" transform="translate(338.000000, 76.000000)">
                <path d="M3.03494177,3.16113566 L2.91132499,2.94737281 L3.00569696,2.92669447 L3.5664996,3.26945773 L3.4701331,3.42712513 L3.03494177,3.16113566 Z M3.67796207,3.3242045 C3.98092592,5.07321654 3.76899471,6.37890614 2.93955496,7.2089474 C2.37405136,7.77645941 1.6478597,8.14412627 0.869774581,8.26922562 L0.869774581,12.6955681 C1.64399538,12.8136314 2.36902119,13.173589 2.93945876,13.7358269 C4.00272724,14.8025295 4.31272142,16.3814929 3.78462607,17.7481095 L7.59761279,19.9520514 C7.68499766,19.8425397 7.77830613,19.7381241 7.87698995,19.6394839 C8.71957324,18.7899096 9.91550216,18.3923552 11.098225,18.568865 C12.0333874,18.7084289 12.8719435,19.1937003 13.4581711,19.9140375 L17.2400943,17.7307886 C16.8328912,16.6703487 16.9207968,15.4683101 17.5057261,14.4677806 C18.0784834,13.4880715 19.0527538,12.8299591 20.1471744,12.6496822 L20.1471744,8.32530598 C19.0374546,8.15536509 18.0469105,7.49191465 17.4709139,6.49751425 C16.8902727,5.49509549 16.8102764,4.29344897 17.2249236,3.23822402 L13.4170834,1.03725695 C13.3409301,1.13146957 13.2597677,1.22509229 13.172694,1.31903786 C11.7054425,2.79146736 9.32496276,2.79641143 7.82471305,1.30204505 C7.75009288,1.22065865 7.67823132,1.13685835 7.60923755,1.05078985 L3.67796207,3.3242045 Z M0.142839724,7.77020769 L0.145705308,7.69920031 L0.561885723,7.69920031 L0.869774581,7.87684917 L0.869774581,7.92683411 L0.756010926,8.12400149 L0.142839724,7.77020769 Z M0.386443672,13.3214487 L0.196148945,13.3214487 L0.190031768,13.1515257 L0.621405502,12.7209986 L0.804379841,12.9043328 L0.386443672,13.3214487 Z M3.0739061,18.1100876 L2.9195045,18.0154081 L3.01724066,17.8463171 L3.57828596,17.6964729 L3.64781622,17.9568075 L3.0739061,18.1100876 Z M7.90094663,20.6224114 L7.79280756,20.8095002 L7.61690527,20.7137618 L7.47042732,20.1661277 L7.75830696,20.0891273 L7.90094663,20.6224114 Z M13.357105,20.8024639 L13.241798,20.8633343 L13.1675129,20.7346543 L13.3333405,20.1081107 L13.5272933,20.1594443 L13.357105,20.8024639 Z M17.969232,17.8060174 L18.0759661,17.990907 L17.9013387,18.0956372 L17.3582523,17.9503295 L17.4351016,17.663106 L17.969232,17.8060174 Z M20.8559168,13.1596905 L20.8516671,13.3006708 L20.6965057,13.3006708 L20.2455045,12.8505548 L20.3955435,12.7002207 L20.8559168,13.1596905 Z M20.6720611,7.67842243 L20.8417248,7.67842243 L20.8479438,7.82736009 L20.3955435,8.27887249 L20.2333062,8.11631618 L20.6720611,7.67842243 Z M17.9550411,2.87789945 L18.102058,2.9700361 L18.0067135,3.13498918 L17.437055,3.28605065 L17.3699644,3.03304949 L17.9550411,2.87789945 Z M13.1306286,0.345710003 L13.2265281,0.179796573 L13.4044825,0.289568071 L13.5477562,0.825183875 L13.278174,0.897295315 L13.1306286,0.345710003 Z M7.64078902,0.273130377 L7.80517149,0.173361228 L7.89595658,0.330350266 L7.74462817,0.898777432 L7.49212355,0.831554883 L7.64078902,0.273130377 Z" id="路径" stroke-width="1.7"></path>
                <path d="M10.4957615,13.4999991 C11.2920114,13.5006158 12.0558885,13.184861 12.6193096,12.6222091 C13.1827627,12.059525 13.4995651,11.2960246 13.5,10.5000005 C13.4999985,8.84367796 12.1576854,7.50075415 10.5013654,7.50000032 C8.84504563,7.49924649 7.50151049,8.84094761 7.50000128,10.4972675 C7.49849211,12.1535418 8.83950607,13.4976607 10.4957615,13.4999991 Z" id="路径"></path>
            </g>
        </g>
    </g>
</svg>