<?xml version="1.0" encoding="UTF-8"?>
<svg width="96px" height="96px" viewBox="0 0 96 96" version="1.1" xmlns="http://www.w3.org/2000/svg" xmlns:xlink="http://www.w3.org/1999/xlink">
    <!-- Generator: Sketch 53 (72520) - https://sketchapp.com -->
    <title>分组 11</title>
    <desc>Created with Sketch.</desc>
    <g id="账户金额" stroke="none" stroke-width="1" fill="none" fill-rule="evenodd">
        <g transform="translate(-409.000000, -687.000000)" id="分组-9-Copy">
            <g transform="translate(385.000000, 609.000000)">
                <g id="分组-11" transform="translate(24.000000, 78.000000)">
                    <rect id="矩形" fill="#FFFFFF" x="0" y="0" width="96" height="96"></rect>
                    <g id="分组-10" transform="translate(0.000000, 10.000000)" fill-rule="nonzero">
                        <g id="tixian" transform="translate(11.000000, 0.000000)">
                            <path d="M64.6748322,14.6217172 L7.31241611,14.6217172 C7.29519016,14.5616162 7.26935123,14.4929293 7.25212528,14.4328283 C9.07807606,13.9090909 10.8954139,13.3853535 12.7213647,12.870202 C27.4667785,8.70606061 42.2121924,4.54191919 56.9489933,0.377777778 C59.6190157,-0.377777778 60.566443,0.137373737 61.3157718,2.76464646 C62.4354586,6.6540404 63.5293065,10.5434343 64.6748322,14.6217172 L64.6748322,14.6217172 Z" id="路径" fill="#37BCF4"></path>
                            <path d="M76.9397092,31.7676768 L71.6427293,31.7676768 L71.6427293,31.7762626 C69.7478747,31.7762626 67.8788591,31.7762626 66.0356823,31.7676768 L56.2944072,31.7676768 C55.2694631,31.7676768 54.235906,31.7762626 53.210962,31.7848485 C47.5780761,31.8191919 43.0131991,35.2964646 41.9107383,40.3191919 C40.4293065,47.0419192 45.2784116,53.369697 52.1687919,53.7217172 L76.9483221,53.7217172 L76.9483221,31.7676768 L76.9397092,31.7676768 Z" id="路径" fill="#ED9648"></path>
                            <path d="M71.9011186,32.0312626 C71.9011186,32.0312626 71.9011186,31.9763131 71.9011186,32.0312626 L66.2940716,31.9763131 C68.1458613,32.0312626 70.006264,32.0312626 71.9011186,32.0312626 Z" id="路径" fill="#000000"></path>
                            <path d="M64.3389262,31.7676768 C64.3389262,30.4540404 65.4155481,29.3722222 66.7419463,29.3722222 L71.9097315,29.3722222 L71.9097315,21.4989899 C71.9011186,18.5111111 70.9450783,17.5494949 67.9477629,17.5494949 L4.05671141,17.5494949 C0.956040268,17.5494949 0,18.5111111 0,21.5848485 L0,63.6984848 C0,67.1328283 0.852684564,67.9828283 4.3409396,67.9828283 L67.53434,67.9828283 C68.1200224,67.9828283 68.7057047,68.0171717 69.2741611,67.939899 C70.712528,67.7510101 71.9183445,66.8580808 71.9183445,65.4757576 C71.9183445,61.6121212 71.9097315,57.7484848 71.9097315,53.730303 L52.866443,53.730303 C52.7200224,53.730303 52.5736018,53.7217172 52.4271812,53.7131313 C45.5368009,53.3611111 40.6876957,47.0333333 42.1691275,40.3106061 C43.2715884,35.2964646 47.8364653,31.8106061 53.4693512,31.7762626 C54.4942953,31.7676768 55.5278523,31.7676768 56.5527964,31.7590909 C59.1280761,31.7590909 61.7205817,31.7676768 64.3389262,31.7676768 Z" id="路径" fill="#F4C575"></path>
                            <path d="M74.545302,29.3722222 L71.9097315,29.3722222 L71.9097315,31.7676768 L64.3475391,31.7676768 C64.3475391,33.0813131 65.4241611,34.1545455 66.7505593,34.1545455 L74.562528,34.1545455 C75.8803132,34.1545455 76.9655481,33.0813131 76.9655481,31.7590909 C76.9397092,30.4454545 75.8630872,29.3722222 74.545302,29.3722222 L74.545302,29.3722222 Z" id="路径" fill="#ED9648"></path>
                            <path d="M71.9011186,31.7676768 L71.9011186,29.3722222 L66.7333333,29.3722222 C65.4155481,29.3722222 64.3303132,30.4454545 64.3303132,31.7676768 L71.9011186,31.7676768 Z" id="路径" fill="#F4C575"></path>
                            <path d="M57.414094,42.7833333 C57.405481,45.170202 55.3469799,47.2136364 52.9353468,47.2393939 C50.4978747,47.2651515 48.4049217,45.1616162 48.4049217,42.6888889 C48.4049217,40.3191919 50.4892617,38.25 52.9008949,38.2328283 C55.3469799,38.2242424 57.4227069,40.3106061 57.414094,42.7833333 Z" id="路径" fill="#FFFFFF"></path>
                        </g>
                        <g id="tixian-2" transform="translate(64.000000, 37.000000)">
                            <polygon id="路径" fill="#A683F2" points="18.084947 0.722390956 30.5648317 13.1798298 13.9847298 29.7301114 1.50505596 17.2726726"></polygon>
                            <path d="M15.5227593,17.1836382 L17.3994337,18.9727441 C17.6524685,19.2253237 17.6524685,19.4568551 17.4205199,19.7094347 C17.1885714,19.9620144 16.9566229,19.9620144 16.6825019,19.7094347 L14.8058275,17.9203289 L13.287619,19.4989517 C13.097843,19.6883864 12.9502394,19.793628 12.8448082,19.8146763 C12.7393771,19.8357246 12.5917735,19.7515313 12.4230837,19.5831449 C12.2754801,19.4358068 12.1911351,19.309517 12.1911351,19.1832271 C12.1911351,19.0569373 12.2965663,18.8885509 12.4652561,18.7201644 L13.9834646,17.1415416 L12.1278764,15.3524358 C11.8748417,15.0998561 11.8748417,14.8683248 12.1067902,14.6157451 C12.359825,14.3631655 12.5917735,14.3631655 12.823722,14.5736485 L14.7003964,16.3627544 L15.7757941,15.2471942 L13.9412921,13.4791367 C13.6882574,13.226557 13.6882574,12.9950257 13.9202059,12.742446 C14.1732407,12.4898664 14.4051892,12.4898664 14.6371377,12.7003494 L16.0077426,14.0053443 C16.1764324,13.289702 16.324036,12.5951079 16.4716396,11.8794656 C16.6192432,11.1848715 16.7668468,10.4692292 16.9355367,9.75358684 C17.0409678,9.37471737 17.2518301,9.20633094 17.5681236,9.24842754 C17.7368134,9.26947585 17.8422445,9.33262076 17.9055032,9.43786228 C17.9687619,9.5220555 17.9898481,9.69044193 17.9476757,9.92197328 L16.8301055,14.7841316 L17.0409678,14.9946146 C17.8211583,14.7841316 18.622435,14.5526002 19.4237117,14.3210689 C20.2249884,14.0895375 21.0262651,13.8790545 21.8064556,13.6475231 C22.0805766,13.5633299 22.2492664,13.5843782 22.3336113,13.6685714 C22.4179562,13.7527646 22.4812149,13.8790545 22.5233874,14.0263926 C22.5655598,14.194779 22.5444736,14.3421172 22.4812149,14.4052621 C22.39687,14.4894553 22.2703526,14.5736485 22.0384041,14.6157451 L17.884417,15.7313052 L19.2128494,17.0152518 C19.4658842,17.2678314 19.4658842,17.4993628 19.2339356,17.7519424 C19.0019871,18.0045221 18.7700386,18.0045221 18.4959176,17.7519424 L16.6192432,15.9628366 L15.5016731,17.1415416 L15.5227593,17.1836382 L15.5227593,17.1836382 Z" id="路径" fill="#FFFFFF"></path>
                            <path d="M12.2754801,19.7515313 C12.085704,19.5620966 11.9802728,19.3937102 11.9802728,19.2042754 C11.9802728,19.035889 12.085704,18.825406 12.3176525,18.5938746 L13.6882574,17.1625899 L11.9802728,15.5208222 C11.6428932,15.2050976 11.6218069,14.8262282 11.9381004,14.4894553 C12.2543938,14.1526824 12.6339459,14.1316341 12.9502394,14.4473587 L14.6582239,16.0891264 L15.4384144,15.2892909 L13.7515161,13.6685714 C13.4141364,13.3528469 13.3930502,12.9739774 13.7093436,12.6372045 C14.0256371,12.3004317 14.4051892,12.2793834 14.7214826,12.5951079 L15.8179665,13.6475231 C15.9444839,13.0581706 16.0710013,12.4688181 16.2186049,11.9005139 C16.3662085,11.2059198 16.5138121,10.4902775 16.6825019,9.77463515 C16.872278,9.10108941 17.2940026,9.08004111 17.5470373,9.12213772 C17.7789858,9.16423433 17.9265894,9.24842754 18.0320206,9.37471737 C18.1374517,9.5431038 18.158538,9.73253854 18.0952793,10.0061665 L16.9987954,14.7630832 L17.0409678,14.8051799 C17.7789858,14.6157451 18.5170039,14.3842138 19.2971943,14.1737307 C20.098471,13.9421994 20.8997477,13.7317163 21.6799382,13.500185 C21.9118867,13.4370401 22.2281802,13.3949435 22.4179562,13.5843782 C22.5233874,13.6896197 22.6077323,13.8580062 22.6499048,14.0474409 C22.7131634,14.2789723 22.670991,14.468407 22.5655598,14.6367934 C22.4601287,14.7630832 22.2914389,14.8683248 22.0173179,14.9314697 L18.2217967,15.9628366 L19.2761081,16.9942035 C19.6134878,17.3099281 19.6134878,17.7098458 19.2971943,18.0255704 C18.9809009,18.3623433 18.6013488,18.3623433 18.2639691,18.0255704 L16.5559846,16.3838027 L15.7757941,17.1836382 L17.4837786,18.825406 C17.8211583,19.1411305 17.8211583,19.5410483 17.5048649,19.8567729 C17.1885714,20.1935457 16.8090193,20.1935457 16.4716396,19.8567729 L14.7636551,18.2150051 L13.3930502,19.6462898 C13.1821879,19.8778212 12.9924118,20.004111 12.823722,20.0251593 C12.6972046,20.0462076 12.4863423,19.9620144 12.2754801,19.7515313 L12.2754801,19.7515313 Z M12.6972046,14.7420349 C12.5706873,14.6157451 12.4652561,14.5736485 12.2754801,14.7841316 C12.1278764,14.9314697 12.1278764,15.0577595 12.2965663,15.2050976 L14.299758,17.1204933 L12.6339459,18.8464543 C12.4230837,19.0569373 12.4230837,19.1621788 12.4230837,19.1621788 C12.4230837,19.1832271 12.4652561,19.2884687 12.5917735,19.4147585 C12.7815495,19.5831449 12.823722,19.5831449 12.823722,19.5831449 C12.823722,19.5831449 12.9291532,19.5620966 13.1400154,19.3305653 L14.8058275,17.6046043 L16.8301055,19.5410483 C16.9987954,19.7094347 17.1253127,19.7094347 17.2729163,19.5410483 C17.4416062,19.3726619 17.4416062,19.246372 17.2729163,19.0990339 L15.2486384,17.1625899 L16.598157,15.7523535 L18.622435,17.6887975 C18.7911248,17.857184 18.9176422,17.857184 19.0652458,17.6887975 C19.2339356,17.5204111 19.2339356,17.3941213 19.0652458,17.2467831 L17.4626924,15.7102569 L21.9751454,14.4894553 C22.207094,14.4263104 22.2703526,14.3631655 22.2914389,14.3421172 C22.3336113,14.3000206 22.3125251,14.194779 22.2914389,14.1316341 C22.2492664,14.0053443 22.2281802,13.9211511 22.1649215,13.8580062 C22.1649215,13.8580062 22.0805766,13.8369579 21.8275418,13.9001028 C21.0473514,14.1316341 20.2671609,14.3421172 19.4658842,14.5526002 C18.6646075,14.7841316 17.8633308,14.9946146 17.0831403,15.2261459 L16.9566229,15.2682425 L16.5559846,14.8893731 L17.6946409,9.90092497 C17.7368134,9.66939363 17.6946409,9.62729702 17.6946409,9.60624872 C17.6735547,9.5431038 17.5892098,9.5431038 17.4626924,9.50100719 C17.3572613,9.47995889 17.1885714,9.45891059 17.0620541,9.85882837 C16.9144505,10.5534224 16.7668468,11.2690647 16.598157,11.9426105 C16.4505534,12.6372045 16.3029498,13.3528469 16.13426,14.0684892 L16.0499151,14.4263104 L14.4473616,12.9108325 C14.3208443,12.7845427 14.2154131,12.742446 14.0256371,12.9529291 C13.8780335,13.1002672 13.8780335,13.226557 14.0467233,13.3738952 L16.0499151,15.2892909 L14.7003964,16.6995272 L12.6972046,14.7420349 L12.6972046,14.7420349 Z" id="形状" fill="#FFFFFF"></path>
                            <path d="M21.2582136,37.7688798 C21.2582136,36.5691264 20.3093333,35.6009044 19.1285045,35.5377595 L19.1285045,35.5167112 L8.98602831,35.5167112 C7.7419408,35.5167112 6.75088803,36.5270298 6.75088803,37.7478314 C6.75088803,38.9896814 7.76302703,39.9789517 8.98602831,39.9789517 L19.1285045,39.9789517 L19.1285045,39.9579034 C20.3093333,39.9368551 21.2582136,38.9475848 21.2582136,37.7688798 L21.2582136,37.7688798 Z M31.506121,12.805591 L19.1495907,0.492332991 C18.5380901,-0.139116136 17.5048649,-0.16016444 16.872278,0.471284687 L0.488277992,16.4679959 C-0.14430888,17.0783967 -0.165395109,18.1097636 0.467191763,18.7412127 L5.94961133,24.36111 L5.94961133,24.2558684 L13.4984813,30.8018911 L14.9534311,30.8018911 C16.7879331,29.1811716 19.5502291,26.781665 20.5412819,26.023926 L20.8364891,25.7292497 L20.8364891,25.7082014 C20.6045405,25.3082837 20.098471,24.4663515 19.6767465,23.5612744 L15.0799485,28.170853 C14.573879,28.6760123 13.7726023,28.6760123 13.3087053,28.1919013 L3.73555727,18.341295 C3.250574,17.857184 3.29274646,17.0573484 3.79881596,16.5732374 L16.8933642,3.79691675 C17.3994337,3.31280576 18.2007104,3.29175745 18.6646075,3.77586845 L28.2377555,13.226557 C28.7227387,13.710668 28.6805663,14.5105036 28.1744968,14.9946146 L24.3789755,18.8043577 C24.6109241,19.2884687 25.0115624,20.1724974 25.4543732,21.0986228 L31.4639485,15.0998561 C32.1176216,14.4473587 32.1387079,13.4370401 31.506121,12.805591 Z" id="形状" fill="#945ED7"></path>
                            <path d="M6.75088803,25.9818294 L6.75088803,33.5592189 C6.75088803,33.5592189 7.27804376,34.8852621 9.32340798,34.8852621 L18.9809009,34.8852621 C18.9809009,34.8852621 19.634574,34.9905036 20.2039022,34.464296 C21.5955933,33.1382528 25.8339254,29.0759301 26.5508571,28.3602878 C27.4153925,27.4973073 26.9514955,25.9818294 26.5508571,25.2030421 C26.1502188,24.4032066 23.5144402,18.7412127 23.5144402,18.7412127 C23.5144402,18.7412127 22.9240257,17.5625077 21.2792999,18.2781501 C19.634574,18.9937924 19.5080566,19.793628 19.6978327,21.182816 C19.8876088,22.5720041 21.6799382,25.4556218 21.6799382,25.4556218 C21.6799382,25.4556218 21.7431969,26.2133607 21.2792999,26.4659404 C20.8154028,26.71852 15.2697246,31.5806783 15.2697246,31.5806783 L13.2243604,31.5806783 L6.75088803,25.9818294 L6.75088803,25.9818294 Z" id="路径" fill="#945ED7"></path>
                        </g>
                        <g id="tixian-3" transform="translate(0.000000, 44.000000)">
                            <path d="M32.9662223,11.5067012 C32.9662223,12.1021464 32.4894998,12.5848482 31.9014307,12.5848482 L1.09853128,12.5848482 C0.510462098,12.5848482 0.0337396757,12.1021464 0.0337396757,11.5067012 L0.0337396757,1.11028365 C0.0337396757,0.514838456 0.510462098,0.0321366192 1.09853128,0.0321366192 L31.9014307,0.0321366192 C32.4894999,0.0321366192 32.9662223,0.514838456 32.9662223,1.11028365 L32.9662223,11.5067012 Z" id="路径" fill="#F34B4D"></path>
                            <path d="M29.4802848,7.92571295 L3.51967721,7.92571295 C2.78459073,7.92571295 2.18868773,7.32233568 2.18868773,6.57802919 C2.18868773,5.83372269 2.78459073,5.23034542 3.51967721,5.23034542 L29.4802848,5.23034542 C30.2153713,5.23034542 30.8112743,5.83372269 30.8112743,6.57802919 C30.8112743,7.32233568 30.2153713,7.92571295 29.4802848,7.92571295 Z" id="路径" fill="#923333"></path>
                            <path d="M5.34332291,6.57802919 C5.33605712,6.62904068 5.33238446,6.68051091 5.33233276,6.73205016 L5.33233276,31.9144839 C5.33233276,32.5099291 5.80905518,32.9926309 6.39712436,32.9926309 L26.7802775,32.9926309 C27.3683467,32.9926309 27.8450691,32.5099291 27.8450691,31.9144839 L27.8450691,6.73205016 C27.8450691,6.67976002 27.8411902,6.6283555 27.834079,6.57802919 L5.34332291,6.57802919 Z" id="路径" fill="#F74F48"></path>
                            <polygon id="路径" fill="#FFFFFF" points="21.7201217 12.3253998 17.9773793 18.6748386 21.2276556 18.6748386 21.2276556 19.8049677 17.2549943 19.8049677 17.2549943 21.6000825 21.260474 21.6000825 21.260474 22.7302501 17.2549943 22.7302501 17.2549943 26.4866298 15.777634 26.4866298 15.777634 22.7302501 11.8050487 22.7302501 11.8050487 21.6000825 15.777672 21.6000825 15.777672 19.8049677 11.8050487 19.8049677 11.8050487 18.6748386 15.055287 18.6748386 11.2798402 12.3253998 12.9214827 12.3253998 16.5329515 18.5751485 20.1112597 12.3253998 21.7201217 12.3253998"></polygon>
                        </g>
                    </g>
                </g>
            </g>
        </g>
    </g>
</svg>