<?xml version="1.0" encoding="UTF-8"?>
<svg width="64px" height="64px" viewBox="0 0 64 64" version="1.1" xmlns="http://www.w3.org/2000/svg" xmlns:xlink="http://www.w3.org/1999/xlink">
    <!-- Generator: Sketch 53 (72520) - https://sketchapp.com -->
    <title>微信</title>
    <desc>Created with Sketch.</desc>
    <g id="账户金额" stroke="none" stroke-width="1" fill="none" fill-rule="evenodd">
        <g id="账户金额_提现" transform="translate(-70.000000, -186.000000)" fill="#71C253" fill-rule="nonzero">
            <g id="分组-2" transform="translate(40.000000, 156.000000)">
                <g id="Yinhang">
                    <g id="微信" transform="translate(30.000000, 30.000000)">
                        <path d="M36.2081595,31.9608117 C35.3989921,32.0012242 34.7600275,32.6626085 34.7475331,33.4726882 C34.7475331,34.1485482 35.4778463,34.8276113 36.2081595,34.8276113 C37.3036293,34.8276113 38.0851926,34.1485482 38.0851926,33.4726882 C38.0851926,32.6398749 37.3036293,31.9608117 36.2081595,31.9608117 L36.2081595,31.9608117 Z M31.4130768,24.9235394 C32.5597967,24.9235394 33.2901099,24.1964293 33.2901099,23.1009595 C33.2901099,21.9542397 32.5597967,21.2751765 31.4130768,21.2751765 C30.317607,21.2751765 29.2765904,21.9542397 29.2765904,23.1009595 C29.2765904,24.1964293 30.317607,24.9267425 31.4130768,24.9267425 L31.4130768,24.9235394 Z M31.9896399,0 C14.3179824,0 0,14.3179824 0,31.9864368 C0,49.651688 14.3179824,63.9728735 31.9864368,63.9728735 C49.651688,63.9728735 63.9728735,49.6548911 63.9728735,31.9864368 C63.9728735,14.3211855 49.6548911,0 31.9864368,0 L31.9896399,0 Z M25.938931,40.0903507 C24.0106479,40.0903507 22.6012716,39.7796473 20.7786917,39.2575374 L15.5159523,41.9161337 L17.0278287,37.4317544 C13.3250127,34.8276113 11.1372762,31.5444051 11.1372762,27.5308856 C11.1372762,20.4423632 17.809392,15.0226706 25.9357279,15.0226706 C33.1299535,15.0226706 39.5394127,19.2956434 40.7918358,25.3431492 C40.3284293,25.2436939 39.8563656,25.1900503 39.3824594,25.1829928 C32.2971402,25.1829928 26.8261975,30.5001853 26.8261975,36.9128477 C26.8261975,38.0051144 26.9799476,38.9948809 27.2426041,40.0391007 C26.8261975,40.0903507 26.3553376,40.0903507 25.938931,40.0903507 Z M47.6689517,45.19934 L48.7131715,48.9502029 L44.7509021,46.7080133 C43.2390256,47.0219198 41.7816023,47.4895765 40.2697259,47.4895765 C33.2869067,47.4895765 27.7615109,42.697697 27.7615109,36.7558944 C27.7615109,30.8140919 33.2869067,26.0190092 40.2697259,26.0190092 C46.8873885,26.0190092 52.829191,30.8140919 52.829191,36.7558944 C52.829191,40.0903507 50.5870014,43.0596504 47.6721548,45.19934 L47.6689517,45.19934 Z M21.0958014,21.2783797 C20.0003316,21.2783797 18.8536117,21.9542397 18.8536117,23.1009595 C18.8536117,24.1964293 20.0003316,24.9267425 21.0958014,24.9267425 C22.136818,24.9267425 22.9696313,24.1964293 22.9696313,23.1009595 C22.9696313,21.9542397 22.136818,21.2751765 21.0958014,21.2751765 L21.0958014,21.2783797 Z M44.3889486,31.9608117 C43.5730884,31.9851575 42.9259411,32.6564839 42.9315253,33.4726882 C42.9315253,34.1485482 43.6073853,34.8276113 44.3889486,34.8276113 C45.4331683,34.8276113 46.2147316,34.1485482 46.2147316,33.4726882 C46.2147316,32.6398749 45.4331683,31.9608117 44.3889486,31.9608117 L44.3889486,31.9608117 Z" id="Shape"></path>
                    </g>
                </g>
            </g>
        </g>
    </g>
</svg>