<?xml version="1.0" encoding="UTF-8"?>
<svg width="36px" height="36px" viewBox="0 0 36 36" version="1.1" xmlns="http://www.w3.org/2000/svg" xmlns:xlink="http://www.w3.org/1999/xlink">
    <!-- Generator: Sketch 53 (72520) - https://sketchapp.com -->
    <title>累计润笔icon</title>
    <desc>Created with Sketch.</desc>
    <g id="账户金额" stroke="none" stroke-width="1" fill="none" fill-rule="evenodd">
        <g transform="translate(-409.000000, -633.000000)" id="分组-9-Copy">
            <g transform="translate(385.000000, 609.000000)">
                <g id="累计润笔icon" transform="translate(24.000000, 24.000000)">
                    <rect id="矩形" fill="#F59900" x="0" y="0" width="36" height="36" rx="4"></rect>
                    <path d="M26.9473684,14.1290323 L18.5263158,14.1290323 C17.9449634,14.1290323 17.4736842,14.6003115 17.4736842,15.1816638 L17.4736842,20.8183362 C17.4736842,21.3996885 17.9449634,21.8709677 18.5263158,21.8709677 L26.9473684,21.8709677 L26.9473684,23.8947368 C26.9473684,25.0574416 26.00481,26 24.8421053,26 L10.1052632,26 C8.94255842,26 8,25.0574416 8,23.8947368 L8,12.1052632 C8,10.9425584 8.94255842,10 10.1052632,10 L24.8421053,10 C26.00481,10 26.9473684,10.9425584 26.9473684,12.1052632 L26.9473684,14.1290323 Z M19.0526316,15.1612903 L27.4736842,15.1612903 C27.7643604,15.1612903 28,15.3969299 28,15.6876061 L28,20.3123939 C28,20.6030701 27.7643604,20.8387097 27.4736842,20.8387097 L19.0526316,20.8387097 C18.7619554,20.8387097 18.5263158,20.6030701 18.5263158,20.3123939 L18.5263158,15.6876061 C18.5263158,15.3969299 18.7619554,15.1612903 19.0526316,15.1612903 Z M21.9473684,18.7741935 C22.3833827,18.7741935 22.7368421,18.4275753 22.7368421,18 C22.7368421,17.5724247 22.3833827,17.2258065 21.9473684,17.2258065 C21.5113541,17.2258065 21.1578947,17.5724247 21.1578947,18 C21.1578947,18.4275753 21.5113541,18.7741935 21.9473684,18.7741935 Z" id="Combined-Shape" fill="#FFFFFF"></path>
                </g>
            </g>
        </g>
    </g>
</svg>
