<?xml version="1.0" encoding="UTF-8"?>
<svg width="23px" height="28px" viewBox="0 0 23 28" version="1.1" xmlns="http://www.w3.org/2000/svg" xmlns:xlink="http://www.w3.org/1999/xlink">
    <!-- Generator: Sketch 53 (72520) - https://sketchapp.com -->
    <title>我的</title>
    <desc>Created with Sketch.</desc>
    <g id="详情页" stroke="none" stroke-width="1" fill="none" fill-rule="evenodd">
        <g id="免费试听" transform="translate(-75.000000, -998.000000)">
            <g id="详情" transform="translate(40.000000, 796.000000)">
                <g id="分组-20" transform="translate(30.000000, 199.000000)">
                    <g id="我的" transform="translate(0.000000, 1.000000)">
                        <rect id="矩形" fill="#000000" opacity="0" x="0" y="0" width="32" height="32"></rect>
                        <path d="M25.9521484,29.0927734 C25.1347656,29.0927734 24.4726562,28.4306641 24.4726562,27.6132812 C24.4726562,23.0576172 20.7666016,19.3515625 16.2109375,19.3515625 C11.6552734,19.3515625 7.94921875,23.0576172 7.94921875,27.6132812 C7.94921875,28.4306641 7.28710938,29.0927734 6.46972656,29.0927734 C5.65234375,29.0927734 4.99023438,28.4306641 4.99023438,27.6132812 C4.99023438,21.4257812 10.0234375,16.3925781 16.2109375,16.3925781 C22.3984375,16.3925781 27.4316406,21.4257812 27.4316406,27.6132812 C27.4316406,28.4306641 26.7666016,29.0927734 25.9521484,29.0927734 Z" id="路径" fill="#EEEEEE"></path>
                        <path d="M15.9648438,18.859375 C11.546875,18.859375 7.94921875,15.2646484 7.94921875,10.84375 C7.94921875,6.42285156 11.5439453,2.83105469 15.9648438,2.83105469 C20.3828125,2.83105469 23.9804688,6.42578125 23.9804688,10.8466797 C23.9804688,15.2675781 20.3828125,18.859375 15.9648438,18.859375 Z M15.9648438,5.79003906 C13.1787109,5.79003906 10.9111328,8.05761719 10.9111328,10.84375 C10.9111328,13.6298828 13.1787109,15.9003906 15.9648438,15.9003906 C18.7509766,15.9003906 21.0214844,13.6328125 21.0214844,10.84375 C21.0185547,8.05761719 18.7509766,5.79003906 15.9648438,5.79003906 Z" id="形状" fill="#CCCCCC" fill-rule="nonzero"></path>
                        <path d="M15.5957031,12.5107422 C15.5957031,13.5656924 16.4509092,14.4208984 17.5058594,14.4208984 C18.5608095,14.4208984 19.4160156,13.5656924 19.4160156,12.5107422 C19.4160156,11.8283091 19.0519419,11.1977149 18.4609375,10.8564983 C17.8699331,10.5152817 17.1417856,10.5152817 16.5507812,10.8564983 C15.9597768,11.1977149 15.5957031,11.8283091 15.5957031,12.5107422 Z" id="路径" fill="#EEEEEE"></path>
                    </g>
                </g>
            </g>
        </g>
    </g>
</svg>