<?xml version="1.0" encoding="UTF-8"?>
<svg width="28px" height="36px" viewBox="0 0 28 36" version="1.1" xmlns="http://www.w3.org/2000/svg" xmlns:xlink="http://www.w3.org/1999/xlink">
    <!-- Generator: Sketch 53 (72520) - https://sketchapp.com -->
    <title>分组 2</title>
    <desc>Created with Sketch.</desc>
    <g id="申请helper" stroke="none" stroke-width="1" fill="none" fill-rule="evenodd">
        <g id="申请Helper" transform="translate(-84.000000, -320.000000)">
            <g id="输入姓名" transform="translate(40.000000, 284.000000)">
                <g id="请输入您的姓名">
                    <g id="用户" transform="translate(40.000000, 36.000000)">
                        <g id="分组-2" transform="translate(4.000000, 0.000000)">
                            <path d="M21.0119672,26.1201187 C23.3680563,27.8733072 25,30.2631955 25,32.2083333 C25,34.3208333 23.295,36 21.15,36 L6.85000001,36 C4.70499999,36 3,34.3208333 3,32.2083333 C3,30.2631955 4.63194373,27.8733072 6.98803276,26.1201187 C2.81002361,23.697754 0,19.1770351 0,14 C0,6.2680135 6.2680135,0 14,0 C21.7319865,0 28,6.2680135 28,14 C28,19.1770351 25.1899764,23.697754 21.0119672,26.1201187 Z" id="合并形状" fill="#CCCCCC" fill-rule="nonzero"></path>
                            <circle id="椭圆形" fill="#FFFFFF" cx="10" cy="13" r="2"></circle>
                            <circle id="椭圆形-copy" fill="#FFFFFF" cx="18" cy="13" r="2"></circle>
                        </g>
                    </g>
                </g>
            </g>
        </g>
    </g>
</svg>