<?xml version="1.0" encoding="UTF-8"?>
<svg width="438px" height="337px" viewBox="0 0 438 337" version="1.1" xmlns="http://www.w3.org/2000/svg" xmlns:xlink="http://www.w3.org/1999/xlink">
    <!-- Generator: Sketch 53 (72520) - https://sketchapp.com -->
    <title>分组 2</title>
    <desc>Created with Sketch.</desc>
    <defs>
        <linearGradient x1="72.2377356%" y1="169.292269%" x2="35.1899482%" y2="6.63809422%" id="linearGradient-1">
            <stop stop-color="#EEEEEE" stop-opacity="0" offset="0%"></stop>
            <stop stop-color="#FFD3B9" offset="100%"></stop>
        </linearGradient>
        <linearGradient x1="50%" y1="108.738054%" x2="50%" y2="0%" id="linearGradient-2">
            <stop stop-color="#EEEEEE" stop-opacity="0" offset="0%"></stop>
            <stop stop-color="#FFD3B9" offset="100%"></stop>
        </linearGradient>
        <linearGradient x1="25.6898105%" y1="198.344966%" x2="58.3863487%" y2="0%" id="linearGradient-3">
            <stop stop-color="#EEEEEE" stop-opacity="0" offset="0%"></stop>
            <stop stop-color="#FFD3B9" offset="100%"></stop>
        </linearGradient>
        <linearGradient x1="50%" y1="121.289595%" x2="50%" y2="4.8167704%" id="linearGradient-4">
            <stop stop-color="#FFFFFF" stop-opacity="0" offset="0%"></stop>
            <stop stop-color="#FFD3B9" offset="100%"></stop>
        </linearGradient>
        <linearGradient x1="50%" y1="121.289595%" x2="50%" y2="4.8167704%" id="linearGradient-5">
            <stop stop-color="#FFFFFF" stop-opacity="0" offset="0%"></stop>
            <stop stop-color="#FFD3B9" offset="100%"></stop>
        </linearGradient>
        <linearGradient x1="50%" y1="0%" x2="50%" y2="100%" id="linearGradient-6">
            <stop stop-color="#FCDCC9" offset="0%"></stop>
            <stop stop-color="#FCF4EF" stop-opacity="0.797530594" offset="100%"></stop>
        </linearGradient>
        <polygon id="path-7" points="0 0.589667205 225.490196 0.589667205 228 50 0 38.5896672"></polygon>
        <linearGradient x1="37.9942271%" y1="0%" x2="66.8408687%" y2="100%" id="linearGradient-9">
            <stop stop-color="#FCF1DD" offset="0%"></stop>
            <stop stop-color="#DDD1BB" offset="100%"></stop>
        </linearGradient>
        <linearGradient x1="61.9454167%" y1="100%" x2="38.3187759%" y2="0%" id="linearGradient-10">
            <stop stop-color="#FD985C" offset="0%"></stop>
            <stop stop-color="#F8CEB6" offset="100%"></stop>
        </linearGradient>
        <path d="M8.82651491,8.82344549 C11.3689705,2.9411485 14.8284315,1.50789788e-14 19.2048979,5.68434189e-14 C23.5813644,9.86396529e-14 39.2078184,9.86396529e-14 66.0842599,5.68434189e-14 C70.4191088,9.72141933 76.5297985,14.582129 84.4163292,14.582129 C92.3028599,14.582129 99.7680126,9.72141933 106.811787,5.68434189e-14 L165.796189,5.68434189e-14 C170.969064,0.234912988 173.555502,3.17606149 173.555502,8.82344549 L170.211435,49.5377499 C161.16245,53.3929752 156.637957,58.3503023 156.637957,64.4097313 C156.637957,70.4691602 159.690701,75.0816957 165.796189,78.2473376 C163.349264,148.125426 164.821013,195.768243 170.211435,221.175788 C171.525226,227.491916 169.262744,230.64998 163.423987,230.64998 L102.226287,227.754299 C96.5161665,217.635043 90.5795139,212.575415 84.4163292,212.575415 C75.1715522,212.575415 69.4751465,217.063863 63.6042307,225.364438 C31.6353112,224.220184 15.6508515,223.648058 15.6508515,223.648058 C8.59005141,221.645614 4.925813,217.763393 4.65813632,212.001394 C0.934309114,155.479245 -0.556829721,110.839147 0.184719817,78.0810988 C8.0977344,75.1418448 12.2249683,71.0787026 12.5664216,65.8916723 C12.9078749,60.7046419 10.2717798,56.3009706 4.65813632,52.6806584 C4.65813632,33.3732736 6.04759585,18.7542026 8.82651491,8.82344549 Z" id="path-11"></path>
        <filter x="-2.9%" y="-2.2%" width="105.8%" height="104.3%" filterUnits="objectBoundingBox" id="filter-12">
            <feGaussianBlur stdDeviation="4" in="SourceAlpha" result="shadowBlurInner1"></feGaussianBlur>
            <feOffset dx="2" dy="0" in="shadowBlurInner1" result="shadowOffsetInner1"></feOffset>
            <feComposite in="shadowOffsetInner1" in2="SourceAlpha" operator="arithmetic" k2="-1" k3="1" result="shadowInnerInner1"></feComposite>
            <feColorMatrix values="0 0 0 0 1   0 0 0 0 0.634581838   0 0 0 0 0.421421244  0 0 0 1 0" type="matrix" in="shadowInnerInner1"></feColorMatrix>
        </filter>
        <linearGradient x1="0%" y1="50%" x2="100%" y2="50%" id="linearGradient-13">
            <stop stop-color="#FFFFF7" offset="0%"></stop>
            <stop stop-color="#F8EFDB" offset="100%"></stop>
        </linearGradient>
        <path d="M32.6765645,115.349656 L130.715828,115.352372 C133.19741,115.352435 135.209115,117.364139 135.209178,119.845722 L135.209634,119.85879 C135.209697,122.340462 133.197955,124.352305 130.716284,124.352368 C130.716208,124.352368 130.716132,124.352368 130.716056,124.352368 L32.6767926,124.349424 C30.19521,124.349361 28.1835055,122.337656 28.1834426,119.856074 L28.1829864,119.843006 C28.1829235,117.361334 30.1946649,115.349491 32.6763366,115.349428 C32.6764126,115.349428 32.6764886,115.349428 32.6765645,115.349428 Z" id="path-14"></path>
        <filter x="-1.4%" y="-16.7%" width="102.8%" height="133.3%" filterUnits="objectBoundingBox" id="filter-15">
            <feGaussianBlur stdDeviation="1" in="SourceAlpha" result="shadowBlurInner1"></feGaussianBlur>
            <feOffset dx="1" dy="1" in="shadowBlurInner1" result="shadowOffsetInner1"></feOffset>
            <feComposite in="shadowOffsetInner1" in2="SourceAlpha" operator="arithmetic" k2="-1" k3="1" result="shadowInnerInner1"></feComposite>
            <feColorMatrix values="0 0 0 0 0   0 0 0 0 0   0 0 0 0 0  0 0 0 0.197470498 0" type="matrix" in="shadowInnerInner1"></feColorMatrix>
        </filter>
        <path d="M32.6765645,146.556988 L130.715828,146.559704 C133.19741,146.559767 135.209115,148.571472 135.209178,151.053054 L135.209634,151.066122 C135.209697,153.547794 133.197955,155.559637 130.716284,155.5597 C130.716208,155.5597 130.716132,155.5597 130.716056,155.5597 L32.6767926,155.556756 C30.19521,155.556693 28.1835055,153.544988 28.1834426,151.063406 L28.1829864,151.050338 C28.1829235,148.568666 30.1946649,146.556823 32.6763366,146.55676 C32.6764126,146.55676 32.6764886,146.55676 32.6765645,146.55676 Z" id="path-16"></path>
        <filter x="-1.4%" y="-16.7%" width="102.8%" height="133.3%" filterUnits="objectBoundingBox" id="filter-17">
            <feGaussianBlur stdDeviation="1" in="SourceAlpha" result="shadowBlurInner1"></feGaussianBlur>
            <feOffset dx="1" dy="1" in="shadowBlurInner1" result="shadowOffsetInner1"></feOffset>
            <feComposite in="shadowOffsetInner1" in2="SourceAlpha" operator="arithmetic" k2="-1" k3="1" result="shadowInnerInner1"></feComposite>
            <feColorMatrix values="0 0 0 0 0   0 0 0 0 0   0 0 0 0 0  0 0 0 0.197470498 0" type="matrix" in="shadowInnerInner1"></feColorMatrix>
        </filter>
        <path d="M145.830297,69.532716 C144.025445,69.532716 142.562323,68.0674661 142.562323,66.2599887 C142.562323,64.4525114 144.025445,62.9872615 145.830297,62.9872615 C147.635149,62.9872615 149.098271,64.4525114 149.098271,66.2599887 C149.098271,68.0674661 147.635149,69.532716 145.830297,69.532716 Z M133.575395,69.532716 C131.770543,69.532716 130.307421,68.0674661 130.307421,66.2599887 C130.307421,64.4525114 131.770543,62.9872615 133.575395,62.9872615 C135.380247,62.9872615 136.843369,64.4525114 136.843369,66.2599887 C136.843369,68.0674661 135.380247,69.532716 133.575395,69.532716 Z M121.320493,69.532716 C119.515641,69.532716 118.052519,68.0674661 118.052519,66.2599887 C118.052519,64.4525114 119.515641,62.9872615 121.320493,62.9872615 C123.125345,62.9872615 124.588467,64.4525114 124.588467,66.2599887 C124.588467,68.0674661 123.125345,69.532716 121.320493,69.532716 Z M109.065591,69.532716 C107.260739,69.532716 105.797617,68.0674661 105.797617,66.2599887 C105.797617,64.4525114 107.260739,62.9872615 109.065591,62.9872615 C110.870443,62.9872615 112.333565,64.4525114 112.333565,66.2599887 C112.333565,68.0674661 110.870443,69.532716 109.065591,69.532716 Z M96.8106892,69.532716 C95.0058371,69.532716 93.5427154,68.0674661 93.5427154,66.2599887 C93.5427154,64.4525114 95.0058371,62.9872615 96.8106892,62.9872615 C98.6155413,62.9872615 100.078663,64.4525114 100.078663,66.2599887 C100.078663,68.0674661 98.6155413,69.532716 96.8106892,69.532716 Z M85.3727807,69.532716 C83.5679286,69.532716 82.1048069,68.0674661 82.1048069,66.2599887 C82.1048069,64.4525114 83.5679286,62.9872615 85.3727807,62.9872615 C87.1776329,62.9872615 88.6407546,64.4525114 88.6407546,66.2599887 C88.6407546,68.0674661 87.1776329,69.532716 85.3727807,69.532716 Z M73.1178788,69.532716 C71.3130266,69.532716 69.8499049,68.0674661 69.8499049,66.2599887 C69.8499049,64.4525114 71.3130266,62.9872615 73.1178788,62.9872615 C74.9227309,62.9872615 76.3858526,64.4525114 76.3858526,66.2599887 C76.3858526,68.0674661 74.9227309,69.532716 73.1178788,69.532716 Z M60.8629768,69.532716 C59.0581247,69.532716 57.595003,68.0674661 57.595003,66.2599887 C57.595003,64.4525114 59.0581247,62.9872615 60.8629768,62.9872615 C62.6678289,62.9872615 64.1309507,64.4525114 64.1309507,66.2599887 C64.1309507,68.0674661 62.6678289,69.532716 60.8629768,69.532716 Z M48.6080748,69.532716 C46.8032227,69.532716 45.340101,68.0674661 45.340101,66.2599887 C45.340101,64.4525114 46.8032227,62.9872615 48.6080748,62.9872615 C50.412927,62.9872615 51.8760487,64.4525114 51.8760487,66.2599887 C51.8760487,68.0674661 50.412927,69.532716 48.6080748,69.532716 Z M36.3531729,69.532716 C34.5483208,69.532716 33.085199,68.0674661 33.085199,66.2599887 C33.085199,64.4525114 34.5483208,62.9872615 36.3531729,62.9872615 C38.158025,62.9872615 39.6211467,64.4525114 39.6211467,66.2599887 C39.6211467,68.0674661 38.158025,69.532716 36.3531729,69.532716 Z M24.9152644,69.532716 C23.1104123,69.532716 21.6472905,68.0674661 21.6472905,66.2599887 C21.6472905,64.4525114 23.1104123,62.9872615 24.9152644,62.9872615 C26.7201165,62.9872615 28.1832382,64.4525114 28.1832382,66.2599887 C28.1832382,68.0674661 26.7201165,69.532716 24.9152644,69.532716 Z" id="path-18"></path>
        <filter x="-4.7%" y="-91.7%" width="109.4%" height="283.3%" filterUnits="objectBoundingBox" id="filter-19">
            <feOffset dx="0" dy="0" in="SourceAlpha" result="shadowOffsetOuter1"></feOffset>
            <feGaussianBlur stdDeviation="2" in="shadowOffsetOuter1" result="shadowBlurOuter1"></feGaussianBlur>
            <feColorMatrix values="0 0 0 0 0   0 0 0 0 0   0 0 0 0 0  0 0 0 0.1 0" type="matrix" in="shadowBlurOuter1"></feColorMatrix>
        </filter>
        <filter x="-3.9%" y="-76.4%" width="107.8%" height="252.8%" filterUnits="objectBoundingBox" id="filter-20">
            <feGaussianBlur stdDeviation="1" in="SourceAlpha" result="shadowBlurInner1"></feGaussianBlur>
            <feOffset dx="0" dy="0" in="shadowBlurInner1" result="shadowOffsetInner1"></feOffset>
            <feComposite in="shadowOffsetInner1" in2="SourceAlpha" operator="arithmetic" k2="-1" k3="1" result="shadowInnerInner1"></feComposite>
            <feColorMatrix values="0 0 0 0 0   0 0 0 0 0   0 0 0 0 0  0 0 0 0.2 0" type="matrix" in="shadowInnerInner1"></feColorMatrix>
        </filter>
    </defs>
    <g id="缺省页面" stroke="none" stroke-width="1" fill="none" fill-rule="evenodd">
        <g id="暂无记录" transform="translate(-156.000000, -432.000000)">
            <g id="分组" transform="translate(156.000000, 432.000000)">
                <g id="分组-2">
                    <path d="M73.4778979,241.499207 C62.9372336,245.14351 52.7860489,249.171787 43.0730476,253.553704 L42.5522646,253.099224 L36.6852052,252.140439 L41.6136958,244.771422 L41.6136958,241.389175 L33.9853136,241.389175 L40.3511131,232.068371 L40.3511131,228.592862 L32.8579599,228.592862 C41.1939506,214.805337 45.361946,207.381301 45.361946,206.320757 C56.0660044,214.252252 62.8162914,218.218 65.612807,218.218 L58.2662633,221.182246 L58.2662633,223.999555 C65.3976904,230.118597 70.131371,233.178118 72.4673051,233.178118 L62.744214,236.038368 L62.744214,238.136421 L73.4855384,241.389175 L73.4778979,241.499207 Z" id="合并形状" fill="url(#linearGradient-1)" opacity="0.547667572"></path>
                    <polygon id="Path-8" fill="url(#linearGradient-2)" opacity="0.547667572" points="357 178 395 178 395 298 357 298"></polygon>
                    <path d="M316.1446,228.926863 L323.322666,224.570497 L315,220.661213 L325.889093,214.07856 L319.009459,209.411884 C327.720609,205.224718 332.847857,202.087424 334.391203,200 C340.961483,208.897574 345.497748,213.590427 348,214.07856 L339.529667,216.996272 L348,224.570497 L339.529667,227.285872 L346.204622,237.216071 L341.814092,238 C333.468368,234.780191 324.906396,231.752449 316.1446,228.926863 Z" id="合并形状" fill="url(#linearGradient-3)" opacity="0.547667572"></path>
                    <path d="M268.472077,24 L339.261429,24 C348.442043,13.4131788 346.60724,7.47415665 333.75702,6.18293352 C324.972878,-1.06148827 316.610665,-1.06148827 308.670382,6.18293352 C303.820788,1.40708122 297.169864,-0.602030366 288.717608,0.155598757 C276.039224,1.29204244 272.973755,6.51201414 270.722916,9.91367594 C266.907639,10.9599478 265,13.2116866 265,16.6688924 C265,20.1260982 266.157359,22.5698007 268.472077,24 Z" id="Path-13" fill="url(#linearGradient-4)"></path>
                    <path d="M20.7022588,102.403922 L69.5000657,102.403922 C75.828614,95.112508 74.5638143,91.022152 65.7056664,90.1328537 C59.6504214,85.1434358 53.8860284,85.1434358 48.4124872,90.1328537 C45.0694772,86.8436025 40.4847407,85.4598761 34.6582775,85.9816746 C25.9185828,86.7643724 23.8054378,90.3594999 22.2538483,92.7023111 C19.6238318,93.4229052 18.3088235,94.9737352 18.3088235,97.3548009 C18.3088235,99.7358667 19.1066353,101.418907 20.7022588,102.403922 Z" id="Path-13" fill="url(#linearGradient-5)"></path>
                    <path d="M297.393435,139.529412 L346.191242,139.529412 C352.51979,132.237998 351.254991,128.147642 342.396843,127.258344 C336.341598,122.268926 330.577205,122.268926 325.103664,127.258344 C321.760654,123.969093 317.175917,122.585366 311.349454,123.107165 C302.609759,123.889863 300.496614,127.48499 298.945025,129.827801 C296.315008,130.548395 295,132.099225 295,134.480291 C295,136.861357 295.797812,138.544397 297.393435,139.529412 Z" id="Path-13-Copy" fill="url(#linearGradient-5)"></path>
                    <path d="M-1.42108547e-13,277.18883 C54.7335736,240.838175 132.544519,218.128411 218.871824,218.128411 C305.19913,218.128411 383.010075,240.838175 437.743649,277.18883 C383.010051,313.53946 305.199117,336.249216 218.871824,336.249216 C132.544532,336.249216 54.7335975,313.53946 2.51877528e-05,277.188814 Z" id="合并形状" fill="url(#linearGradient-6)"></path>
                    <g id="分组-15" transform="translate(62.000000, 53.000000)">
                        <g id="分组-12" transform="translate(154.848819, 120.900549) rotate(-21.000000) translate(-154.848819, -120.900549) translate(86.348819, 32.400549)">
                            <path d="M10.4687463,6.75838378 C12.4075138,2.25279459 15.0455503,-3.19897839e-14 18.3828557,0 C21.7201612,3.20141367e-14 33.6362243,3.20141367e-14 54.131045,0 C57.4366147,7.44619353 62.0963644,11.1692903 68.1102942,11.1692903 C74.124224,11.1692903 79.816829,7.44619353 85.1881093,0 L130.167082,0 C134.111695,0.179933352 136.084001,2.43272795 136.084001,6.75838378 L133.53396,37.9438085 C126.633592,40.8967469 123.183408,44.6938486 123.183408,49.3351133 C123.183408,53.976378 125.511299,57.5093839 130.167082,59.934131 C128.301163,113.457773 129.423455,149.950144 133.53396,169.411242 C134.5358,174.249127 132.810528,176.66807 128.358143,176.66807 L81.6914037,174.450101 C77.3371108,166.699182 72.8100743,162.823722 68.1102942,162.823722 C61.0606241,162.823722 56.7167895,166.261683 52.2398812,172.61957 C27.8617554,171.74312 15.6726925,171.304895 15.6726925,171.304895 C10.2884294,169.771108 7.49423846,166.797492 7.29011971,162.384046 C4.45048892,119.090485 3.31341045,84.8980698 3.87888429,59.8067991 C9.91300957,57.5554556 13.060261,54.4432616 13.3206386,50.4702171 C13.5810163,46.4971725 11.5708433,43.1241477 7.29011971,40.3511426 C7.29011971,25.5625074 8.34966191,14.3649211 10.4687463,6.75838378 Z" id="路径-21" fill="#DCDCDC"></path>
                            <path d="M6.73072141,6.75838378 C8.6694889,2.25279459 11.3075254,2.4853635e-14 14.6448309,5.68434189e-14 C17.9821363,8.88575555e-14 29.8981994,8.88575555e-14 50.3930201,5.68434189e-14 C53.6985898,7.44619353 58.3583395,11.1692903 64.3722693,11.1692903 C70.3861991,11.1692903 76.0788041,7.44619353 81.4500844,5.68434189e-14 L126.429057,5.68434189e-14 C130.37367,0.179933352 132.345976,2.43272795 132.345976,6.75838378 L129.795935,37.9438085 C122.895567,40.8967469 119.445383,44.6938486 119.445383,49.3351133 C119.445383,53.976378 121.773274,57.5093839 126.429057,59.934131 C124.563138,113.457773 125.68543,149.950144 129.795935,169.411242 C130.797775,174.249127 129.072503,176.66807 124.620118,176.66807 L77.9533788,174.450101 C73.5990859,166.699182 69.0720494,162.823722 64.3722693,162.823722 C57.3225992,162.823722 52.9787647,166.261683 48.5018563,172.61957 C24.1237305,171.74312 11.9346676,171.304895 11.9346676,171.304895 C6.5504045,169.771108 3.75621357,166.797492 3.55209482,162.384046 C0.712464028,119.090485 -0.424614445,84.8980698 0.140859404,59.8067991 C6.17498468,57.5554556 9.32223613,54.4432616 9.58261376,50.4702171 C9.84299138,46.4971725 7.83281841,43.1241477 3.55209482,40.3511426 C3.55209482,25.5625074 4.61163702,14.3649211 6.73072141,6.75838378 Z" id="路径-21" fill="#F9C5A7"></path>
                        </g>
                        <g id="分组-12" transform="translate(134.300041, 117.931514) rotate(-10.000000) translate(-134.300041, -117.931514) translate(58.300041, 19.431514)">
                            <path d="M11.6598013,7.50931531 C13.8191471,2.5031051 16.7573195,-3.55442043e-14 20.4743184,0 C24.1913173,3.5571263e-14 37.4631001,3.5571263e-14 60.2896669,0 C63.9713193,8.27354837 69.1612202,12.4103226 75.8593696,12.4103226 C82.5575189,12.4103226 88.8977856,8.27354837 94.8801696,0 L144.976511,0 C149.369912,0.199925947 151.566612,2.70303105 151.566612,7.50931531 L148.726446,42.1597872 C141.041006,45.4408299 137.198287,49.6598317 137.198287,54.8167926 C137.198287,59.9737534 139.791028,63.8993155 144.976511,66.5934788 C142.898301,126.064193 144.148279,166.611271 148.726446,188.234713 C149.842269,193.610141 147.920708,196.297856 142.961764,196.297856 L90.9856352,193.833446 C86.1359438,185.221313 81.0938552,180.915247 75.8593696,180.915247 C68.0076412,180.915247 63.1695979,184.735203 58.1833407,191.799522 C31.0316557,190.825689 17.4558132,190.338772 17.4558132,190.338772 C11.4589693,188.634565 8.34687637,185.330547 8.11953453,180.426718 C4.95683197,132.322762 3.69038529,94.3311886 4.32019448,66.451999 C11.040837,63.9505062 14.546159,60.4925128 14.8361604,56.0780189 C15.1261618,51.663525 12.8872865,47.9157197 8.11953453,44.8346029 C8.11953453,28.402786 9.29962344,15.9610235 11.6598013,7.50931531 Z" id="路径-21" fill="#DCDCDC"></path>
                            <path d="M7.49649211,7.50931531 C9.65583793,2.5031051 12.5940103,2.12992145e-14 16.3110092,5.68434189e-14 C20.0280081,9.24146818e-14 33.299791,9.24146818e-14 56.1263577,5.68434189e-14 C59.8080102,8.27354837 64.9979111,12.4103226 71.6960604,12.4103226 C78.3942098,12.4103226 84.7344765,8.27354837 90.7168605,5.68434189e-14 L140.813201,5.68434189e-14 C145.206603,0.199925947 147.403303,2.70303105 147.403303,7.50931531 L144.563137,42.1597872 C136.877697,45.4408299 133.034978,49.6598317 133.034978,54.8167926 C133.034978,59.9737534 135.627719,63.8993155 140.813201,66.5934788 C138.734992,126.064193 139.98497,166.611271 144.563137,188.234713 C145.678959,193.610141 143.757399,196.297856 138.798455,196.297856 L86.8223261,193.833446 C81.9726346,185.221313 76.930546,180.915247 71.6960604,180.915247 C63.844332,180.915247 59.0062888,184.735203 54.0200315,191.799522 C26.8683465,190.825689 13.292504,190.338772 13.292504,190.338772 C7.2956601,188.634565 4.18356721,185.330547 3.95622537,180.426718 C0.793522809,132.322762 -0.472923872,94.3311886 0.156885324,66.451999 C6.87752785,63.9505062 10.3828498,60.4925128 10.6728513,56.0780189 C10.9628527,51.663525 8.72397739,47.9157197 3.95622537,44.8346029 C3.95622537,28.402786 5.13631428,15.9610235 7.49649211,7.50931531 Z" id="路径-21" fill="#FCAD7F"></path>
                        </g>
                        <g id="分组-16" transform="translate(0.000000, 226.864878)">
                            <mask id="mask-8" fill="white">
                                <use xlink:href="#path-7"></use>
                            </mask>
                            <g id="矩形"></g>
                            <g id="分组-14" opacity="0.1" mask="url(#mask-8)">
                                <g transform="translate(99.368933, 112.776664) scale(1, -1) rotate(-5.000000) translate(-99.368933, -112.776664) translate(9.868933, -2.723336)" id="分组-12">
                                    <g>
                                        <path d="M13.7284757,8.82344549 C16.2709313,2.9411485 19.7303923,-4.17644401e-14 24.1068587,0 C28.4833252,4.1796234e-14 44.1097792,4.1796234e-14 70.9862206,0 C75.3210695,9.72141933 81.4317593,14.582129 89.31829,14.582129 C97.2048207,14.582129 104.669973,9.72141933 111.713748,0 L170.69815,0 C175.871025,0.234912988 178.457463,3.17606149 178.457463,8.82344549 L175.113396,49.5377499 C166.064411,53.3929752 161.539918,58.3503023 161.539918,64.4097313 C161.539918,70.4691602 164.592662,75.0816957 170.69815,78.2473376 C168.251225,148.125426 169.722974,195.768243 175.113396,221.175788 C176.427187,227.491916 174.164704,230.64998 168.325948,230.64998 L107.128248,227.754299 C101.418127,217.635043 95.4814747,212.575415 89.31829,212.575415 C80.073513,212.575415 74.3771072,217.063863 68.5061915,225.364438 C36.537272,224.220184 20.5528123,223.648058 20.5528123,223.648058 C13.4920122,221.645614 9.82777379,217.763393 9.56009711,212.001394 C5.8362699,155.479245 4.34513106,110.839147 5.0866806,78.0810988 C12.9996952,75.1418448 17.1269291,71.0787026 17.4683824,65.8916723 C17.8098357,60.7046419 15.1737406,56.3009706 9.56009711,52.6806584 C9.56009711,33.3732736 10.9495566,18.7542026 13.7284757,8.82344549 Z" id="路径-21" fill="#CCC1A9"></path>
                                        <path d="M8.82651491,8.82344549 C11.3689705,2.9411485 14.8284315,1.50789788e-14 19.2048979,5.68434189e-14 C23.5813644,9.86396529e-14 39.2078184,9.86396529e-14 66.0842599,5.68434189e-14 C70.4191088,9.72141933 76.5297985,14.582129 84.4163292,14.582129 C92.3028599,14.582129 99.7680126,9.72141933 106.811787,5.68434189e-14 L165.796189,5.68434189e-14 C170.969064,0.234912988 173.555502,3.17606149 173.555502,8.82344549 L170.211435,49.5377499 C161.16245,53.3929752 156.637957,58.3503023 156.637957,64.4097313 C156.637957,70.4691602 159.690701,75.0816957 165.796189,78.2473376 C163.349264,148.125426 164.821013,195.768243 170.211435,221.175788 C171.525226,227.491916 169.262744,230.64998 163.423987,230.64998 L102.226287,227.754299 C96.5161665,217.635043 90.5795139,212.575415 84.4163292,212.575415 C75.1715522,212.575415 69.4751465,217.063863 63.6042307,225.364438 C31.6353112,224.220184 15.6508515,223.648058 15.6508515,223.648058 C8.59005141,221.645614 4.925813,217.763393 4.65813632,212.001394 C0.934309114,155.479245 -0.556829721,110.839147 0.184719817,78.0810988 C8.0977344,75.1418448 12.2249683,71.0787026 12.5664216,65.8916723 C12.9078749,60.7046419 10.2717798,56.3009706 4.65813632,52.6806584 C4.65813632,33.3732736 6.04759585,18.7542026 8.82651491,8.82344549 Z" id="路径-21" fill="url(#linearGradient-9)"></path>
                                    </g>
                                </g>
                            </g>
                        </g>
                        <g id="分组-14" transform="translate(19.607843, 0.000000)">
                            <g id="分组-12">
                                <path d="M13.7284757,8.82344549 C16.2709313,2.9411485 19.7303923,-4.17644401e-14 24.1068587,0 C28.4833252,4.1796234e-14 44.1097792,4.1796234e-14 70.9862206,0 C75.3210695,9.72141933 81.4317593,14.582129 89.31829,14.582129 C97.2048207,14.582129 104.669973,9.72141933 111.713748,0 L170.69815,0 C175.871025,0.234912988 178.457463,3.17606149 178.457463,8.82344549 L175.113396,49.5377499 C166.064411,53.3929752 161.539918,58.3503023 161.539918,64.4097313 C161.539918,70.4691602 164.592662,75.0816957 170.69815,78.2473376 C168.251225,148.125426 169.722974,195.768243 175.113396,221.175788 C176.427187,227.491916 174.164704,230.64998 168.325948,230.64998 L107.128248,227.754299 C101.418127,217.635043 95.4814747,212.575415 89.31829,212.575415 C80.073513,212.575415 74.3771072,217.063863 68.5061915,225.364438 C36.537272,224.220184 20.5528123,223.648058 20.5528123,223.648058 C13.4920122,221.645614 9.82777379,217.763393 9.56009711,212.001394 C5.8362699,155.479245 4.34513106,110.839147 5.0866806,78.0810988 C12.9996952,75.1418448 17.1269291,71.0787026 17.4683824,65.8916723 C17.8098357,60.7046419 15.1737406,56.3009706 9.56009711,52.6806584 C9.56009711,33.3732736 10.9495566,18.7542026 13.7284757,8.82344549 Z" id="路径-21" fill="#DCDCDC"></path>
                                <g id="路径-21">
                                    <use fill="url(#linearGradient-10)" fill-rule="evenodd" xlink:href="#path-11"></use>
                                    <use fill="black" fill-opacity="1" filter="url(#filter-12)" xlink:href="#path-11"></use>
                                </g>
                            </g>
                            <g id="矩形" transform="translate(81.696310, 119.850898) rotate(1.000000) translate(-81.696310, -119.850898) ">
                                <use fill="url(#linearGradient-13)" fill-rule="evenodd" xlink:href="#path-14"></use>
                                <use fill="black" fill-opacity="1" filter="url(#filter-15)" xlink:href="#path-14"></use>
                            </g>
                            <g id="矩形-copy" transform="translate(81.696310, 151.058230) rotate(1.000000) translate(-81.696310, -151.058230) ">
                                <use fill="url(#linearGradient-13)" fill-rule="evenodd" xlink:href="#path-16"></use>
                                <use fill="black" fill-opacity="1" filter="url(#filter-17)" xlink:href="#path-16"></use>
                            </g>
                            <g id="合并形状">
                                <use fill="black" fill-opacity="1" filter="url(#filter-19)" xlink:href="#path-18"></use>
                                <use fill="#FFFFED" fill-rule="evenodd" xlink:href="#path-18"></use>
                                <use fill="black" fill-opacity="1" filter="url(#filter-20)" xlink:href="#path-18"></use>
                            </g>
                        </g>
                    </g>
                </g>
            </g>
        </g>
    </g>
</svg>