<?xml version="1.0" encoding="UTF-8"?>
<svg width="450px" height="300px" viewBox="0 0 450 300" version="1.1" xmlns="http://www.w3.org/2000/svg" xmlns:xlink="http://www.w3.org/1999/xlink">
    <!-- Generator: Sketch 53 (72520) - https://sketchapp.com -->
    <title>Group</title>
    <desc>Created with Sketch.</desc>
    <defs>
        <ellipse id="path-1" cx="224.672628" cy="61.0465202" rx="224.672628" ry="61.0465202"></ellipse>
        <filter x="-5.3%" y="-19.7%" width="110.7%" height="139.3%" filterUnits="objectBoundingBox" id="filter-3">
            <feGaussianBlur stdDeviation="22" in="SourceAlpha" result="shadowBlurInner1"></feGaussianBlur>
            <feOffset dx="0" dy="-4" in="shadowBlurInner1" result="shadowOffsetInner1"></feOffset>
            <feComposite in="shadowOffsetInner1" in2="SourceAlpha" operator="arithmetic" k2="-1" k3="1" result="shadowInnerInner1"></feComposite>
            <feColorMatrix values="0 0 0 0 1   0 0 0 0 0.627032039   0 0 0 0 0.627032039  0 0 0 0.152117301 0" type="matrix" in="shadowInnerInner1"></feColorMatrix>
        </filter>
        <linearGradient x1="50%" y1="108.738054%" x2="50%" y2="0%" id="linearGradient-4">
            <stop stop-color="#EEEEEE" stop-opacity="0" offset="0%"></stop>
            <stop stop-color="#FFD3B9" offset="100%"></stop>
        </linearGradient>
        <linearGradient x1="50%" y1="108.738054%" x2="50%" y2="0%" id="linearGradient-5">
            <stop stop-color="#EEEEEE" stop-opacity="0" offset="0%"></stop>
            <stop stop-color="#FFD3B9" offset="100%"></stop>
        </linearGradient>
        <linearGradient x1="50%" y1="108.738054%" x2="50%" y2="0%" id="linearGradient-6">
            <stop stop-color="#EEEEEE" stop-opacity="0" offset="0%"></stop>
            <stop stop-color="#FFD3B9" offset="100%"></stop>
        </linearGradient>
        <linearGradient x1="50%" y1="121.289595%" x2="50%" y2="4.8167704%" id="linearGradient-7">
            <stop stop-color="#FFFFFF" stop-opacity="0" offset="0%"></stop>
            <stop stop-color="#FFD3B9" offset="100%"></stop>
        </linearGradient>
        <linearGradient x1="50%" y1="121.289595%" x2="50%" y2="4.8167704%" id="linearGradient-8">
            <stop stop-color="#FFFFFF" stop-opacity="0" offset="0%"></stop>
            <stop stop-color="#FFD3B9" offset="100%"></stop>
        </linearGradient>
        <linearGradient x1="97.2753357%" y1="41.7946575%" x2="0%" y2="65.1379335%" id="linearGradient-9">
            <stop stop-color="#FFCACA" offset="0%"></stop>
            <stop stop-color="#FF8F4E" offset="100%"></stop>
        </linearGradient>
        <linearGradient x1="3.32190421%" y1="51.6338605%" x2="43.116119%" y2="50%" id="linearGradient-10">
            <stop stop-color="#FAE8DE" stop-opacity="0.0332314312" offset="0%"></stop>
            <stop stop-color="#F4D5C4" offset="100%"></stop>
        </linearGradient>
        <linearGradient x1="33.6211797%" y1="97.3553093%" x2="55.34553%" y2="32.1265692%" id="linearGradient-11">
            <stop stop-color="#FBCDB2" offset="0%"></stop>
            <stop stop-color="#FF833B" offset="100%"></stop>
        </linearGradient>
        <linearGradient x1="39.9891155%" y1="97.3553093%" x2="60.0108845%" y2="15.3401259%" id="linearGradient-12">
            <stop stop-color="#FBCDB2" offset="0%"></stop>
            <stop stop-color="#FF833B" offset="100%"></stop>
        </linearGradient>
        <linearGradient x1="0%" y1="57.3256244%" x2="96.0823877%" y2="43.4631987%" id="linearGradient-13">
            <stop stop-color="#FFE0CE" offset="0%"></stop>
            <stop stop-color="#E68D59" offset="100%"></stop>
        </linearGradient>
        <polygon id="path-14" points="127.248616 33.5405947 15.776308 46.6963935 25.6021211 19.2106858 136.873744 0.343988713"></polygon>
        <filter x="-4.1%" y="-10.8%" width="108.3%" height="121.6%" filterUnits="objectBoundingBox" id="filter-15">
            <feGaussianBlur stdDeviation="4" in="SourceAlpha" result="shadowBlurInner1"></feGaussianBlur>
            <feOffset dx="-2" dy="-2" in="shadowBlurInner1" result="shadowOffsetInner1"></feOffset>
            <feComposite in="shadowOffsetInner1" in2="SourceAlpha" operator="arithmetic" k2="-1" k3="1" result="shadowInnerInner1"></feComposite>
            <feColorMatrix values="0 0 0 0 1   0 0 0 0 0.635294118   0 0 0 0 0.419607843  0 0 0 1 0" type="matrix" in="shadowInnerInner1"></feColorMatrix>
        </filter>
        <linearGradient x1="1.77228685%" y1="33.7832694%" x2="91.975066%" y2="33.7832694%" id="linearGradient-16">
            <stop stop-color="#F8CEB6" offset="0%"></stop>
            <stop stop-color="#FD985C" offset="100%"></stop>
        </linearGradient>
        <polygon id="path-17" points="15.776308 157.563878 127.248616 167.33039 111.410009 186.120587 0.570801292 167.33039"></polygon>
        <filter x="-3.9%" y="-17.5%" width="107.9%" height="135.0%" filterUnits="objectBoundingBox" id="filter-18">
            <feGaussianBlur stdDeviation="4" in="SourceAlpha" result="shadowBlurInner1"></feGaussianBlur>
            <feOffset dx="2" dy="0" in="shadowBlurInner1" result="shadowOffsetInner1"></feOffset>
            <feComposite in="shadowOffsetInner1" in2="SourceAlpha" operator="arithmetic" k2="-1" k3="1" result="shadowInnerInner1"></feComposite>
            <feColorMatrix values="0 0 0 0 1   0 0 0 0 0.634581838   0 0 0 0 0.421421244  0 0 0 1 0" type="matrix" in="shadowInnerInner1"></feColorMatrix>
        </filter>
        <linearGradient x1="3.18959196%" y1="51.9204996%" x2="76.8376218%" y2="48.1239402%" id="linearGradient-19">
            <stop stop-color="#FFD1B6" offset="0%"></stop>
            <stop stop-color="#D0692D" offset="100%"></stop>
        </linearGradient>
        <polygon id="path-20" points="15.776308 157.563878 79.2305264 141.166296 127.248616 144.393666 127.248616 167.33039"></polygon>
        <filter x="-1.8%" y="-7.6%" width="103.6%" height="115.3%" filterUnits="objectBoundingBox" id="filter-21">
            <feGaussianBlur stdDeviation="1" in="SourceAlpha" result="shadowBlurInner1"></feGaussianBlur>
            <feOffset dx="0" dy="-2" in="shadowBlurInner1" result="shadowOffsetInner1"></feOffset>
            <feComposite in="shadowOffsetInner1" in2="SourceAlpha" operator="arithmetic" k2="-1" k3="1" result="shadowInnerInner1"></feComposite>
            <feColorMatrix values="0 0 0 0 0.882653061   0 0 0 0 0.581517651   0 0 0 0 0.405855329  0 0 0 1 0" type="matrix" in="shadowInnerInner1"></feColorMatrix>
        </filter>
        <linearGradient x1="112.292215%" y1="52.8488342%" x2="36.9944799%" y2="50%" id="linearGradient-22">
            <stop stop-color="#FBCDB2" offset="0%"></stop>
            <stop stop-color="#FF833B" offset="100%"></stop>
        </linearGradient>
        <linearGradient x1="35.6585569%" y1="100%" x2="54.6725197%" y2="41.1354187%" id="linearGradient-23">
            <stop stop-color="#F6DBCB" offset="0%"></stop>
            <stop stop-color="#FF9354" offset="100%"></stop>
        </linearGradient>
    </defs>
    <g id="雅集" stroke="none" stroke-width="1" fill="none" fill-rule="evenodd">
        <g id="雅集-2" transform="translate(-150.000000, -512.000000)">
            <g id="Group" transform="translate(150.000000, 512.000000)">
                <!--<text id="暂无活动，敬请期待~" font-family="PingFangSC-Regular, PingFang SC" font-size="32" font-weight="normal" fill="#999999">
                    <tspan x="81" y="375">暂无活动，敬请期待~</tspan>
                </text>-->
                <g id="Group-9">
                    <g id="Group-7" transform="translate(0.000000, 158.682353)">
                        <mask id="mask-2" fill="white">
                            <use xlink:href="#path-1"></use>
                        </mask>
                        <g id="Oval-4">
                            <use fill="#FCF4EF" fill-rule="evenodd" xlink:href="#path-1"></use>
                            <use fill="black" fill-opacity="1" filter="url(#filter-3)" xlink:href="#path-1"></use>
                        </g>
                        <path d="M40.3361345,92.8631896 C54.9358064,79.1511661 66.1583815,75.0445402 74.00386,80.5433121 C81.8493384,86.0420839 84.4246714,91.8857164 81.729859,98.0742094 C90.0999219,79.5369797 107.292898,79.5369797 133.308787,98.0742094 C159.324676,116.611439 134.982037,127.079109 60.2808703,129.477219 L40.3361345,92.8631896 Z" id="Path-15" fill-opacity="0.671110734" fill="#FCDCC9" mask="url(#mask-2)"></path>
                        <path d="M346.638655,116.165344 C359.21121,108.461815 367.740314,101.493741 372.225965,95.2611209 C378.954442,85.9121904 389.857744,79.9100672 394.4145,86.4007312 C393.397373,81.5628234 395.869763,78.1376607 401.831671,76.1252432 C407.793578,74.1128257 418.208632,78.6345894 433.076833,89.6905344 L412.956411,125.443721 L346.638655,116.165344 Z" id="Path-16" fill-opacity="0.631312274" fill="#FDDAC6" mask="url(#mask-2)"></path>
                    </g>
                    <polygon id="Path-7" fill="url(#linearGradient-4)" opacity="0.547667572" points="100.367647 169.701961 100.367647 90.3607843 116.630941 90.3607843 116.630941 107.83275 145.588235 107.83275 145.588235 167.670815"></polygon>
                    <polygon id="Path-8" fill="url(#linearGradient-5)" opacity="0.547667572" points="314.338235 77.1372549 358.455882 77.1372549 358.455882 178.517647 314.338235 178.517647"></polygon>
                    <polygon id="Path-9" fill="url(#linearGradient-6)" opacity="0.547667572" points="372.794118 98.0745098 418.014706 104.252946 414.775068 197.25098 376.773653 182.772491"></polygon>
                    <path d="M80.7022588,58.4039216 L129.500066,58.4039216 C135.828614,51.112508 134.563814,47.022152 125.705666,46.1328537 C119.650421,41.1434358 113.886028,41.1434358 108.412487,46.1328537 C105.069477,42.8436025 100.484741,41.4598761 94.6582775,41.9816746 C85.9185828,42.7643724 83.8054378,46.3594999 82.2538483,48.7023111 C79.6238318,49.4229052 78.3088235,50.9737352 78.3088235,53.3548009 C78.3088235,55.7358667 79.1066353,57.4189069 80.7022588,58.4039216 Z" id="Path-13" fill="url(#linearGradient-7)"></path>
                    <path d="M363.714181,11.336896 C359.473355,12.3087153 357.352941,14.6575627 357.352941,18.3834383 C357.352941,22.1093139 358.942103,24.0625469 362.120425,24.2431373 L432.632979,24.2431373 C436.858052,23.2604442 438.970588,20.1655688 438.970588,14.9585111 C438.970588,9.75145333 435.379823,7.27478546 428.198293,7.52850746 C425.306382,3.39198599 420.811745,1.32372525 414.71438,1.32372525 C408.617015,1.32372525 404.442158,2.88283629 402.189806,6.00105837 C397.587737,2.00035279 391.148603,0 382.872405,0 C374.596206,0 368.210132,3.77896534 363.714181,11.336896 Z" id="Path-21" fill="url(#linearGradient-8)"></path>
                    <path d="M298.897059,67.0602525 C315.507048,68.0171321 327.613494,64.6646871 335.216398,57.0029175 C342.819301,49.3411478 346.630201,42.2891049 346.649097,35.8467888 C346.408488,28.8456616 343.592357,25.345098 338.200703,25.345098 C332.809049,25.345098 329.831252,29.6645217 329.267312,38.3033689 C330.276778,47.0905322 336.808279,49.7501935 348.861817,46.2823529 C360.915354,42.8145124 369.628082,38.5730962 375,33.5581044" id="Path-22" stroke="url(#linearGradient-9)" stroke-width="1.39026199" stroke-dasharray="2.780524253845215"></path>
                    <path d="M337.5,205.242489 L261.983206,241.839582 C194.209236,253.193134 139.395698,256.942295 97.5425922,253.087064 C55.6894867,249.231834 37.4520974,239.165137 42.8304241,222.886973 C55.9047815,199.184547 97.8534051,187.333333 168.676295,187.333333 C239.499184,187.333333 295.773753,193.303052 337.5,205.242489 Z" id="Path-30" fill="url(#linearGradient-10)"></path>
                    <g id="Group-8" transform="translate(150.000000, 55.098039)">
                        <polygon id="Path-23" fill="url(#linearGradient-11)" points="15.776308 46.6963935 79.2305264 60.1487998 79.2305264 141.166296 15.776308 157.563878"></polygon>
                        <polygon id="Path-24" fill="url(#linearGradient-12)" points="127.248616 33.5405947 187.113785 53.4782931 187.113785 149.763085 127.248616 167.33039"></polygon>
                        <g id="Path-25">
                            <use fill="url(#linearGradient-13)" fill-rule="evenodd" xlink:href="#path-14"></use>
                            <use fill="black" fill-opacity="1" filter="url(#filter-15)" xlink:href="#path-14"></use>
                        </g>
                        <g id="Path-26">
                            <use fill="url(#linearGradient-16)" fill-rule="evenodd" xlink:href="#path-17"></use>
                            <use fill="black" fill-opacity="1" filter="url(#filter-18)" xlink:href="#path-17"></use>
                        </g>
                        <g id="Path-27">
                            <use fill="url(#linearGradient-19)" fill-rule="evenodd" xlink:href="#path-20"></use>
                            <use fill="black" fill-opacity="1" filter="url(#filter-21)" xlink:href="#path-20"></use>
                        </g>
                        <polygon id="Path-28" fill="url(#linearGradient-22)" points="15.776308 46.6963935 127.248616 33.5405947 127.248616 56.44372 79.2305264 60.1487998"></polygon>
                        <polygon id="Path-29" fill="url(#linearGradient-23)" points="79.2305264 60.1487998 127.248616 56.3062195 127.248616 145.96513 79.2305264 141.166296"></polygon>
                    </g>
                </g>
            </g>
        </g>
    </g>
</svg>
