<svg xmlns="http://www.w3.org/2000/svg" width="63.262" height="42.896" viewBox="0 0 63.262 42.896">
  <g id="组_128" data-name="组 128" transform="translate(-1917.318 487.896)">
    <path id="联合_3" data-name="联合 3" d="M40,2a1,1,0,0,1,0-2h2a1,1,0,1,1,0,2ZM13,2a1,1,0,0,1,0-2H36a1,1,0,1,1,0,2ZM6,2A1,1,0,0,1,6,0H9A1,1,0,0,1,9,2ZM1,2A1,1,0,0,1,1,0H2A1,1,0,0,1,2,2Z" transform="translate(1921 -447)" fill="#999"/>
    <g id="路径_35" data-name="路径 35" transform="translate(1927.601 -487.896) rotate(20)" fill="none">
      <path d="M3,0H35a3,3,0,0,1,3,3V22a3,3,0,0,1-3,3H23.715l-5.007,5.065L13.8,25H3a3,3,0,0,1-3-3V3A3,3,0,0,1,3,0Z" stroke="none"/>
      <path d="M 3 2.000001907348633 C 2.448600769042969 2.000001907348633 2 2.448602676391602 2 3.000001907348633 L 2 22.00000381469727 C 2 22.5514030456543 2.448600769042969 23.00000381469727 3 23.00000381469727 L 13.79865074157715 23.00000381469727 L 14.64529991149902 23.00000381469727 L 15.23460960388184 23.60788345336914 L 18.72257232666016 27.20569038391113 L 22.29310989379883 23.59393310546875 L 22.8802604675293 23.00000381469727 L 23.71541976928711 23.00000381469727 L 35 23.00000381469727 C 35.55139923095703 23.00000381469727 36 22.5514030456543 36 22.00000381469727 L 36 3.000001907348633 C 36 2.448602676391602 35.55139923095703 2.000001907348633 35 2.000001907348633 L 3 2.000001907348633 M 3 1.9073486328125e-06 L 35 1.9073486328125e-06 C 36.6568489074707 1.9073486328125e-06 38 1.343143463134766 38 3.000001907348633 L 38 22.00000381469727 C 38 23.65685272216797 36.6568489074707 25.00000381469727 35 25.00000381469727 L 23.71541976928711 25.00000381469727 L 18.70862007141113 30.06460380554199 L 13.79865074157715 25.00000381469727 L 3 25.00000381469727 C 1.343151092529297 25.00000381469727 0 23.65685272216797 0 22.00000381469727 L 0 3.000001907348633 C 0 1.343143463134766 1.343151092529297 1.9073486328125e-06 3 1.9073486328125e-06 Z" stroke="none" fill="#999"/>
    </g>
    <rect id="矩形_1064" data-name="矩形 1064" width="4" height="2" rx="1" transform="translate(1935.463 -476.624) rotate(20)" fill="#999"/>
    <rect id="矩形_1065" data-name="矩形 1065" width="4" height="2" rx="1" transform="translate(1945.463 -472.624) rotate(20)" fill="#999"/>
    <rect id="矩形_1066" data-name="矩形 1066" width="6" height="4" rx="2" transform="translate(1936.893 -463.724) rotate(-70)" fill="#999"/>
    <path id="路径_37" data-name="路径 37" d="M.324,0H6.705V-1.458H3.681l3.141-4.68H.243V-4.68H3.465Z" transform="translate(1964 -472)" fill="#999"/>
    <path id="路径_36" data-name="路径 36" d="M.36,0H7.45V-1.62H4.09l3.49-5.2H.27V-5.2H3.85Z" transform="translate(1973 -476)" fill="#999"/>
  </g>
</svg>
