<?xml version="1.0" encoding="UTF-8"?>
<svg width="480px" height="320px" viewBox="0 0 480 320" version="1.1" xmlns="http://www.w3.org/2000/svg" xmlns:xlink="http://www.w3.org/1999/xlink">
    <!-- Generator: Sketch 53 (72520) - https://sketchapp.com -->
    <title>分组 2</title>
    <desc>Created with Sketch.</desc>
    <defs>
        <linearGradient x1="72.2377356%" y1="169.292269%" x2="35.1899482%" y2="6.63809422%" id="linearGradient-1">
            <stop stop-color="#EEEEEE" stop-opacity="0" offset="0%"></stop>
            <stop stop-color="#FFD3B9" offset="100%"></stop>
        </linearGradient>
        <linearGradient x1="26.3489257%" y1="198.344966%" x2="58.1589721%" y2="0%" id="linearGradient-2">
            <stop stop-color="#EEEEEE" stop-opacity="0" offset="0%"></stop>
            <stop stop-color="#FFD3B9" offset="100%"></stop>
        </linearGradient>
        <linearGradient x1="50%" y1="108.738054%" x2="50%" y2="0%" id="linearGradient-3">
            <stop stop-color="#EEEEEE" stop-opacity="0" offset="0%"></stop>
            <stop stop-color="#FFD3B9" offset="100%"></stop>
        </linearGradient>
        <linearGradient x1="50%" y1="121.289595%" x2="50%" y2="4.8167704%" id="linearGradient-4">
            <stop stop-color="#FFFFFF" stop-opacity="0" offset="0%"></stop>
            <stop stop-color="#FFD3B9" offset="100%"></stop>
        </linearGradient>
        <linearGradient x1="50%" y1="0%" x2="50%" y2="100%" id="linearGradient-5">
            <stop stop-color="#FCDCC9" offset="0%"></stop>
            <stop stop-color="#FCF4EF" stop-opacity="0.797530594" offset="100%"></stop>
        </linearGradient>
        <linearGradient x1="22.0698338%" y1="49.800938%" x2="20.2211379%" y2="45.8119027%" id="linearGradient-6">
            <stop stop-color="#FAE8DE" stop-opacity="0.0332314312" offset="0%"></stop>
            <stop stop-color="#F4D5C4" offset="100%"></stop>
        </linearGradient>
        <filter x="-69.2%" y="-64.9%" width="239.4%" height="230.0%" filterUnits="objectBoundingBox" id="filter-7">
            <feOffset dx="-13" dy="19" in="SourceAlpha" result="shadowOffsetOuter1"></feOffset>
            <feGaussianBlur stdDeviation="2.5" in="shadowOffsetOuter1" result="shadowBlurOuter1"></feGaussianBlur>
            <feColorMatrix values="0 0 0 0 0   0 0 0 0 0   0 0 0 0 0  0 0 0 0.0764040647 0" type="matrix" in="shadowBlurOuter1" result="shadowMatrixOuter1"></feColorMatrix>
            <feMerge>
                <feMergeNode in="shadowMatrixOuter1"></feMergeNode>
                <feMergeNode in="SourceGraphic"></feMergeNode>
            </feMerge>
        </filter>
        <linearGradient x1="11.5587821%" y1="54.3082541%" x2="88.4412179%" y2="45.6595579%" id="linearGradient-8">
            <stop stop-color="#E2E2E2" offset="0%"></stop>
            <stop stop-color="#FAFAFA" offset="100%"></stop>
        </linearGradient>
    </defs>
    <g id="缺省页面" stroke="none" stroke-width="1" fill="none" fill-rule="evenodd">
        <g id="搜索无结果" transform="translate(-160.000000, -442.000000)">
            <g id="分组" transform="translate(160.000000, 442.000000)">
                <g id="分组-2">
                    <path d="M73.4778979,177.499207 C62.9372336,181.14351 52.7860489,185.171787 43.0730476,189.553704 L42.5522646,189.099224 L36.6852052,188.140439 L41.6136958,180.771422 L41.6136958,177.389175 L33.9853136,177.389175 L40.3511131,168.068371 L40.3511131,164.592862 L32.8579599,164.592862 C41.1939506,150.805337 45.361946,143.381301 45.361946,142.320757 C56.0660044,150.252252 62.8162914,154.218 65.612807,154.218 L58.2662633,157.182246 L58.2662633,159.999555 C65.3976904,166.118597 70.131371,169.178118 72.4673051,169.178118 L62.744214,172.038368 L62.744214,174.136421 L73.4855384,177.389175 L73.4778979,177.499207 Z" id="合并形状" fill="url(#linearGradient-1)" opacity="0.547667572"></path>
                    <path d="M358.116223,175.431199 L363.733113,171.975137 L357.220565,168.87376 L365.741362,163.651504 L360.357997,159.949261 C367.174537,156.627431 371.186648,154.138501 372.394327,152.482473 C377.53562,159.54124 381.085282,163.26425 383.043313,163.651504 L376.415213,165.96623 L383.043313,171.975137 L376.415213,174.129342 L381.638416,182.007328 L378.202793,182.629247 C371.672202,180.074856 364.972394,177.672839 358.116223,175.431199 Z" id="合并形状" fill="url(#linearGradient-2)" opacity="0.547667572"></path>
                    <polygon id="Path-7" fill="url(#linearGradient-3)" opacity="0.547667572" points="270 167.341176 270 88 286.263294 88 286.263294 105.471966 315.220588 105.471966 315.220588 165.310031"></polygon>
                    <path d="M293.472077,24 L364.261429,24 C373.442043,13.4131788 371.60724,7.47415665 358.75702,6.18293352 C349.972878,-1.06148827 341.610665,-1.06148827 333.670382,6.18293352 C328.820788,1.40708122 322.169864,-0.602030366 313.717608,0.155598757 C301.039224,1.29204244 297.973755,6.51201414 295.722916,9.91367594 C291.907639,10.9599478 290,13.2116866 290,16.6688924 C290,20.1260982 291.157359,22.5698007 293.472077,24 Z" id="Path-13" fill="url(#linearGradient-4)"></path>
                    <path d="M-2.16715534e-13,213.18883 C54.7335736,176.838175 132.544519,154.128411 218.871824,154.128411 C305.19913,154.128411 383.010075,176.838175 437.743649,213.18883 C383.010051,249.53946 305.199117,272.249216 218.871824,272.249216 C132.544532,272.249216 54.7335975,249.53946 2.51877528e-05,213.188814 Z" id="合并形状" fill="url(#linearGradient-5)"></path>
                    <polygon id="路径-12" fill="url(#linearGradient-6)" points="147.2339 240.929617 243.173356 319.473762 479.355048 247.207513 261.186574 199.82323 153.778954 228.368607"></polygon>
                    <path d="M80.8678806,179.205611 C98.4061914,209.999595 117.173761,228.000899 137.170588,233.209522 L122.357858,179.205611 L109.019234,170.810908 L80.8678806,179.205611 Z" id="路径-13" fill-opacity="0.8" fill="#DCDCDC"></path>
                    <g id="分组-3" transform="translate(32.135648, 0.000000)">
                        <path d="M15.7330131,27.0201326 C5.24433769,31.5898353 -1.13201494e-13,40.9423714 -1.13686838e-13,55.0777409 C-1.13686838e-13,69.2131104 10.0310997,77.4213607 30.0932991,79.702492 L72.4222305,68.576602 L66.3536747,28.7712062 L52.2374099,22.981316 L15.7330131,27.0201326 Z" id="路径-4" fill="#DCDCDC"></path>
                        <path d="M27.6612686,79.6101213 C37.6176833,78.2505735 42.9483934,75.1373097 43.6533988,70.27033 C44.3584043,65.4033504 42.8353065,61.157484 39.0841053,57.5327308 L62.0942446,54.657295 L69.7740901,72.4736894 L27.6612686,79.6101213 Z" id="路径-5" fill="#F0F0F0"></path>
                        <path d="M133.853671,203.51596 L211.288712,179.406872 L240.037676,168.87376 C249.052981,179.48134 249.570736,190.188211 241.590941,200.994373 L121.158068,240.77906 L133.853671,203.51596 Z" id="路径-3" fill="#E5E5E5"></path>
                        <path d="M133.853671,203.51596 C138.8583,221.904 136.139184,233.780092 125.696325,239.144238 C115.253466,244.508383 100.999212,236.671987 82.9335627,215.635048 C68.3361013,197.676547 59.0103469,177.173701 54.9562995,154.12651 C54.6660987,134.812185 56.8955162,121.060454 61.6445519,112.871317 C68.7681055,100.587612 64.8454335,76.30389 61.6445519,62.9539894 C59.5106309,54.0540557 50.8110107,43.2896591 35.5456914,30.6607997 C30.5945857,28.2336883 23.9903596,27.0201326 15.7330131,27.0201326 L145.8676,1.42108547e-14 C173.378984,8.6911076 187.650465,29.6757707 188.682044,62.9539894 C188.682044,86.7207684 186.564241,103.359878 182.328636,112.871317 C175.514871,131.738956 176.961597,147.161752 186.668815,159.139704 C194.601434,170.415528 202.808067,177.17125 211.288712,179.406872 L133.853671,203.51596 Z" id="路径-2" fill="#FFFFFF"></path>
                    </g>
                    <path d="M109.913419,57.3516677 L199.472177,37.2077339 C201.393154,38.633286 202.302227,41.7394478 202.199394,46.5262195 L111.584228,66.237551 C112.141165,64.0541873 111.584228,61.0922262 109.913419,57.3516677 Z M114.449547,78.0242028 L203.586867,60.8473189 C204.916239,62.0293418 205.396794,65.3785745 205.028532,70.8950172 L115.548713,87.8261713 C115.915102,86.2771921 115.548713,83.0098693 114.449547,78.0242028 Z M116.110744,101.36928 L207.159723,83.7243756 C208.304907,86.6600264 208.304907,89.6707823 207.159723,92.7566432 L116.110744,111.545514 C116.619715,109.815073 116.619715,106.422995 116.110744,101.36928 Z M114.449547,124.92077 C114.449547,124.92077 125.2257,122.657537 146.778007,118.13107 C146.164929,119.731463 146.164929,122.633846 146.778007,126.838218 L114.512162,133.243068 C113.697406,131.545895 113.676534,128.771796 114.449547,124.92077 Z" id="合并形状" fill="#F3F3F3"></path>
                    <g id="分组-5" transform="translate(167.443253, 59.631767)">
                        <path d="M48.0920293,67.3924999 L64.1584799,93.8583762 C67.6221302,95.3066961 70.1767888,94.1521521 71.8224558,90.3947442 L54.8027948,59.5496419 L48.0920293,67.3924999 Z" id="路径-14" fill="#C4C4C4"></path>
                        <g id="分组-4" filter="url(#filter-7)" stroke-width="8.57142857">
                            <ellipse id="椭圆形" stroke="#B7B7B7" cx="31.0714286" cy="35.4362416" rx="26.7857143" ry="31.1505273"></ellipse>
                            <ellipse id="椭圆形" stroke="url(#linearGradient-8)" cx="35.3571429" cy="35.4362416" rx="26.7857143" ry="31.1505273"></ellipse>
                        </g>
                    </g>
                </g>
            </g>
        </g>
    </g>
</svg>