<?xml version="1.0" encoding="UTF-8"?>
<svg width="148px" height="181px" viewBox="0 0 148 181" version="1.1" xmlns="http://www.w3.org/2000/svg" xmlns:xlink="http://www.w3.org/1999/xlink">
    <!-- Generator: Sketch 53 (72520) - https://sketchapp.com -->
    <title>分组 7</title>
    <desc>Created with Sketch.</desc>
    <defs>
        <linearGradient x1="15.1589765%" y1="13.078798%" x2="85.7453069%" y2="84.1999072%" id="linearGradient-1">
            <stop stop-color="#88E963" offset="0%"></stop>
            <stop stop-color="#64DC53" offset="100%"></stop>
        </linearGradient>
    </defs>
    <g id="确认订单" stroke="none" stroke-width="1" fill="none" fill-rule="evenodd">
        <g id="下单成功" transform="translate(-306.000000, -320.000000)">
            <g id="分组-9" transform="translate(40.000000, 320.000000)">
                <g id="分组-7" transform="translate(266.000000, 0.000000)">
                    <ellipse id="椭圆形" fill="#DEDEDE" cx="69.5" cy="175" rx="36.5" ry="6"></ellipse>
                    <g id="分组" transform="translate(0.000000, 13.000000)">
                        <circle id="椭圆形" fill="url(#linearGradient-1)" cx="69" cy="69" r="69"></circle>
                        <path d="M57.3847763,81.0208153 L90.7193001,47.6862915 C93.0624458,45.3431458 96.8614357,45.3431458 99.2045815,47.6862915 C101.547727,50.0294373 101.547727,53.8284271 99.2045815,56.1715729 L61.7279221,93.6482323 C60.5307873,94.845367 58.9536361,95.4308746 57.3847763,95.404755 C55.8159165,95.4308746 54.2387653,94.845367 53.0416306,93.6482323 L33.2426407,73.8492424 C30.8994949,71.5060967 30.8994949,67.7071068 33.2426407,65.363961 C35.5857864,63.0208153 39.3847763,63.0208153 41.7279221,65.363961 L57.3847763,81.0208153 Z" id="合并形状" fill="#FFFFFF"></path>
                    </g>
                    <path d="M112,0 C114.209139,-4.05812251e-16 116,1.790861 116,4 L116,14 C116,16.209139 114.209139,18 112,18 C109.790861,18 108,16.209139 108,14 L108,4 C108,1.790861 109.790861,4.05812251e-16 112,0 Z M135.140354,8.42240005 C136.832653,9.84240722 137.053388,12.3654296 135.633381,14.0577283 L129.205505,21.7181727 C127.785498,23.4104713 125.262476,23.6312072 123.570177,22.2112 C121.877878,20.7911928 121.657142,18.2681705 123.07715,16.5758718 L129.505026,8.91542738 C130.925033,7.22312873 133.448055,7.00239287 135.140354,8.42240005 Z M147.453079,29.7486656 C147.836692,31.9242428 146.384018,33.9988764 144.208441,34.3824893 L134.360363,36.1189711 C132.184786,36.5025841 130.110153,35.04991 129.72654,32.8743328 C129.342927,30.6987556 130.795601,28.624122 132.971178,28.2405091 L142.819255,26.5040273 C144.994833,26.1204143 147.069466,27.5730884 147.453079,29.7486656 Z" id="合并形状" fill="#74E25B"></path>
                </g>
            </g>
        </g>
    </g>
</svg>