<svg xmlns="http://www.w3.org/2000/svg" width="30" height="30" viewBox="0 0 30 30">
  <path id="电话" d="M26.625.625h-22a4.012,4.012,0,0,0-4,4v22a4.012,4.012,0,0,0,4,4h22a4.012,4.012,0,0,0,4-4v-22a4.012,4.012,0,0,0-4-4Zm-4,23.267c-1.267,1.283-6,.05-10.667-4.6-4.683-4.667-5.883-9.4-4.583-10.667,1.1-1.1,2.45-3.033,4.45-.517s1.033,3.2-.133,4.333c-.8.783.883,2.783,2.6,4.517,1.75,1.717,3.733,3.4,4.517,2.6,1.15-1.15,1.85-2.117,4.317-.133,2.517,2.033.6,3.4-.5,4.467Z" transform="translate(-0.625 -0.625)" fill="#12b7f5"/>
</svg>
