<?xml version="1.0" encoding="UTF-8"?>
<svg width="38px" height="80px" viewBox="0 0 38 80" version="1.1" xmlns="http://www.w3.org/2000/svg" xmlns:xlink="http://www.w3.org/1999/xlink">
    <!-- Generator: Sketch 53 (72520) - https://sketchapp.com -->
    <title>分组 13</title>
    <desc>Created with Sketch.</desc>
    <g id="订单详情" stroke="none" stroke-width="1" fill="none" fill-rule="evenodd">
        <g id="订单详情-待发货" transform="translate(-632.000000, -116.000000)">
            <g id="分组-22" transform="translate(0.000000, 116.000000)">
                <g id="分组-13" transform="translate(632.000000, 0.000000)">
                    <g id="shouji-2" transform="translate(0.000000, 34.000000)" fill-rule="nonzero">
                        <path d="M9.4926944,0.0218444976 L28.4653802,0.0218444976 C33.7046915,0.0218444976 37.9517504,4.30837321 37.9517504,9.59600718 L37.9517504,36.4037177 C37.9517504,41.6913517 33.7046915,45.9778804 28.4653802,45.9778804 L9.4926944,45.9778804 C4.25338307,45.9778804 0.00632424677,41.6913517 0.00632424677,36.4037177 L0.00632424677,9.59600718 C0.0062697274,4.30842823 4.25332855,0.0218444976 9.4926944,0.0218444976 Z" id="路径" fill="#FFA820"></path>
                        <path d="M1.25787088,4.83990431 C3.25775036,2.88061244 5.59712195,1.27248325 8.1784505,0.11373445 C5.21352367,0.528504785 2.68660545,2.3255311 1.25787088,4.83990431 Z M0.177842181,38.2217081 C1.01940316,42.6398541 4.8693429,45.9779354 9.4926944,45.9779354 L15.059122,45.9779354 C9.17746341,45.2850191 3.95020086,42.4302129 0.177842181,38.2217081 Z M20.6435409,45.9779354 L28.4653802,45.9779354 C33.7046915,45.9779354 37.9517504,41.6914067 37.9517504,36.4037727 L37.9517504,35.0111172 C34.1942755,40.9550766 27.9195323,45.1207177 20.6435409,45.9779354 L20.6435409,45.9779354 Z M37.9416643,9.16340909 C37.7174261,4.07661244 33.5609785,0.0218444976 28.4653802,0.0218444976 L27.3170933,0.0218444976 C31.697561,1.93788756 35.3957733,5.1430311 37.9416643,9.16340909 L37.9416643,9.16340909 Z" id="形状" fill="#F9AE14"></path>
                        <path d="M37.9517504,35.0110622 L37.9517504,9.59600718 C37.9517504,9.45096411 37.9479885,9.30685646 37.9416643,9.16335407 C35.3957733,5.1430311 31.697561,1.93788756 27.3170387,0.0218444976 L9.4926944,0.0218444976 C9.04667145,0.0218444976 8.60806313,0.0536483254 8.17839598,0.11373445 C5.59712195,1.27248325 3.25775036,2.88061244 1.25781636,4.83990431 C0.55102726,6.08377512 0.113509326,7.50311722 0.0239885222,9.0171555 C3.74602582,3.69194019 9.88883214,0.213547847 16.836835,0.213547847 C28.1924017,0.213547847 37.3978881,9.50422727 37.3978881,20.9648852 C37.3978881,32.4255431 28.1924562,41.7162775 16.8368895,41.7162775 C9.87781923,41.7162775 3.72650789,38.2267703 0.0062697274,32.8871938 L0.0062697274,36.4037727 C0.0062697274,37.025488 0.0656958393,37.6330622 0.177842181,38.2217081 C3.95020086,42.4302129 9.17751793,45.2849641 15.059122,45.9779354 L20.6435954,45.9779354 C27.9195323,45.1207177 34.1942755,40.9550766 37.9517504,35.0110622 Z" id="路径" fill="#FEB133"></path>
                        <path d="M16.8368895,41.7162775 C28.1924562,41.7162775 37.3979426,32.4255981 37.3979426,20.9649402 C37.3979426,9.5042823 28.1924562,0.213547847 16.8368895,0.213547847 C9.88888666,0.213547847 3.74608034,3.69188517 0.0240430416,9.0171555 C0.0124105481,9.20990284 0.00648346869,9.40295777 0.0062697274,9.5960622 L0.0062697274,12.7607632 C2.69587374,6.64452392 8.76507891,2.37813397 15.8224476,2.37813397 C25.3749498,2.37813397 33.1187719,10.193622 33.1187719,19.8345287 C33.1187719,29.4754354 25.3749498,37.2909785 15.8224476,37.2909785 C8.76507891,37.2909785 2.69587374,33.0245885 0.0062697274,26.9084043 L0.0062697274,32.8871938 C3.72650789,38.2268254 9.87781923,41.7162775 16.8368895,41.7162775 Z" id="路径" fill="#FEB633"></path>
                        <path d="M15.8224476,37.2909785 C25.3749498,37.2909785 33.1187719,29.4754904 33.1187719,19.8345837 C33.1187719,10.193677 25.3749498,2.37813397 15.8224476,2.37813397 C8.76507891,2.37813397 2.69587374,6.64452392 0.0062697274,12.7607081 L0.0062697274,26.9083493 C2.69587374,33.0245885 8.76507891,37.2909785 15.8224476,37.2909785 Z M14.8080057,4.54277512 C22.5574433,4.54277512 28.8396011,10.8830718 28.8396011,18.7042273 C28.8396011,26.5253828 22.5574433,32.8656244 14.8080057,32.8656244 C7.05856815,32.8656244 0.77641033,26.5253278 0.77641033,18.7041722 C0.77641033,10.8830167 7.05856815,4.54277512 14.8080057,4.54277512 Z" id="形状" fill="#FFBC34"></path>
                        <path d="M14.8080057,32.8656244 C22.5574433,32.8656244 28.8396011,26.5253278 28.8396011,18.7041722 C28.8396011,10.8830167 22.5574433,4.54277512 14.8080057,4.54277512 C7.05856815,4.54277512 0.77641033,10.8830718 0.77641033,18.7041722 C0.77641033,26.5252727 7.05856815,32.8656244 14.8080057,32.8656244 Z M13.7935638,6.70736124 C19.7399369,6.70736124 24.5603759,11.5724665 24.5603759,17.5738158 C24.5603759,23.5751651 19.7398824,28.4402703 13.7935638,28.4402703 C7.84724534,28.4402703 3.02675179,23.5751651 3.02675179,17.5738158 C3.02675179,11.5724665 7.84724534,6.70736124 13.7935638,6.70736124 Z" id="形状" fill="#FFC134"></path>
                        <path d="M13.7935638,28.4402703 C19.7399369,28.4402703 24.5603759,23.5751651 24.5603759,17.5738158 C24.5603759,11.5724665 19.7398824,6.70736124 13.7935638,6.70736124 C7.84724534,6.70736124 3.02675179,11.5724665 3.02675179,17.5738158 C3.02675179,23.5751651 7.84724534,28.4402703 13.7935638,28.4402703 Z M12.779122,8.87194737 C16.9223759,8.87194737 20.2812052,12.2618062 20.2812052,16.4434593 C20.2812052,20.6251124 16.9224304,24.0149713 12.779122,24.0149713 C8.63581349,24.0149713 5.27703874,20.6251124 5.27703874,16.4434593 C5.27703874,12.2618062 8.63586801,8.87194737 12.779122,8.87194737 L12.779122,8.87194737 Z" id="形状" fill="#FFC634"></path>
                        <path d="M5.27703874,16.4434593 C5.2770387,19.1485 6.70692767,21.6480608 9.02808031,23.0005811 C11.349233,24.3531015 14.2090109,24.3531015 16.5301636,23.0005811 C18.8513162,21.6480608 20.2812052,19.1485 20.2812052,16.4434593 C20.2812052,12.2618287 16.9224081,8.87194737 12.779122,8.87194737 C8.6358358,8.87194737 5.27703874,12.2618287 5.27703874,16.4434593 L5.27703874,16.4434593 Z" id="路径" fill="#FFCB34"></path>
                        <path d="M28.4653802,1.01227512 C30.7372023,1.01227512 32.8730531,1.90514833 34.4794118,3.52642823 C36.0857704,5.14765311 36.9704562,7.30327033 36.9704562,9.5960622 L36.9704562,36.4037727 C36.9704562,38.6965646 36.0857704,40.8521268 34.4794118,42.4734067 C32.8730531,44.0946866 30.7372023,44.9875598 28.4653802,44.9875598 L9.4926944,44.9875598 C7.22087231,44.9875598 5.08502152,44.0946866 3.47866284,42.4734067 C1.87230416,40.8521818 0.987618364,38.6965646 0.987618364,36.4037727 L0.987618364,9.59600718 C0.987618364,7.30321531 1.87230416,5.14765311 3.47866284,3.52637321 C5.08502152,1.9050933 7.22087231,1.0122201 9.4926944,1.0122201 L28.4653802,1.0122201 L28.4653802,1.01227512 Z M28.4653802,0.0218444976 L9.4926944,0.0218444976 C4.25338307,0.0218444976 0.00632424677,4.30842823 0.00632424677,9.59600718 L0.00632424677,36.4037177 C0.00632424677,41.6913517 4.25338307,45.9778804 9.4926944,45.9778804 L28.4653802,45.9778804 C33.7046915,45.9778804 37.9517504,41.6912967 37.9517504,36.4037177 L37.9517504,9.59600718 C37.9517504,4.30842823 33.7046915,0.0218444976 28.4653802,0.0218444976 Z" id="形状" fill="#FFA820"></path>
                        <path d="M27.5167432,7.3841555 L10.4413314,7.3841555 C8.86953802,7.3841555 7.59542037,8.67006459 7.59542037,10.2562943 L7.59542037,26.5325359 C7.59542037,28.1187105 8.86953802,29.4046746 10.4413314,29.4046746 L27.5167432,29.4046746 C29.0885366,29.4046746 30.3626542,28.1186555 30.3626542,26.5325359 L30.3626542,10.2562943 C30.3626542,8.67006459 29.0885366,7.3841555 27.5167432,7.3841555 Z M18.9789555,32.2769785 C16.8833945,32.2769785 15.1845165,33.9915239 15.1845165,36.1066435 C15.1845165,38.2216531 16.8834491,39.9364187 18.9789555,39.9364187 C21.074571,39.9364187 22.7735036,38.2217081 22.7735036,36.1066435 C22.7735581,33.9914689 21.0746255,32.2769785 18.9789555,32.2769785 Z" id="形状" fill="#FFE3B4"></path>
                        <path d="M4.37986801,16.6839689 C3.83789096,16.6839689 3.39851937,16.2405311 3.39851937,15.6935383 L3.39851937,8.8639689 C3.39851937,8.31697608 3.83789096,7.87353828 4.37986801,7.87353828 C4.92184505,7.87353828 5.36121664,8.31697608 5.36121664,8.8639689 L5.36121664,15.6935933 C5.36121664,16.2405311 4.92184505,16.6839689 4.37986801,16.6839689 Z M4.37986801,20.5139641 C3.83789096,20.5139641 3.39851937,20.0705263 3.39851937,19.5235335 L3.39851937,18.9432512 C3.39851937,18.3962584 3.83789096,17.9528206 4.37986801,17.9528206 C4.92184505,17.9528206 5.36121664,18.3962584 5.36121664,18.9432512 L5.36121664,19.5235335 C5.36121664,20.0705263 4.92184505,20.5139641 4.37986801,20.5139641 Z" id="形状" fill="#FFFFFF"></path>
                    </g>
                    <rect id="矩形" fill="#FFA820" x="18" y="0" width="2" height="34"></rect>
                </g>
            </g>
        </g>
    </g>
</svg>