<?xml version="1.0" encoding="UTF-8"?>
<svg width="40px" height="65px" viewBox="0 0 40 65" version="1.1" xmlns="http://www.w3.org/2000/svg" xmlns:xlink="http://www.w3.org/1999/xlink">
    <!-- Generator: Sketch 53 (72520) - https://sketchapp.com -->
    <title>标签-电话</title>
    <desc>Created with Sketch.</desc>
    <g id="详情页" stroke="none" stroke-width="1" fill="none" fill-rule="evenodd">
        <g id="特色体验课" transform="translate(-168.000000, -5868.000000)">
            <g id="标签栏_2" transform="translate(0.000000, 5846.000000)">
                <g id="分组">
                    <g id="分组-15" transform="translate(40.000000, 20.000000)">
                        <g id="标签-电话" transform="translate(126.000000, 0.000000)">
                            <g id="标签-首页-copy-6">
                                <text id="电话" font-family="PingFangSC-Medium, PingFang SC" font-size="20" font-weight="400" fill="#F2B036">
                                    <tspan x="2" y="65">电话</tspan>
                                </text>
                                <g id="电话">
                                    <rect id="矩形" fill="#000000" opacity="0" x="0" y="0" width="44" height="44"></rect>
                                    <g id="分组" transform="translate(2.500000, 2.500000)">
                                        <path d="M14.7300306,6.19972354 C12.7647911,3.1406219 10.4851227,1.61107108 7.89102539,1.61107108 C5.29692803,1.61107108 3.47741475,3.40644769 2.43248553,6.99720092 L2.43248553,14.8797447 L4.24792775,20.5974436 L9.25256363,28.5774113 L13.9873171,31.9598894 L19.8792719,35.3445117 L28.3983984,37.1001824 L31.5146958,37.1001824 C34.0633878,36.182546 35.5806518,34.7761897 36.0664878,32.8811133 C36.5523238,30.9860369 36.2687206,28.945129 35.2156782,26.7583897 L30.1621582,24.3176365 L25.8599943,24.9229032 L23.0819824,27.7280859 L22.3865332,29.4020917 L16.910918,26.1184034 L12.4567905,20.5974436 L10.0779599,16.6553614 L10.5146396,14.8664648 L13.3484046,13.2283887 L14.7300306,9.73074435 L14.7300306,6.19972354 Z" id="路径-4" fill="#E1FDEC"></path>
                                        <path d="M20.3672168,2.25621094 L21.2888965,5.56168945 C24.8583105,4.38864258 28.9430273,5.22234375 31.7834766,8.06279297 C34.4144531,10.6937695 35.1140918,14.8371387 34.3013379,18.205459 C35.143418,18.5364258 36.4882324,18.9469922 37.5314062,19.3743164 C38.7170215,14.719834 37.9000781,9.2484082 34.2510645,5.59520508 C30.4889355,1.84145508 25.1054883,0.768955078 20.3672168,2.25621094 L20.3672168,2.25621094 Z" id="路径" fill="#F2B036"></path>
                                        <path d="M19.675051,5.10577796 C20.1079279,5.53863977 20.7388517,5.70768349 21.3301594,5.54923199 C21.9214672,5.39078049 22.3833253,4.92890631 22.5417561,4.33759301 C22.700187,3.7462797 22.5311212,3.11536181 22.0982443,2.68250003 C21.6653674,2.24963822 21.0344436,2.0805945 20.4431358,2.239046 C19.851828,2.3974975 19.38997,2.85937167 19.2315392,3.45068498 C19.0731083,4.04199829 19.2421741,4.67291617 19.675051,5.10577796 Z" id="路径" fill="#F2B036"></path>
                                        <path d="M28.589475,17.8050078 C29.0223402,18.2379284 29.6532931,18.4070167 30.2446373,18.2485727 C30.8359815,18.0901286 31.2978676,17.6282264 31.456291,17.0368767 C31.6147144,16.4455269 31.4456041,15.8145799 31.0126683,15.3817299 C30.5798032,14.9488093 29.9488503,14.779721 29.3575061,14.9381651 C28.7661619,15.0966091 28.3042758,15.5585113 28.1458524,16.149861 C27.987429,16.7412108 28.1565393,17.3721578 28.589475,17.8050078 L28.589475,17.8050078 Z" id="路径" fill="#F2B036"></path>
                                        <path d="M22.2143095,11.4259839 C22.6471864,11.8588457 23.2781102,12.0278894 23.869418,11.8694379 C24.4607257,11.7109864 24.9225838,11.2491123 25.0810146,10.657799 C25.2394455,10.0664857 25.0703797,9.43556779 24.6375028,9.00270599 C23.9683331,8.33355964 22.8834136,8.33357858 22.2142672,9.00274831 C21.5451209,9.67191803 21.5451398,10.7568376 22.2143095,11.4259839 Z" id="路径" fill="#F2B036"></path>
                                        <path d="M34.6647691,20.0954584 C35.0976342,20.528379 35.7285871,20.6974673 36.3199313,20.5390232 C36.9112755,20.3805792 37.3731616,19.918677 37.531585,19.3273272 C37.6900084,18.7359775 37.5208981,18.1050305 37.0879624,17.6721805 C36.6550973,17.2392599 36.0241444,17.0701716 35.4328002,17.2286156 C34.841456,17.3870597 34.3795699,17.8489619 34.2211465,18.4403116 C34.0627231,19.0316614 34.2318334,19.6626083 34.6647691,20.0954584 L34.6647691,20.0954584 Z" id="路径" fill="#F2B036"></path>
                                        <path d="M23.0819824,8.52782227 L23.660127,11.9087109 C24.8331738,11.7537012 26.064873,12.130752 26.9656055,13.0314844 C27.8495801,13.915459 28.2266309,15.117832 28.0967578,16.2741211 L30.7780078,16.9988965 C30.7947656,16.9779492 30.8157129,16.9528125 30.8366602,16.9318652 C31.0251855,16.7433398 31.2891211,16.6763086 31.5111621,16.7391504 C31.7834766,14.5522559 31.0796484,12.2690039 29.4038672,10.5932227 C27.7029492,8.89649414 25.2940137,8.22618164 23.0819824,8.52782227 Z M29.7976758,35.3487012 C15.4823145,35.3487012 3.8775293,23.743916 3.8775293,9.42855469 C3.8775293,8.87135742 3.89428711,8.31834961 3.93199219,7.7737207 L0.450556641,7.7737207 C0.421230469,8.32253906 0.404472656,8.87554688 0.404472656,9.42855469 C0.404472656,25.6626855 13.5677344,38.7798633 29.8018652,38.7798633 C29.9233594,38.7798633 30.0448535,38.7714844 30.1621582,38.7714844 L30.1621582,35.3487012 L29.7976758,35.3487012 L29.7976758,35.3487012 Z" id="形状" fill="#F2B036" fill-rule="nonzero"></path>
                                        <path d="M7.89102539,14.941875 C7.89102537,15.5540447 8.21761402,16.1197129 8.74776854,16.4257977 C9.27792306,16.7318826 9.93110038,16.7318826 10.4612549,16.4257977 C10.9914094,16.1197129 11.3179981,15.5540447 11.317998,14.941875 C11.317998,13.9955426 10.5508441,13.2283887 9.60451172,13.2283887 C8.65817935,13.2283887 7.89102539,13.9955426 7.89102539,14.941875 L7.89102539,14.941875 Z" id="路径" fill="#F2B036"></path>
                                        <path d="M21.3224121,29.4415723 C21.3224121,30.053742 21.6490007,30.6194101 22.1791553,30.925495 C22.7093098,31.2315799 23.3624871,31.2315799 23.8926416,30.925495 C24.4227961,30.6194101 24.7493848,30.053742 24.7493848,29.4415723 C24.7493848,28.8294025 24.4227961,28.2637344 23.8926416,27.9576495 C23.3624871,27.6515646 22.7093098,27.6515646 22.1791553,27.9576495 C21.6490007,28.2637344 21.3224121,28.8294025 21.3224121,29.4415723 Z" id="路径" fill="#F2B036"></path>
                                        <path d="M34.0415918,32.4077051 C34.0415918,33.3540374 34.8087458,34.1211914 35.7550781,34.1211914 C36.7014105,34.1211914 37.4685645,33.3540374 37.4685645,32.4077051 C37.4685645,31.7955353 37.1419758,31.2298672 36.6118213,30.9237823 C36.0816668,30.6176974 35.4284895,30.6176974 34.8983349,30.9237823 C34.3681804,31.2298672 34.0415918,31.7955353 34.0415918,32.4077051 L34.0415918,32.4077051 Z" id="路径" fill="#F2B036"></path>
                                        <path d="M8.65769531,0.220136719 C4.09957031,0.220136719 0.404472656,3.91523438 0.404472656,8.47335938 C0.404472656,9.26097656 0.513398438,10.023457 0.722871094,10.744043 L3.84401367,8.52363281 L3.84401367,8.47335938 C3.84401367,5.81305664 6.00158203,3.65548828 8.66188477,3.65548828 C11.3221875,3.65548828 13.4797559,5.81305664 13.4797559,8.47335938 C13.4797559,10.8906738 11.6992383,12.8932324 9.3740918,13.2367676 L9.32381836,13.3875879 L8.75405273,14.0285742 L8.97609375,16.7182031 C13.3875879,16.550625 16.910918,12.9225586 16.910918,8.47335938 C16.910918,3.91523438 13.2158203,0.220136719 8.65769531,0.220136719 Z" id="路径" fill="#F2B036"></path>
                                        <path d="M22.311123,27.229541 C17.0994434,24.9337207 13.0691895,20.4216797 11.4394922,14.8664648 L8.54876953,14.9209277 L8.22618164,15.302168 L7.96224609,15.432041 C9.94804687,22.7007422 15.3901465,28.5115137 22.3865332,31.029375 L22.311123,27.229541 Z M31.8253711,37.057998 C31.8253711,37.8916992 31.0587012,38.7714844 30.1118848,38.7714844 C29.1650684,38.7714844 28.3983984,38.0048145 28.3983984,37.057998 C28.3983984,36.1111816 29.1650684,35.3445117 30.1118848,35.3445117 C31.0587012,35.3445117 31.8253711,36.1111816 31.8253711,37.057998 Z" id="形状" fill="#F2B036" fill-rule="nonzero"></path>
                                        <path d="M29.4792773,22.319502 C25.1850879,22.319502 21.6617578,25.5956543 21.2637598,29.7851074 L24.7410059,29.7013184 C25.1515723,27.4557715 27.1164258,25.759043 29.4792773,25.759043 C32.1395801,25.759043 34.2971484,27.9166113 34.2971484,30.5769141 C34.2971484,31.0461328 34.2301172,31.5027832 34.1044336,31.9301074 L35.2481543,32.0934961 L37.4057227,32.8811133 C37.6193848,32.147959 37.7325,31.3770996 37.7325,30.5769141 C37.7325,26.0145996 34.0374023,22.319502 29.4792773,22.319502 L29.4792773,22.319502 Z" id="路径" fill="#F2B036"></path>
                                    </g>
                                </g>
                            </g>
                        </g>
                    </g>
                </g>
            </g>
        </g>
    </g>
</svg>