<?xml version="1.0" encoding="UTF-8"?>
<svg width="13px" height="11px" viewBox="0 0 13 11" version="1.1" xmlns="http://www.w3.org/2000/svg" xmlns:xlink="http://www.w3.org/1999/xlink">
    <!-- Generator: Sketch 55.1 (78136) - https://sketchapp.com -->
    <title>Group</title>
    <desc>Created with Sketch.</desc>
    <g id="首页-固定组件-联系我们" stroke="none" stroke-width="1" fill="none" fill-rule="evenodd">
        <g transform="translate(-21.000000, -476.000000)" fill="#BEC0C9" id="My-Trips">
            <g transform="translate(0.000000, 448.000000)">
                <g id="编组-2">
                    <g transform="translate(21.000000, 20.000000)">
                        <g id="Group" transform="translate(0.000000, 8.000000)">
                            <rect id="Rectangle-5" x="0" y="0" width="10" height="1.83333333" rx="0.916666667"></rect>
                            <path d="M0.916666667,4.58333333 L12.0833333,4.58333333 C12.5895944,4.58333333 13,4.99373898 13,5.5 C13,6.00626102 12.5895944,6.41666667 12.0833333,6.41666667 L0.916666667,6.41666667 C0.410405646,6.41666667 6.19990939e-17,6.00626102 0,5.5 C-6.19990939e-17,4.99373898 0.410405646,4.58333333 0.916666667,4.58333333 Z" id="Rectangle-5-Copy"></path>
                            <path d="M0.916666667,9.16666667 L5.58333333,9.16666667 C6.08959435,9.16666667 6.5,9.57707231 6.5,10.0833333 C6.5,10.5895944 6.08959435,11 5.58333333,11 L0.916666667,11 C0.410405646,11 6.19990939e-17,10.5895944 0,10.0833333 C-6.19990939e-17,9.57707231 0.410405646,9.16666667 0.916666667,9.16666667 Z" id="Rectangle-5-Copy-2"></path>
                        </g>
                    </g>
                </g>
            </g>
        </g>
    </g>
</svg>