<?xml version="1.0" encoding="UTF-8"?>
<svg width="20px" height="22px" viewBox="0 0 20 22" version="1.1" xmlns="http://www.w3.org/2000/svg" xmlns:xlink="http://www.w3.org/1999/xlink">
    <!-- Generator: Sketch 53 (72520) - https://sketchapp.com -->
    <title>iconbottom02</title>
    <desc>Created with Sketch.</desc>
    <g id="详情页" stroke="none" stroke-width="1" fill="none" fill-rule="evenodd">
        <g id="预约礼" transform="translate(-40.000000, -1161.000000)" fill="#64C07A" fill-rule="nonzero" stroke="#449E58">
            <g id="预约信息" transform="translate(0.000000, 893.000000)">
                <g id="分组-18" transform="translate(40.000000, 261.000000)">
                    <g id="iconbottom02" transform="translate(0.000000, 7.000000)">
                        <path d="M10.5914021,0.662265136 C10.272255,0.537703218 10.1288982,0.5 9.94446855,0.5 C9.81238908,0.5 9.6787881,0.536099137 9.38849531,0.6484591 C9.04487537,0.980474649 8.55258561,1.40227107 7.93884857,1.83171393 C7.11382473,2.40899797 6.29527539,2.82706371 5.50564995,3.01665184 C4.4891549,3.25635824 3.30818127,3.36 2.28112798,3.36 C1.75357918,3.36 1.75357918,3.36 1.61475054,3.36 C1.58698482,3.36 1.58698482,3.36 1.50368764,3.36 C1.20386445,3.36 0.957851925,3.44434319 0.800439402,3.60024923 C0.614664381,3.78424632 0.504338395,4.04252118 0.504338395,4.29 L0.504338395,7.92 C0.504338395,13.687501 2.25582044,17.4276184 5.16890608,19.6046929 C6.14250386,20.3323045 7.1836362,20.833528 8.24486665,21.1575553 C8.68744641,21.2926889 9.40846959,21.4441244 9.72234273,21.5018983 L9.72234273,21.5 C9.79869848,21.5 9.79869848,21.5 9.86117137,21.5 C9.92364425,21.5 9.92364425,21.5 10,21.5 C10.0763557,21.5 10.0763557,21.5 10.1388286,21.5 C10.2013015,21.5 10.2013015,21.5 10.2776573,21.5 L10.2776573,21.50195 C10.591839,21.4440008 11.3126466,21.2922517 11.754741,21.1568696 C12.8157926,20.831945 13.85683,20.3290496 14.8303848,19.5987784 C17.7437782,17.4134189 19.4956616,13.6574896 19.4956616,7.865 L19.4956616,4.29 C19.4956616,4.08093953 19.361959,3.81609338 19.1440291,3.60024923 C18.9866166,3.44434319 18.7406041,3.36 18.4407809,3.36 C18.4060738,3.36 18.4060738,3.36 18.3852495,3.36 C18.3644252,3.36 18.3644252,3.36 18.329718,3.36 C18.1908894,3.36 18.1908894,3.36 17.6633406,3.36 C16.6560064,3.36 15.5144981,3.25721966 14.5016353,3.01831245 C14.2067434,2.95340807 13.8992567,2.84441074 13.5780828,2.69568858 C13.0955641,2.47225444 12.593986,2.16580587 12.055902,1.78209311 C11.6584243,1.49864803 10.781609,0.806526975 10.5914021,0.662265136 Z M10.1431343,21.5246199 L10.1415134,21.5188921 C10.1154888,21.5262565 10.1179723,21.5278534 10.1431342,21.5246199 Z M7.49149457,14.7243251 L4.15053674,11.5752492 C3.62418508,11.0539349 3.62418508,10.2056971 4.15053674,9.59975077 C4.67422971,9.08106971 5.57828735,9.08106971 6.17650202,9.58966091 L8.77823637,12.0206373 L14.396584,6.76883098 C14.9719385,6.28038967 15.8011634,6.28038967 16.3765179,6.76883098 C16.9957421,7.29451498 16.9957421,8.18494063 16.4047778,8.77024923 L16.3952287,8.7794592 L9.96312921,14.8202492 C9.87983203,14.9027492 9.87983203,14.9027492 9.79653485,14.9852492 C9.53869701,15.2406195 9.13562968,15.405 8.77830803,15.405 C8.44321538,15.405 8.06522833,15.2594118 7.70284574,14.9835534 L7.70454975,14.9852492 C7.59767503,14.8793973 7.5305769,14.8069873 7.49149457,14.7243251 Z" id="形状"></path>
                    </g>
                </g>
            </g>
        </g>
    </g>
</svg>