<svg xmlns="http://www.w3.org/2000/svg" xmlns:xlink="http://www.w3.org/1999/xlink" width="10" height="11" viewBox="0 0 10 11">
  <defs>
    <clipPath id="clip-path">
      <rect id="矩形_31" data-name="矩形 31" width="10" height="11" transform="translate(17 485)" fill="#bebebe"/>
    </clipPath>
  </defs>
  <g id="安全标识" transform="translate(-17 -485)" clip-path="url(#clip-path)">
    <g id="iconbottom02" transform="translate(17 485)">
      <g id="形状" transform="translate(0.002)">
        <path id="路径_4" data-name="路径 4" d="M5.111,10.75H4.885l-.06-.01A5,5,0,0,1,2.319,9.591C.946,8.409.25,6.515.25,3.96V2.145A.5.5,0,0,1,.4,1.8.5.5,0,0,1,.75,1.68h.389a7.664,7.664,0,0,0,1.612-.172A4.881,4.881,0,0,0,4.692.324.86.86,0,0,1,4.97.25.888.888,0,0,1,5.3.332c.048.034.123.094.209.161A4.964,4.964,0,0,0,7.247,1.509,7.351,7.351,0,0,0,8.83,1.68h.389a.5.5,0,0,1,.351.12.542.542,0,0,1,.176.345V3.933c0,2.566-.7,4.469-2.07,5.655A4.985,4.985,0,0,1,5.17,10.74ZM3.756,7.374a.49.49,0,0,0,.092.117l.013.013.015.011a.9.9,0,0,0,.511.188.76.76,0,0,0,.509-.21l.042-.042.039-.039L8.2,4.39l0,0,0,0a.7.7,0,0,0,.219-.529.647.647,0,0,0-.234-.472.761.761,0,0,0-.99,0l0,0,0,0-2.8,2.618-1.3-1.216,0,0,0,0A.781.781,0,0,0,2.572,4.6a.7.7,0,0,0-.5.2l-.007.007-.006.007a.707.707,0,0,0,.013.974l0,0,0,0Z" fill="#64c07a"/>
        <path id="路径_5" data-name="路径 5" d="M5.089,10.5l.041-.007A4.739,4.739,0,0,0,7.512,9.4C8.829,8.262,9.5,6.423,9.5,3.933V2.146a.332.332,0,0,0-.1-.168.28.28,0,0,0-.175-.047H8.83a7.614,7.614,0,0,1-1.639-.178A5.159,5.159,0,0,1,5.349.689c-.064-.051-.13-.1-.174-.136A.608.608,0,0,0,4.97.5a.566.566,0,0,0-.142.04,5.081,5.081,0,0,1-2.02,1.212,7.929,7.929,0,0,1-1.67.179H.75a.28.28,0,0,0-.176.048A.252.252,0,0,0,.5,2.145V3.96c0,2.478.667,4.309,1.982,5.442a4.752,4.752,0,0,0,2.383,1.091l.042.007h.182M3.56,7.532,1.906,5.974l0,0,0,0a.955.955,0,0,1-.026-1.315l.013-.015L1.9,4.623a.949.949,0,0,1,.675-.269,1.031,1.031,0,0,1,.667.243l.009.008.009.008,1.13,1.056L7.017,3.21,7.026,3.2l.009-.008a1.011,1.011,0,0,1,1.313,0,.9.9,0,0,1,.321.653.952.952,0,0,1-.293.716l0,0,0,0L5.151,7.592l-.036.036-.043.043a1.009,1.009,0,0,1-.685.282,1.145,1.145,0,0,1-.661-.237L3.7,7.693l-.026-.026a.775.775,0,0,1-.112-.135M5.137,11H4.859c-.011,0-.036-.007-.074-.013A5.245,5.245,0,0,1,2.156,9.781C.725,8.549,0,6.591,0,3.96V2.145a.751.751,0,0,1,.222-.522A.739.739,0,0,1,.75,1.43h.389a7.4,7.4,0,0,0,1.555-.165A4.809,4.809,0,0,0,4.554.11,1.184,1.184,0,0,1,4.97,0a1.18,1.18,0,0,1,.443.109c.055.036.14.1.246.188A4.775,4.775,0,0,0,7.3,1.265,7.086,7.086,0,0,0,8.83,1.43h.389a.739.739,0,0,1,.527.193.776.776,0,0,1,.25.522V3.933c0,2.642-.726,4.608-2.157,5.845a5.232,5.232,0,0,1-2.629,1.21c-.038.006-.062.01-.073.013ZM2.572,4.854a.452.452,0,0,0-.323.124.46.46,0,0,0,0,.633L3.97,7.233c0,.027.026.053.054.081a.658.658,0,0,0,.362.139.513.513,0,0,0,.333-.137l.042-.042L4.8,7.233,8.025,4.208a.458.458,0,0,0,.146-.342.4.4,0,0,0-.146-.291.511.511,0,0,0-.666,0L4.387,6.353,2.916,4.978A.53.53,0,0,0,2.572,4.854Z" fill="#449e58"/>
      </g>
    </g>
  </g>
</svg>
