<svg xmlns="http://www.w3.org/2000/svg" xmlns:xlink="http://www.w3.org/1999/xlink" width="17.455" height="18" viewBox="0 0 17.455 18">
  <defs>
    <linearGradient id="linear-gradient" x1="0.299" y1="0.33" x2="1.035" y2="1" gradientUnits="objectBoundingBox">
      <stop offset="0" stop-color="#fd780a"/>
      <stop offset="1" stop-color="#fe4332"/>
    </linearGradient>
  </defs>
  <path id="校区展示" d="M19.678,12.353H17.071a.442.442,0,0,1-.442-.442V9.454a1.328,1.328,0,0,0-.488-1.032l-3.744-3V4.573q-.128-.073-.261-.137v.957L8.408,8.424A1.328,1.328,0,0,0,7.92,9.452v2.2c.1.067.2.131.3.193q-.152-.089-.3-.191v.271a.442.442,0,0,1-.442.442H4.872a1.328,1.328,0,0,0-1.32,1.318v5.335a1.328,1.328,0,0,0,1.328,1.328H9.667a.884.884,0,0,0,.886-.881v-1.4a1.672,1.672,0,0,1,1.672-1.672,1.769,1.769,0,0,1,1.769,1.769v1.3a.884.884,0,0,0,.883.884h4.8a1.328,1.328,0,0,0,1.328-1.328V13.681a1.328,1.328,0,0,0-1.328-1.328Zm-7.4-3.861h0a1.22,1.22,0,1,1-1.22,1.22A1.22,1.22,0,0,1,12.278,8.492Zm.132-4.181c.339.137,1.22.451,1.557.176a2,2,0,0,1,1.347-.078.22.22,0,0,0,.244-.244A6.683,6.683,0,0,1,15.627,2.7a.219.219,0,0,0-.125-.232,2.643,2.643,0,0,0-1.842.093,2.092,2.092,0,0,1-1.147.049.217.217,0,0,0-.171.045.129.129,0,0,0-.068-.023.132.132,0,0,0-.132.129V4.424c.088.042.176.088.261.137l0-.249ZM12.4,2.724a.126.126,0,0,1,.009.038A.128.128,0,0,0,12.4,2.724Z" transform="translate(-3.551 -2.344)" fill="url(#linear-gradient)"/>
</svg>
