<?xml version="1.0" encoding="UTF-8"?>
<svg width="32px" height="32px" viewBox="0 0 32 32" version="1.1" xmlns="http://www.w3.org/2000/svg" xmlns:xlink="http://www.w3.org/1999/xlink">
    <!-- Generator: Sketch 53 (72520) - https://sketchapp.com -->
    <title>搜索</title>
    <desc>Created with Sketch.</desc>
    <g id="分类" stroke="none" stroke-width="1" fill="none" fill-rule="evenodd">
        <g transform="translate(-288.000000, -146.000000)" id="搜索栏">
            <g transform="translate(0.000000, 116.000000)">
                <g id="分组-6" transform="translate(40.000000, 16.000000)">
                    <g id="分组-11" transform="translate(248.000000, 10.000000)">
                        <g id="搜索" transform="translate(0.000000, 4.000000)">
                            <rect id="矩形" fill="#000000" opacity="0" x="0" y="0" width="32" height="32"></rect>
                            <path d="M4.00043,13.9941652 C4.00337429,8.47359845 8.47950411,3.99985589 14.0000717,3.99985666 C17.6385958,3.89691273 21.0456652,5.77923583 22.8952952,8.9142516 C24.7449252,12.0492674 24.7449252,15.9417296 22.8952952,19.0767454 C21.0456652,22.2117611 17.6385958,24.0940842 14.0000717,23.9911403 C8.47846326,23.9911405 4.00190244,19.5157734 4.00043,13.9941652 Z M31.2527868,27.6416762 L25.8183148,22.1992045 C28.8011665,17.8648238 29.1362708,12.2343819 26.6885899,7.5767948 C24.240909,2.91920767 19.4136493,0.00171980515 14.1520662,5.03330438e-14 C6.32965879,0.00883167847 -0.00532093343,6.35574843 0.0005733125,14.1781586 C-0.00225662651,17.9349043 1.48739131,21.5389076 4.14181134,24.1973282 C6.79623138,26.8557489 10.3979871,28.3508228 14.1547328,28.3536507 C17.0420789,28.3559504 19.8601883,27.4696471 22.2264436,25.815075 L27.6502492,31.2495469 C28.1279785,31.7282866 28.7765252,31.9973249 29.4528513,31.9973249 C30.1291774,31.9973249 30.7777241,31.7282866 31.2554533,31.2495469 C32.2469303,30.2512738 32.2469303,28.6399493 31.2554533,27.6416762 L31.2527868,27.6416762 L31.2527868,27.6416762 Z" id="形状" fill="#AAAABB" fill-rule="nonzero"></path>
                        </g>
                    </g>
                </g>
            </g>
        </g>
    </g>
</svg>