<?xml version="1.0" encoding="UTF-8"?>
<svg width="18px" height="17px" viewBox="0 0 18 17" version="1.1" xmlns="http://www.w3.org/2000/svg" xmlns:xlink="http://www.w3.org/1999/xlink">
    <!-- Generator: Sketch 55.1 (78136) - https://sketchapp.com -->
    <title>分组 30</title>
    <desc>Created with Sketch.</desc>
    <g id="VC1.5.0-H5_商品订单" stroke="none" stroke-width="1" fill="none" fill-rule="evenodd">
        <g id="订单详情-物流详情" transform="translate(-314.000000, -83.000000)" fill="#666666">
            <g id="编组" transform="translate(12.000000, 68.000000)">
                <g id="编组-12" transform="translate(295.000000, 15.000000)">
                    <g id="分组-30" transform="translate(7.000000, 0.000000)">
                        <path d="M15.3,6.375 C15.3,6.82638657 14.926904,7.19230769 14.4666667,7.19230769 C14.0064294,7.19230769 13.6333333,6.82638657 13.6333333,6.375 C13.6333333,3.75695787 11.4693763,1.63461538 8.8,1.63461538 C6.13062371,1.63461538 3.96666667,3.75695787 3.96666667,6.375 C3.96666667,6.82638657 3.59357062,7.19230769 3.13333333,7.19230769 C2.67309604,7.19230769 2.3,6.82638657 2.3,6.375 C2.3,2.85418472 5.21014913,0 8.8,0 C12.3898509,0 15.3,2.85418472 15.3,6.375 Z" id="路径" fill-rule="nonzero"></path>
                        <path d="M11.6032087,14.9004044 C12.8854639,14.6853387 13.5874746,13.7268568 13.7853073,11.8649233 L15.1114595,12.0004613 C14.8464206,14.4949168 13.6672441,15.9594284 11.6590289,16.214958 C11.5115775,16.4322402 11.2625453,16.575 10.9801698,16.575 L9.28649691,16.575 C8.83371717,16.575 8.46666667,16.2079495 8.46666667,15.7551698 L8.46666667,15.4332918 C8.46666667,14.980512 8.83371717,14.6134615 9.28649691,14.6134615 L10.9801698,14.6134615 C11.229506,14.6134615 11.4528451,14.7247686 11.6032087,14.9004044 Z" id="合并形状"></path>
                        <path d="M1.33333333,9.31730769 C1.33333333,10.1713738 1.88987175,10.8979532 2.66666667,11.1672309 L2.66666667,7.4673845 C1.88987175,7.73666215 1.33333333,8.46324154 1.33333333,9.31730769 Z M4,6.70192308 L4,11.9326923 C4,12.2938016 3.70152317,12.5865385 3.33333333,12.5865385 C1.49238417,12.5865385 0,11.122854 0,9.31730769 C0,7.51176139 1.49238417,6.04807692 3.33333333,6.04807692 C3.70152317,6.04807692 4,6.34081382 4,6.70192308 Z M16.2666667,9.31730769 C16.2666667,8.46324154 15.7101282,7.73666215 14.9333333,7.4673845 L14.9333333,11.1672309 C15.7101282,10.8979532 16.2666667,10.1713738 16.2666667,9.31730769 Z M13.6,6.70192308 C13.6,6.34081382 13.8984768,6.04807692 14.2666667,6.04807692 C16.1076158,6.04807692 17.6,7.51176139 17.6,9.31730769 C17.6,11.122854 16.1076158,12.5865385 14.2666667,12.5865385 C13.8984768,12.5865385 13.6,12.2938016 13.6,11.9326923 L13.6,6.70192308 Z" id="合并形状" fill-rule="nonzero"></path>
                    </g>
                </g>
            </g>
        </g>
    </g>
</svg>