<?xml version="1.0" encoding="UTF-8"?>
<svg width="38px" height="36px" viewBox="0 0 38 36" version="1.1" xmlns="http://www.w3.org/2000/svg" xmlns:xlink="http://www.w3.org/1999/xlink">
    <!-- Generator: Sketch 53 (72520) - https://sketchapp.com -->
    <title>设置</title>
    <desc>Created with Sketch.</desc>
    <g id="我的" stroke="none" stroke-width="1" fill="none" fill-rule="evenodd">
        <g transform="translate(-55.000000, -931.000000)" id="设置管理">
            <g transform="translate(28.000000, 797.000000)">
                <g id="list-2" transform="translate(0.000000, 102.000000)">
                    <g id="设置" transform="translate(28.000000, 32.000000)">
                        <rect id="矩形" fill="#000000" opacity="0" x="0" y="0" width="36" height="36"></rect>
                        <g id="分组-16" transform="translate(2.000000, 2.000000)" fill-rule="nonzero">
                            <path d="M29.5045871,18.5263158 C28.0366972,16.1098398 28.9174312,12.9610984 31.412844,11.569794 L32,11.2036613 L28.2568807,4.83295193 L27.6697248,5.19908466 C26.8623853,5.63844394 25.9816514,5.85812355 25.0275229,5.85812355 C22.1651376,5.85812355 19.8165137,3.58810069 19.8165137,0.732265425 L19.8165137,0 L12.2568807,0 L12.2568807,0.732265425 C12.2568807,1.61098398 12.0366973,2.48970248 11.5963303,3.29519449 C10.6422018,4.83295193 8.95412842,5.85812355 7.04587153,5.85812355 C6.09174308,5.85812355 5.21100912,5.63844394 4.4036697,5.19908466 L3.81651374,4.83295193 L0,11.2036613 L0.660550445,11.569794 C1.46788992,12.0091533 2.12844036,12.6681922 2.56880734,13.4736842 C3.96330277,15.8901602 3.1559633,19.0389016 0.660550445,20.430206 L0.0733944883,20.7963387 L3.81651374,27.1670481 L4.4036697,26.8009153 C5.21100917,26.3615561 6.09174308,26.1418764 6.97247704,26.1418764 C9.83486238,26.1418764 12.1834862,28.4118993 12.1834862,31.2677346 L12.1834862,32 L19.7431193,32 L19.7431193,31.2677346 C19.7431193,30.389016 19.9633027,29.5102975 20.4036697,28.7048055 C21.3577981,27.1670481 23.0458715,26.1418764 24.9541284,26.1418764 C25.8348624,26.1418764 26.7889908,26.3615561 27.5963303,26.8009153 L28.1834863,27.1670481 L31.9266055,20.7963387 L31.3394496,20.430206 C30.6788991,19.9908467 30.0183486,19.3318078 29.5045871,18.5263158 L29.5045871,18.5263158 Z" id="Path" stroke="#AAA9EB" stroke-width="3.55555556"></path>
                            <path d="M16,22.9230769 C12.2007505,22.9230769 9.07692308,19.7992496 9.07692308,16 C9.07692308,12.2007505 12.2007504,9.07692308 16,9.07692308 C19.7992495,9.07692308 22.9230769,12.2007504 22.9230769,16 C22.8386492,19.8836773 19.7992496,22.9230769 16,22.9230769 Z" id="Path" fill="#AAAAEA"></path>
                            <path d="M16,11.8461538 C13.6847415,11.8461538 11.8461538,13.7528373 11.8461538,16 C11.8461538,18.3152585 13.7528373,20.1538462 16,20.1538462 C18.3152585,20.1538462 20.1538462,18.2471627 20.1538462,16 C20.1538462,13.6847415 18.3152585,11.8461538 16,11.8461538 Z" id="Path" fill="#6A65DA"></path>
                        </g>
                    </g>
                </g>
            </g>
        </g>
    </g>
</svg>