<?xml version="1.0" encoding="UTF-8"?>
<svg width="42px" height="42px" viewBox="0 0 42 42" version="1.1" xmlns="http://www.w3.org/2000/svg" xmlns:xlink="http://www.w3.org/1999/xlink">
    <!-- Generator: Sketch 54.1 (76490) - https://sketchapp.com -->
    <title>shezhi</title>
    <desc>Created with Sketch.</desc>
    <g id="个人中心" stroke="none" stroke-width="1" fill="none" fill-rule="evenodd">
        <g id="个人中心复制" transform="translate(-676.000000, -152.000000)" fill-rule="nonzero" stroke="#FFFFFF">
            <g id="shezhi" transform="translate(676.000000, 152.000000)">
                <path d="M6.06988354,6.32227133 L5.82264998,5.89474561 L6.01139392,5.85338895 L7.13299921,6.53891546 L6.9402662,6.85425026 L6.06988354,6.32227133 Z M7.35592413,6.648409 C7.96185184,10.1464331 7.53798942,12.7578123 5.87910992,14.4178948 C4.74810273,15.5529188 3.29571939,16.2882525 1.73954916,16.5384512 L1.73954916,25.3911362 C3.28799076,25.6272628 4.73804238,26.3471779 5.87891752,27.4716538 C8.00545448,29.6050591 8.62544285,32.7629858 7.56925214,35.4962191 L15.1952256,39.9041027 C15.3699953,39.6850793 15.5566123,39.4762482 15.7539799,39.2789678 C17.4391465,37.5798191 19.8310043,36.7847103 22.1964499,37.1377301 C24.0667748,37.4168579 25.743887,38.3874005 26.9163421,39.828075 L34.4801886,35.4615772 C33.6657824,33.3406973 33.8415936,30.9366202 35.0114522,28.9355612 C36.1569668,26.976143 38.1055076,25.6599181 40.2943488,25.2993644 L40.2943488,16.650612 C38.0749093,16.3107302 36.0938209,14.9838293 34.9418277,12.9950285 C33.7805454,10.990191 33.6205529,8.58689795 34.4498472,6.47644805 L26.8341759,2.07451915 C26.6818602,2.26293915 26.5195355,2.45018458 26.3453879,2.63807572 C23.4108851,5.58293473 18.6499255,5.59282287 15.6494261,2.60409009 C15.5001858,2.44131731 15.3564626,2.27371671 15.2184751,2.1015797 L7.35592413,6.648409 Z M0.285679448,15.5404154 L0.291410617,15.3984006 L1.12377145,15.3984006 L1.73954916,15.7536983 L1.73954916,15.8536682 L1.51202185,16.248003 L0.285679448,15.5404154 Z M0.772887344,26.6428973 L0.39229789,26.6428973 L0.380063536,26.3030513 L1.242811,25.4419973 L1.60875968,25.8086657 L0.772887344,26.6428973 Z M6.1478122,36.2201752 L5.839009,36.0308162 L6.03448132,35.6926342 L7.15657192,35.3929458 L7.29563244,35.9136149 L6.1478122,36.2201752 Z M15.8018933,41.2448227 L15.5856151,41.6190003 L15.2338105,41.4275236 L14.9408546,40.3322554 L15.5166139,40.1782547 L15.8018933,41.2448227 Z M26.7142101,41.6049277 L26.4835961,41.7266686 L26.3350259,41.4693086 L26.666681,40.2162215 L27.0545866,40.3188886 L26.7142101,41.6049277 Z M35.9384641,35.6120348 L36.1519322,35.981814 L35.8026774,36.1912744 L34.7165046,35.9006591 L34.8702031,35.326212 L35.9384641,35.6120348 Z M41.7118336,26.3193809 L41.7033342,26.6013416 L41.3930115,26.6013416 L40.4910091,25.7011095 L40.791087,25.4004415 L41.7118336,26.3193809 Z M41.3441222,15.3568449 L41.6834496,15.3568449 L41.6958876,15.6547202 L40.791087,16.557745 L40.4666125,16.2326324 L41.3441222,15.3568449 Z M35.9100822,5.75579889 L36.2041159,5.9400722 L36.0134271,6.26997837 L34.87411,6.57210131 L34.7399288,6.06609898 L35.9100822,5.75579889 Z M26.2612572,0.691420007 L26.4530562,0.359593145 L26.8089651,0.579136143 L27.0955124,1.65036775 L26.5563479,1.79459063 L26.2612572,0.691420007 Z M15.281578,0.546260754 L15.610343,0.346722457 L15.7919132,0.660700532 L15.4892563,1.79755486 L14.9842471,1.66310977 L15.281578,0.546260754 Z" id="路径" stroke-width="3.4"></path>
                <path d="M20.991523,26.9999982 C22.5840228,27.0012317 24.111777,26.369722 25.2386191,25.2444181 C26.3655255,24.1190501 26.9991302,22.5920492 27,21.0000009 C26.9999969,17.6873559 24.3153709,15.0015083 21.0027308,15.0000006 C17.6900913,14.998493 15.003021,17.6818952 15.0000026,20.994535 C14.9969842,24.3070836 17.6790121,26.9953214 20.991523,26.9999982 Z" id="路径" stroke-width="2"></path>
            </g>
        </g>
    </g>
</svg>