<svg id="图层_1" data-name="图层 1" xmlns="http://www.w3.org/2000/svg" viewBox="0 0 21 21"><defs><style>.cls-1{fill:none;}.cls-2{fill:#fff;}</style></defs><title>shezhi</title><path class="cls-1" d="M2.83,2.82,7.7,0,8,.07a4,4,0,0,0,.49.65,2.91,2.91,0,0,0,4.12,0,3.82,3.82,0,0,0,.49-.65L13.32,0l4.87,2.81.07.26a2.91,2.91,0,0,0,2.58,4.45l.16.16v5.63l-.15.15a2.92,2.92,0,0,0-3,2.84,2.88,2.88,0,0,0,.42,1.59l-.08.29L13.3,21l-.19,0a2.93,2.93,0,0,0-4-1.2A3,3,0,0,0,8,20.92L7.68,21,2.81,18.19l-.07-.26a2.93,2.93,0,0,0-.42-3.59,2.89,2.89,0,0,0-2.14-.83L0,13.33V7.7l.14-.24a2.88,2.88,0,0,0,2.18-.85C3,6,3.11,4.74,2.73,3Z"/><path class="cls-2" d="M20.84,7.52h-.12a2.91,2.91,0,0,1-2.46-4.45l-.07-.26L13.32,0l-.27.07a3.82,3.82,0,0,1-.49.65,2.89,2.89,0,0,1-2.06.85A2.89,2.89,0,0,1,8.44.72,4,4,0,0,1,8,.07L7.7,0,2.82,2.82,2.73,3c.38,1.76.25,3-.41,3.63a2.92,2.92,0,0,1-2.07.86H.14L0,7.7v5.63l.18.18H.29a2.9,2.9,0,0,1,2,.83,2.93,2.93,0,0,1,.42,3.59l.07.26L7.68,21,8,20.92a2.93,2.93,0,0,1,2.57-1.53,3,3,0,0,1,.42,0,2.91,2.91,0,0,1,2.15,1.52l.19,0,4.88-2.81.08-.29a2.92,2.92,0,0,1,2.5-4.43h.09l.15-.15V7.68ZM19.3,12a4.61,4.61,0,0,0-3.06,5.34L13.6,18.86a4.58,4.58,0,0,0-2.38-1.12,5.31,5.31,0,0,0-.68,0,4.67,4.67,0,0,0-3.11,1.2L4.77,17.36a4.61,4.61,0,0,0-1.25-4.22h0A4.65,4.65,0,0,0,1.7,12V8.94A4.57,4.57,0,0,0,3.52,7.81a4.63,4.63,0,0,0,1.06-4L7.44,2.12A4.58,4.58,0,0,0,10.5,3.27a4.62,4.62,0,0,0,3.07-1.16l2.65,1.53A4.63,4.63,0,0,0,19.3,9Z"/><path class="cls-1" d="M10.49,14A3.5,3.5,0,1,1,13,13,3.45,3.45,0,0,1,10.49,14Z"/><path class="cls-2" d="M10.49,7h0a3.5,3.5,0,0,0,0,7h0A3.45,3.45,0,0,0,13,13a3.5,3.5,0,0,0-2.47-6Zm1.77,5.27a2.51,2.51,0,0,1-1.77.73h0a2.49,2.49,0,1,1,1.77-.73Z"/></svg>
