<?xml version="1.0" encoding="UTF-8"?>
<svg width="60px" height="60px" viewBox="0 0 60 60" version="1.1" xmlns="http://www.w3.org/2000/svg" xmlns:xlink="http://www.w3.org/1999/xlink">
    <!-- Generator: Sketch 53 (72520) - https://sketchapp.com -->
    <title>分组 5</title>
    <desc>Created with Sketch.</desc>
    <g id="雅集" stroke="none" stroke-width="1" fill="none" fill-rule="evenodd">
        <g transform="translate(-630.000000, -586.000000)" id="分组-11">
            <g transform="translate(40.000000, 530.000000)">
                <g id="分组-10" transform="translate(288.000000, 28.000000)">
                    <g id="分组-9" transform="translate(20.000000, 28.000000)">
                        <g id="分组-5" transform="translate(282.000000, 0.000000)">
                            <circle id="椭圆形" fill="#FEEDED" cx="30" cy="30" r="30"></circle>
                            <g id="分享" transform="translate(12.000000, 12.000000)">
                                <rect id="矩形" fill="#000000" opacity="0" x="0" y="0" width="36" height="36"></rect>
                                <path d="M8.521875,20.4855469 C8.521875,21.9867187 8.77148438,23.3226562 9.18984375,24.6585937 C10.85625,19.8175781 15.2824219,16.3125 20.5382813,16.3125 L20.5382813,17.8136719 C20.5382813,19.7683594 22.7847656,20.8722656 24.3316406,19.6769531 L31.725,13.9640625 C32.9449219,13.021875 32.9449219,11.1796875 31.725,10.2375 L24.3351563,4.52460937 C22.7882813,3.32929687 20.5417969,4.43320312 20.5417969,6.38789062 L20.5417969,7.96992187 C13.9007813,8.015625 8.521875,13.5878906 8.521875,20.4855469 Z M31.2433594,19.4519531 C30.3082031,19.4519531 29.5523438,20.2078125 29.5523438,21.1429687 L29.5523438,25.7835937 C29.5523438,27.1898437 28.4132812,28.3289062 27.0070312,28.3289062 L9.05976563,28.3289062 C7.65351562,28.3289062 6.51445312,27.1898437 6.51445312,25.7835937 L6.51445312,12.43125 C6.51445312,11.025 7.65351562,9.8859375 9.05976563,9.8859375 L10.8035156,9.8859375 C11.7386719,9.8859375 12.4945313,9.13007813 12.4945313,8.19492188 C12.4945313,7.25976563 11.7386719,6.50390625 10.8035156,6.50390625 L9.05976563,6.50390625 C5.78671875,6.50390625 3.1359375,9.15820312 3.1359375,12.4277344 L3.1359375,25.7800781 C3.1359375,29.053125 5.79023437,31.7039062 9.05976563,31.7039062 L27.0070312,31.7039062 C30.2800781,31.7039062 32.9308594,29.0496094 32.9308594,25.7800781 L32.9308594,21.1394531 C32.934375,20.2078125 32.1785156,19.4519531 31.2433594,19.4519531 Z" id="形状" fill="#F2B036" fill-rule="nonzero"></path>
                            </g>
                        </g>
                    </g>
                </g>
            </g>
        </g>
    </g>
</svg>