<?xml version="1.0" encoding="UTF-8"?>
<svg width="48px" height="47px" viewBox="0 0 48 47" version="1.1" xmlns="http://www.w3.org/2000/svg" xmlns:xlink="http://www.w3.org/1999/xlink">
    <!-- Generator: Sketch 53 (72520) - https://sketchapp.com -->
    <title>购买-大额存单</title>
    <desc>Created with Sketch.</desc>
    <g id="首页" stroke="none" stroke-width="1" fill="none" fill-rule="evenodd">
        <g id="首页（默认版）2" transform="translate(-614.000000, -1153.000000)">
            <g id="分组-24" transform="translate(40.000000, 284.000000)">
                <g id="分组-23">
                    <g id="特色体验课-copy-2" transform="translate(0.000000, 726.000000)">
                        <g id="分组-9" transform="translate(0.000000, 76.000000)">
                            <g id="购买-大额存单" transform="translate(574.000000, 66.000000)">
                                <rect id="矩形" fill="#000000" opacity="0" x="0" y="0" width="48" height="48"></rect>
                                <path d="M19.08,41.04 C21,41.04 22.56,42.6 22.56,44.52 C22.56,46.44 21,48 19.08,48 C17.16,48 15.6,46.44 15.6,44.52 C15.6,42.6 17.16,41.04 19.08,41.04 Z M34.8,41.04 C36.72,41.04 38.28,42.6 38.28,44.52 C38.28,46.44 36.72,48 34.8,48 C32.88,48 31.32,46.44 31.32,44.52 C31.32,42.6 32.88,41.04 34.8,41.04 L34.8,41.04 Z M38.88,38.28 L16.32,38.28 C13.8,38.28 11.4,36.24 11.04,33.72 L8.4,6.36 C8.28,5.88 7.8,5.4 7.32,5.4 L2.04,5.4 C0.96,5.4 0,4.44 0,3.24 C0,2.04 0.96,1.2 2.04,1.2 L7.2,1.2 C9.72,1.2 12,3.24 12.48,5.76 L15.24,33.12 C15.36,33.6 15.84,34.08 16.32,34.08 L38.88,34.08 C40.08,34.08 40.92,35.04 40.92,36.12 C41.04,37.32 40.08,38.28 38.88,38.28 Z M19.08,29.88 C18,29.88 17.04,29.04 17.04,27.96 C16.92,26.76 17.88,25.8 18.96,25.8 L36,24.6 C37.44,24.48 39.12,23.28 39.72,21.96 L43.56,13.56 C43.56,13.44 43.56,13.44 43.68,13.32 C43.8,12.96 43.8,12.6 43.8,12.48 C43.68,12.36 43.44,12.24 43.08,12.24 L16.32,12.24 C15.12,12.24 14.28,11.28 14.28,10.2 C14.28,9.12 15.24,8.16 16.32,8.16 L42.96,8.16 C44.76,8.16 46.2,8.88 47.16,10.2 C48,11.52 48.12,13.08 47.52,14.76 L43.68,23.16 C43.68,23.28 43.68,23.28 43.56,23.4 C42.96,24.84 42,26.16 40.56,27.12 C39.24,28.08 37.56,28.68 36.12,28.8 L19.08,30 C19.2,29.88 19.08,29.88 19.08,29.88 Z" id="形状" fill="#F2B036" fill-rule="nonzero"></path>
                            </g>
                        </g>
                    </g>
                </g>
            </g>
        </g>
    </g>
</svg>