<svg xmlns="http://www.w3.org/2000/svg" xmlns:xlink="http://www.w3.org/1999/xlink" width="74" height="90" viewBox="0 0 74 90">
  <defs>
    <style>
      .cls-1 {
        fill: #dedede;
      }

      .cls-2 {
        fill: url(#linear-gradient);
      }

      .cls-3, .cls-4 {
        fill: #46affc;
      }

      .cls-4 {
        fill-rule: evenodd;
      }
    </style>
    <linearGradient id="linear-gradient" x1="0.158" y1="0.136" x2="0.816" y2="0.893" gradientUnits="objectBoundingBox">
      <stop offset="0" stop-color="#5bb9ff"/>
      <stop offset="1" stop-color="#46affc"/>
    </linearGradient>
  </defs>
  <g id="确认订单" transform="translate(0 0)">
    <ellipse id="椭圆形" class="cls-1" cx="18" cy="3" rx="18" ry="3" transform="translate(17 84)"/>
    <g id="开始报名" transform="translate(0 7)">
      <path id="路径_8" data-name="路径 8" class="cls-2" d="M34.5,0A34.5,34.5,0,1,0,69,34.5,34.454,34.454,0,0,0,34.5,0Zm7.59,20.125a2.307,2.307,0,0,1,2.3-2.3h.115a2.307,2.307,0,0,1,2.3,2.3V23.46a2.307,2.307,0,0,1-2.3,2.3H44.39a2.307,2.307,0,0,1-2.3-2.3Zm-19.78,0a2.307,2.307,0,0,1,2.3-2.3h.115a2.307,2.307,0,0,1,2.3,2.3V23.46a2.307,2.307,0,0,1-2.3,2.3H24.61a2.307,2.307,0,0,1-2.3-2.3Zm29.44,28.29a2.8,2.8,0,0,1-2.76,2.76H20.01a2.8,2.8,0,0,1-2.76-2.76V25.3c0-1.5.805-2.76,1.725-2.76S20.7,23.69,20.7,25.07a2.683,2.683,0,0,0,2.76,2.53h2.185a2.683,2.683,0,0,0,2.76-2.53,2.683,2.683,0,0,1,2.76-2.53H37.6a2.683,2.683,0,0,1,2.76,2.53,2.683,2.683,0,0,0,2.76,2.53H45.31a2.683,2.683,0,0,0,2.76-2.53c0-1.38.805-2.53,1.725-2.53s1.725,1.265,1.725,2.76V48.415Z"/>
      <path id="路径_9" data-name="路径 9" class="cls-3" d="M395.843,460.825a1.508,1.508,0,0,0-2.189.23l-7.49,8.988a1.508,1.508,0,0,1-2.189.23l-2.65-2.074a1.508,1.508,0,0,0-2.189.23l-.23.115a1.508,1.508,0,0,0,.23,2.189l5.185,4.148a1.508,1.508,0,0,0,2.189-.23l9.564-11.522a1.508,1.508,0,0,0-.23-2.189Z" transform="translate(-352.932 -429.314)"/>
    </g>
    <path id="合并形状" class="cls-4" d="M110.007,0a2.007,2.007,0,0,1,2.007,2.007V7.024a2.007,2.007,0,1,1-4.014,0V2.007A2.007,2.007,0,0,1,110.007,0Zm11.609,4.226a2.006,2.006,0,0,1,.247,2.827L118.639,10.9a2.007,2.007,0,0,1-3.075-2.58l3.225-3.843A2.007,2.007,0,0,1,121.616,4.226Zm6.177,10.7a2.007,2.007,0,0,1-1.628,2.325l-4.941.871a2.007,2.007,0,0,1-.7-3.953l4.941-.871A2.007,2.007,0,0,1,127.793,14.925Z" transform="translate(-53.824)"/>
  </g>
</svg>
