<?xml version="1.0" encoding="UTF-8"?>
<svg width="442px" height="381px" viewBox="0 0 442 381" version="1.1" xmlns="http://www.w3.org/2000/svg" xmlns:xlink="http://www.w3.org/1999/xlink">
    <!-- Generator: Sketch 53 (72520) - https://sketchapp.com -->
    <title>分组 2</title>
    <desc>Created with Sketch.</desc>
    <defs>
        <linearGradient x1="72.2377356%" y1="169.292269%" x2="35.1899482%" y2="6.63809422%" id="linearGradient-1">
            <stop stop-color="#EEEEEE" stop-opacity="0" offset="0%"></stop>
            <stop stop-color="#FFD3B9" offset="100%"></stop>
        </linearGradient>
        <linearGradient x1="50%" y1="108.738054%" x2="50%" y2="0%" id="linearGradient-2">
            <stop stop-color="#EEEEEE" stop-opacity="0" offset="0%"></stop>
            <stop stop-color="#FFD3B9" offset="100%"></stop>
        </linearGradient>
        <linearGradient x1="50%" y1="108.738054%" x2="50%" y2="0%" id="linearGradient-3">
            <stop stop-color="#EEEEEE" stop-opacity="0" offset="0%"></stop>
            <stop stop-color="#FFD3B9" offset="100%"></stop>
        </linearGradient>
        <linearGradient x1="50%" y1="121.289595%" x2="50%" y2="4.8167704%" id="linearGradient-4">
            <stop stop-color="#FFFFFF" stop-opacity="0" offset="0%"></stop>
            <stop stop-color="#FFD3B9" offset="100%"></stop>
        </linearGradient>
        <linearGradient x1="50%" y1="121.289595%" x2="50%" y2="4.8167704%" id="linearGradient-5">
            <stop stop-color="#FFFFFF" stop-opacity="0" offset="0%"></stop>
            <stop stop-color="#FFD3B9" offset="100%"></stop>
        </linearGradient>
        <linearGradient x1="50%" y1="0%" x2="50%" y2="100%" id="linearGradient-6">
            <stop stop-color="#FCDCC9" offset="0%"></stop>
            <stop stop-color="#FCF4EF" stop-opacity="0.797530594" offset="100%"></stop>
        </linearGradient>
        <linearGradient x1="26.3680872%" y1="52.3431449%" x2="23.7550514%" y2="41.1748674%" id="linearGradient-7">
            <stop stop-color="#FAE8DE" stop-opacity="0.0332314312" offset="0%"></stop>
            <stop stop-color="#F4D5C4" offset="100%"></stop>
        </linearGradient>
        <filter x="-6.0%" y="-7.1%" width="112.0%" height="114.1%" filterUnits="objectBoundingBox" id="filter-8">
            <feOffset dx="0" dy="2" in="SourceAlpha" result="shadowOffsetOuter1"></feOffset>
            <feGaussianBlur stdDeviation="2" in="shadowOffsetOuter1" result="shadowBlurOuter1"></feGaussianBlur>
            <feColorMatrix values="0 0 0 0 0   0 0 0 0 0   0 0 0 0 0  0 0 0 0.0532124126 0" type="matrix" in="shadowBlurOuter1" result="shadowMatrixOuter1"></feColorMatrix>
            <feMerge>
                <feMergeNode in="shadowMatrixOuter1"></feMergeNode>
                <feMergeNode in="SourceGraphic"></feMergeNode>
            </feMerge>
        </filter>
        <linearGradient x1="50%" y1="67.0886856%" x2="60.1732998%" y2="37.0544908%" id="linearGradient-9">
            <stop stop-color="#F6DBCB" offset="0%"></stop>
            <stop stop-color="#FF9354" offset="100%"></stop>
        </linearGradient>
        <linearGradient x1="66.3184219%" y1="89.6440114%" x2="66.3184219%" y2="32.1265692%" id="linearGradient-10">
            <stop stop-color="#FBCDB2" offset="0%"></stop>
            <stop stop-color="#FF833B" offset="100%"></stop>
        </linearGradient>
        <linearGradient x1="66.3184219%" y1="89.6440114%" x2="66.3184219%" y2="32.1265692%" id="linearGradient-11">
            <stop stop-color="#FBCDB2" offset="0%"></stop>
            <stop stop-color="#FF833B" offset="100%"></stop>
        </linearGradient>
        <linearGradient x1="50%" y1="111.028713%" x2="50%" y2="0%" id="linearGradient-12">
            <stop stop-color="#F8CEB6" offset="0%"></stop>
            <stop stop-color="#FD985C" offset="100%"></stop>
        </linearGradient>
        <polygon id="path-13" points="2.27373675e-13 62.1972353 199.875817 62.1972353 180.940771 169.742647 19.6102241 169.742647"></polygon>
        <filter x="-2.5%" y="-4.6%" width="105.0%" height="109.3%" filterUnits="objectBoundingBox" id="filter-14">
            <feGaussianBlur stdDeviation="4" in="SourceAlpha" result="shadowBlurInner1"></feGaussianBlur>
            <feOffset dx="2" dy="0" in="shadowBlurInner1" result="shadowOffsetInner1"></feOffset>
            <feComposite in="shadowOffsetInner1" in2="SourceAlpha" operator="arithmetic" k2="-1" k3="1" result="shadowInnerInner1"></feComposite>
            <feColorMatrix values="0 0 0 0 1   0 0 0 0 0.634581838   0 0 0 0 0.421421244  0 0 0 1 0" type="matrix" in="shadowInnerInner1"></feColorMatrix>
        </filter>
        <linearGradient x1="2.66914986%" y1="46.0909101%" x2="100%" y2="54.5177623%" id="linearGradient-15">
            <stop stop-color="#FF8F4E" offset="0%"></stop>
            <stop stop-color="#FFCACA" offset="100%"></stop>
        </linearGradient>
    </defs>
    <g id="缺省页面" stroke="none" stroke-width="1" fill="none" fill-rule="evenodd">
        <g id="商品下架" transform="translate(-160.000000, -410.000000)">
            <g id="分组" transform="translate(160.000000, 410.000000)">
                <g id="分组-2">
                    <path d="M73.4778979,209.499207 C62.9372336,213.14351 52.7860489,217.171787 43.0730476,221.553704 L42.5522646,221.099224 L36.6852052,220.140439 L41.6136958,212.771422 L41.6136958,209.389175 L33.9853136,209.389175 L40.3511131,200.068371 L40.3511131,196.592862 L32.8579599,196.592862 C41.1939506,182.805337 45.361946,175.381301 45.361946,174.320757 C56.0660044,182.252252 62.8162914,186.218 65.612807,186.218 L58.2662633,189.182246 L58.2662633,191.999555 C65.3976904,198.118597 70.131371,201.178118 72.4673051,201.178118 L62.744214,204.038368 L62.744214,206.136421 L73.4855384,209.389175 L73.4778979,209.499207 Z" id="合并形状" fill="url(#linearGradient-1)" opacity="0.547667572"></path>
                    <polygon id="Path-8" fill="url(#linearGradient-2)" opacity="0.547667572" points="364.338235 169.137255 392.338235 169.137255 392.338235 270.517647 364.338235 270.517647"></polygon>
                    <polygon id="Path-7" fill="url(#linearGradient-3)" opacity="0.547667572" points="300 209.341176 300 130 316.263294 130 316.263294 147.471966 345.220588 147.471966 345.220588 207.310031"></polygon>
                    <path d="M293.472077,56 L364.261429,56 C373.442043,45.4131788 371.60724,39.4741566 358.75702,38.1829335 C349.972878,30.9385117 341.610665,30.9385117 333.670382,38.1829335 C328.820788,33.4070812 322.169864,31.3979696 313.717608,32.1555988 C301.039224,33.2920424 297.973755,38.5120141 295.722916,41.9136759 C291.907639,42.9599478 290,45.2116866 290,48.6688924 C290,52.1260982 291.157359,54.5698007 293.472077,56 Z" id="Path-13" fill="url(#linearGradient-4)"></path>
                    <path d="M20.7022588,70.4039216 L69.5000657,70.4039216 C75.828614,63.112508 74.5638143,59.022152 65.7056664,58.1328537 C59.6504214,53.1434358 53.8860284,53.1434358 48.4124872,58.1328537 C45.0694772,54.8436025 40.4847407,53.4598761 34.6582775,53.9816746 C25.9185828,54.7643724 23.8054378,58.3594999 22.2538483,60.7023111 C19.6238318,61.4229052 18.3088235,62.9737352 18.3088235,65.3548009 C18.3088235,67.7358667 19.1066353,69.4189069 20.7022588,70.4039216 Z" id="Path-13" fill="url(#linearGradient-5)"></path>
                    <path d="M-1.42108547e-13,245.18883 C54.7335736,208.838175 132.544519,186.128411 218.871824,186.128411 C305.19913,186.128411 383.010075,208.838175 437.743649,245.18883 C383.010051,281.53946 305.199117,304.249216 218.871824,304.249216 C132.544532,304.249216 54.7335975,281.53946 2.51877528e-05,245.188814 Z" id="合并形状" fill="url(#linearGradient-6)"></path>
                    <g id="分组-10" transform="translate(74.000000, 0.000000)">
                        <polygon id="路径-20" fill="url(#linearGradient-7)" points="19.6102241 240.041997 241.385728 380.325644 367.50921 260.558004 113.158995 186.269292"></polygon>
                        <g id="分组-7" filter="url(#filter-8)" transform="translate(0.000000, 70.299351)">
                            <g id="分组-8">
                                <polygon id="路径-17" fill="url(#linearGradient-9)" points="22.9230767 0 176.969535 0 157.598348 105.335698 37.7189501 105.335698"></polygon>
                                <polygon id="路径-16" fill="url(#linearGradient-10)" points="0 62.1972353 22.9230767 -2.84217094e-14 37.7189501 83.3798458"></polygon>
                                <polygon id="路径-18" fill="url(#linearGradient-11)" points="176.969535 -2.48689958e-14 199.875817 62.1972353 158.077097 102.64102"></polygon>
                                <g id="路径-15">
                                    <use fill="url(#linearGradient-12)" fill-rule="evenodd" xlink:href="#path-13"></use>
                                    <use fill="black" fill-opacity="1" filter="url(#filter-14)" xlink:href="#path-13"></use>
                                </g>
                                <rect id="矩形" fill="#FFFFFF" x="72.2857143" y="10.9537572" width="56.952381" height="10.9537572" rx="5.47687861"></rect>
                            </g>
                            <rect id="矩形" fill="#E3E3E3" x="63.9901041" y="73.9031166" width="72.2857143" height="10.9537572" rx="5.47687861"></rect>
                            <polygon id="¥" fill="#E3E3E3" points="77.8731026 104.479503 92.4869365 104.479503 99.8098423 119.363462 107.036815 104.479503 121.682626 104.479503 110.52239 123.368383 120.019783 123.368383 120.019783 129.973514 106.557149 129.973514 106.557149 133.589897 120.019783 133.589897 120.019783 140.28469 106.557149 140.28469 106.557149 148.294532 93.2544026 148.294532 93.2544026 140.28469 79.5679236 140.28469 79.5679236 133.589897 93.2544026 133.589897 93.2544026 129.973514 79.5679236 129.973514 79.5679236 123.368383 89.3531165 123.368383"></polygon>
                        </g>
                        <g id="分组-9" transform="translate(37.704390, 0.000000)">
                            <path d="M4.4324214,15.2294378 L6.41407465,14.2959201 C6.7245835,14.9552279 7.03962304,15.6040535 7.35919004,16.2423976 L5.40050293,17.2231995 C5.07305156,16.5691062 4.75035879,15.9045188 4.4324214,15.2294378 Z M6.41960008,19.1961729 L8.35260302,18.1656621 C8.69483633,18.807775 9.04196708,19.4385273 9.39399141,20.0579206 L7.48965315,21.1404992 C7.12778786,20.5037905 6.77110479,19.8556812 6.41960008,19.1961729 Z M8.61638849,23.0585927 L10.4886357,21.9214027 C10.8656259,22.5422278 11.2479145,23.1507309 11.6354974,23.7469151 L9.79906402,24.9410913 C9.39918817,24.3259979 9.00496443,23.6984973 8.61638849,23.0585927 Z M11.0511198,26.8000115 L12.8472472,25.5460149 C13.262032,26.1402699 13.6825458,26.721175 14.1087842,27.2887357 L12.3573241,28.6044136 C11.9157624,28.0164491 11.4803624,27.4149799 11.0511198,26.8000115 Z M13.7469807,30.3851603 L15.4480137,29.0048882 C15.9035157,29.5663851 16.3652015,30.1134591 16.8330678,30.6461185 L15.1873993,32.0919699 C14.7005609,31.537711 14.2204224,30.9687716 13.7469807,30.3851603 Z M16.7351273,33.7809826 L18.3179188,32.266541 C18.8160619,32.7872972 19.3208411,33.2925919 19.8322558,33.7824372 L18.3171729,35.3646315 C17.7825994,34.8526041 17.255251,34.3247172 16.7351273,33.7809826 Z M19.9318975,36.8437836 L21.3745518,35.1952639 C21.9148237,35.668186 22.4621456,36.1247446 23.0165218,36.5649543 L21.654466,38.2806844 C21.0725964,37.8186431 20.4984055,37.3396713 19.9318975,36.8437836 Z M23.4765711,39.6542715 L24.7501262,37.8718458 C25.3319467,38.2876649 25.9211741,38.6864172 26.517819,39.0681181 L25.3374732,40.913606 C24.7091503,40.5116392 24.088846,40.091856 23.4765711,39.6542715 Z M27.3128486,42.103689 L28.3918984,40.1971868 C29.0118234,40.5481426 29.6394057,40.8816383 30.2746622,41.1976862 L29.2990548,43.1591507 C28.6288002,42.8256908 27.9667258,42.4738661 27.3128486,42.103689 Z M31.4126951,44.1381891 L32.277448,42.1253785 C32.9298014,42.405716 33.5899141,42.6685744 34.2578064,42.9139602 L33.5024737,44.9703456 C32.7977429,44.7114252 32.1011432,44.4340376 31.4126951,44.1381891 Z M35.4960424,45.6467724 L36.1479935,43.5553028 C36.8244155,43.7662095 37.5085349,43.9599666 38.2003713,44.1365739 L37.6586396,46.2592715 C36.9298658,46.073235 36.2089936,45.8690687 35.4960424,45.6467724 Z M42.295449,44.717647 L42.2688319,46.9082367 C41.5540359,46.8995492 40.8222213,46.86247 39.9539805,46.7800714 C39.916123,46.7725211 39.916123,46.7725211 39.8782832,46.7649291 L40.3091731,44.6199573 C40.2982031,44.6187035 40.2830738,44.6169166 40.2631291,44.6145611 C40.2785792,44.6159102 40.2940201,44.6172464 40.3094519,44.6185695 C40.9975411,44.6772578 41.6549186,44.7098621 42.295449,44.717647 Z M44.5601976,46.8340477 L44.386671,44.6501812 C45.0955678,44.5938392 45.7804458,44.5031839 46.4414176,44.3783636 L46.8478413,46.5310759 C46.1088366,46.6706322 45.3462512,46.7715734 44.5601976,46.8340477 Z M49.1552416,45.9449838 L48.4799494,43.8609354 C49.1381385,43.6476094 49.7690429,43.3945907 50.3730221,43.1018887 L51.328211,45.0733797 C50.6329991,45.4102951 49.9085561,45.7008266 49.1552416,45.9449838 Z M53.3659287,43.8962583 L52.1347396,42.0843024 C52.692441,41.7052598 53.2235513,41.2848781 53.7283409,40.8228476 L55.2071922,42.4389668 C54.624921,42.9719156 54.0110764,43.4577827 53.3659287,43.8962583 Z M56.8925992,40.6585219 L55.2013324,39.2662973 C55.6276895,38.7482308 56.0309736,38.1923504 56.4111385,37.5984186 L58.2559782,38.7795633 C57.8293852,39.4460298 57.374941,40.0724285 56.8925992,40.6585219 Z M59.4682529,36.6279702 L57.5053141,35.6557077 C57.8063684,35.0477445 58.0883897,34.408539 58.3512794,33.7380327 L60.3905756,34.5377937 C60.1050343,35.2660734 59.7976263,35.9628184 59.4682529,36.6279702 Z M61.0740245,32.604011 L58.9862593,31.9410384 C59.1942825,31.2857884 59.3865315,30.6050232 59.5629451,29.8987437 L61.6881141,30.4296991 C61.5007611,31.1797751 61.296085,31.9045455 61.0740245,32.604011 Z M62.1822803,28.1869104 L60.0313915,27.7722944 C60.1630192,27.0892822 60.2816434,26.385543 60.3872332,25.6610895 L62.5548014,25.9770941 C62.4444608,26.7341432 62.3202973,27.4707444 62.1822803,28.1869104 Z M62.8376035,23.7096663 L60.6590517,23.4813883 C60.7321551,22.7835566 60.7943767,22.0685633 60.8457011,21.3364197 L63.0308135,21.4896382 C62.9777514,22.2465689 62.9133532,22.9865745 62.8376035,23.7096663 Z M63.1539679,19.2206152 L60.9651664,19.1349673 C60.9722393,18.9503527 60.9722393,18.9503527 60.9784441,18.8295857 C60.9632691,18.2184763 60.9385933,17.626321 60.9043598,17.0496478 L63.0909855,16.9198085 C63.1267291,17.5219198 63.1524525,18.1392144 63.1679389,18.8399421 C63.1612437,19.0307046 63.1612437,19.0307046 63.1539679,19.2206152 Z M62.9039758,14.6826254 L60.7265784,14.9216671 C60.6459884,14.1873996 60.5474855,13.4870301 60.4311735,12.820632 L62.5890202,12.4439104 C62.7134781,13.1569794 62.8184287,13.9031932 62.9039758,14.6826254 Z M62.1037768,10.1973017 L59.9849626,10.7530804 C59.7998287,10.0471106 59.5897401,9.3905113 59.3550862,8.78330959 L61.3982647,7.99352213 C61.6633078,8.67936028 61.8983487,9.41394439 62.1037768,10.1973017 Z M60.3803639,5.848512 L58.4854806,6.94756017 C58.1373256,6.34715064 57.7547005,5.81982581 57.3381612,5.36420864 L58.9547473,3.88590411 C59.4801714,4.46062116 59.9551917,5.1152828 60.3803639,5.848512 Z M56.9142684,2.20717717 L55.7882618,4.08632125 C55.2546398,3.76648792 54.6767552,3.52437931 54.0515822,3.35946096 L54.6102426,1.24115693 C55.4333042,1.45827755 56.2023214,1.78046246 56.9142684,2.20717717 Z M52.2588912,0.910263727 L52.191961,3.09999228 C51.564657,3.08081359 50.8989215,3.12134115 50.1946679,3.22248402 L49.8833114,1.05397655 C50.7095571,0.935313514 51.5014459,0.887106211 52.2588912,0.910263727 Z M47.5143638,1.56001939 L48.1016568,3.6705625 C47.7381987,3.77172604 47.3666216,3.88627309 47.079522,3.97829051 C46.7880953,4.106966 46.5219738,4.23605213 46.2580504,4.37588632 L45.2326237,2.44000724 C45.5425605,2.27579384 45.855626,2.12393689 46.2874069,1.93821057 C46.7036684,1.79790847 47.1126419,1.67183316 47.5143638,1.56001939 Z M43.2178415,3.75396921 L44.5936132,5.45871797 C44.0682069,5.88283961 43.6301828,6.33930271 43.2768914,6.82829733 L41.5014161,5.54522017 C41.9713907,4.89472303 42.5444157,4.29757602 43.2178415,3.75396921 Z M40.2777691,8.05863558 L42.3833794,8.66252533 C42.2170687,9.2425544 42.1324488,9.86554563 42.1309222,10.5341094 L39.9404517,10.5291066 C39.9424316,9.66201213 40.0544032,8.83765166 40.2777691,8.05863558 Z M40.184797,12.8932111 L42.3326186,12.4629842 C42.4573335,13.0857551 42.6400859,13.7392524 42.8814626,14.4231467 L40.8158956,15.1523603 C40.5410364,14.3735998 40.3304746,13.6206599 40.184797,12.8932111 Z M41.7913469,17.480588 L43.7655016,16.5313116 C44.0344583,17.0907858 44.3366062,17.6665979 44.6719953,18.2586118 L42.7661728,19.3385745 C42.4070486,18.7046646 42.0820899,18.0853812 41.7913469,17.480588 Z M43.8472072,21.1378051 L45.6948518,19.9610539 C46.0785189,20.56361 46.4763795,21.1506438 46.888437,21.7221817 L45.1116782,23.0034805 C44.6749108,22.3976691 44.2534193,21.7757686 43.8472072,21.1378051 Z M46.4883608,24.7978288 L48.1852983,23.4125235 C48.6346935,23.9631509 49.0988805,24.4977472 49.5778746,25.0163398 L47.9688517,26.5028749 C47.4594779,25.951391 46.9659759,25.3830331 46.4883608,24.7978288 Z M49.5744737,28.1352517 L51.0868783,26.5504964 C51.5986088,27.038987 52.1253603,27.5113869 52.6671582,27.967717 L51.2561545,29.6434139 C50.6796327,29.1578375 50.119064,28.6551098 49.5744737,28.1352517 Z M53.088721,31.0895063 L54.3902699,29.3274233 C54.9575183,29.7465222 55.5395952,30.1499204 56.1365292,30.5376272 L54.9435005,32.3749395 C54.3097263,31.9633052 53.6914569,31.5348244 53.088721,31.0895063 Z M56.8210399,33.5192485 L57.907469,31.6169428 C58.5191082,31.9663449 59.1450071,32.3007783 59.7851902,32.6202414 L58.8072176,34.5805273 C58.1304829,34.2428244 57.4684156,33.8890653 56.8210399,33.5192485 Z M60.8893971,35.5489306 L61.7589861,33.5382051 C62.3054535,33.7745981 62.8614821,34.0010039 63.3108222,34.1802172 C63.4125771,34.2066249 63.5006827,34.2273806 63.6285202,34.2556758 L63.1552001,36.3946718 C63.0037771,36.3611562 62.8917291,36.3347602 62.644378,36.2635388 C62.0496854,36.0359935 61.4646883,35.7977923 60.8893971,35.5489306 Z M65.4053787,36.7917177 L65.6923894,34.6198531 C66.383862,34.7112538 67.080163,34.772945 67.7813789,34.8049224 L67.6816032,36.9934 C66.91786,36.9585712 66.1590897,36.8913452 65.4053787,36.7917177 Z M69.9829952,37.000881 L69.8986035,34.811756 C70.5925724,34.7849965 71.2914311,34.7299286 71.9952376,34.6465147 L72.2530128,36.8220439 C71.4918875,36.9122511 70.7351957,36.9718761 69.9829952,37.000881 Z M74.5628779,36.4571078 L74.1395545,34.3076557 C74.8217034,34.1732763 75.5084665,34.0129659 76.1998645,33.8266827 L76.769656,35.942019 C76.0301742,36.1412575 75.2945746,36.3129677 74.5628779,36.4571078 Z M78.8954023,35.2970896 L78.195948,33.2210277 C78.8571908,32.9981898 79.5225744,32.7521598 80.192098,32.482907 L81.0093074,34.5154898 C80.301263,34.8002339 79.5966283,35.0607773 78.8954023,35.2970896 Z M83.1108027,33.6039862 L82.1872737,31.6174637 C82.8228978,31.3218895 83.4621356,31.0058719 84.104978,30.6693931 L85.1206862,32.6103901 C84.4477261,32.9626332 83.777768,33.2938379 83.1108027,33.6039862 Z M87.1254022,31.5040168 L86.0263807,29.60896 C86.6355262,29.2556027 87.2478024,28.8842741 87.8631999,28.4949648 L89.0341637,30.3464212 C88.3952564,30.7506033 87.7590057,31.1364717 87.1254022,31.5040168 Z M90.95005,29.0849743 L89.7134961,27.2766762 C90.2973522,26.8773223 90.883931,26.4621124 91.4732244,26.0310419 L92.7663825,27.7992935 C92.1585754,28.2439068 91.5531339,28.6724686 90.95005,29.0849743 Z M94.5951435,26.4186773 L93.2499704,24.6896758 C93.8102665,24.2536526 94.3729482,23.8035605 94.9380092,23.3393975 L96.3282969,25.0323258 C95.748463,25.5086238 95.1707473,25.9707417 94.5951435,26.4186773 Z M97.8559138,23.9216128 L96.6281346,22.1073441 C97.2685314,21.6738561 97.9007427,21.2702352 98.5248296,20.8965058 L99.6501154,22.7760817 C99.0613615,23.1286521 98.4632739,23.5104876 97.8559138,23.9216128 Z M101.506183,21.7456858 L100.511159,19.7940018 C101.213006,19.4360903 101.904335,19.1180817 102.585241,18.8400868 L103.413115,20.8683484 C102.790048,21.1227287 102.154372,21.4151376 101.506183,21.7456858 Z M105.41123,20.1702709 L104.80543,18.0649665 C105.579368,17.8422105 106.339296,17.6749199 107.085165,17.5634584 L107.408871,19.7301563 C106.760071,19.827112 106.094206,19.9736956 105.41123,20.1702709 Z M109.424452,19.5887761 L109.454196,17.3982267 C110.267602,17.4092742 111.061698,17.4931205 111.835627,17.6500015 L111.400505,19.7970956 C110.76122,19.667508 110.102822,19.5979896 109.424452,19.5887761 Z M113.413927,20.4301847 L114.284708,18.4199756 C115.005936,18.7324753 115.704538,19.1159728 116.380025,19.5697859 L115.15858,21.3883263 C114.592814,21.0082274 114.011426,20.6890743 113.413927,20.4301847 Z M116.664461,22.5778261 L118.142523,20.9609847 C118.698041,21.4689489 119.235428,22.030328 119.754851,22.6448204 L118.082045,24.0591783 C117.622069,23.5150138 117.149485,23.0213303 116.664461,22.5778261 Z M119.375475,25.7717123 L121.187839,24.5413046 C121.600367,25.1491026 122.000236,25.7953145 122.387582,26.4799082 L120.481172,27.5588329 C120.122594,26.9250838 119.753984,26.3293877 119.375475,25.7717123 Z M121.491088,29.4949715 L123.460047,28.5349616 C123.792666,29.2173278 124.105387,29.894871 124.398194,30.5676018 L122.389759,31.4419965 C122.109607,30.7983419 121.810055,30.14933 121.491088,29.4949715 Z M123.197477,33.4237791 L125.245463,32.646546 C125.515945,33.3594385 125.763382,34.0668079 125.987746,34.7686613 L123.90131,35.4358066 C123.688891,34.7713192 123.454289,34.100641 123.197477,33.4237791 Z M124.493068,37.4926803 L126.615552,36.9510862 C126.805056,37.6939315 126.967813,38.4304098 127.10378,39.1605113 L124.950338,39.5616495 C124.823225,38.8790931 124.670816,38.1894399 124.493068,37.4926803 Z M125.26863,41.7018113 L127.445875,41.4613889 C127.530267,42.2258245 127.58411,42.9829369 127.607355,43.7326771 L125.417931,43.8005764 C125.396485,43.1088691 125.346734,42.4092971 125.26863,41.7018113 Z M125.396107,45.8769103 L127.583516,45.9928155 C127.542853,46.7604172 127.468742,47.5197615 127.361162,48.2707531 L125.192826,47.9600598 C125.291118,47.2739094 125.358885,46.5795581 125.396107,45.8769103 Z M124.787707,50.0720007 L126.916906,50.58655 C126.737529,51.3289963 126.52389,52.0625621 126.276026,52.7871452 L124.203486,52.0779949 C124.429488,51.4173249 124.624216,50.7486942 124.787707,50.0720007 Z M123.394658,54.1184055 L125.390571,55.021025 C125.079228,55.7096529 124.735413,56.3894664 124.359197,57.0604117 L122.448642,55.9888454 C122.79413,55.3727019 123.109445,54.7492399 123.394658,54.1184055 Z M121.419215,57.6696744 L123.242839,58.8833267 C123.168752,58.9943085 123.168752,58.9943085 123.093849,59.1050476 L121.281386,57.8747858 C121.350695,57.7723166 121.350695,57.7723166 121.419215,57.6696744 Z" id="路径-19" fill="url(#linearGradient-15)" fill-rule="nonzero"></path>
                            <ellipse id="椭圆形" fill="#FF8F4E" cx="3.28571429" cy="9.47125325" rx="3.28571429" ry="3.28612717"></ellipse>
                        </g>
                    </g>
                </g>
            </g>
        </g>
    </g>
</svg>