<?xml version="1.0" encoding="UTF-8"?>
<svg width="29px" height="30px" viewBox="0 0 29 30" version="1.1" xmlns="http://www.w3.org/2000/svg" xmlns:xlink="http://www.w3.org/1999/xlink">
    <!-- Generator: Sketch 53 (72520) - https://sketchapp.com -->
    <title>分组 26</title>
    <desc>Created with Sketch.</desc>
    <g id="详情页" stroke="none" stroke-width="1" fill="none" fill-rule="evenodd">
        <g id="商品信息_规格-2" transform="translate(-70.000000, -1105.000000)" fill="#333333" fill-rule="nonzero">
            <g id="详情" transform="translate(40.000000, 796.000000)">
                <g id="分组-24" transform="translate(30.000000, 304.000000)">
                    <g id="分组-26" transform="translate(0.000000, 5.000000)">
                        <path d="M24,5 L24,24 L26,24 L26,5 L24,5 Z M24,2 L29,2 L29,27 L24,27 L24,30 L0,30 L0,0 L24,0 L24,2 Z M3,3 L3,27 L21,27 L21,3 L3,3 Z M6,7 L18,7 L18,10 L6,10 L6,7 Z M6,13 L18,13 L18,16 L6,16 L6,13 Z M6,19 L18,19 L18,22 L6,22 L6,19 Z" id="合并形状"></path>
                    </g>
                </g>
            </g>
        </g>
    </g>
</svg>