<?xml version="1.0" encoding="UTF-8"?>
<svg width="24px" height="27px" viewBox="0 0 24 27" version="1.1" xmlns="http://www.w3.org/2000/svg" xmlns:xlink="http://www.w3.org/1999/xlink">
    <!-- Generator: Sketch 53 (72520) - https://sketchapp.com -->
    <title>分组</title>
    <desc>Created with Sketch.</desc>
    <g id="详情页" stroke="none" stroke-width="1" fill="none" fill-rule="evenodd">
        <g id="免费试听" transform="translate(-74.000000, -1039.000000)">
            <g id="详情" transform="translate(40.000000, 796.000000)">
                <g id="分组-20-Copy" transform="translate(30.000000, 240.000000)">
                    <g id="分组">
                        <rect id="矩形" x="0" y="0" width="32" height="32"></rect>
                        <g id="分组-14" transform="translate(4.000000, 3.000000)" fill-rule="nonzero">
                            <path d="M3.25,6.25 L3.25,16.75 L20.75,16.75 L20.75,6.25 L3.25,6.25 Z M3,3.75 L21,3.75 C22.2426407,3.75 23.25,4.75735931 23.25,6 L23.25,17 C23.25,18.2426407 22.2426407,19.25 21,19.25 L3,19.25 C1.75735931,19.25 0.75,18.2426407 0.75,17 L0.75,6 C0.75,4.75735931 1.75735931,3.75 3,3.75 Z" id="矩形" fill="#EEEEEE"></path>
                            <path d="M3.25,6.25 L3.25,9.08493946 C3.25,9.7752954 2.69035594,10.3349395 2,10.3349395 C1.30964406,10.3349395 0.75,9.7752954 0.75,9.08493946 L0.75,6 C0.75,4.75735931 1.75735931,3.75 3,3.75 L6.08198814,3.75 C6.77234407,3.75 7.33198814,4.30964406 7.33198814,5 C7.33198814,5.69035594 6.77234407,6.25 6.08198814,6.25 L3.25,6.25 Z M20.75,6.25 L17.9871843,6.25 C17.2968283,6.25 16.7371843,5.69035594 16.7371843,5 C16.7371843,4.30964406 17.2968283,3.75 17.9871843,3.75 L21,3.75 C22.2426407,3.75 23.25,4.75735931 23.25,6 L23.25,8.99371436 C23.25,9.6840703 22.6903559,10.2437144 22,10.2437144 C21.3096441,10.2437144 20.75,9.6840703 20.75,8.99371436 L20.75,6.25 Z M20.75,14.1578669 C20.75,13.467511 21.3096441,12.9078669 22,12.9078669 C22.6903559,12.9078669 23.25,13.467511 23.25,14.1578669 L23.25,17 C23.25,18.2426407 22.2426407,19.25 21,19.25 L18.0489268,19.25 C17.3585708,19.25 16.7989268,18.6903559 16.7989268,18 C16.7989268,17.3096441 17.3585708,16.75 18.0489268,16.75 L20.75,16.75 L20.75,14.1578669 Z M3.25,16.75 L5.99866779,16.75 C6.68902372,16.75 7.24866779,17.3096441 7.24866779,18 C7.24866779,18.6903559 6.68902372,19.25 5.99866779,19.25 L3,19.25 C1.75735931,19.25 0.75,18.2426407 0.75,17 L0.75,14.191836 C0.75,13.50148 1.30964406,12.941836 2,12.941836 C2.69035594,12.941836 3.25,13.50148 3.25,14.191836 L3.25,16.75 Z" id="形状" fill="#CCCCCC"></path>
                            <path d="M7.46209375,14.394 C5.90025,14.394 4.62959375,13.1233438 4.62959375,11.5614688 C4.62959375,9.999625 5.90025,8.72896875 7.46209375,8.72896875 C9.0239375,8.72896875 10.2945937,9.999625 10.2945937,11.5614688 C10.2945937,13.1233438 9.0239375,14.394 7.46209375,14.394 Z M7.46209375,10.2915 C6.7618125,10.2915 6.19209375,10.8612187 6.19209375,11.5615 C6.19209375,12.2617812 6.7618125,12.8315312 7.46209375,12.8315312 C8.162375,12.8315312 8.73209375,12.2618125 8.73209375,11.5615 C8.73209375,10.8612187 8.162375,10.2915 7.46209375,10.2915 Z" id="合并形状" fill="#CCCCCC"></path>
                            <path d="M20.0442813,14.9204688 L11.8353438,14.9204688 L15.9398125,7.8113125 L20.0442813,14.9204688 Z M14.5416875,13.3579688 L17.3379375,13.3579688 L15.9398125,10.9363125 L14.5416875,13.3579688 Z" id="合并形状" fill="#CCCCCC"></path>
                            <g id="分组-13" transform="translate(1.000000, 0.000000)">
                                <path d="M2.61189393,18.6700599 C2.79411484,18.0041869 3.48163079,17.6121094 4.1475038,17.7943303 C4.81337681,17.9765512 5.20545431,18.6640671 5.0232334,19.3299401 L3.20566974,25.9716951 C3.02344883,26.6375681 2.33593288,27.0296456 1.67005987,26.8474247 C1.00418686,26.6652038 0.612109362,25.9776879 0.794330265,25.3118149 L2.61189393,18.6700599 Z" id="路径-3" fill="#CCCCCC"></path>
                                <path d="M18.6118939,18.6700599 C18.7941148,18.0041869 19.4816308,17.6121094 20.1475038,17.7943303 C20.8133768,17.9765512 21.2054543,18.6640671 21.0232334,19.3299401 L19.2056697,25.9716951 C19.0234488,26.6375681 18.3359329,27.0296456 17.6700599,26.8474247 C17.0041869,26.6652038 16.6121094,25.9776879 16.7943303,25.3118149 L18.6118939,18.6700599 Z" id="路径-3-copy" fill="#CCCCCC" transform="translate(18.908782, 22.320877) scale(-1, 1) translate(-18.908782, -22.320877) "></path>
                                <path d="M10.2717808,18.589441 C10.2717808,18.0371563 10.719496,17.589441 11.2717808,17.589441 C11.8240655,17.589441 12.2717808,18.0371563 12.2717808,18.589441 L12.2717808,23.869811 C12.2717808,24.4220958 11.8240655,24.869811 11.2717808,24.869811 C10.719496,24.869811 10.2717808,24.4220958 10.2717808,23.869811 L10.2717808,18.589441 Z" id="路径-4" fill="#EEEEEE"></path>
                                <path d="M8.01094593,0.848175315 C8.23305534,0.194525003 8.94299886,-0.155308017 9.59664918,0.0668013935 C10.2502995,0.288910804 10.6001325,0.998854331 10.3780231,1.65250464 L9.43387856,4.43104683 C9.21176915,5.08469714 8.50182563,5.43453016 7.84817532,5.21242075 C7.194525,4.99031134 6.84469198,4.28036781 7.06680139,3.6267175 L8.01094593,0.848175315 Z M14.4338786,0.848175315 L15.3780231,3.6267175 C15.6001325,4.28036781 15.2502995,4.99031134 14.5966492,5.21242075 C13.9429989,5.43453016 13.2330553,5.08469714 13.0109459,4.43104683 L12.0668014,1.65250464 C11.844692,0.998854331 12.194525,0.288910804 12.8481753,0.0668013935 C13.5018256,-0.155308017 14.2117692,0.194525003 14.4338786,0.848175315 Z" id="合并形状" fill="#CCCCCC"></path>
                            </g>
                        </g>
                    </g>
                </g>
            </g>
        </g>
    </g>
</svg>