<?xml version="1.0" encoding="UTF-8"?>
<svg width="22px" height="20px" viewBox="0 0 22 20" version="1.1" xmlns="http://www.w3.org/2000/svg" xmlns:xlink="http://www.w3.org/1999/xlink">
    <!-- Generator: Sketch 53 (72520) - https://sketchapp.com -->
    <title>路径</title>
    <desc>Created with Sketch.</desc>
    <g id="首页" stroke="none" stroke-width="1" fill="none" fill-rule="evenodd">
        <g id="首页（默认版）" transform="translate(-271.000000, -658.000000)" fill="#F2B036">
            <g id="banner" transform="translate(40.000000, 284.000000)">
                <g id="分组-3">
                    <g id="文案" transform="translate(28.000000, 362.000000)">
                        <g id="分组-4" transform="translate(148.000000, 12.000000)">
                            <path d="M67.9154316,1.83401173 C69.1926594,4.2793607 71.1590981,5.74818418 73.8147475,6.24317231 C76.470397,6.73816044 76.8642317,7.98908153 74.9989867,9.99593558 C73.1337417,12.0027896 72.3843617,14.3781946 72.7481118,17.130221 C73.109127,19.8822474 72.0753108,20.6543213 69.6466634,19.4491328 C67.2180159,18.2439443 64.7866335,18.2439443 62.355251,19.4491328 C59.9238686,20.6543213 58.8927874,19.8795573 59.2538026,17.130221 C59.6148177,14.3781946 58.8654378,12.0000995 57.0001928,9.99593558 C55.1349478,7.98908153 55.5315174,6.73816044 58.1844319,6.24317231 C60.8400813,5.74818418 62.80652,4.2793607 64.0837479,1.83401173 C65.3582408,-0.611337243 66.6382037,-0.611337243 67.9154316,1.83401173 L67.9154316,1.83401173 Z" id="路径"></path>
                        </g>
                    </g>
                </g>
            </g>
        </g>
    </g>
</svg>