<svg xmlns="http://www.w3.org/2000/svg" width="18" height="14.5" viewBox="0 0 18 14.5">
  <defs>
    <style>
      .cls-1 {
        fill: #aaaaea;
      }

      .cls-2 {
        fill: #6a65da;
      }
    </style>
  </defs>
  <g id="学员管理" transform="translate(-32.061 -0.073)">
    <path id="路径_24" data-name="路径 24" class="cls-1" d="M208.233,7.111a7.138,7.138,0,0,1,4.526,6.639.818.818,0,0,1-.812.825H200.812A.818.818,0,0,1,200,13.75a7.138,7.138,0,0,1,4.526-6.639,3.794,3.794,0,0,1-1.733-4.24,3.7,3.7,0,0,1,7.171,0,3.794,3.794,0,0,1-1.733,4.24Zm-1.853-1.147a2.121,2.121,0,1,0-2.088-2.12,2.1,2.1,0,0,0,2.088,2.12Zm-4.691,6.962h9.381c-.385-2.435-2.419-4.488-4.691-4.488S202.074,10.49,201.689,12.926Z" transform="translate(-165.339 0)"/>
    <path id="路径_25" data-name="路径 25" class="cls-2" d="M48.064,115.53a3.261,3.261,0,0,1-1.036,2.419,6.469,6.469,0,0,1,3.032,5.6.615.615,0,0,1-1.229.052,5.231,5.231,0,0,0-3.176-5,.6.6,0,0,1-.071-1.062,2.267,2.267,0,0,0,1.251-2,1.66,1.66,0,0,0-1.167-1.659.6.6,0,0,1-.322-.795.619.619,0,0,1,.807-.317,2.859,2.859,0,0,1,1.91,2.771Zm-14.009,0a2.862,2.862,0,0,1,1.912-2.771.618.618,0,0,1,.807.318.6.6,0,0,1-.323.794,1.66,1.66,0,0,0-1.167,1.659,2.264,2.264,0,0,0,1.252,2,.6.6,0,0,1-.072,1.062,5.234,5.234,0,0,0-3.177,5,.615.615,0,0,1-1.227-.052,6.465,6.465,0,0,1,3.031-5.6,3.261,3.261,0,0,1-1.036-2.419Z" transform="translate(0 -110.892)"/>
  </g>
</svg>
