<svg xmlns="http://www.w3.org/2000/svg" xmlns:xlink="http://www.w3.org/1999/xlink" width="199" height="19.492" viewBox="0 0 199 19.492">
    <defs>
        <linearGradient id="linear-gradient" x1="0.5" x2="0.5" y2="1" gradientUnits="objectBoundingBox">
            <stop offset="0" stop-color="#fff"/>
            <stop offset="1" stop-color="#a199a8"/>
        </linearGradient>
        <linearGradient id="linear-gradient-2" y1="0.5" x2="1" y2="0.5" gradientUnits="objectBoundingBox">
            <stop offset="0" stop-color="#461739" stop-opacity="0.6"/>
            <stop offset="1" stop-color="#961744"/>
        </linearGradient>
        <linearGradient id="linear-gradient-4" x1="1" x2="0" xlink:href="#linear-gradient-2"/>
    </defs>
    <g id="组_216" data-name="组 216" transform="translate(66 -1421)">
        <path id="路径_161" data-name="路径 161" d="M4.395-16.67l2.7.781A37.338,37.338,0,0,1,5-10.908V0Q8.525-2.949,8.906-9.053H5.7v-2.559H8.955Q9-14.1,9-16.572h2.617q0,.664-.059,4.961h7.773v2.559H15.02v7.578q0,.918.7.918h.371q.557,0,.693-.386a27.952,27.952,0,0,0,.42-3.364q1.172.547,2.441,1.016-.3,2.383-.527,3.364a2.085,2.085,0,0,1-.9,1.4,3.2,3.2,0,0,1-1.694.415h-1.66Q12.4,1.885,12.4-.83V-9.053h-.82Q11.357-1.484,6.855,2.471,5.859,1.123,5,.156V2.49H2.383V-6.66Q1.709-5.742.977-4.893.684-6.572.254-8.428A26.073,26.073,0,0,0,4.395-16.67Zm10.332.176a27.66,27.66,0,0,1,3.5,2.422l-1.66,1.953q-.879-.742-3.34-2.637Zm10.895.82q8.75-.039,16.094-.449l.449,2.051q-3.408.186-6.895.3v1.357h7.871v1.953H37.5a21.2,21.2,0,0,0,6.27,1.934q-.7,1.328-1.289,2.539A17.34,17.34,0,0,1,35.27-9.8v2.666H32.73V-9.687a21.482,21.482,0,0,1-4.355,2.8H39.2l-.547,2.91h3.477q-.166,2.793-.273,3.818a2.352,2.352,0,0,1-.791,1.611,3.237,3.237,0,0,1-1.758.718,35.441,35.441,0,0,1-3.936.1Q35.094.752,34.84-.244q1.3.078,2.48.078a2.7,2.7,0,0,0,1.567-.3q.366-.3.366-1.553H35.66l.645-2.91H32.691q-.518,5.459-6.172,7.7-.957-1.25-1.914-2.324,4.932-1.572,5.469-5.371H27.125v-1.4q-.791.322-1.6.576l-1.25-2.383a24.845,24.845,0,0,0,6.279-2.324h-5.6v-1.953H32.73v-1.279q-3.271.078-6.6.088A19.6,19.6,0,0,0,25.621-15.674Zm30.328-.781,3.3-.273q.225.615.508,1.5H67v3.145H64.387v-1.133H51.652v1.133H49.035v-3.145h7.432Q56.193-15.928,55.949-16.455ZM67.375-9.893h-3.32a10.6,10.6,0,0,1-2.07,2.139l4.668.986L65.363-4.424Q62.336-5.43,59.2-6.26a40.233,40.233,0,0,1-8.7,1.8,23.834,23.834,0,0,0-1.016-2.246,48.609,48.609,0,0,0,5.6-.557q-1.885-.43-3.8-.791.83-.9,1.592-1.836H48.781v-1.836h5.5q.508-.7.986-1.426l2.949.527-.732.9h9.893Zm-12.129.8,3.682.713a6.325,6.325,0,0,0,2.051-1.514H55.939ZM56.77-5.4h2.578v1.445H67.3v2.031H61.262A21.254,21.254,0,0,0,67.785.146q-.625,1.27-1.074,2.383a19.037,19.037,0,0,1-7.363-3.4V2.686H56.77V-.937a18.626,18.626,0,0,1-7.324,3.467,21.241,21.241,0,0,0-1.074-2.3,20.22,20.22,0,0,0,6.357-2.148H48.781V-3.955H56.77ZM75.2-16.572l2.285.449q-.43,1.924-1.016,3.779V2.51H74.188V-6.572q-.586,1.221-1.25,2.4-.156-1.211-.625-3.633A39.125,39.125,0,0,0,75.2-16.572Zm13.281.215h2.441V-.576a3.155,3.155,0,0,1-.586,2.051,2.3,2.3,0,0,1-1.646.811,27.459,27.459,0,0,1-3,.049q-.137-1.113-.488-2.7,1.5.1,2.3.1.977,0,.977-1.25Zm-10.9.664h6.836v2.383H81.131q-.137.986-.342,1.914H84.3q0,10.059-5.645,13.965A21.956,21.956,0,0,0,76.746.615a11.278,11.278,0,0,0,3.7-4.15,22.635,22.635,0,0,0-1.865-1.738,12.811,12.811,0,0,1-.781,1.26q-.488-1.074-1.23-2.422a17.866,17.866,0,0,0,2.168-6.875H77.586Zm3.8,9.727a15.417,15.417,0,0,0,.479-3.066h-1.67q-.273.869-.605,1.68Q80.506-6.67,81.385-5.967Zm3.721-8.926h2.188V-1.787H85.105Z" transform="translate(-12 1437.729)" fill="url(#linear-gradient)"/>
        <g id="组_214" data-name="组 214" transform="translate(-66 1425.267)">
            <rect id="矩形_45" data-name="矩形 45" width="34" height="3" rx="1.5" fill="url(#linear-gradient-2)"/>
            <rect id="矩形_46" data-name="矩形 46" width="34" height="3" rx="1.5" transform="translate(0 7)" fill="url(#linear-gradient-2)"/>
        </g>
        <g id="组_215" data-name="组 215" transform="translate(99 1425.267)">
            <rect id="矩形_45-2" data-name="矩形 45" width="34" height="3" rx="1.5" fill="url(#linear-gradient-4)"/>
            <rect id="矩形_46-2" data-name="矩形 46" width="34" height="3" rx="1.5" transform="translate(0 7)" fill="url(#linear-gradient-4)"/>
        </g>
    </g>
</svg>
