<svg xmlns="http://www.w3.org/2000/svg" xmlns:xlink="http://www.w3.org/1999/xlink" width="199" height="20" viewBox="0 0 199 20">
  <defs>
    <linearGradient id="linear-gradient" x1="0.5" x2="0.5" y2="1" gradientUnits="objectBoundingBox">
      <stop offset="0" stop-color="#fff"/>
      <stop offset="1" stop-color="#a199a8"/>
    </linearGradient>
    <linearGradient id="linear-gradient-2" y1="0.5" x2="1" y2="0.5" gradientUnits="objectBoundingBox">
      <stop offset="0" stop-color="#461739" stop-opacity="0.6"/>
      <stop offset="1" stop-color="#961744"/>
    </linearGradient>
    <linearGradient id="linear-gradient-4" x1="1" x2="0" xlink:href="#linear-gradient-2"/>
  </defs>
  <g id="组_216" data-name="组 216" transform="translate(66 -1420)">
    <path id="路径_160" data-name="路径 160" d="M5.02.406A28.5,28.5,0,0,0,4.551-2.52a8.154,8.154,0,0,0,1.465.18A1.084,1.084,0,0,0,7.2-3.4a21.343,21.343,0,0,0,.142-2.725H4.492Q4.463.1,2.578,3.191a23.793,23.793,0,0,0-2.3-1.964Q1.895-1.478,1.914-6.528v-6.794h9.17L11-16.628H13.77l.029,3.307h2.666q-.518-.7-1.66-2.084l2.051-1.142q.684.762,1.953,2.385l-1.5.842h2.148v2.4H13.848a50.626,50.626,0,0,0,.42,5.4,30.06,30.06,0,0,0,2.295-4.419l2.4,1.142a37.318,37.318,0,0,1-3.877,6.874Q15.82.035,16.406.035q.225,0,.371-.291A6.343,6.343,0,0,0,17.1-1.7a14.721,14.721,0,0,0,.186-2,23.208,23.208,0,0,0,2.5,1.222A16.4,16.4,0,0,1,19.3.366,3.855,3.855,0,0,1,18.164,2.62a2.457,2.457,0,0,1-1.416.491q-2.129,0-3.525-2.725a24.549,24.549,0,0,1-2.969,2.806A15.507,15.507,0,0,0,8.223,1.067,23.006,23.006,0,0,0,12.148-2.62a47.669,47.669,0,0,1-.967-8.3H4.492v2.365h5.566q0,.3-.117,3.492a11.6,11.6,0,0,1-.527,3.923A3.643,3.643,0,0,1,8.354.06Q7.705.526,5.02.406Zm31.6,2.445q-.352-1.8-.7-3.006,1.377.06,2.539.06a1.284,1.284,0,0,0,1.47-1.253q.122-1.253.21-9.248H37.066a22.9,22.9,0,0,1-1.592,8.923,13,13,0,0,1-3.818,4.945q-1.035-1.122-2.168-2.184,4.98-3.226,4.99-11.683h-2.2v-2.645h2.266q.029-1.553.02-3.387h2.6l-.039,3.387h5.742L42.652-1.849A12.868,12.868,0,0,1,42.4.852a2.5,2.5,0,0,1-.7,1.117,2.8,2.8,0,0,1-1.25.661A22.787,22.787,0,0,1,36.617,2.851ZM24.957.306,24.293-2.68l2.676-.711v-8.727H24.527v-2.745h7.363v2.745H29.645v7.976l2.637-.782q-.049.731-.049,1.4,0,.8.068,1.523Q28.277-.837,24.957.306ZM55.949-16.448l3.3-.281q.225.631.508,1.543H67v3.226H64.387v-1.162H51.652v1.162H49.035v-3.226h7.432Q56.193-15.907,55.949-16.448ZM67.375-9.714h-3.32a10.76,10.76,0,0,1-2.07,2.194l4.668,1.012L65.363-4.1Q62.336-5.135,59.2-5.987a39.351,39.351,0,0,1-8.7,1.844,24.771,24.771,0,0,0-1.016-2.3,47.415,47.415,0,0,0,5.6-.571q-1.885-.441-3.8-.812.83-.922,1.592-1.884H48.781V-11.6h5.5q.508-.721.986-1.463l2.949.541-.732.922h9.893Zm-12.129.822,3.682.731a6.339,6.339,0,0,0,2.051-1.553H55.939ZM56.77-5.105h2.578v1.483H67.3v2.084H61.262A20.875,20.875,0,0,0,67.785.586q-.625,1.3-1.074,2.445A18.825,18.825,0,0,1,59.348-.456V3.191H56.77V-.526a18.43,18.43,0,0,1-7.324,3.557A22.061,22.061,0,0,0,48.371.666a19.875,19.875,0,0,0,6.357-2.2H48.781V-3.622H56.77ZM75.2-16.568l2.285.461q-.43,1.974-1.016,3.878V3.011H74.188V-6.308q-.586,1.253-1.25,2.465-.156-1.242-.625-3.727A40.882,40.882,0,0,0,75.2-16.568Zm13.281.22h2.441V-.155a3.3,3.3,0,0,1-.586,2.1,2.282,2.282,0,0,1-1.646.832,26.763,26.763,0,0,1-3,.05Q85.555,1.688,85.2.065q1.5.1,2.3.1.977,0,.977-1.283Zm-10.9.681h6.836v2.445H81.131q-.137,1.012-.342,1.964H84.3Q84.3-.937,78.66,3.071a22.271,22.271,0,0,0-1.914-2,11.48,11.48,0,0,0,3.7-4.259,22.877,22.877,0,0,0-1.865-1.784A13.206,13.206,0,0,1,77.8-3.682q-.488-1.1-1.23-2.485a18.671,18.671,0,0,0,2.168-7.054H77.586Zm3.8,9.98a16.2,16.2,0,0,0,.479-3.146h-1.67q-.273.892-.605,1.723Q80.506-6.408,81.385-5.686Zm3.721-9.158h2.188V-1.4H85.105Z" transform="translate(-12 1436.729)" fill="url(#linear-gradient)"/>
    <g id="组_214" data-name="组 214" transform="translate(-66 1425.267)">
      <rect id="矩形_45" data-name="矩形 45" width="34" height="3" rx="1.5" fill="url(#linear-gradient-2)"/>
      <rect id="矩形_46" data-name="矩形 46" width="34" height="3" rx="1.5" transform="translate(0 7)" fill="url(#linear-gradient-2)"/>
    </g>
    <g id="组_215" data-name="组 215" transform="translate(99 1425.267)">
      <rect id="矩形_45-2" data-name="矩形 45" width="34" height="3" rx="1.5" fill="url(#linear-gradient-4)"/>
      <rect id="矩形_46-2" data-name="矩形 46" width="34" height="3" rx="1.5" transform="translate(0 7)" fill="url(#linear-gradient-4)"/>
    </g>
  </g>
</svg>
