<?xml version="1.0" encoding="UTF-8"?>
<svg width="46px" height="80px" viewBox="0 0 46 80" version="1.1" xmlns="http://www.w3.org/2000/svg" xmlns:xlink="http://www.w3.org/1999/xlink">
    <!-- Generator: Sketch 53 (72520) - https://sketchapp.com -->
    <title>分组 13</title>
    <desc>Created with Sketch.</desc>
    <g id="首页" stroke="none" stroke-width="1" fill="none" fill-rule="evenodd">
        <g id="首页（默认版）" transform="translate(-556.000000, -116.000000)">
            <g id="分组-22" transform="translate(0.000000, 116.000000)">
                <g id="分组-13" transform="translate(556.000000, 0.000000)">
                    <g id="pifu-2" transform="translate(0.000000, 42.000000)">
                        <path d="M35.1033362,0.04196139 L32.4715532,0.04196139 C31.7741418,0.04196139 31.1041031,0.339603604 30.6517615,0.874097812 C29.3008142,2.46911969 25.4416563,3.50201544 23.0111665,3.50201544 C20.5807261,3.50201544 16.721667,2.4691686 15.3706702,0.874097812 C14.9182299,0.33965251 14.2484382,0.04196139 13.5507798,0.04196139 L10.9190956,0.04196139 C10.2780602,0.04196139 9.6632116,0.298131274 9.20988185,0.754571429 L0.457331901,9.56445817 C-0.104500537,10.1302033 -0.104500537,11.0471429 0.457331901,11.612888 L5.79575295,16.9862445 C6.06337467,17.2575318 6.4302444,17.4104883 6.81331149,17.4104883 C7.19637859,17.4104883 7.56324832,17.2575318 7.83087003,16.9862445 L8.00661869,16.8091068 C8.19807948,16.6165637 8.52561332,16.752816 8.52561332,17.0255161 L8.52561332,35.7608366 C8.52561332,36.9779125 9.505942,37.9647387 10.7150849,37.9647387 L35.3072481,37.9647387 C36.516391,37.9647387 37.4967197,36.9779125 37.4967197,35.7608366 L37.4967197,17.0255161 C37.4967197,16.752816 37.8243523,16.6165148 38.0158131,16.8091068 L38.1919076,16.9862445 C38.4594628,17.2575243 38.826278,17.4104818 39.2092932,17.4104818 C39.5923084,17.4104818 39.9591237,17.2575243 40.2266788,16.9862445 L45.5650011,11.612888 C46.1270806,11.0471429 46.1270806,10.1302033 45.5650011,9.56445817 L36.8126982,0.754571429 C36.3592202,0.298131274 35.7445199,0.04196139 35.1033362,0.04196139 Z" id="路径" fill="#FFA820"></path>
                        <path d="M43.7143781,13.4756216 L45.5650011,11.612888 C46.1270806,11.0471429 46.1270806,10.1302033 45.5650011,9.56445817 L36.8126982,0.754571429 C36.4678711,0.407485199 36.02971,0.176599743 35.5576541,0.0856833977 C39.7759184,3.32204118 42.7648808,8.05267439 43.7143781,13.4756216 L43.7143781,13.4756216 Z M0.457331901,9.56445817 C-0.104500537,10.1302033 -0.104500537,11.0471918 0.457331901,11.612888 L0.932055854,12.090749 C1.34381759,10.4063882 1.95994769,8.77752353 2.76701611,7.23966023 L0.457331901,9.56445817 Z M8.52561332,35.7608366 C8.52561332,36.9779125 9.505942,37.9647387 10.7150849,37.9647387 L16.0341375,37.9647387 C13.2639098,37.1631197 10.7214586,35.8334131 8.52561332,34.0928958 L8.52561332,35.7608366 Z M37.4967197,35.7608366 L37.4967197,32.6293822 C34.9627175,35.093758 31.824638,36.9513565 28.3224125,37.9647387 L35.3072481,37.9647387 C36.516391,37.9647876 37.4967197,36.9779125 37.4967197,35.7608366 Z" id="形状" fill="#FEAC33" fill-rule="nonzero"></path>
                        <path d="M11.7531729,0.04196139 L10.9190462,0.04196139 C10.2780107,0.04196139 9.66316219,0.298131274 9.20983244,0.754571429 L2.76706552,7.23961133 C1.95998381,8.77746877 1.34385309,10.406335 0.932105263,12.0907001 L2.54729323,13.716435 C3.32459936,7.87607465 6.82899893,2.88663063 11.7531729,0.04196139 Z M40.1108636,16.1787568 C40.1108636,16.4906306 40.1029581,16.800695 40.0876907,17.1088031 C40.1365905,17.070899 40.183013,17.029964 40.2266788,16.9862445 L43.7143781,13.4756216 C42.7648808,8.05267439 39.7759184,3.32204118 35.5577035,0.0856833977 C35.4080156,0.0567146487 35.2558584,0.0420731451 35.1033362,0.04196139 L32.4715532,0.04196139 C32.0504078,0.0417184572 31.6366266,0.151274873 31.2718475,0.359606178 C36.5815618,3.66301416 40.1108636,9.51286229 40.1108636,16.1787568 L40.1108636,16.1787568 Z M37.4967197,25.6676062 C34.2137229,31.1637658 28.1655381,34.8499125 21.2476026,34.8499125 C16.3452675,34.8499125 11.8799076,32.9986718 8.52561332,29.9641982 L8.52561332,34.0929447 C10.7214586,35.833462 13.2638604,37.1631686 16.0341375,37.9647876 L28.3224125,37.9647876 C31.824638,36.9514054 34.9627175,35.0938069 37.4967197,32.6294311 L37.4967197,25.6676062 L37.4967197,25.6676062 Z" id="形状" fill="#FEB133" fill-rule="nonzero"></path>
                        <path d="M37.4967197,25.6676062 L37.4967197,17.0255161 C37.4967197,16.752816 37.8243523,16.6165148 38.0158131,16.8091068 L38.1919076,16.9862445 C38.6992891,17.5007353 39.5170105,17.5535993 40.0876907,17.1088031 C40.1029581,16.8006461 40.1108636,16.4906306 40.1108636,16.1787568 C40.1108636,9.51286229 36.5815618,3.66306306 31.2718475,0.359606178 C31.0363689,0.493923423 30.8264981,0.668055389 30.6517615,0.874097812 C30.2811429,1.31170914 29.7214844,1.70687001 29.0545585,2.05009266 C33.3504941,4.86057658 36.1850032,9.68315315 36.1850032,15.1617066 C36.1850032,23.8361725 29.0805972,30.8681776 20.3169302,30.8681776 C15.6365908,30.8681776 11.4299871,28.8620515 8.52561332,25.6716654 L8.52561332,29.9641982 C11.8799076,32.9986718 16.3452675,34.8499125 21.2476026,34.8499125 C28.1655381,34.8499125 34.2137229,31.1637658 37.4967197,25.6676062 L37.4967197,25.6676062 Z M14.8424361,0.415212355 C14.4603545,0.172736165 14.0118668,0.04196139 13.5507798,0.04196139 L11.7531729,0.04196139 C6.82899893,2.88663063 3.32459936,7.87607465 2.54724382,13.7164839 L4.45676262,15.6384916 C4.45196992,15.4800849 4.44885714,15.3212381 4.44885714,15.1617066 C4.44880773,8.39169112 8.77626638,2.62229344 14.8424361,0.415212355 Z" id="形状" fill="#FEB633" fill-rule="nonzero"></path>
                        <path d="M16.4232846,1.74257143 C15.9960924,1.47691377 15.6351579,1.18631403 15.3706702,0.874048906 C15.2191136,0.695496961 15.0410179,0.540784472 14.8424855,0.415212355 C8.77626638,2.62229344 4.44880773,8.39169112 4.44880773,15.1617066 C4.44880773,15.321287 4.45196992,15.4800849 4.45671321,15.6384916 L5.79570354,16.9862445 C6.10876047,17.3013951 6.53017186,17.4406795 6.93928034,17.4046847 C6.66179807,16.3640618 6.51332331,15.2715495 6.51332331,14.1446564 C6.51332331,8.11693694 10.7421611,3.06733848 16.4232846,1.74257143 Z M20.3169302,30.8681776 C29.0806466,30.8681776 36.1850032,23.8361236 36.1850032,15.1617066 C36.1850032,9.68310425 33.3504941,4.86057658 29.0545585,2.05009266 C28.1339162,2.52394337 27.0087691,2.89861261 25.8923179,3.14857143 C29.7013749,5.36137452 32.2591923,9.45706049 32.2591923,14.1446564 C32.2591923,21.1817967 26.4958024,26.8864916 19.3862578,26.8864916 C14.8210913,26.8864916 10.8111858,24.5341596 8.52561332,20.9873951 L8.52561332,25.6716654 C11.4299871,28.8620515 15.6365908,30.8681776 20.3169302,30.8681776 L20.3169302,30.8681776 Z" id="形状" fill="#FFBC34" fill-rule="nonzero"></path>
                        <path d="M19.3862578,26.8864427 C26.4958024,26.8864427 32.2591923,21.1817477 32.2591923,14.1446075 C32.2591923,9.45701158 29.7013749,5.36137452 25.8923179,3.14852252 C24.8695961,3.37750064 23.8543845,3.50191763 23.0111665,3.50191763 C21.0565371,3.50191763 18.1782019,2.83376319 16.4232846,1.74252252 C10.7421611,3.06728958 6.51337272,8.11688803 6.51337272,14.1446075 C6.51337272,15.2715495 6.66184748,16.3640129 6.93932975,17.4046358 C7.26454135,17.3760257 7.58194629,17.2366924 7.83087003,16.9861956 L8.00661869,16.8090579 C8.19807948,16.6165148 8.52561332,16.7527671 8.52561332,17.0254672 L8.52561332,20.9873462 C10.8111858,24.5341107 14.8210913,26.8864427 19.3862578,26.8864427 L19.3862578,26.8864427 Z M18.4555854,3.35040669 C23.9109087,3.35040669 28.3333319,7.72779151 28.3333319,13.1275573 C28.3333319,18.527323 23.9109087,22.9047079 18.4555854,22.9047079 C13.0002621,22.9047079 8.57783888,18.527323 8.57783888,13.1275573 C8.57783888,7.72779151 13.0002621,3.35040669 18.4555854,3.35040669 Z" id="形状" fill="#FFC134" fill-rule="nonzero"></path>
                        <path d="M18.4555854,22.9047568 C23.9109087,22.9047568 28.3333319,18.5273719 28.3333319,13.1276062 C28.3333319,7.72784041 23.9109087,3.3504556 18.4555854,3.3504556 C13.0002621,3.3504556 8.57783888,7.72784041 8.57783888,13.1276062 C8.57783888,18.5273719 13.0002621,22.9047568 18.4555854,22.9047568 Z M17.524913,5.29804118 C21.3260644,5.29804118 24.4075209,8.34811583 24.4075209,12.110556 C24.4075209,15.8729961 21.3260644,18.9230708 17.524913,18.9230708 C13.7237615,18.9230708 10.642305,15.8729961 10.642305,12.110556 C10.642305,8.34811583 13.7237615,5.29804118 17.524913,5.29804118 Z" id="形状" fill="#FFC634" fill-rule="nonzero"></path>
                        <path d="M10.642305,12.110556 C10.642305,15.873004 13.7237536,18.9230708 17.524913,18.9230708 C21.3260724,18.9230708 24.4075209,15.873004 24.4075209,12.110556 C24.4075209,8.34810795 21.3260724,5.29804118 17.524913,5.29804118 C13.7237536,5.29804118 10.642305,8.34810795 10.642305,12.110556 Z" id="路径" fill="#FFCB34"></path>
                        <path d="M35.1033362,0.92227027 C35.508739,0.92227027 35.8905736,1.08189961 36.17858,1.37181467 L44.9308829,10.1817014 C45.1538668,10.4060824 45.1538668,10.7712149 44.9308335,10.9956448 L39.5925113,16.3690013 C39.4892954,16.4729266 39.3531729,16.5301467 39.2092438,16.5301467 C39.0653641,16.5301467 38.9292417,16.4729266 38.8258776,16.3688546 L38.6496842,16.1915701 C38.4233405,15.9639614 38.1226853,15.8386152 37.8030075,15.8386152 C37.1436907,15.8386152 36.6073534,16.3710553 36.6073534,17.0255161 L36.6073534,35.7608366 C36.6073534,36.4906615 36.0241267,37.0844299 35.3072481,37.0844299 L10.7150849,37.0844299 C9.99820623,37.0844299 9.41497959,36.4906615 9.41497959,35.7608366 L9.41497959,17.0255161 C9.41497959,16.3710553 8.87864232,15.8386152 8.21937487,15.8386152 C7.89974651,15.8386152 7.5990913,15.9639614 7.37200644,16.1923037 L7.1968507,16.3689035 C7.09353598,16.4728777 6.95731472,16.5301467 6.81328679,16.5301467 C6.66930827,16.5301467 6.53318582,16.4729266 6.42992052,16.3690013 L1.09154887,10.9957426 C0.868614393,10.7712638 0.868614393,10.4060335 1.09145005,10.1816525 L9.84409882,1.37166795 C10.1319076,1.08185071 10.5136928,0.92227027 10.9190462,0.92227027 L13.5507304,0.92227027 C13.9958088,0.92227027 14.4106982,1.11075418 14.6890698,1.43964736 C15.6159377,2.53396911 17.2805349,3.2316139 18.5137895,3.62423166 C20.0049603,4.09891377 21.686159,4.38232432 23.0111171,4.38232432 C24.3361246,4.38232432 26.0173727,4.09891377 27.5085435,3.62423166 C28.7417981,3.23166281 30.4064447,2.53396911 31.3334608,1.43940283 C31.6116348,1.11075418 32.0264253,0.92227027 32.4715038,0.92227027 L35.1033362,0.92227027 L35.1033362,0.92227027 Z M35.1033362,0.04196139 L32.4715532,0.04196139 C31.7741418,0.04196139 31.1041031,0.339603604 30.6517615,0.874048906 C29.3008636,2.46911969 25.4416563,3.50196654 23.0111665,3.50196654 C20.5807261,3.50196654 16.721667,2.46911969 15.3706702,0.874048906 C14.9182299,0.339603604 14.2484382,0.04196139 13.5507798,0.04196139 L10.9190956,0.04196139 C10.2780602,0.04196139 9.6632116,0.298131274 9.20988185,0.754571429 L0.457331901,9.56445817 C-0.104500537,10.1302033 -0.104500537,11.0471918 0.457331901,11.612888 L5.79570354,16.9862445 C6.07664447,17.2690682 6.44494092,17.4104556 6.81318797,17.4104556 C7.18148443,17.4104556 7.54978088,17.2690193 7.83082062,16.9862445 L8.00656928,16.8091068 C8.06847905,16.7468494 8.1446681,16.718973 8.21932546,16.718973 C8.37560687,16.718973 8.52556391,16.8410425 8.52556391,17.025565 L8.52556391,35.7608855 C8.52556391,36.9779614 9.50589259,37.9647876 10.7150354,37.9647876 L35.3071987,37.9647876 C36.5163416,37.9647876 37.4966702,36.9779614 37.4966702,35.7608855 L37.4966702,17.0255161 C37.4966702,16.8409936 37.6466767,16.7189241 37.8029581,16.7189241 C37.8776649,16.7189241 37.9538045,16.7468005 38.0157637,16.8090579 L38.1918582,16.9861956 C38.4727991,17.2690193 38.8409968,17.4104067 39.2091944,17.4104067 C39.5773921,17.4104067 39.9456391,17.2689704 40.2266294,16.9861956 L45.5649517,11.6128391 C46.1270311,11.047094 46.1270311,10.1301055 45.5649517,9.56440927 L36.8126982,0.754571429 C36.3592202,0.298131274 35.7445199,0.04196139 35.1033362,0.04196139 Z" id="形状" fill="#FFA820" fill-rule="nonzero"></path>
                        <path d="M12.8135446,12.6686229 L23.0303373,12.6686229 C23.9708915,12.6686229 24.7331278,13.4231943 24.7331278,14.3540232 L24.7331278,27.8377632 C24.7331278,28.7686409 23.9708421,29.5233102 23.0303373,29.5233102 L12.8135446,29.5233102 C11.8730892,29.5233102 11.110754,28.7686409 11.110754,27.8377632 L11.110754,14.3540232 C11.1107046,13.4231943 11.8730892,12.6686229 12.8135446,12.6686229 Z" id="路径" fill="#FFE3B4"></path>
                        <path d="M5.81601074,8.7068906 C5.46871321,8.36312999 5.46871321,7.80569884 5.81601074,7.46193822 L10.1525113,3.16960103 C10.4998088,2.82584041 11.0629753,2.82584041 11.4102728,3.16960103 C11.7575704,3.51336165 11.7575704,4.07079279 11.4102728,4.41455341 L7.07377229,8.7068906 C6.72647476,9.05065122 6.16330827,9.05065122 5.81601074,8.7068906 L5.81601074,8.7068906 Z M3.3841869,11.1139485 C3.03688937,10.7701879 3.03683996,10.2128057 3.3841869,9.86899614 L3.75263158,9.50430373 C4.09992911,9.16054311 4.6630956,9.16054311 5.01039313,9.50430373 C5.35769066,9.84806435 5.35769066,10.4054955 5.01039313,10.7492561 L4.64194844,11.1139485 C4.2946015,11.457758 3.73148443,11.4577091 3.3841869,11.1139485 L3.3841869,11.1139485 Z" id="形状" fill="#FFFFFF" fill-rule="nonzero"></path>
                    </g>
                    <rect id="矩形" fill="#FFA820" x="22" y="0" width="2" height="46"></rect>
                </g>
            </g>
        </g>
    </g>
</svg>