<?xml version="1.0" encoding="UTF-8"?>
<svg width="36px" height="8px" viewBox="0 0 36 8" version="1.1" xmlns="http://www.w3.org/2000/svg" xmlns:xlink="http://www.w3.org/1999/xlink">
    <!-- Generator: Sketch 53 (72520) - https://sketchapp.com -->
    <title>菜单@2x</title>
    <desc>Created with Sketch.</desc>
    <g id="分类" stroke="none" stroke-width="1" fill="none" fill-rule="evenodd">
        <g transform="translate(-678.000000, -72.000000)" fill="#000000" fill-rule="nonzero" id="分组">
            <g transform="translate(0.000000, 40.000000)">
                <g id="菜单" transform="translate(678.000000, 32.000000)">
                    <path d="M0.0302521008,4.00869565 C0.0302521008,6.20582846 1.80068912,7.98695652 3.98463385,7.98695652 C6.16857859,7.98695652 7.93901561,6.20582846 7.93901561,4.00869565 C7.93901561,1.81156284 6.16857859,0.0304347826 3.98463385,0.0304347826 C1.80068912,0.0304347826 0.0302521008,1.81156284 0.0302521008,4.00869565 Z" id="Shape"></path>
                    <path d="M14.2055222,4.00869565 C14.2055222,6.20582846 15.9759592,7.98695652 18.159904,7.98695652 C20.3438487,7.98695652 22.1142857,6.20582846 22.1142857,4.00869565 C22.1142857,1.81156284 20.3438487,0.0304347826 18.159904,0.0304347826 C15.9759592,0.0304347826 14.2055222,1.81156284 14.2055222,4.00869565 Z" id="Shape"></path>
                    <path d="M28.0480192,4.00869565 C28.0480192,6.20582846 29.8184562,7.98695652 32.002401,7.98695652 C34.1863457,7.98695652 35.9567827,6.20582846 35.9567827,4.00869565 C35.9567827,1.81156284 34.1863457,0.0304347826 32.002401,0.0304347826 C29.8184562,0.0304347826 28.0480192,1.81156284 28.0480192,4.00869565 Z" id="Shape"></path>
                </g>
            </g>
        </g>
    </g>
</svg>