<?xml version="1.0" encoding="UTF-8"?>
<svg width="32px" height="32px" viewBox="0 0 32 32" version="1.1" xmlns="http://www.w3.org/2000/svg" xmlns:xlink="http://www.w3.org/1999/xlink">
    <!-- Generator: Sketch 53 (72520) - https://sketchapp.com -->
    <title>时间</title>
    <desc>Created with Sketch.</desc>
    <g id="详情页" stroke="none" stroke-width="1" fill="none" fill-rule="evenodd">
        <g id="特色体验课" transform="translate(-73.000000, -5207.000000)">
            <g id="分组-11" transform="translate(40.000000, 5179.000000)">
                <g id="分组-10" transform="translate(30.000000, 24.000000)">
                    <g id="时间" transform="translate(0.000000, 1.000000)">
                        <rect id="矩形" fill="#000000" opacity="0" x="0" y="0" width="38" height="38"></rect>
                        <path d="M18.9890824,3.92991751 C10.6660754,3.92991751 3.91896193,10.677031 3.91896193,19.000038 C3.91896193,27.323007 10.6660754,34.0701584 18.9890824,34.0701584 C27.3120514,34.0701584 34.0592028,27.323007 34.0592028,19.000038 C34.0591649,10.677031 27.3120514,3.92991751 18.9890824,3.92991751 Z M6.89409281,20.067874 C6.29964386,20.067874 5.81767464,19.5859048 5.81767464,18.9914178 C5.81767464,18.3968929 6.29964386,17.9149237 6.89409281,17.9149237 C7.48861773,17.9149237 7.97054898,18.3968929 7.97054898,18.9914178 C7.97058695,19.5859047 7.48861773,20.067874 6.89409281,20.067874 Z M18.9890444,5.82863019 C19.5835693,5.82863019 20.0655386,6.3105994 20.0655386,6.90512432 C20.0655386,7.49961127 19.5836073,7.98158049 18.9890444,7.98158049 C18.3945955,7.98158049 17.9126263,7.49961127 17.9126263,6.90512432 C17.9126263,6.31056144 18.3945955,5.82863019 18.9890444,5.82863019 Z M18.9890444,32.2730269 C18.3945955,32.2730269 17.9126263,31.7910577 17.9126263,31.1965707 C17.9126263,30.6020458 18.3945955,30.1200766 18.9890444,30.1200766 C19.5835693,30.1200766 20.0655386,30.6020079 20.0655386,31.1965707 C20.0655006,31.7910577 19.5835693,32.2730269 18.9890444,32.2730269 Z M27.8349949,12.5174152 L22.0281619,17.9445056 C22.4887516,19.1098595 22.2479949,20.488249 21.3054739,21.4308079 C20.0392604,22.6970214 17.9862963,22.6970214 16.7200828,21.4308079 C15.7739543,20.4847173 15.5349064,19.0994166 16.0026353,17.9312146 L12.0057312,14.3140531 C11.5077368,13.8160587 11.5077748,13.0086881 12.0056932,12.5107697 C12.5036875,12.0127754 13.3110582,12.0127754 13.8090146,12.5107697 L17.8059567,16.1279313 C18.5832896,15.8167323 19.4566595,15.8183652 20.2328532,16.1330958 L26.0315977,10.7140559 C26.529554,10.2160995 27.3370006,10.2160995 27.834957,10.7140559 C28.3329513,11.2120502 28.3329513,12.0194208 27.8349949,12.5174152 Z M31.0839961,20.0764562 C30.4895471,20.0764562 30.0075779,19.5945249 30.0075779,19.000038 C30.0075779,18.4055131 30.4895091,17.9235439 31.0839961,17.9235439 C31.678521,17.9235439 32.1604902,18.4055131 32.1604902,19.000038 C32.1604522,19.594487 31.6785209,20.0764562 31.0839961,20.0764562 Z" id="形状" fill="#999999" fill-rule="nonzero"></path>
                    </g>
                </g>
            </g>
        </g>
    </g>
</svg>