<svg xmlns="http://www.w3.org/2000/svg" width="18" height="19" viewBox="0 0 18 19">
  <defs>
    <style>
      .cls-1 {
        fill: #fff;
      }
    </style>
  </defs>
  <path id="时间_1_" data-name="时间 (1)" class="cls-1" d="M29.723,22.462a8.664,8.664,0,1,0,8.571,8.664,8.615,8.615,0,0,0-8.571-8.664Zm-.273,9.107v-4.8a.818.818,0,1,1,1.637,0v5.266a.835.835,0,0,1-.367.693.823.823,0,0,1-.119.085l-3.308,1.94a.811.811,0,0,1-1.118-.3.839.839,0,0,1,.3-1.136l2.975-1.745Zm9.078-7.424-3.816-3.139a.944.944,0,0,0-1.32.163.981.981,0,0,0,.119,1.345l3.814,3.139a.944.944,0,0,0,1.343-.143.981.981,0,0,0-.141-1.364Zm-17.293,0a.981.981,0,0,0-.141,1.364.945.945,0,0,0,1.343.143l3.816-3.138a.982.982,0,0,0,.143-1.366A.946.946,0,0,0,25.051,21l-3.816,3.139Z" transform="translate(-20.881 -20.788)"/>
</svg>
