<svg xmlns="http://www.w3.org/2000/svg" xmlns:xlink="http://www.w3.org/1999/xlink" width="18" height="18" viewBox="0 0 18 18">
  <defs>
    <linearGradient id="linear-gradient" x1="0.948" y1="0.939" x2="0.049" y2="0.067" gradientUnits="objectBoundingBox">
      <stop offset="0" stop-color="#7a8af9"/>
      <stop offset="1" stop-color="#29b6f6"/>
    </linearGradient>
  </defs>
  <g id="宣传视频" transform="translate(-1.24 -1.24)">
    <path id="路径_13" data-name="路径 13" d="M15.824,19.24H4.655A3.426,3.426,0,0,1,1.24,15.824V4.655A3.425,3.425,0,0,1,4.655,1.24H15.824A3.426,3.426,0,0,1,19.24,4.655V15.824a3.427,3.427,0,0,1-3.416,3.416Z" fill="url(#linear-gradient)"/>
    <path id="路径_14" data-name="路径 14" d="M5.315,5.33H4.456a.265.265,0,0,1-.264-.264V4.208a.265.265,0,0,1,.264-.264h.859a.265.265,0,0,1,.264.264v.858a.265.265,0,0,1-.264.264Zm3.76-.264V4.208a.265.265,0,0,0-.264-.264H7.954a.265.265,0,0,0-.264.264v.858a.265.265,0,0,0,.264.264h.858a.264.264,0,0,0,.264-.264Zm3.5,0V4.208a.265.265,0,0,0-.264-.264h-.856a.265.265,0,0,0-.264.264v.858a.264.264,0,0,0,.264.264h.856a.265.265,0,0,0,.264-.264Zm3.5,0V4.208a.265.265,0,0,0-.264-.264h-.859a.265.265,0,0,0-.264.264v.858a.265.265,0,0,0,.264.264h.859a.264.264,0,0,0,.264-.264ZM5.577,16.138v-.859a.265.265,0,0,0-.264-.264H4.454a.265.265,0,0,0-.264.264v.859a.265.265,0,0,0,.264.264h.859a.264.264,0,0,0,.264-.264Zm3.5,0v-.859a.265.265,0,0,0-.264-.264H7.951a.265.265,0,0,0-.264.264v.859a.264.264,0,0,0,.264.264h.858a.265.265,0,0,0,.264-.264Zm3.5,0v-.859a.265.265,0,0,0-.264-.264h-.858a.265.265,0,0,0-.264.264v.859a.265.265,0,0,0,.264.264h.858a.264.264,0,0,0,.264-.264Zm3.5,0v-.859a.265.265,0,0,0-.264-.264h-.858a.265.265,0,0,0-.264.264v.859a.264.264,0,0,0,.264.264H15.8A.265.265,0,0,0,16.067,16.138ZM7.625,8.287V12.18a1.222,1.222,0,0,0,1.834,1.059l3.371-1.946a1.223,1.223,0,0,0,0-2.118L9.459,7.228A1.223,1.223,0,0,0,7.625,8.287Z" fill="#fff"/>
  </g>
</svg>
