<?xml version="1.0" encoding="UTF-8"?>
<svg width="36px" height="46px" viewBox="0 0 36 46" version="1.1" xmlns="http://www.w3.org/2000/svg" xmlns:xlink="http://www.w3.org/1999/xlink">
    <!-- Generator: Sketch 55.1 (78136) - https://sketchapp.com -->
    <title>待付款</title>
    <desc>Created with Sketch.</desc>
    <g id="VC1.5.0-H5_个人中心" stroke="none" stroke-width="1" fill="none" fill-rule="evenodd">
        <g id="个人中心" transform="translate(-37.000000, -269.000000)">
            <g id="我的订单" transform="translate(12.000000, 250.000000)">
                <g id="编组" transform="translate(25.000000, 15.000000)">
                    <g id="待付款" transform="translate(0.000000, 4.000000)">
                        <g transform="translate(6.000000, 0.000000)">
                            <rect id="矩形" x="0" y="0" width="24" height="24"></rect>
                            <g id="分组-10" transform="translate(0.000000, 3.000000)">
                                <rect id="矩形" stroke="#F2B036" stroke-width="2" fill-opacity="0.1" fill="#E1FDEC" x="1" y="1" width="22" height="16" rx="4"></rect>
                                <rect id="矩形" fill="#F2B036" x="2" y="5" width="20" height="2"></rect>
                                <g id="分组-9" transform="translate(11.000000, 9.000000)" fill="#E1FDEC" stroke="#F2B036" stroke-width="2">
                                    <circle id="椭圆形" cx="3" cy="3" r="2"></circle>
                                    <circle id="椭圆形-copy" cx="7" cy="3" r="2"></circle>
                                </g>
                            </g>
                        </g>
                        <path d="M2.15625,44.9902344 L2.15625,40.1679688 C1.74218543,40.6484399 1.33203328,41.0742169 0.92578125,41.4453125 C0.867187207,41.2304677 0.744141562,40.9277344 0.556640625,40.5371094 C1.09179955,40.0410131 1.5722635,39.5078154 1.99804688,38.9375 C2.43554906,38.3593721 2.85937295,37.6894569 3.26953125,36.9277344 L4.01953125,37.4082031 C3.66796699,38.0293 3.33007975,38.5703102 3.00585938,39.03125 L3.00585938,44.9902344 L2.15625,44.9902344 Z M6.63867188,44.8671875 C6.61523426,44.5664047 6.5585942,44.255861 6.46875,43.9355469 C6.79687664,43.9589845 7.26757506,43.9707031 7.88085938,43.9707031 C8.22461109,43.9707031 8.45703064,43.9111334 8.578125,43.7919922 C8.69921936,43.672851 8.75976562,43.4453142 8.75976562,43.109375 L8.75976562,40.90625 L4.078125,40.90625 L4.078125,40.0917969 L8.75976562,40.0917969 L8.75976562,39.1308594 L9.66796875,39.1308594 L9.66796875,40.0917969 L11.3789062,40.0917969 L11.3789062,40.90625 L9.66796875,40.90625 L9.66796875,43.390625 C9.66796875,43.882815 9.55859484,44.2421864 9.33984375,44.46875 C9.10937385,44.7109387 8.72265896,44.8398437 8.1796875,44.8554688 C7.80077936,44.8632813 7.28711262,44.8671875 6.63867188,44.8671875 Z M6.24609375,43.4023438 C5.7656226,42.8437472 5.2656276,42.3105494 4.74609375,41.8027344 L5.37304688,41.2519531 C6.16601959,42.0253945 6.68749875,42.5410143 6.9375,42.7988281 L6.24609375,43.4023438 Z M4.0546875,38.6269531 L4.0546875,37.8125 L7.23046875,37.8125 L7.23046875,36.2128906 L4.59375,36.2128906 L4.59375,35.4042969 L7.23046875,35.4042969 L7.23046875,33.921875 L8.1328125,33.921875 L8.1328125,35.4042969 L10.8867188,35.4042969 L10.8867188,36.2128906 L8.1328125,36.2128906 L8.1328125,37.8125 L11.4199219,37.8125 L11.4199219,38.6269531 L4.0546875,38.6269531 Z M1.1484375,37.8007812 C1.03906195,37.5624988 0.896485254,37.2792985 0.720703125,36.9511719 C1.22461189,36.5097634 1.67382615,36.0527367 2.06835938,35.5800781 C2.47851768,35.0917944 2.8789043,34.5312532 3.26953125,33.8984375 L4.01953125,34.4140625 C3.57421652,35.0937534 3.12890848,35.6953099 2.68359375,36.21875 C2.22265395,36.7656277 1.71094031,37.2929662 1.1484375,37.8007812 Z M14.0976562,44.9902344 L14.0976562,38.4804688 C13.6835917,39.179691 13.2695333,39.7988254 12.8554688,40.3378906 C12.757812,39.908201 12.6582036,39.519533 12.5566406,39.171875 C13.0683619,38.4687465 13.5546852,37.6386767 14.015625,36.6816406 C14.4726585,35.7246046 14.8281237,34.8046919 15.0820312,33.921875 L16.0429688,34.1855469 C15.7734362,34.9785196 15.4199241,35.8398391 14.9824219,36.7695312 L14.9824219,44.9902344 L14.0976562,44.9902344 Z M18.4570312,44.8554688 C18.3984372,44.4882794 18.3320316,44.1601577 18.2578125,43.8710938 C18.7500025,43.8984376 19.259763,43.9121094 19.7871094,43.9121094 C20.1503924,43.9121094 20.4082031,43.8359383 20.5605469,43.6835938 C20.7089851,43.542968 20.7832031,43.3066423 20.7832031,42.9746094 L20.7832031,37.4316406 L15.9082031,37.4316406 L15.9082031,36.5351562 L20.7832031,36.5351562 L20.7832031,33.9980469 L21.7207031,33.9980469 L21.7207031,36.5351562 L23.2441406,36.5351562 L23.2441406,37.4316406 L21.7207031,37.4316406 L21.7207031,43.1445312 C21.7207031,43.7226591 21.5976575,44.1425768 21.3515625,44.4042969 C21.1054675,44.6699232 20.6992216,44.8124999 20.1328125,44.8320312 C19.574216,44.8476563 19.0156278,44.8554688 18.4570312,44.8554688 Z M18.3808594,41.8671875 C17.6933559,40.8710888 16.9960973,39.9472699 16.2890625,39.0957031 L17.0039062,38.5800781 C17.7695351,39.4785201 18.4882779,40.3730424 19.1601562,41.2636719 L18.3808594,41.8671875 Z M29.9003906,45.03125 C29.7558587,44.8359365 29.5429702,44.585939 29.2617188,44.28125 C30.1875046,43.484371 30.8691384,42.6523481 31.3066406,41.7851562 C31.7050801,40.984371 31.9296872,40.0839894 31.9804688,39.0839844 C32.0156252,38.513669 32.0332031,37.8730504 32.0332031,37.1621094 L32.8828125,37.1621094 C32.8828125,37.6035178 32.873047,38.1289032 32.8535156,38.7382812 C33.0605479,40.0859442 33.359373,41.1581991 33.75,41.9550781 C34.1250019,42.7168007 34.6894494,43.4335904 35.4433594,44.1054688 C35.2167957,44.4023452 35.0156259,44.6777331 34.8398438,44.9316406 C34.1992155,44.3339814 33.7050799,43.714847 33.3574219,43.0742188 C32.9863263,42.3906216 32.7089853,41.5488331 32.5253906,40.5488281 C32.3613273,41.4238325 32.0859394,42.1972623 31.6992188,42.8691406 C31.2851542,43.5878942 30.6855508,44.3085901 29.9003906,45.03125 Z M25.7519531,44.796875 C25.6855465,44.4335919 25.6250003,44.1542979 25.5703125,43.9589844 C25.9609395,43.9746095 26.2382804,43.9824219 26.4023438,43.9824219 C26.6406262,43.9824219 26.8027339,43.9394536 26.8886719,43.8535156 C26.9746098,43.7675777 27.0175781,43.6093762 27.0175781,43.3789062 L27.0175781,41.0878906 L24.6445312,41.0878906 L24.6445312,40.3261719 L30.1464844,40.3261719 L30.1464844,41.0878906 L27.8847656,41.0878906 L27.8847656,43.5136719 C27.8847656,43.9394553 27.798829,44.249999 27.6269531,44.4453125 C27.451171,44.6445322 27.1621114,44.7539062 26.7597656,44.7734375 C26.3847638,44.7890626 26.0488296,44.796875 25.7519531,44.796875 Z M25.171875,43.9707031 C25.0351556,43.8808589 24.8183609,43.7539071 24.5214844,43.5898438 C24.9707054,42.8554651 25.3437485,42.1699251 25.640625,41.5332031 L26.3203125,41.8027344 C25.9570294,42.5644569 25.5742208,43.287106 25.171875,43.9707031 Z M29.3203125,43.5019531 C28.9726545,42.8613249 28.6621107,42.3242209 28.3886719,41.890625 L29.0039062,41.5449219 C29.3750019,42.111331 29.7031236,42.6328101 29.9882812,43.109375 L29.3203125,43.5019531 Z M25.1484375,39.3183594 L25.1484375,38.6035156 L29.5957031,38.6035156 L29.5957031,39.3183594 L25.1484375,39.3183594 Z M30.6796875,38.6269531 C30.4765615,38.4472647 30.2382826,38.2714852 29.9648438,38.0996094 C30.3281268,37.3300743 30.6249988,36.6074253 30.8554688,35.9316406 C31.0664073,35.298825 31.2499992,34.6171912 31.40625,33.8867188 L32.2792969,34.0097656 C32.1269524,34.6308625 31.9824226,35.1601541 31.8457031,35.5976562 L35.1738281,35.5976562 L35.1738281,36.4707031 L34.5703125,38.46875 C34.3789053,38.3984371 34.1152361,38.3281254 33.7792969,38.2578125 L34.3828125,36.4238281 L31.5644531,36.4238281 C31.3574208,37.0488312 31.0625019,37.7831989 30.6796875,38.6269531 Z M24.9785156,37.578125 L24.9785156,36.8398438 L26.9707031,36.8398438 L26.9707031,35.7441406 L24.6210938,35.7441406 L24.6210938,35.0058594 L26.9707031,35.0058594 L26.9707031,33.8867188 L27.8203125,33.8867188 L27.8203125,35.0058594 L30.1347656,35.0058594 L30.1347656,35.7441406 L27.8203125,35.7441406 L27.8203125,36.8398438 L29.6660156,36.8398438 L29.6660156,37.578125 L24.9785156,37.578125 Z" fill="#2E2E2E" fill-rule="nonzero"></path>
                    </g>
                </g>
            </g>
        </g>
    </g>
</svg>