<?xml version="1.0" encoding="UTF-8"?>
<svg width="36px" height="46px" viewBox="0 0 36 46" version="1.1" xmlns="http://www.w3.org/2000/svg" xmlns:xlink="http://www.w3.org/1999/xlink">
    <!-- Generator: Sketch 55.1 (78136) - https://sketchapp.com -->
    <title>待付款</title>
    <desc>Created with Sketch.</desc>
    <g id="VC1.5.0-H5_个人中心" stroke="none" stroke-width="1" fill="none" fill-rule="evenodd">
        <g id="个人中心" transform="translate(-169.000000, -269.000000)">
            <g id="我的订单" transform="translate(12.000000, 250.000000)">
                <g id="编组" transform="translate(25.000000, 15.000000)">
                    <g id="待收货" transform="translate(132.000000, 4.000000)">
                        <g transform="translate(6.000000, 0.000000)">
                            <rect id="矩形" x="0" y="0" width="24" height="24"></rect>
                            <g id="分组-12" transform="translate(0.000000, 4.000000)">
                                <path d="M4,3 L12,3 L12,16 L4,16 C1.790861,16 2.705415e-16,14.209139 0,12 L0,7 C-2.705415e-16,4.790861 1.790861,3 4,3 Z" id="矩形" fill-opacity="0.1" fill="#E1FDEC"></path>
                                <rect id="矩形-copy" fill-opacity="0.1" fill="#E1FDEC" x="12" y="0" width="12" height="16" rx="1"></rect>
                                <path d="M22.9074403,0.0464367594 L13,0.0464367594 C12.4477153,0.0464367594 12,0.49415201 12,1.04643676 L12,15.5715778 L1,15.5715778 L1,7 C1,4.790861 2.790861,3 5,3 L7.11448123,3" id="路径" stroke="#F2B036" stroke-width="2" stroke-linecap="round" stroke-linejoin="round"></path>
                                <path d="M12,3.5 L18.9722222,3.5" id="路径-3" stroke="#F2B036" stroke-width="2" stroke-linecap="round"></path>
                                <path d="M12,7.5 L17.0555556,7.5" id="路径-4" stroke="#F2B036" stroke-width="2" stroke-linecap="round"></path>
                                <circle id="椭圆形" stroke="#F2B036" stroke-width="1.8" fill="#E1FDEC" cx="7" cy="15.5" r="1.6"></circle>
                            </g>
                        </g>
                        <path d="M2.15625,44.9902344 L2.15625,40.1679688 C1.74218543,40.6484399 1.33203328,41.0742169 0.92578125,41.4453125 C0.867187207,41.2304677 0.744141562,40.9277344 0.556640625,40.5371094 C1.09179955,40.0410131 1.5722635,39.5078154 1.99804688,38.9375 C2.43554906,38.3593721 2.85937295,37.6894569 3.26953125,36.9277344 L4.01953125,37.4082031 C3.66796699,38.0293 3.33007975,38.5703102 3.00585938,39.03125 L3.00585938,44.9902344 L2.15625,44.9902344 Z M6.63867188,44.8671875 C6.61523426,44.5664047 6.5585942,44.255861 6.46875,43.9355469 C6.79687664,43.9589845 7.26757506,43.9707031 7.88085938,43.9707031 C8.22461109,43.9707031 8.45703064,43.9111334 8.578125,43.7919922 C8.69921936,43.672851 8.75976562,43.4453142 8.75976562,43.109375 L8.75976562,40.90625 L4.078125,40.90625 L4.078125,40.0917969 L8.75976562,40.0917969 L8.75976562,39.1308594 L9.66796875,39.1308594 L9.66796875,40.0917969 L11.3789062,40.0917969 L11.3789062,40.90625 L9.66796875,40.90625 L9.66796875,43.390625 C9.66796875,43.882815 9.55859484,44.2421864 9.33984375,44.46875 C9.10937385,44.7109387 8.72265896,44.8398437 8.1796875,44.8554688 C7.80077936,44.8632813 7.28711262,44.8671875 6.63867188,44.8671875 Z M6.24609375,43.4023438 C5.7656226,42.8437472 5.2656276,42.3105494 4.74609375,41.8027344 L5.37304688,41.2519531 C6.16601959,42.0253945 6.68749875,42.5410143 6.9375,42.7988281 L6.24609375,43.4023438 Z M4.0546875,38.6269531 L4.0546875,37.8125 L7.23046875,37.8125 L7.23046875,36.2128906 L4.59375,36.2128906 L4.59375,35.4042969 L7.23046875,35.4042969 L7.23046875,33.921875 L8.1328125,33.921875 L8.1328125,35.4042969 L10.8867188,35.4042969 L10.8867188,36.2128906 L8.1328125,36.2128906 L8.1328125,37.8125 L11.4199219,37.8125 L11.4199219,38.6269531 L4.0546875,38.6269531 Z M1.1484375,37.8007812 C1.03906195,37.5624988 0.896485254,37.2792985 0.720703125,36.9511719 C1.22461189,36.5097634 1.67382615,36.0527367 2.06835938,35.5800781 C2.47851768,35.0917944 2.8789043,34.5312532 3.26953125,33.8984375 L4.01953125,34.4140625 C3.57421652,35.0937534 3.12890848,35.6953099 2.68359375,36.21875 C2.22265395,36.7656277 1.71094031,37.2929662 1.1484375,37.8007812 Z M17.1035156,45.0078125 C16.9003896,44.710936 16.6992197,44.4433606 16.5,44.2050781 C17.6835997,43.5019496 18.597653,42.7910192 19.2421875,42.0722656 C18.8945295,41.5722631 18.6015637,41.0000032 18.3632812,40.3554688 C18.1406239,39.7421844 17.9492196,39.0097699 17.7890625,38.1582031 C17.5703114,38.5371113 17.2871111,38.9687476 16.9394531,39.453125 C16.7480459,39.1679673 16.5566416,38.9179698 16.3652344,38.703125 C17.4628961,37.2304614 18.2695287,35.6250087 18.7851562,33.8867188 L19.7109375,34.0449219 C19.3984359,34.8847698 19.1367198,35.5332008 18.9257812,35.9902344 L23.2792969,35.9902344 L23.2792969,36.8925781 L22.1601562,36.8925781 C21.9960929,38.064459 21.7832044,39.046871 21.5214844,39.8398438 C21.2441392,40.6796917 20.8750023,41.4199187 20.4140625,42.0605469 C21.0937534,42.787113 22.0820248,43.4453096 23.3789062,44.0351562 C23.1523426,44.3515641 22.9648445,44.646483 22.8164062,44.9199219 C21.5038997,44.2206996 20.509769,43.5097692 19.8339844,42.7871094 C19.2089813,43.4824254 18.2988341,44.2226523 17.1035156,45.0078125 Z M15.3632812,44.9785156 L15.3632812,41.5097656 C14.6484339,41.9042988 14.1445327,42.2070302 13.8515625,42.4179688 C13.6874992,42.5156255 13.5058604,42.6640615 13.3066406,42.8632812 L12.7558594,42.0136719 C12.8847663,41.8652336 12.9765622,41.7167976 13.03125,41.5683594 C13.0859378,41.4199211 13.1132812,41.2363292 13.1132812,41.0175781 L13.1132812,35.4277344 L13.9628906,35.4277344 L13.9628906,41.3632812 L15.3632812,40.5488281 L15.3632812,33.9511719 L16.2421875,33.9511719 L16.2421875,44.9785156 L15.3632812,44.9785156 Z M19.8339844,41.3339844 C20.2207051,40.7714816 20.5312488,40.1230505 20.765625,39.3886719 C20.9804698,38.7128872 21.1542962,37.8808643 21.2871094,36.8925781 L18.4921875,36.8925781 L18.4160156,37.0273438 C18.5644539,37.9960986 18.7460927,38.8144498 18.9609375,39.4824219 C19.1914074,40.1972692 19.4824201,40.8144505 19.8339844,41.3339844 Z M25.0136719,45.03125 C24.8964838,44.726561 24.7656257,44.4296889 24.6210938,44.140625 C25.8359436,43.9882805 26.7753873,43.8164072 27.4394531,43.625 C28.1269566,43.4257803 28.6386702,43.1738296 28.9746094,42.8691406 C29.2871109,42.5839829 29.4941401,42.1992212 29.5957031,41.7148438 C29.6582034,41.4414049 29.7031249,41.0859397 29.7304688,40.6484375 L30.6269531,40.6484375 C30.5996092,41.1679713 30.558594,41.5449207 30.5039062,41.7792969 C30.4492185,42.013673 30.4003908,42.2070305 30.3574219,42.359375 L35.2675781,44.0820312 L34.8398438,44.9199219 C33.2578046,44.2792937 31.6445395,43.6640654 30,43.0742188 C29.6679671,43.5546899 29.1191445,43.9433579 28.3535156,44.2402344 C27.619137,44.5214858 26.5058668,44.785155 25.0136719,45.03125 Z M26.1445312,42.9394531 L26.1445312,39.3300781 L34.0605469,39.3300781 L34.0605469,42.8867188 L33.1640625,42.8867188 L33.1640625,40.1152344 L27.046875,40.1152344 L27.046875,42.9394531 L26.1445312,42.9394531 Z M26.5019531,38.75 L26.5019531,36.546875 C26.123045,36.8867204 25.6269562,37.2597636 25.0136719,37.6660156 C24.9824217,37.5917965 24.9023444,37.4296887 24.7734375,37.1796875 C24.6914058,37.0156242 24.6367189,36.9023441 24.609375,36.8398438 C25.261722,36.4335917 25.8369116,36.0000023 26.3349609,35.5390625 C26.8330103,35.0781227 27.3164039,34.5312532 27.7851562,33.8984375 L28.59375,34.2558594 C28.1328102,34.87305 27.7265643,35.3613263 27.375,35.7207031 L27.375,38.75 L26.5019531,38.75 Z M31.6113281,38.515625 C31.1230444,38.515625 30.7734386,38.4003918 30.5625,38.1699219 C30.3515614,37.939452 30.2460938,37.5664088 30.2460938,37.0507812 L30.2460938,36.8808594 C30.1328119,36.9082033 29.9648449,36.9511716 29.7421875,37.0097656 C29.1640596,37.1542976 28.7167985,37.2617184 28.4003906,37.3320312 C28.3730467,37.2695309 28.3066412,37.1269542 28.2011719,36.9042969 C28.1230465,36.7363273 28.0664064,36.6132816 28.03125,36.5351562 C28.6601594,36.4062494 29.3984333,36.2304699 30.2460938,36.0078125 L30.2460938,33.9101562 L31.1308594,33.9101562 L31.1308594,35.7441406 C32.2636775,35.4042952 33.3769477,35.0019554 34.4707031,34.5371094 L34.8867188,35.2519531 C33.5742122,35.7871121 32.3222716,36.2441387 31.1308594,36.6230469 L31.1308594,36.8515625 C31.1308594,37.1914079 31.1914056,37.4238275 31.3125,37.5488281 C31.4296881,37.6699225 31.6445297,37.7304688 31.9570312,37.7304688 L33.4453125,37.7304688 C33.7343764,37.7304688 33.9433587,37.6816411 34.0722656,37.5839844 C34.2050788,37.4824214 34.3046872,37.2929701 34.3710938,37.015625 C34.4375003,36.7226548 34.4824218,36.4023455 34.5058594,36.0546875 C34.6152349,36.0898439 34.7851551,36.1425778 35.015625,36.2128906 C35.1796883,36.2597659 35.2890622,36.2929687 35.34375,36.3125 C35.3203124,36.7382834 35.257813,37.1152327 35.15625,37.4433594 C35.0624995,37.814455 34.8945325,38.0839835 34.6523438,38.2519531 C34.3984362,38.4277353 34.0292993,38.515625 33.5449219,38.515625 L31.6113281,38.515625 Z" fill="#2E2E2E" fill-rule="nonzero"></path>
                    </g>
                </g>
            </g>
        </g>
    </g>
</svg>