<?xml version="1.0" encoding="UTF-8"?>
<svg width="70px" height="84px" viewBox="0 0 70 84" version="1.1" xmlns="http://www.w3.org/2000/svg" xmlns:xlink="http://www.w3.org/1999/xlink">
    <!-- Generator: Sketch 53 (72520) - https://sketchapp.com -->
    <title>分组 17</title>
    <desc>Created with Sketch.</desc>
    <g id="我的" stroke="none" stroke-width="1" fill="none" fill-rule="evenodd">
        <g transform="translate(-486.000000, -647.000000)" id="我的订单">
            <g transform="translate(0.000000, 548.000000)">
                <g id="分组-11" transform="translate(47.000000, 85.000000)">
                    <g id="待评价" transform="translate(438.000000, 0.000000)">
                        <g id="分组-17" transform="translate(0.000000, 8.000000)">
                            <g id="待评价" transform="translate(12.000000, 0.000000)">
                                <rect id="矩形" x="0" y="0" width="48" height="48"></rect>
                                <g id="分组-13" transform="translate(0.000000, 6.000000)">
                                    <path d="M8,2 C4.6862915,2 2,4.6862915 2,8 L2,26 C2,29.3137085 4.6862915,32 8,32 L16.2557764,32 C18.5353979,32 20.7465981,32.7788724 22.52298,34.2075576 L22.8361918,34.4594634 C23.5366886,35.0228498 24.5358806,35.0191998 25.2322426,34.4507107 L25.4737475,34.2535533 C27.2590669,32.796072 29.4930204,32 31.7977149,32 L40,32 C43.3137085,32 46,29.3137085 46,26 L46,8 C46,4.6862915 43.3137085,2 40,2 L8,2 Z" id="矩形" stroke="#F2B036" stroke-width="4" fill-opacity="0.1" fill="#E1FDEC"></path>
                                    <circle id="椭圆形" fill="#F2B036" cx="13" cy="17" r="3"></circle>
                                    <circle id="椭圆形-copy-2" fill="#F2B036" cx="24" cy="17" r="3"></circle>
                                    <circle id="椭圆形-copy-3" fill="#F2B036" cx="35" cy="17" r="3"></circle>
                                </g>
                            </g>
                            <text id="待付款" font-family="MicrosoftYaHeiUI, Microsoft YaHei UI" font-size="24" font-weight="normal" fill="#2E2E2E">
                                <tspan x="0" y="88">待评价</tspan>
                            </text>
                        </g>
                    </g>
                </g>
            </g>
        </g>
    </g>
</svg>