<?xml version="1.0" standalone="no"?><!DOCTYPE svg PUBLIC "-//W3C//DTD SVG 1.1//EN" "http://www.w3.org/Graphics/SVG/1.1/DTD/svg11.dtd"><svg t="1551232559870" class="icon" style="" viewBox="0 0 1024 1024" version="1.1" xmlns="http://www.w3.org/2000/svg" p-id="4985" xmlns:xlink="http://www.w3.org/1999/xlink" width="200" height="200"><defs><style type="text/css"></style></defs><path d="M512 886.982312c-206.805636 0-374.931148-168.227841-374.931148-374.931148S305.296692 137.120016 512 137.120016s374.931148 168.227841 374.931148 374.931148-168.125512 374.931148-374.931148 374.931148z m0-693.377036c-175.595483 0-318.34356 142.850405-318.34356 318.34356s142.850405 318.34356 318.34356 318.343559c175.595483 0 318.34356-142.850405 318.34356-318.343559S687.595483 193.605276 512 193.605276z" p-id="4986"></path><path d="M512.716299 596.062756c-15.656241 0-28.344959-12.688718-28.344959-28.344958V298.082542c0-15.656241 12.688718-28.344959 28.344959-28.344958s28.344959 12.688718 28.344958 28.344958v269.737584c0 15.553912-12.688718 28.24263-28.344958 28.24263z" p-id="4987"></path><path d="M512.716299 690.921155m-43.898871 0a43.898871 43.898871 0 1 0 87.797741 0 43.898871 43.898871 0 1 0-87.797741 0Z" p-id="4988"></path></svg>