<?xml version="1.0" standalone="no"?><!DOCTYPE svg PUBLIC "-//W3C//DTD SVG 1.1//EN" "http://www.w3.org/Graphics/SVG/1.1/DTD/svg11.dtd"><svg t="1559396829719" class="icon" style="" viewBox="0 0 1024 1024" version="1.1" xmlns="http://www.w3.org/2000/svg" p-id="803" xmlns:xlink="http://www.w3.org/1999/xlink" width="200" height="200"><defs><style type="text/css"></style></defs><path d="M512 2.27555555C230.55928889 2.27555555 2.27555555 230.55928889 2.27555555 512c0 281.51352889 228.28373333 509.72444445 509.72444445 509.72444445 281.58634667 0 509.72444445-228.21091555 509.72444445-509.72444445C1021.72444445 230.55928889 793.58634667 2.27555555 512 2.27555555zM512 803.27111111c-30.07374222 0-54.61333333-24.46677333-54.61333333-54.61333333S481.92625778 694.04444445 512 694.04444445c30.29219555 0 54.61333333 24.46677333 54.61333333 54.61333333S542.29219555 803.27111111 512 803.27111111zM566.61333333 530.20444445C566.61333333 560.42382222 542.29219555 584.81777778 512 584.81777778 481.92625778 584.81777778 457.38666667 560.42382222 457.38666667 530.20444445l0-254.86222223C457.38666667 245.12284445 481.92625778 220.72888889 512 220.72888889c30.29219555 0 54.61333333 24.39395555 54.61333333 54.61333333L566.61333333 530.20444445z" fill="#1890FF" p-id="804"></path></svg>