<?xml version="1.0" encoding="UTF-8"?>
<svg width="26px" height="26px" viewBox="0 0 26 26" version="1.1" xmlns="http://www.w3.org/2000/svg" xmlns:xlink="http://www.w3.org/1999/xlink">
    <!-- Generator: Sketch 53 (72520) - https://sketchapp.com -->
    <title>礼物</title>
    <desc>Created with Sketch.</desc>
    <g id="详情页" stroke="none" stroke-width="1" fill="none" fill-rule="evenodd">
        <g id="特色体验课" transform="translate(-73.000000, -1209.000000)">
            <g id="详情" transform="translate(40.000000, 796.000000)">
                <g id="分组-20-Copy" transform="translate(30.000000, 409.000000)">
                    <g id="礼物" transform="translate(0.000000, 1.000000)">
                        <rect id="矩形" fill="#000000" opacity="0" x="0" y="0" width="32" height="32"></rect>
                        <path d="M27.0281296,9.16725807 L23.824379,9.16725807 C23.3667004,10.0826154 22.6801824,10.9216929 21.764825,11.4556514 L26.6467308,11.4556514 L26.6467308,14.5068424 L5.2883933,14.5068424 L5.2883933,11.4556514 L10.170299,11.4556514 C9.25494167,10.9216929 8.56842368,10.0826154 8.11074502,9.16725807 L4.90699443,9.16725807 C3.83907754,9.16725807 3,10.0063356 3,11.0742525 L3,14.8882413 C3,15.9561582 3.83907754,16.7952357 4.90699443,16.7952357 L27.0281296,16.7952357 C28.0960465,16.7952357 28.9351241,15.9561582 28.9351241,14.8882413 L28.9351241,11.0742525 C28.9351241,10.0063356 28.0960465,9.16725807 27.0281296,9.16725807 Z" id="路径" fill="#CCCCCC"></path>
                        <path d="M21.0020273,9.16725807 L8.11074502,9.16725807 C8.56842368,10.0826154 9.25494167,10.9216929 10.170299,11.4556514 L21.764825,11.4556514 C22.6801824,10.9216929 23.3667004,10.0826154 23.824379,9.16725807 L21.0020273,9.16725807 L21.0020273,9.16725807 Z M24.3583375,16.7952357 L24.3583375,26.7116067 L7.5767866,26.7116067 L7.5767866,16.7952357 L24.3583375,16.7952357 L24.3583375,16.7952357 Z M26.6467308,14.5068424 L5.2883933,14.5068424 L5.2883933,26.7116067 C5.2883933,28.0083629 6.28003041,29 7.5767866,29 L24.3583375,29 C25.6550937,29 26.6467308,28.0083629 26.6467308,26.7116067 L26.6467308,14.5068424 Z" id="形状" fill="#CCCCCC" fill-rule="nonzero"></path>
                        <path d="M23.2904206,4.13279283 C22.451343,3.29371527 21.2308666,2.9123164 19.8578306,3.06487594 C18.2559553,3.29371527 16.8066396,4.28535238 15.967562,5.65838836 C15.1284845,4.28535238 13.7554485,3.29371527 12.0772934,3.06487594 C10.7042574,2.83603661 9.483781,3.21743549 8.64470347,4.13279283 C7.80562593,5.04815018 7.42422703,6.26862656 7.5767866,7.56538276 C7.65306639,8.17562096 7.88190572,8.70957941 8.11074502,9.16725807 L10.9330968,9.16725807 C10.3991383,8.70957941 10.0177394,8.02306142 9.8651799,7.26026367 C9.78890012,6.72630522 9.8651799,6.11606702 10.2465788,5.73466814 C10.6279777,5.35326927 11.1619361,5.27698948 11.7721743,5.35326924 C13.0689305,5.50582879 14.1368474,6.57374568 14.4419665,7.87050187 L14.7470856,9.16725807 L14.8233654,9.16725807 L14.8233654,29 L17.1117587,29 L17.1117587,9.16725807 L17.1880384,9.16725807 L17.4931576,7.87050187 C17.7982767,6.57374568 18.8661935,5.58210857 20.1629497,5.35326924 C20.6969082,5.27698946 21.3071464,5.35326924 21.6885453,5.73466814 C22.0699442,6.11606704 22.1462239,6.65002546 22.0699442,7.26026367 C21.9936644,8.02306144 21.5359857,8.63329965 21.0020273,9.16725807 L23.824379,9.16725807 C24.0532183,8.70957941 24.2057779,8.17562096 24.2820577,7.56538276 C24.510897,6.26862656 24.1294981,5.04815013 23.2904206,4.13279283 L23.2904206,4.13279283 Z" id="路径" fill="#EEEEEE"></path>
                    </g>
                </g>
            </g>
        </g>
    </g>
</svg>