<?xml version="1.0" encoding="UTF-8"?>
<svg width="148px" height="181px" viewBox="0 0 148 181" version="1.1" xmlns="http://www.w3.org/2000/svg" xmlns:xlink="http://www.w3.org/1999/xlink">
    <!-- Generator: Sketch 53 (72520) - https://sketchapp.com -->
    <title>分组 7</title>
    <desc>Created with Sketch.</desc>
    <defs>
        <linearGradient x1="15.1589765%" y1="13.078798%" x2="85.7453069%" y2="84.1999072%" id="linearGradient-1">
            <stop stop-color="#E48230" offset="0%"></stop>
            <stop stop-color="#EF9D38" offset="100%"></stop>
        </linearGradient>
        <linearGradient x1="15.1589765%" y1="19.0465245%" x2="85.7453069%" y2="78.6720348%" id="linearGradient-2">
            <stop stop-color="#E48230" offset="0%"></stop>
            <stop stop-color="#EF9D38" offset="100%"></stop>
        </linearGradient>
    </defs>
    <g id="账户金额" stroke="none" stroke-width="1" fill="none" fill-rule="evenodd">
        <g id="提现成功" transform="translate(-306.000000, -320.000000)">
            <g id="分组-9" transform="translate(40.000000, 320.000000)">
                <g id="分组-7" transform="translate(266.000000, 0.000000)">
                    <ellipse id="椭圆形" fill="#DEDEDE" cx="69.5" cy="175" rx="36.5" ry="6"></ellipse>
                    <g id="分组" transform="translate(0.000000, 13.000000)">
                        <circle id="椭圆形" fill="url(#linearGradient-1)" cx="69" cy="69" r="69"></circle>
                        <g id="tixian" transform="translate(35.000000, 37.000000)" fill="#FFFFFF" fill-rule="nonzero">
                            <path d="M62.53125,0 C66.09855,0 69,2.8911 69,6.44115 L69,19.3269 C69,22.8804 66.09855,25.7715 62.53125,25.7715 L60.7131,25.7715 L60.7131,62.55885 C60.7131,66.11235 57.81165,69 54.24435,69 L14.75565,69 C11.1922445,69.0038233 8.29831303,66.1222393 8.2869,62.55885 L8.2869,25.7715 L6.46875,25.7715 C2.90400167,25.7753192 0.00951410571,22.8916377 0,19.3269 L0,6.44115 C0,2.88765 2.90145,0 6.46875,0 L62.53125,0 Z M54.24435,64.70475 C55.4311837,64.7047637 56.3949032,63.7456701 56.4006,62.55885 L56.4006,15.03165 L12.5994,15.03165 L12.5994,62.55885 C12.5994,63.7422 13.56885,64.70475 14.75565,64.70475 L54.24435,64.70475 Z M64.6875,19.3269 L64.6875,6.44115 C64.6818032,5.25432993 63.7180837,4.29523633 62.53125,4.29525 L6.46875,4.29525 C5.28191625,4.29523633 4.3181968,5.25432993 4.3125,6.44115 L4.3125,19.3269 C4.3125,20.5137 5.2785,21.47625 6.46875,21.47625 L8.2869,21.47625 L8.2869,14.96265 C7.25127198,14.8114956 6.47986466,13.9288417 6.46875,12.8823 C6.46875,11.6955 7.43475,10.7364 8.625,10.7364 L60.375,10.7364 C61.56525,10.7364 62.53125,11.6955 62.53125,12.8823 C62.53125,13.9518 61.73775,14.79705 60.7131,14.96265 L60.7131,21.47625 L62.53125,21.47625 C63.7194246,21.4762561 64.6836978,20.5150685 64.6875,19.3269 L64.6875,19.3269 Z M41.2137,24.7365 C41.5820983,24.3618528 42.0855189,24.1508449 42.61095,24.1508449 C43.1363811,24.1508449 43.6398017,24.3618528 44.0082,24.7365 C44.7792882,25.5205284 44.7792882,26.7780216 44.0082,27.56205 L37.7085,33.9273 L41.2275,33.9273 C42.32115,33.9273 43.20435,34.8243 43.20435,35.9283 C43.20435,37.0323 42.32115,37.9224 41.2275,37.9224 L36.2733,37.9224 L36.2733,41.1033 L41.18955,41.1033 C42.36255,41.1033 43.32165,42.0693 43.32165,43.263 C43.3273842,44.4468139 42.3733534,45.4116508 41.18955,45.41925 L36.2733,45.41925 L36.2733,49.75245 C36.2733,50.85645 35.3901,51.75 34.2999,51.75 C33.7722581,51.7472646 33.2673666,51.5347951 32.8965344,51.1594327 C32.5257023,50.7840703 32.3193787,50.2766362 32.32305,49.749 L32.32305,45.41925 L27.36195,45.41925 C26.1781466,45.4116508 25.2241158,44.4468139 25.22985,43.263 C25.22985,42.0693 26.1855,41.1033 27.36195,41.1033 L32.3265,41.1033 L32.3265,37.9224 L27.40335,37.9224 C26.8763096,37.9196621 26.3719437,37.7076667 26.0012109,37.3330519 C25.6304781,36.958437 25.4237478,36.4518904 25.4265,35.92485 C25.4265,34.82085 26.3097,33.9273 27.40335,33.9273 L30.75675,33.9273 L24.46395,27.5655 C23.690597,26.7810564 23.690597,25.5209436 24.46395,24.7365 C24.8323483,24.3618528 25.3357689,24.1508449 25.8612,24.1508449 C26.3866311,24.1508449 26.8900517,24.3618528 27.25845,24.7365 L34.23435,31.79865 L41.2137,24.73995 L41.2137,24.7365 Z" id="形状"></path>
                        </g>
                    </g>
                    <path d="M112,0 C114.209139,-4.05812251e-16 116,1.790861 116,4 L116,14 C116,16.209139 114.209139,18 112,18 C109.790861,18 108,16.209139 108,14 L108,4 C108,1.790861 109.790861,4.05812251e-16 112,0 Z M135.140354,8.42240005 C136.832653,9.84240722 137.053388,12.3654296 135.633381,14.0577283 L129.205505,21.7181727 C127.785498,23.4104713 125.262476,23.6312072 123.570177,22.2112 C121.877878,20.7911928 121.657142,18.2681705 123.07715,16.5758718 L129.505026,8.91542738 C130.925033,7.22312873 133.448055,7.00239287 135.140354,8.42240005 Z M147.453079,29.7486656 C147.836692,31.9242428 146.384018,33.9988764 144.208441,34.3824893 L134.360363,36.1189711 C132.184786,36.5025841 130.110153,35.04991 129.72654,32.8743328 C129.342927,30.6987556 130.795601,28.624122 132.971178,28.2405091 L142.819255,26.5040273 C144.994833,26.1204143 147.069466,27.5730884 147.453079,29.7486656 Z" id="合并形状" fill="url(#linearGradient-2)"></path>
                </g>
            </g>
        </g>
    </g>
</svg>