<?xml version="1.0" standalone="no"?><!DOCTYPE svg PUBLIC "-//W3C//DTD SVG 1.1//EN" "http://www.w3.org/Graphics/SVG/1.1/DTD/svg11.dtd"><svg t="1573570883657" class="icon" viewBox="0 0 10648 1024" version="1.1" xmlns="http://www.w3.org/2000/svg" p-id="8711" width="1331" height="128" xmlns:xlink="http://www.w3.org/1999/xlink"><defs><style type="text/css"></style></defs><path d="M314.39361418 747.8767422l32.59082036-250.46860914h-26.49660303v-94.63072425h115.41163269a177.52724112 177.52724112 0 0 1 10.10656469-19.15325916 66.58217973 66.58217973 0 0 1 32.85578792-21.23513573h-151.03064141V1.16460641h62.60768966L416.32983174-43.84176881h146.98044346l-20.32668125 44.96852135h124.91256112v275.29970891l-109.77164266 85.9247019h-22.711376a68.36123816 68.36123816 0 0 1 39.8584631 29.48693412l5.18576281 10.86360679h129.83335634l-35.20262877 94.63072424h-188.39085128l-7.75971724 33.65068731h199.74653593v142.81669362l-115.3737821 87.55234789h-80.20900396v-87.47664336h59.88232271v-56.39991381h-74.37974753l-24.33902528 146.98044338h-97.2803866l74.87183211 41.37255395h626.34185055l-53.82595611 115.94156447H341.79867177L267.26751174 874.68191346l-148.49453425 77.10511446V344.21991383H79.44444621v-121.12732732h187.82306553V722.51570725z m221.01952223-609.11905889V85.99158749h-75.09894239v52.80394642z m0 84.37275379h-75.09894239v53.29602435h75.09894239zM182.93260856-38.73170721a103.26104869 103.26104869 0 0 1 48.64019329 13.21044758 96.10696451 96.10696451 0 0 1 38.79859611 37.24665475 99.93004553 99.93004553 0 0 1 13.96749637 50.98703404 105.11581167 105.11581167 0 0 1-13.89179181 50.94918353 99.62722733 99.62722733 0 0 1-37.0195377 37.24665466 94.85784123 94.85784123 0 0 1-50.45710568 13.21044758 99.62722733 99.62722733 0 0 1-50.72206649-13.4375612 99.62722733 99.62722733 0 0 1-37.01954109-37.24665472 101.55769485 101.55769485 0 0 1-14.04320089-50.49495623 96.25837361 96.25837361 0 0 1 14.23246056-50.98703409A94.32790946 94.32790946 0 0 1 134.17885675-25.29414601 109.39311997 109.39311997 0 0 1 182.93260856-38.73170721z m547.00345039 3.10388625h137.13884634l-10.86360682 36.7545735h196.15057184l-43.45443049 105.04010712H829.2983221l-10.86361011 40.88047268h-139.71280411z m68.81546209 492.6854131L702.49314746 170.85642583h140.28058978l26.49660306 96.78830535 27.93498934-120.59739884h133.01295044l-86.00040647 291.34908182 90.54267898 322.95574316h-137.66877804l-31.56881075-129.37912902-47.08825181 132.48301523h-134.56489188z m890.62654351-215.75805494h-217.83993142V143.48921886h217.8777854V97.42298h-214.24396412v-97.28038656h214.24396412V-41.75989229h164.051826l0.5299318 41.90248573h243.20096644l-49.20797573 97.28038656H1853.95982572v46.06623886h240.62700863l-48.64019331 97.81031834H1853.95982572v43.4544305h246.83478444l-49.20797572 95.72844179H1458.59264973v-95.76629573h230.89897334z m-221.47374949 683.04458256V417.19912905h615.32683466v409.86460411l-158.37398537 95.23636063h-160.94793976v-95.23636063h154.74016398v-316.21803551h-286.69324752v47.61818024h274.80762775l-23.80909011 79.18699435-250.99853764-0.52993512v45.42274861h260.84013471l-21.72721688 78.80847159h-239.11291783v89.6342211l-7.22978873 3.78523049z m-324.46983393-677.93452423h222.00368127v547.53338213h77.63504952l-57.45977745 123.7012851H1201.38633641V370.26228968h-57.95185528z m143.34662207-280.48547176a97.24253265 97.24253265 0 0 1 46.33120305 12.6805158 92.01891921 92.01891921 0 0 1 36.75457683 35.4675963 94.6307276 94.6307276 0 0 1 13.21044762 48.11026147 101.2548767 101.2548767 0 0 1-13.21044762 48.37522908 92.62455552 92.62455552 0 0 1-35.20263205 35.4675963 90.84549715 90.84549715 0 0 1-47.88314783 12.26414245 95.50132816 95.50132816 0 0 1-48.37522575-12.94548334 91.82965619 91.82965619 0 0 1-34.93766449-34.93766453 98.41595467 98.41595467 0 0 1-12.68051914-48.11026148 92.7002601 92.7002601 0 0 1 12.68051914-48.37522908 88.19583823 88.19583823 0 0 1 36.75457351-35.20262872 105.60788954 105.60788954 0 0 1 46.55831673-12.79407425z m1399.85340741 2.08187657h464.3719011l0.52993179 101.44413641-85.39476686 225.63750595v63.13761808h94.63072427l-47.61818026 115.90371391H3065.99016762v336.35545378l-134.03496347 111.28573348h-211.14007443v-111.28573348h189.9427927v-336.35545378h-242.25465796v-115.90371391h242.25465796l-0.52993178-80.20900065 77.10511774-193.53876346h-300.69859777z m-6.20777578 87.4766434l-38.30651828 119.04545406-23.27915837-0.52993514 0.52993176 427.46591852-84.86483491 122.11148967 147.62393366 200.61713981h-179.72267621l-55.86997873-73.20633224-50.72206984 73.47129646h-181.69099429l135.05697306-200.61713979-91.48898747-120.86236315-0.52993176-429.01785993h-33.5371288V56.08828003h33.65068392V-38.08822024h149.93292394v94.17650027h58.48179039V-35.51426249h153.18821919v91.60254252z m-272.72575115 118.51551892v376.74384861l30.54679774 40.8804727 27.44291148-40.8804727V173.99816266z m1538.20352642 442.30401532l287.67740985 308.95039627h-216.8557724l-174.38550435-188.88292917-163.10551754 188.50440643h-206.48424683l263.94402424-303.76463338-195.12855882-212.19993806h211.29148689l87.06026672 93.15448733 141.79468063-163.52189758-455.9308396 0.52993181-113.59472373 574.40851133h-164.05182599l152.69613801-773.66296603h-129.37912905V20.77209286h152.65828741l12.41555159-64.34889408h164.0518293l-12.41555154 64.34889408h624.56279207l-53.82595604 119.04545407h-594.28096196l-16.04936962 82.29087722h639.70370716v112.79982765z m538.2217202 220.45173993a194.90144527 194.90144527 0 0 1-26.11808037-15.78440538 96.78830531 96.78830531 0 0 1-25.62600248-33.12075213 109.16600635 109.16600635 0 0 1-12.94548335-52.5389789 106.97057133 106.97057133 0 0 1 13.96749637-53.29602763 106.81916217 106.81916217 0 0 1 39.32853126-38.57148247 105.38077589 105.38077589 0 0 1 53.82595604-14.76239234 110.11231142 110.11231142 0 0 1 53.29602438 15.14091504 102.20118515 102.20118515 0 0 1 39.0635636 38.57148247 108.21969791 108.21969791 0 0 1 13.96749634 53.56099186 148.83520638 148.83520638 0 0 1-14.76239232 62.60768968l-42.545976 72.48713738-28.4649211 49.70005682h-104.54802931q18.13124618-35.69470994 22.25714869-43.98436224z m1417.30331273-61.96419934l98.41595468 153.1882192-86.41677978 1.55194477-50.30569322-82.78295841-57.45977743 79.18699098-85.92469856-1.55194471 108.21969789-145.95843045v-170.78953698h73.47129642z m105.04010717-12.41555156l-82.25302666 38.30651826v-234.94916802h-116.43364573v203.38035727l-82.82081235 47.08825188v-9.84159717l-0.52993183 2.57395444v-324.46983397h0.52993183l3.7852271-1.55194147h277.91151727z m-243.23882039-759.69546972q6.20777579-11.35568795 22.25714868-34.9376645a78.50565013 78.50565013 0 0 1 66.77143941-24.56613556 112.383451 112.383451 0 0 1 50.4571023 11.88561978 68.13412453 68.13412453 0 0 1 31.8337783 26.91297633l11.88561643 20.70520395h388.13738717l-36.22464161 82.2908806h-705.86951365l-0.52993179 52.80394306 709.50333496-0.5299318-34.06706396 74.0012282-846.64218125-0.52993177V84.96957789h-37.8522877V2.67869729z m271.70374149 479.20999797h266.51797871v364.32829707h39.85845974l-36.22464173 80.20900394h-115.90371393v-155.27009576l-35.6947099-20.70520391v142.8545442l-118.51551895 47.0882485z m154.24808279 77.63504623h-35.6947099v79.18699434l35.6947099 19.15325917z m-780.93060542-77.63504623h292.90102663v367.96211508l-92.62455554 80.62538065h-55.90783265v-80.62538065h26.91297636V742.19889817l-29.48693417 60.56366366-20.70520058-0.98415903v81.19316304l-121.12733065 53.82595603z m121.12733072 203.91028908v41.90248573h50.19213803v-102.99608123l-29.48693415 61.05574156z m0-78.65705922h50.19213803v-45.42274858h-50.19213803z m-110.75580177-363.38198857h875.63703757v120.59739547l-143.34662543 94.63072759-732.29041214-0.52993176z m173.85556922 84.41060766v47.08824855h528.38012302v-47.08824855z m3531.61870429-208.56612006h400.02300696l-61.16930329 129.53053819h-326.55171054l399.5309291 672.63519961h-216.32584065l-285.67123789-487.49964697-274.27769588 487.49964697h-218.89979508l389.1593968-672.63519961h-364.32829698V119.75583322h376.81955317l-0.52993181-163.52189749h181.69099428z m724.00075974 107.6519122V181.19010084h-125.25322986l-104.54802587-188.39085126h159.39599499l70.36741015 122.14934025V-26.31615567h152.65828741v454.22748578l-152.73399194 59.69305973v-215.75805487l-58.48179043 166.13370254h-160.9479398l87.96872458-210.61014272zM10299.9035514-37.1797658l-20.70520403 36.75457689h279.50131266v328.63358376l-153.71815097 127.29725251h-382.30813411v-117.34210024h380.07484843V117.03046641h-189.94279273l-21.23513565 28.99485631h-171.28161481l115.41163603-183.20508852z m-342.71463872 702.27354623h-331.73747333l0.52993179-110.2258699h387.64530602v-76.08310482h164.0518293v76.08310482h389.68932861l-49.20797563 110.2258699h-291.87901364l341.04913873 259.28818997-232.86729144 0.52993173-239.07506715-189.26145187-232.41306423 186.11971169-237.03104453 0.52993184z m264.43610207-516.49450334a101.10346762 101.10346762 0 0 1 44.77925838 11.65850617 84.59987079 84.59987079 0 0 1 34.67270025 34.06706062 93.23019191 93.23019191 0 0 1 13.21044761 46.82328428 94.10079577 94.10079577 0 0 1-13.21044761 46.06623549 91.29972443 91.29972443 0 0 1-34.06706395 34.0670639 90.0884517 90.0884517 0 0 1-45.4227485 12.15058402 88.4608024 88.4608024 0 0 1-46.82328097-12.15058402 89.40711088 89.40711088 0 0 1-34.06706398-33.65068724 93.64656522 93.64656522 0 0 1-12.15058399-46.06623888 90.84549715 90.84549715 0 0 1 12.15058399-46.82328089 82.32873114 82.32873114 0 0 1 34.67270027-34.40773274 98.15099049 98.15099049 0 0 1 46.2554985-11.73421071z" fill="#FFFFFF" p-id="8712"></path><path d="M6845.88204261 556.41985528l-36.75457353 27.4429115h282.03741655v255.76792701l-139.7128041 87.06026676h-105.57003892v-84.10778961h81.231017v-174.38550097h-228.74139218l-40.35054092 30.54679778h-208.56612013l197.17257819-142.32461247h-197.17257819v-80.17115005h943.43048667l-39.82060911 80.17115005z m-396.42703623-87.06026674v-131.46100565h933.4374804v80.7389358l-174.1205334 47.201807v-43.45443049h-584.36366025v13.96749299z m573.38649502-471.98021256h365.35030669l-36.7545735 82.29088055h-896.79646539V-2.62062402h365.35030665a146.67762526 146.67762526 0 0 1 48.11026156-32.59082034 211.32933758 211.32933758 0 0 1 71.91935159-8.28965237 106.36493495 106.36493495 0 0 1 82.85866297 40.99403118zM6476.86006398 304.24789563v-196.83190937h884.98655014v117.34210019l-167.68564736 79.18699098z m173.89342314-120.06746372V228.16479086h536.17769422V184.18043191z m728.65659073 393.66381875l-102.95823054 112.61056471h-173.36349133l108.1439967-112.30774655z m-274.76977711 129.68194727h164.69531629l116.85002243 200.2386171h-169.23759218z m-389.15939681 10.97716526l-110.22586998 201.82841249h-160.41800797l114.881701-201.82841249z m190.43487056 0l-111.77781132 201.82841249h-162.49988454l116.96357741-201.82841249zM8084.82536426-41.83559679h164.5817578v837.86045105h221.51160345l-55.9456833 124.19336628h-330.14767795zM7763.45941644 439.94835892h45.42274862v429.01785995l-164.46820264 67.3013713V553.31596573h-159.92592681l298.61672121-404.18675676h-285.14130603V34.24750801h151.63627773q7.22978873-15.14091511 25.62599913-45.4227486a65.90083887 65.90083887 0 0 1 63.13762147-29.22196996 140.58340797 140.58340797 0 0 1 70.14029323 16.57930478 71.91935164 71.91935164 0 0 1 32.09874253 33.6506873l10.33367496 24.33902194h139.71280402v108.67392516z m74.00122824-23.27916169h157.31411847l34.06706389 292.40894551h-158.97962168z" fill="#F6F4B4" p-id="8713"></path></svg>