<svg xmlns="http://www.w3.org/2000/svg" xmlns:xlink="http://www.w3.org/1999/xlink" width="47" height="13" viewBox="0 0 47 13">
  <defs>
    <linearGradient id="linear-gradient" y1="0.5" x2="1" y2="0.5" gradientUnits="objectBoundingBox">
      <stop offset="0" stop-color="#28a36f"/>
      <stop offset="1" stop-color="#116d58"/>
    </linearGradient>
  </defs>
  <path id="预约礼" d="M2.824,13a4.681,4.681,0,0,1-.577-.041A15.192,15.192,0,0,1,0,12.43l.364-1.42a6.583,6.583,0,0,0,.689.181,1.2,1.2,0,0,0,.231.025.515.515,0,0,0,.172-.025.294.294,0,0,0,.19-.2,1.5,1.5,0,0,0,.047-.429v-3.8H.095V5.117H1.788c-.231-.437-.369-.7-.507-.966-.175-.336-.4-.744-.665-1.213l1.266-.511c.278.235.531.463.752.677s.444.438.641.644c.215-.535.418-1.1.6-1.684H.506V.413H5.839a.8.8,0,0,1,.815.462A1.441,1.441,0,0,1,6.63,1.948a9.161,9.161,0,0,1-.768,1.494A12.727,12.727,0,0,1,4.589,5.117h1.44a.8.8,0,0,1,.815.462A1.436,1.436,0,0,1,6.82,6.652c-.107.289-.182.492-.261.7-.07.185-.142.357-.214.512s-.164.329-.261.5-.209.354-.387.652L4.621,8.419c.068-.355.117-.622.166-.892s.088-.524.118-.76H4.462V10.73a4.6,4.6,0,0,1-.174,1.4,1.149,1.149,0,0,1-.673.735A2.1,2.1,0,0,1,2.824,13Zm10.263-.041h0c-.676-.716-1.336-1.371-1.962-1.948a6.387,6.387,0,0,1-1.661,1.065,13.936,13.936,0,0,1-2.674.867l-1.171-1.37A13.761,13.761,0,0,0,7.706,10.8a5.248,5.248,0,0,0,1.266-.825H7.231V4.506A1.894,1.894,0,0,1,7.54,3.392,1.341,1.341,0,0,1,8.7,2.955h.838v.231a.275.275,0,0,0,.126-.049c.086-.169.164-.338.23-.5.055-.139.125-.3.213-.5H7.1V.479h8.213V2.129H13.182l-.356.4-.372.421h1a1.722,1.722,0,0,1,1.282.438,1.534,1.534,0,0,1,.427,1.114V9.971H13.134c.425.262.827.52,1.195.767.383.258.758.533,1.115.817l-2.357,1.4ZM10,5H12.47V7.4c-.012.326-.025.636-.04.949a3.5,3.5,0,0,1-.245,1.1l.775.429V4.605H10.507a2.235,2.235,0,0,0-.427.033,1.292,1.292,0,0,0-.253.075.46.46,0,0,0-.15.1,1.481,1.481,0,0,1-.134.124V9.327a2.2,2.2,0,0,0,.372-.966c.036-.314.066-.638.087-.966V5Zm26.806,7.874H33.848V8.865c-.224.111-.455.214-.688.305s-.473.177-.72.256l-1.06-1.254a17.642,17.642,0,0,0,1.567-1.114,14.136,14.136,0,0,0,1.147-1.023,8.7,8.7,0,0,0,.807-.925,7.722,7.722,0,0,0,.546-.834h-3.07V2.608h1.962c-.229-.433-.431-.8-.6-1.09s-.358-.582-.57-.891L34.876,0a9.311,9.311,0,0,1,1.076.693,10.2,10.2,0,0,1,1.377,1.287l-1.582.627H37.63a1.013,1.013,0,0,1,.514.132,1.116,1.116,0,0,1,.38.363,1.442,1.442,0,0,1,.206.537,1.528,1.528,0,0,1-.024.635,4.236,4.236,0,0,1-.483.892,9.064,9.064,0,0,1-1,1.222c.313.124.629.253.965.4a7.865,7.865,0,0,1,.949.479L38.057,9.805c-.235-.189-.453-.375-.649-.553-.221-.2-.418-.376-.6-.537v4.159Zm-7.755-.087a9.41,9.41,0,0,1-1.074-.07c-.8-.093-1.851-.257-3.118-.487l.38-1.651c.659.112,1.183.207,1.559.281a5.266,5.266,0,0,0,.926.116.576.576,0,0,0,.451-.14.767.767,0,0,0,.119-.487v-7H25.635c-.228.309-.448.6-.673.892-.192.249-.41.536-.752.99l-1.8-.578c.214-.468.405-.878.57-1.222s.334-.7.507-1.081c.163-.357.314-.707.451-1.04s.283-.72.419-1.114l3.118.38-.268.459-.064.11c-.1.18-.217.361-.332.537h2.785a1.341,1.341,0,0,1,.57.124,1.55,1.55,0,0,1,.467.33,1.618,1.618,0,0,1,.435,1.1v7.544a2.85,2.85,0,0,1-.253,1.329,1.287,1.287,0,0,1-.941.611A4.158,4.158,0,0,1,29.051,12.789Zm15.873-.045H41.9a2.438,2.438,0,0,1-1.764-.652,2.389,2.389,0,0,1-.673-1.791V.231h2.817V10.482a.624.624,0,0,0,.174.446.572.572,0,0,0,.427.181h1.44c.095,0,.172-.069.229-.206a2.338,2.338,0,0,0,.126-.652c.026-.293.045-.676.055-1.139s.016-1.014.016-1.667L47,8.006c.01,1.089-.014,1.955-.071,2.575A4.21,4.21,0,0,1,46.6,12a1.115,1.115,0,0,1-.649.61A3.426,3.426,0,0,1,44.925,12.744Zm-28.53-.066h0l-.585-2c.928-.045,1.777-.1,2.524-.165s1.408-.132,1.954-.2c.646-.077,1.231-.155,1.74-.231l.522,1.519a16.258,16.258,0,0,1-2.1.561c-.716.142-1.384.251-1.986.322-.631.074-1.117.123-1.488.148Zm.815-2.9a.784.784,0,0,1-.42-.121,1.067,1.067,0,0,1-.372-.388,1.1,1.1,0,0,1-.134-.545,1.193,1.193,0,0,1,.19-.619c.2-.241.369-.44.522-.627s.34-.432.546-.7l.673-.883c-.253.055-.468.094-.641.116s-.325.039-.435.049-.222.017-.317.017a.735.735,0,0,1-.137.013.658.658,0,0,1-.353-.1,1.029,1.029,0,0,1-.356-.388,1.332,1.332,0,0,1-.15-.569,1.1,1.1,0,0,1,.158-.619c.263-.417.534-.867.807-1.337.249-.418.517-.887.8-1.395S18.162.637,18.483.05L21.22.892c-.416.545-.8,1.014-1.139,1.395s-.658.717-.918.966c-.309.3-.585.549-.823.743h.021c.095,0,.2-.005.311-.016s.233-.021.4-.033c.186-.014.37-.031.546-.05.169-.254.332-.51.483-.759s.289-.489.419-.726l2.263,1.271a15.136,15.136,0,0,1-1.131,1.543c-.381.452-.743.846-1.076,1.172s-.618.584-.847.768l-.07.056-.358.29a6.7,6.7,0,0,0,.728-.082c.235-.034.5-.074.807-.124s.642-.113,1.013-.19L22,8.881c-.707.189-1.348.342-1.907.454s-1.063.206-1.48.273c-.48.076-.916.132-1.3.165A.908.908,0,0,1,17.21,9.778Zm8.109-.039h0c-.213-.312-.412-.617-.593-.908-.17-.273-.349-.565-.546-.891-.174-.289-.363-.589-.562-.892s-.412-.6-.641-.908l1.582-.809c.414.332.77.624,1.06.867s.563.483.807.71.479.451.7.661.441.431.713.7L25.319,9.74Z" fill="url(#linear-gradient)"/>
</svg>
