<?xml version="1.0" encoding="UTF-8"?>
<svg width="90px" height="24px" viewBox="0 0 90 24" version="1.1" xmlns="http://www.w3.org/2000/svg" xmlns:xlink="http://www.w3.org/1999/xlink">
    <!-- Generator: Sketch 53 (72520) - https://sketchapp.com -->
    <title>预约礼</title>
    <desc>Created with Sketch.</desc>
    <g id="首页" stroke="none" stroke-width="1" fill="none" fill-rule="evenodd">
        <g id="首页（默认版）" transform="translate(-68.000000, -908.000000)" fill="#F24724">
            <g id="免费试听" transform="translate(40.000000, 870.000000)">
                <path d="M40.9993266,61.8929437 L38.7570185,59.3634612 C40.3933056,58.8961649 41.7265565,58.4187171 42.7568113,57.9311036 C43.7870662,57.44349 44.595097,56.9355669 45.1809282,56.4073189 L41.8477675,56.4073189 L41.8477675,46.3198643 C41.8477675,45.4868579 42.044725,44.8011616 42.438646,44.262755 C42.832567,43.7243484 43.5749453,43.4551491 44.6658034,43.4551491 L46.2717808,43.4551491 L46.2717808,43.8818089 C46.332384,43.8818089 46.4131871,43.8513335 46.5141925,43.7903818 C46.6758011,43.4856233 46.8222567,43.1757902 46.9535636,42.8608731 C47.0848706,42.545956 47.2212258,42.2361229 47.3626334,41.9313645 L41.6053558,41.9313645 L41.6053558,38.8837951 L57.3318139,38.8837951 L57.3318139,41.9313645 L53.2411167,41.9313645 C53.0189049,42.1751712 52.7916462,42.4240536 52.5593339,42.678019 C52.3270215,42.9319843 52.0896624,43.1910251 51.8472495,43.4551491 L53.7562416,43.4551491 C54.8470996,43.4551491 55.6652309,43.7243484 56.2106599,44.262755 C56.7560889,44.8011616 57.0287993,45.4868579 57.0287993,46.3198643 L57.0287993,56.4073189 L53.1502124,56.4073189 C53.9380543,56.8746152 54.7006334,57.3469837 55.4379726,57.8244386 C56.1753119,58.3018936 56.8873891,58.8047375 57.5742256,59.3329855 L53.059308,61.9234194 C51.7664392,60.6027994 50.5139913,59.4041008 49.3019268,58.3272876 C48.5140849,59.0383907 47.4535444,59.6936115 46.1202735,60.2929698 C44.7870025,60.8923281 43.0800373,61.4256474 40.9993266,61.8929437 Z M31.6058738,42.4799269 C32.1311018,42.9065888 32.6108701,43.3230858 33.0451932,43.7294304 C33.4795163,44.135775 33.8885819,44.5319551 34.2724024,44.9179824 C34.6966249,43.9021209 35.0804396,42.8659577 35.4238579,41.8094617 L28.9696467,41.8094617 L28.9696467,38.7618923 L39.181239,38.7618923 C39.9690809,38.7618923 40.4892508,39.0463293 40.7417642,39.6152118 C40.9942776,40.1840942 40.9791271,40.8443943 40.696312,41.5961318 C40.3528937,42.4494555 39.863025,43.3687964 39.2266912,44.3541821 C38.5903573,45.3395678 37.7772763,46.3706518 36.7874236,47.447465 L39.5448565,47.447465 C40.3326984,47.447465 40.8528683,47.731902 41.1053817,48.3007844 C41.3578952,48.8696669 41.3427446,49.529967 41.0599295,50.2817045 C40.8579188,50.8099525 40.6912624,51.2416872 40.5599554,51.5769215 C40.4286485,51.9121558 40.2922932,52.2270681 40.1508857,52.521668 C40.0094782,52.8162678 39.8428218,53.1210217 39.6509116,53.4359388 C39.4590014,53.7508558 39.211542,54.1521151 38.9085258,54.6397287 L36.8480265,53.5426037 C36.969233,52.9330868 37.075287,52.3845298 37.1661919,51.8969163 C37.2570967,51.4093027 37.3328496,50.9420134 37.3934528,50.4950343 L36.5450119,50.4950343 L36.5450119,57.8092008 C36.5450119,58.886014 36.4339077,59.7494834 36.2116958,60.3996347 C35.989484,61.0497861 35.5602176,61.5018377 34.9238838,61.7558031 C34.2875499,62.0097685 33.4138665,62.06564 32.3028074,61.9234194 C31.1917483,61.7811988 29.7574935,61.456128 28,60.9481972 L28.6969336,58.3272876 C29.2423626,58.4898254 29.6817294,58.6015685 30.0150471,58.6625202 C30.3483649,58.7234719 30.6059247,58.7234719 30.7877344,58.6625202 C30.9695441,58.6015685 31.0907487,58.479667 31.1513519,58.2968119 C31.2119551,58.1139568 31.2422563,57.8498368 31.2422563,57.5044439 L31.2422563,50.4950343 L28.1818088,50.4950343 L28.1818088,47.447465 L31.4240651,47.447465 C31.1008479,46.8582653 30.7776355,46.2639952 30.4544183,45.6646369 C30.1312011,45.0652786 29.7069849,44.3186316 29.181757,43.4246734 L31.6058738,42.4799269 Z M52.8168963,46.5027185 L48.1201699,46.5027185 C47.7767516,46.5027185 47.5040412,46.5230354 47.3020304,46.5636699 C47.1000197,46.6043043 46.9384135,46.6500174 46.8172071,46.7008105 C46.6960006,46.7516036 46.600047,46.8125544 46.5293432,46.8836647 C46.4586394,46.954775 46.3727862,47.0309634 46.2717808,47.1122324 L46.2717808,55.2187668 C46.6758023,54.6295672 46.9131613,54.0352971 46.9838651,53.4359388 C47.0545689,52.8365805 47.110121,52.2423104 47.1505231,51.6531107 L47.1505231,47.2341351 L51.877551,47.2341351 L51.877551,51.6531107 C51.8573499,52.1813587 51.832099,52.7654703 51.8017974,53.4054631 C51.7714957,54.0454558 51.6149398,54.7209936 51.3321247,55.4320967 L52.8168963,56.2244647 L52.8168963,46.5027185 Z M70.9068683,46.5941456 C71.2906887,45.7814564 71.6543026,45.0297301 71.9977209,44.3389443 C72.3411392,43.6481584 72.6643515,42.9827791 72.9673676,42.3427863 C73.2703837,41.7027936 73.5582447,41.0628104 73.8309593,40.4228176 C74.1036738,39.7828249 74.371334,39.0971286 74.633948,38.3657083 L80.6033357,39.0666493 C80.3811239,39.4323594 80.1690158,39.7828264 79.967005,40.1180607 C79.7649943,40.453295 79.5528862,40.7834451 79.3306744,41.1085207 L84.6637314,41.1085207 C85.0475519,41.1085207 85.4111658,41.1847092 85.754584,41.3370884 C86.0980023,41.4894677 86.3959637,41.6926369 86.6484771,41.9466023 C86.9009905,42.2005677 87.1029983,42.5053216 87.2545063,42.8608731 C87.4060144,43.2164247 87.4817673,43.5872086 87.4817673,43.9732359 L87.4817673,57.9006279 C87.4817673,58.9571239 87.3201611,59.7748801 86.9969439,60.3539212 C86.6737267,60.9329623 86.0727538,61.3088254 85.194007,61.4815219 C84.3152602,61.6542183 83.1082641,61.6542183 81.5729825,61.4815219 C80.0377008,61.3088254 78.0479248,61.0091508 75.6035947,60.5824889 L76.3308298,57.5349196 C77.5630953,57.7380919 78.5579833,57.9107857 79.3155236,58.0530063 C80.0730639,58.195227 80.6639365,58.2663362 81.0881591,58.2663362 C81.5123817,58.2663362 81.8002427,58.1799893 81.9517507,58.0072928 C82.1032588,57.8345963 82.1790117,57.5349217 82.1790117,57.1082598 L82.1790117,44.1865658 L77.0883663,44.1865658 C76.6843448,44.7148138 76.2550784,45.2633708 75.8005542,45.8322532 C75.34603,46.4011357 74.8662617,47.0106435 74.3612348,47.6607948 L70.9068683,46.5941456 Z M59.5438206,52.9635655 C59.8468367,52.6181726 60.1801494,52.232151 60.5437688,51.8054892 C60.8467849,51.439779 61.1952482,51.0080443 61.5891691,50.5102722 C61.9830901,50.0125 62.4123565,49.4690223 62.8769812,48.8798226 C62.3921554,48.9814087 61.9830898,49.052518 61.6497721,49.0931524 C61.3164543,49.1337869 61.0386937,49.1642623 60.8164819,49.1845795 C60.574069,49.2048968 60.3720613,49.2150552 60.2104527,49.2150552 C59.8670344,49.2760069 59.5539225,49.2201354 59.2711074,49.0474389 C58.9882924,48.8747424 58.7610337,48.6360186 58.5893245,48.3312601 C58.4176154,48.0265016 58.3216617,47.6760347 58.3014607,47.2798487 C58.2812596,46.8836627 58.3822634,46.5027203 58.6044753,46.1370102 C59.1095021,45.3649554 59.6246218,44.5421199 60.1498498,43.668479 C60.6144745,42.9167415 61.124544,42.0583513 61.6800735,41.0932829 C62.2356031,40.1282144 62.8062749,39.1276058 63.3921061,38.0914271 L68.6342587,39.6456875 C67.8464168,40.6412318 67.119189,41.4996219 66.4525536,42.2208836 C65.7859181,42.9421452 65.2000957,43.5364153 64.6950689,44.0037116 C64.1092377,44.5522769 63.5840176,45.0094077 63.1193929,45.3751178 C63.3012026,45.3751178 63.5133107,45.3649594 63.7557236,45.3446421 C63.9779354,45.3243249 64.2354952,45.304008 64.5284108,45.2836908 C64.8213264,45.2633735 65.1697897,45.2328981 65.5738112,45.1922637 C65.8970284,44.7249674 66.2050902,44.2576781 66.4980058,43.7903818 C66.7909214,43.3230855 67.0585816,42.8761131 67.3009945,42.4494513 L71.6341034,44.7960797 C70.9270657,45.8525756 70.2048881,46.8023919 69.4675489,47.645557 C68.7302097,48.4887221 68.0433834,49.2099729 67.4070496,49.8093312 C66.7707157,50.4086895 66.2303451,50.8810581 65.7859214,51.226451 C65.3414978,51.5718439 65.0687874,51.7851716 64.967782,51.8664406 C65.3718035,51.8461233 65.8364213,51.795331 66.3616492,51.7140621 C66.8060728,51.6531104 67.3211925,51.5769219 67.9070237,51.4854944 C68.4928549,51.3940669 69.1392796,51.2772445 69.8463172,51.1350239 L70.1190303,54.3959231 C68.7857594,54.741316 67.5686629,55.0206738 66.4677043,55.2340047 C65.3667457,55.4473356 64.4223597,55.6149503 63.6345177,55.7368536 C62.7052683,55.8790743 61.8770367,55.9806589 61.149798,56.0416106 C60.7861786,56.082245 60.4528659,56.0111358 60.1498498,55.8282807 C59.8468336,55.6454256 59.6094746,55.4067018 59.4377654,55.1121019 C59.2660563,54.8175021 59.180203,54.4822728 59.180203,54.106404 C59.180203,53.7305353 59.3014077,53.3495929 59.5438206,52.9635655 Z M58.2711592,57.7177737 C60.0488538,57.6365048 61.6598653,57.5349202 63.1042422,57.4130168 C64.548619,57.2911134 65.7960167,57.1692118 66.8464726,57.0473085 C68.0787381,56.9050878 69.1897806,56.7628694 70.1796332,56.6206487 L71.1795814,59.4244126 C69.8867127,59.8510744 68.5484115,60.1964621 67.1646379,60.4605861 C65.7808643,60.7247101 64.5132659,60.9228002 63.3618046,61.0548622 C62.2103433,61.1869242 61.2609071,61.2783503 60.5134673,61.3291434 L59.3923132,61.4053326 L58.2711592,57.7177737 Z M75.0278669,47.843649 C75.8157089,48.4531659 76.4924347,48.9864852 77.0580648,49.4436229 C77.6236949,49.9007606 78.1388146,50.3375745 78.6034393,50.7540777 C79.068064,51.170581 79.512481,51.5769195 79.9367036,51.9731055 C80.3609261,52.3692915 80.8154435,52.8010262 81.3002693,53.2683225 L76.4823371,55.9806592 C76.0783156,55.4117767 75.6995511,54.8530613 75.3460323,54.304496 C74.9925135,53.7559308 74.6440502,53.2073738 74.3006319,52.6588086 C73.9572136,52.1102434 73.5986499,51.5616864 73.22493,51.0131211 C72.8512102,50.4645559 72.4421445,49.9058405 71.9977209,49.336958 L75.0278669,47.843649 Z M94.7844193,38 C95.4106526,38.3250757 96.0974789,38.7517311 96.8449186,39.2799791 C97.5923584,39.8082271 98.471092,40.6005872 99.4811457,41.6570832 L96.4509996,42.8151596 L100.056873,42.8151596 C100.420493,42.8151596 100.748755,42.8964273 101.041671,43.0589651 C101.334587,43.221503 101.576996,43.4449892 101.768906,43.7294304 C101.960816,44.0138716 102.092121,44.3440217 102.162825,44.7198904 C102.233529,45.0957592 102.218378,45.48686 102.117373,45.8932046 C101.975965,46.2995492 101.667903,46.8481062 101.193178,47.5388921 C100.718453,48.2296779 100.077078,48.9814042 99.2690355,49.7940934 C99.8548666,50.0175829 100.47099,50.261386 101.117425,50.52551 C101.763859,50.789634 102.369882,51.0842295 102.935512,51.4093052 L100.875013,56.102562 C100.430589,55.757169 100.016473,55.4168605 99.632653,55.0816262 C99.2488326,54.7463919 98.8650179,54.4162419 98.4811975,54.0911662 L98.4811975,61.771041 L92.8148244,61.771041 L92.8148244,54.3654474 C92.3906018,54.5686197 91.951235,54.7565513 91.4967108,54.9292478 C91.0421866,55.1019442 90.5826191,55.2594004 90.1179944,55.401621 L88.0877965,53.0854683 C89.2392578,52.3743652 90.239196,51.688669 91.0876411,51.028359 C91.9360862,50.368049 92.6683642,49.7382243 93.284497,49.138866 C93.9006298,48.5395077 94.4157495,47.9706338 94.8298715,47.4322271 C95.2439935,46.8938205 95.5924568,46.3808182 95.8752719,45.8932046 L89.9967885,45.8932046 L89.9967885,42.8151596 L93.7541696,42.8151596 C93.309746,42.0024704 92.9259313,41.3320118 92.6027141,40.8037638 C92.2794969,40.2755158 91.915883,39.7269588 91.5118616,39.1580764 L94.7844193,38 Z M117.995338,52.7807114 C118.015539,54.7921172 117.970088,56.3768374 117.858982,57.5349196 C117.747876,58.6930017 117.540818,59.5666295 117.237802,60.1558292 C116.934786,60.7450289 116.52067,61.120892 115.995442,61.2834299 C115.470214,61.4459677 114.813689,61.5272354 114.025847,61.5272354 L108.238268,61.5272354 C106.844394,61.5272354 105.718201,61.1259761 104.859655,60.3234455 C104.001109,59.5209149 103.571843,58.4187217 103.571843,57.0168328 L103.571843,38.4266597 L108.965503,38.4266597 L108.965503,57.3520654 C108.965503,57.6771411 109.076607,57.9514196 109.298819,58.1749091 C109.521031,58.3983987 109.793741,58.5101417 110.116958,58.5101417 L112.874391,58.5101417 C113.056201,58.5101417 113.202657,58.383161 113.313762,58.1291956 C113.424868,57.8752302 113.505671,57.4739709 113.556174,56.9254057 C113.606677,56.3768405 113.642028,55.6759065 113.662229,54.8225828 C113.68243,53.9692591 113.692531,52.9432544 113.692531,51.7445378 L117.995338,52.7807114 Z" id="预约礼"></path>
            </g>
        </g>
    </g>
</svg>