<svg xmlns="http://www.w3.org/2000/svg" width="34.542" height="16.452" viewBox="0 0 34.542 16.452">
  <path id="原价" d="M8.406-10.944l.171-.477q.081-.225.135-.423H4.3V-2.9q0,.828-.036,1.5t-.1,1.242A10.817,10.817,0,0,1,4,.918q-.108.5-.27,1.008H.756A7.415,7.415,0,0,0,1.107.99,9.593,9.593,0,0,0,1.368-.126a13.452,13.452,0,0,0,.162-1.35q.054-.738.054-1.638V-14.13H17.028v2.286H11.916q-.072.216-.153.45a3.742,3.742,0,0,1-.189.45h4.554V-4h-4.05v2.718q0,1.134-.081,1.962a2.385,2.385,0,0,1-.4,1.242H8.28A3.025,3.025,0,0,0,9.09.639a6.212,6.212,0,0,0,.252-1.917V-4H5.148v-6.948ZM4.428,1.926q.216-.54.432-1.233T5.247-.738q.171-.738.306-1.458t.225-1.3H8.46q-.072.666-.2,1.413T7.974-.6Q7.812.126,7.623.783T7.254,1.926Zm9.684,0q-.162-.468-.36-1.143T13.347-.639q-.207-.747-.4-1.494t-.315-1.359h2.682q.108.5.288,1.206T16-.837q.216.747.45,1.476t.468,1.287ZM8.046-8.28h5.238v-.738H8.046Zm5.238,2.358V-6.66H8.046v.738Zm5.436-.36a19.882,19.882,0,0,0,.711-1.944q.351-1.116.666-2.268t.558-2.2q.243-1.053.387-1.755h2.952q-.18.9-.441,1.989t-.567,2.2V1.926H20.178V-6.282ZM31.734-9.018q-.576-.954-1.17-2.178T29.5-13.572a19.047,19.047,0,0,1-1.035,2.358q-.585,1.116-1.2,2.2H23.616q.936-1.4,1.773-2.8a20.252,20.252,0,0,0,1.377-2.709H32.13q.27.63.639,1.341t.783,1.44q.414.729.864,1.431t.882,1.3ZM23.778,1.926a5.253,5.253,0,0,0,.6-1.188,10.26,10.26,0,0,0,.4-1.386A13.046,13.046,0,0,0,25-2.124q.072-.756.072-1.476V-8.5h2.9v4.9q0,.684-.036,1.431T27.81-.693a11.4,11.4,0,0,1-.261,1.4,6.014,6.014,0,0,1-.441,1.215ZM30.87-8.5h2.862V1.926H30.87Z" transform="translate(-0.756 14.526)" fill="#fff"/>
</svg>
