<svg xmlns="http://www.w3.org/2000/svg" width="34.207" height="36.515" viewBox="0 0 34.207 36.515">
  <path id="秒杀专场" d="M-3.454-2.092h2.6l-1.9,4.86L-8.78,2.751V.606h4.192Zm-2.7-11.435H-3.99V-1.758L-6.152-.747Zm-.6.773v9.176L-8.8-2.663v-10.09Zm5.432.035v8.754l-2.048.914v-9.668ZM-9.606-5.977l.536,8.095h-2.1l-.492-8.095ZM-11.9-6.829V1.907l-2.25.835V-6.829h-2.856V-8.868h2.856V-11.1l-2.716.264v-2.2l7.7-.7-.439,2.162-2.294.255v2.452h2.769l-.844,2.039Zm-5.106,8.974.571-8.121h2.057L-14.9,2.145ZM7.673-2.733H1.2V-4.887H7.673v-1.45h2.786v1.45h6.53L16.1-2.733H10.459V.747L7.761,2.8H5.95V.835H7.673ZM9.079-8.6,5.555-6.179H.932l5.792-3.929L1.38-13.518H5.818l3.076,1.951,3.05-2.065h4.482l-5.186,3.551L17.068-6.39H12.542Zm5.256,6.636,2.856,4.632h-3.12L11.188-1.969ZM.738,2.637,3.331-2.145h3L3.709,2.637ZM-5.01,21.354-2.6,22.681H-7.532l-6.6-3.507h5.142L-7.409,20l2.32-2.065h-11.9V16.282l1.072-2.892h-1.1V11.483h1.749l.712-2.118h-2.4V7.388h3.05l.29-.976h3l-.343.976H-.835l-.9,1.978h-9.853l-.712,2.118H-.809L-1.7,13.391H-12.911l-.844,2.47H-1.02v2.1ZM8.64,15.061H11.2L9.6,22.707H7.058ZM7.33,11.932l6-3.34L7.313,8.6v-2H17.06l.009,2.18-5.221,3.146,5.186.009-.009,8.7-2.136,2.136-1.406.009v-2.1h.905V13.892H7.33Zm4.377,3.12h2.487l-1.521,7.673H10.213Zm-9.053,5.52V10.438H.835V8.39H2.654V6.438H5.326V8.39h1.7l-.976,2.048H5.326V20.571H7.11l-.976,2.083H.835V20.571Z" transform="translate(17.016 13.737)" fill="#fff"/>
</svg>
