<svg xmlns="http://www.w3.org/2000/svg" width="58.4" height="18.28" viewBox="0 0 58.4 18.28">
  <path id="秒杀价" d="M3.48-9.4H.98v-2.36h2.5v-1.46l-2.3.16V-15.4l7.08-.56v2.38l-1.94.14v1.68H8.54V-9.4H6.32V2.14H3.48Zm9-6.74h2.84V-5.6q.22-.34.42-.69t.4-.69h3q-.58,1.14-1.36,2.41T16.12-2.08Q15.24-.86,14.32.24a19.3,19.3,0,0,1-1.8,1.9h-4A34.592,34.592,0,0,0,11.71-.93a34.1,34.1,0,0,0,2.71-3.35H12.48ZM8.56-5.34q.18-1.12.33-2.3t.26-2.37q.11-1.19.19-2.34t.14-2.21h2.4q-.12,2.2-.32,4.6t-.58,4.62ZM.82,1.68Q.98.04,1.1-1.51t.19-2.91q.07-1.36.12-2.48t.05-1.9H3q-.02,1.72-.1,4.41T2.62,1.68Zm16.02-9.4q-.3-1.72-.53-3.33t-.41-3.51h2.38q.2,1.7.43,3.34t.57,3.5ZM7.06.52Q7.04-.7,7-2.02T6.92-4.58q-.04-1.24-.08-2.34T6.76-8.8h1.4q.06.92.12,2.06T8.4-4.37q.06,1.23.1,2.49T8.58.52Zm19.7,1.62a6.356,6.356,0,0,0,.64-.84,4.969,4.969,0,0,0,.48-1,6.482,6.482,0,0,0,.3-1.25,11.366,11.366,0,0,0,.1-1.61V-4.74H21.32v-2.7h6.96V-8.62h3.36v1.18h6.98v2.7H31.64v2.18q0,.66-.04,1.33T31.46.07a10.568,10.568,0,0,1-.25,1.17,3.127,3.127,0,0,1-.39.9ZM33.92-8.38q-.94-.52-1.9-1.11t-1.98-1.23q-1.02.64-2.03,1.23T26.04-8.38H20.6q1.9-1.06,3.59-2.02t3.31-1.98q-1.38-.92-2.74-1.87t-2.64-1.89h4.66q.82.58,1.61,1.11t1.59,1.05q.76-.52,1.53-1.05t1.55-1.11h4.7q-1.22.94-2.53,1.89t-2.69,1.89q1.6.98,3.27,1.95t3.53,2.03ZM21.2,2.14A18.493,18.493,0,0,0,22.53-.78a16.585,16.585,0,0,0,.77-3.16h3.34q-.1.76-.29,1.59T25.91-.72q-.25.8-.54,1.53a13.134,13.134,0,0,1-.61,1.33Zm13.96,0Q34.92,1.7,34.62,1T34.04-.53q-.28-.83-.5-1.72a12.159,12.159,0,0,1-.3-1.67H36.5a15.847,15.847,0,0,0,2.18,6.06ZM40.8-6.98a22.09,22.09,0,0,0,.79-2.16q.39-1.24.74-2.52t.62-2.45q.27-1.17.43-1.95h3.28q-.2,1-.49,2.21t-.63,2.45V2.14H42.42V-6.98Zm14.46-3.04q-.64-1.06-1.3-2.42t-1.18-2.64a21.163,21.163,0,0,1-1.15,2.62q-.65,1.24-1.33,2.44H46.24q1.04-1.56,1.97-3.11a22.5,22.5,0,0,0,1.53-3.01H55.7q.3.7.71,1.49t.87,1.6q.46.81.96,1.59t.98,1.44ZM46.42,2.14A5.836,5.836,0,0,0,47.09.82a11.4,11.4,0,0,0,.44-1.54,14.5,14.5,0,0,0,.25-1.64q.08-.84.08-1.64V-9.44h3.22V-4q0,.76-.04,1.59T50.9-.77A12.669,12.669,0,0,1,50.61.79a6.683,6.683,0,0,1-.49,1.35ZM54.3-9.44h3.18V2.14H54.3Z" transform="translate(-0.82 16.14)" fill="#fff"/>
</svg>
